<?xml version="1.0" encoding="UTF-8" standalone="no"?>
<!-- Created with Inkscape (http://www.inkscape.org/) -->

<svg
   xmlns:dc="http://purl.org/dc/elements/1.1/"
   xmlns:cc="http://creativecommons.org/ns#"
   xmlns:rdf="http://www.w3.org/1999/02/22-rdf-syntax-ns#"
   xmlns:svg="http://www.w3.org/2000/svg"
   xmlns="http://www.w3.org/2000/svg"
   xmlns:sodipodi="http://sodipodi.sourceforge.net/DTD/sodipodi-0.dtd"
   xmlns:inkscape="http://www.inkscape.org/namespaces/inkscape"
   width="25.0mm"
   height="25.0mm"
   viewBox="0 0 25.0 25.0"
   version="1.1"
   id="svg8"
   inkscape:version="0.92.4 (5da689c313, 2019-01-14)"
   sodipodi:docname="TouchPadOrnament.svg">
  <defs
     id="defs2" />
  <sodipodi:namedview
     id="base"
     pagecolor="#ffffff"
     bordercolor="#666666"
     borderopacity="1.0"
     inkscape:pageopacity="0.0"
     inkscape:pageshadow="2"
     inkscape:zoom="5.6"
     inkscape:cx="17.894377"
     inkscape:cy="40.577149"
     inkscape:document-units="mm"
     inkscape:current-layer="g832"
     showgrid="true"
     inkscape:window-width="1920"
     inkscape:window-height="1019"
     inkscape:window-x="0"
     inkscape:window-y="27"
     inkscape:window-maximized="1"
     borderlayer="true"
     inkscape:snap-global="false">
    <inkscape:grid
       id="grid816"
       units="mm"
       type="xygrid"
       empspacing="1"
       spacingy="2.54"
       spacingx="2.54" />
  </sodipodi:namedview>
  <metadata
     id="metadata5">
    <rdf:RDF>
      <cc:Work
         rdf:about="">
        <dc:format>image/svg+xml</dc:format>
        <dc:type
           rdf:resource="http://purl.org/dc/dcmitype/StillImage" />
        <dc:title></dc:title>
      </cc:Work>
    </rdf:RDF>
  </metadata>
  <g
     id="g822"
     sodipodi:insensitive="true"
     inkscape:groupmode="layer"
     inkscape:label="[fixed] BG">
    <rect
       id="rect820"
       style="stroke:none;fill-opacity:1;fill:#FFFFFF"
       height="25.0"
       width="25.0"
       y="0"
       x="0" />
  </g>
  <g
     id="g824"
     inkscape:groupmode="layer"
     inkscape:label="Edge.Cuts" />
  <g
     id="g826"
     inkscape:groupmode="layer"
     inkscape:label="B.Cu-disabled" />
  <g
     id="g828"
     inkscape:groupmode="layer"
     inkscape:label="B.Mask-disabled" />
  <g
     id="g830"
     inkscape:groupmode="layer"
     inkscape:label="B.Silk-disabled" />
  <g
     id="g832"
     inkscape:groupmode="layer"
     inkscape:label="F.Cu"
     style="display:inline">
    <rect
       style="fill:#000000;fill-opacity:1;stroke:#000000;stroke-width:0.10262617;stroke-miterlimit:4;stroke-dasharray:none;stroke-opacity:1"
       id="rect852"
       width="20.317373"
       height="21.404055"
       x="2.5413129"
       y="1.7160901" />
  </g>
  <g
     id="g834"
     inkscape:groupmode="layer"
     inkscape:label="F.Mask"
     style="display:inline">
    <path
       inkscape:connector-curvature="0"
       d="m 18.867872,16.646223 c 0.30079,0.09684 0.45075,0.426757 0.329923,0.71383 -0.115691,0.273357 -0.424186,0.413043 -0.708687,0.320481 -2.24261,-0.732679 -3.733683,-1.777287 -4.528921,-3.164673 -0.151674,-0.263932 -0.05826,-0.599856 0.208224,-0.74982 0.266523,-0.149957 0.605857,-0.05742 0.756676,0.206507 0.659846,1.149158 1.958105,2.03266 3.942775,2.673649 z m -7.3611,-0.523587 c -0.727544,0.420755 -1.9461085,1.126873 -4.4792191,1.873266 -0.3513454,0.10368 -0.5115926,0.506452 -0.3273512,0.819234 0.1062551,0.196241 0.3616287,0.318798 0.6144253,0.244241 2.3163049,-0.679554 3.601714,-1.334253 4.406376,-1.78843 0.799527,-0.45075 0.874078,-0.458465 1.631613,0.09424 0.733538,0.536444 1.97953,1.317113 4.193858,2.122638 0.253665,0.09168 0.523589,-0.02138 0.640134,-0.213374 0.196241,-0.299915 0.06087,-0.703546 -0.277664,-0.826946 -2.641944,-0.963197 -3.792812,-1.873267 -4.365246,-2.326586 -0.742109,-0.587005 -0.990621,-0.604144 -2.036943,0.0017 z m -0.22539,2.629085 c -0.546727,0.281065 -1.3711005,0.704405 -2.7859059,1.193717 -0.1842405,0.06341 -0.3213528,0.215964 -0.3641992,0.404474 -0.092555,0.407045 0.2939297,0.784099 0.6769809,0.652989 1.5184942,-0.520162 2.4019992,-0.975198 2.9838612,-1.274266 0.443893,-0.228791 0.715543,-0.275075 1.224563,-8.59e-4 0.644419,0.346203 1.660749,0.89293 3.07898,1.461078 0.401048,0.1611 0.80981,-0.193649 0.733542,-0.611853 -0.03426,-0.189373 -0.163689,-0.347058 -0.343632,-0.4199 -1.352252,-0.544154 -2.323163,-1.066033 -2.940159,-1.397665 -0.970912,-0.521874 -1.084028,-0.614425 -2.264031,-0.0077 z m -0.594716,2.785051 c -0.195398,0.09085 -0.316206,0.288805 -0.306781,0.502167 0.01458,0.331635 0.315364,0.522733 0.59386,0.522733 0.07799,0 0.155108,-0.01555 0.222799,-0.04712 1.456795,-0.678696 0.951201,-0.719829 2.593955,0.0042 0.06513,0.02914 0.137973,0.04284 0.214247,0.04284 0.274232,0 0.580145,-0.181665 0.598143,-0.516736 0.01199,-0.219364 -0.114817,-0.422467 -0.317081,-0.51159 -2.138918,-0.938336 -1.565627,-0.939191 -3.599142,0.0036 z M 12.703899,9.3631044 c 0.119124,-0.280223 -0.01458,-0.6032858 -0.296481,-0.7206867 -0.282783,-0.1174074 -0.607571,0.013603 -0.726686,0.2939232 -0.906641,2.1406321 -3.1972375,3.7910971 -6.2153754,4.5186371 -0.2870731,0.06941 -0.4721732,0.346204 -0.4241847,0.634991 0.051417,0.309372 0.3573435,0.51245 0.6684121,0.437895 2.9727203,-0.71383 5.813472,-2.376289 6.994331,-5.1647661 z m 0.554442,3.5442966 c 0.704401,-0.798666 1.264841,-1.683885 1.665889,-2.631658 0.402759,-0.9520583 0.333348,-1.9118317 -0.195399,-2.7019264 -0.553583,-0.8260911 -1.555345,-1.339396 -2.614521,-1.339396 -0.598142,0 -1.174005,0.1645323 -1.665889,0.4756017 C 9.9111213,7.0510834 9.4869371,7.562675 9.2212866,8.1890957 8.6668464,9.4976418 7.2126225,10.549961 5.2330938,11.112114 c -0.2467983,0.07029 -0.4156151,0.29564 -0.4113305,0.551011 0.006,0.356488 0.3513449,0.609285 0.6966913,0.511592 2.3137342,-0.656412 4.0396092,-1.939252 4.7260144,-3.5588642 0.380481,-0.8997871 1.132873,-1.280268 1.869841,-1.280268 1.223709,0 2.407997,1.0488929 1.786717,2.5151142 -1.310261,3.095262 -4.3789552,5.087648 -7.846986,5.962579 -0.1525357,0.03857 -0.2827882,0.138817 -0.3573433,0.276791 -0.074555,0.137973 -0.089122,0.30079 -0.037707,0.448178 0.091691,0.265649 0.3736252,0.415615 0.6469886,0.34706 1.7001662,-0.427612 3.2726493,-1.096883 4.6034747,-1.965817 0.89807,-0.587004 1.688168,-1.263129 2.348869,-2.012094 z M 8.2718278,7.594383 C 8.522911,7.1650543 8.7611395,6.7597221 9.1707556,6.3826712 10.139098,5.4905957 11.451926,5.0604152 12.773327,5.200951 c 1.24513,0.1328241 2.34287,0.7558214 3.011282,1.7078801 0.925494,1.3188293 0.693261,2.6282305 0.468746,3.8939299 -0.192808,1.082311 -0.390764,2.201474 0.22539,3.180956 0.465315,0.739536 1.346249,1.30083 2.722492,1.719017 0.290491,0.08826 0.599002,-0.08399 0.672698,-0.376195 0.07456,-0.29564 -0.09684,-0.596429 -0.390764,-0.687265 C 18.415424,14.311922 17.735016,13.902305 17.42052,13.401855 17.0289,12.779715 17.176281,11.952769 17.34596,10.993858 17.585052,9.647606 17.88155,7.9722922 16.695548,6.2806937 15.84375,5.0664135 14.458082,4.2746022 12.892454,4.1074983 11.252272,3.9318245 9.6206616,4.4674126 8.4166636,5.5771468 7.8853606,6.0647451 7.5811476,6.5831933 7.3129266,7.0408001 6.8904556,7.7606286 6.5339688,8.3656278 5.3316839,8.7589602 5.1414452,8.8215019 4.9906222,8.9826333 4.9589155,9.2217071 4.9074991,9.6159006 5.2896939,9.9303968 5.6718887,9.8061396 7.2820639,9.27998 7.7833723,8.4256108 8.2718278,7.594383 Z M 6.5065337,6.1461562 6.8381691,5.6559862 C 8.1655673,3.756154 10.511008,2.824662 13.113529,3.1631514 c 2.473127,0.3221981 4.50407,1.725875 5.17334,3.5760042 0.593002,1.6401821 0.359057,2.9641511 0.170524,4.0284704 -0.162815,0.918637 -0.303348,1.71302 0.188533,2.349725 0.199673,0.258781 0.484168,0.458461 0.874932,0.608425 0.325641,0.125116 0.682125,-0.08997 0.721545,-0.432752 0.03012,-0.258782 -0.117408,-0.505594 -0.359915,-0.605857 -0.16709,-0.06856 -0.286215,-0.148241 -0.356487,-0.23909 -0.19624,-0.252791 -0.09939,-0.799526 0.023,-1.490218 0.199675,-1.1294464 0.47389,-2.6762203 -0.218523,-4.5906207 -0.968194,-2.6762138 -4.066884,-4.372094 -7.244412,-4.372094 -2.1132118,0 -4.1647213,0.7558215 -5.6155186,2.3531541 C 6.1046297,4.7579156 5.8792546,5.0535586 5.6607355,5.5557251 5.517628,5.8830763 5.5733294,6.1195914 5.813271,6.282407 6.0489279,6.442664 6.3505715,6.3809644 6.5065343,6.1461498 Z"
       id="path1491"
       style="stroke-width:0.85693854" />
  </g>
  <g
     id="g836"
     inkscape:groupmode="layer"
     inkscape:label="F.Silk-disabled" />
  <g
     id="g838"
     inkscape:groupmode="layer"
     inkscape:label="Drill" />
</svg>
