G04 #@! TF.GenerationSoftware,KiCad,Pcbnew,5.1.4-e60b266~84~ubuntu19.04.1*
G04 #@! TF.CreationDate,2019-09-15T18:03:26+02:00*
G04 #@! TF.ProjectId,TouchSensorDev,546f7563-6853-4656-9e73-6f724465762e,rev?*
G04 #@! TF.SameCoordinates,Original*
G04 #@! TF.FileFunction,Copper,L2,Bot*
G04 #@! TF.FilePolarity,Positive*
%FSLAX46Y46*%
G04 Gerber Fmt 4.6, Leading zero omitted, Abs format (unit mm)*
G04 Created by KiCad (PCBNEW 5.1.4-e60b266~84~ubuntu19.04.1) date 2019-09-15 18:03:26*
%MOMM*%
%LPD*%
G04 APERTURE LIST*
%ADD10C,0.010000*%
%ADD11C,20.000000*%
%ADD12O,1.700000X1.700000*%
%ADD13R,1.700000X1.700000*%
%ADD14C,0.800000*%
%ADD15C,0.250000*%
G04 APERTURE END LIST*
D10*
G36*
X86362494Y-54274917D02*
G01*
X86373500Y-56232833D01*
X86881500Y-56232833D01*
X86894787Y-56071600D01*
X86908074Y-55910366D01*
X87069772Y-56056451D01*
X87271611Y-56186150D01*
X87523829Y-56265937D01*
X87805757Y-56291945D01*
X88096720Y-56260305D01*
X88125135Y-56253912D01*
X88331315Y-56172643D01*
X88490986Y-56034111D01*
X88607517Y-55832924D01*
X88684274Y-55563689D01*
X88718636Y-55303764D01*
X88738589Y-54858679D01*
X88719345Y-54470995D01*
X88681505Y-54257002D01*
X88151500Y-54257002D01*
X88151500Y-55541664D01*
X88028010Y-55647885D01*
X87959988Y-55700294D01*
X87891202Y-55730627D01*
X87797991Y-55743443D01*
X87656692Y-55743302D01*
X87552707Y-55739470D01*
X87374248Y-55729444D01*
X87256906Y-55712993D01*
X87177131Y-55683490D01*
X87111374Y-55634310D01*
X87083530Y-55607454D01*
X87037228Y-55558888D01*
X87005055Y-55511240D01*
X86984440Y-55448895D01*
X86972810Y-55356235D01*
X86967594Y-55217643D01*
X86966218Y-55017502D01*
X86966167Y-54894898D01*
X86966167Y-54299721D01*
X87104418Y-54176194D01*
X87181221Y-54113637D01*
X87255007Y-54076698D01*
X87351358Y-54058710D01*
X87495854Y-54053004D01*
X87578307Y-54052667D01*
X87755009Y-54055865D01*
X87871887Y-54069167D01*
X87953663Y-54098129D01*
X88025057Y-54148310D01*
X88032723Y-54154834D01*
X88151500Y-54257002D01*
X88681505Y-54257002D01*
X88661778Y-54145445D01*
X88566762Y-53886766D01*
X88435169Y-53699694D01*
X88420203Y-53685268D01*
X88257693Y-53585263D01*
X88045247Y-53526090D01*
X87804817Y-53506397D01*
X87558357Y-53524833D01*
X87327819Y-53580045D01*
X87135156Y-53670681D01*
X87020025Y-53771487D01*
X86994224Y-53799569D01*
X86975305Y-53803760D01*
X86962183Y-53774078D01*
X86953774Y-53700541D01*
X86948992Y-53573168D01*
X86946755Y-53381977D01*
X86945977Y-53116987D01*
X86945941Y-53089583D01*
X86945000Y-52317000D01*
X86351488Y-52317000D01*
X86362494Y-54274917D01*
X86362494Y-54274917D01*
G37*
X86362494Y-54274917D02*
X86373500Y-56232833D01*
X86881500Y-56232833D01*
X86894787Y-56071600D01*
X86908074Y-55910366D01*
X87069772Y-56056451D01*
X87271611Y-56186150D01*
X87523829Y-56265937D01*
X87805757Y-56291945D01*
X88096720Y-56260305D01*
X88125135Y-56253912D01*
X88331315Y-56172643D01*
X88490986Y-56034111D01*
X88607517Y-55832924D01*
X88684274Y-55563689D01*
X88718636Y-55303764D01*
X88738589Y-54858679D01*
X88719345Y-54470995D01*
X88681505Y-54257002D01*
X88151500Y-54257002D01*
X88151500Y-55541664D01*
X88028010Y-55647885D01*
X87959988Y-55700294D01*
X87891202Y-55730627D01*
X87797991Y-55743443D01*
X87656692Y-55743302D01*
X87552707Y-55739470D01*
X87374248Y-55729444D01*
X87256906Y-55712993D01*
X87177131Y-55683490D01*
X87111374Y-55634310D01*
X87083530Y-55607454D01*
X87037228Y-55558888D01*
X87005055Y-55511240D01*
X86984440Y-55448895D01*
X86972810Y-55356235D01*
X86967594Y-55217643D01*
X86966218Y-55017502D01*
X86966167Y-54894898D01*
X86966167Y-54299721D01*
X87104418Y-54176194D01*
X87181221Y-54113637D01*
X87255007Y-54076698D01*
X87351358Y-54058710D01*
X87495854Y-54053004D01*
X87578307Y-54052667D01*
X87755009Y-54055865D01*
X87871887Y-54069167D01*
X87953663Y-54098129D01*
X88025057Y-54148310D01*
X88032723Y-54154834D01*
X88151500Y-54257002D01*
X88681505Y-54257002D01*
X88661778Y-54145445D01*
X88566762Y-53886766D01*
X88435169Y-53699694D01*
X88420203Y-53685268D01*
X88257693Y-53585263D01*
X88045247Y-53526090D01*
X87804817Y-53506397D01*
X87558357Y-53524833D01*
X87327819Y-53580045D01*
X87135156Y-53670681D01*
X87020025Y-53771487D01*
X86994224Y-53799569D01*
X86975305Y-53803760D01*
X86962183Y-53774078D01*
X86953774Y-53700541D01*
X86948992Y-53573168D01*
X86946755Y-53381977D01*
X86945977Y-53116987D01*
X86945941Y-53089583D01*
X86945000Y-52317000D01*
X86351488Y-52317000D01*
X86362494Y-54274917D01*
G36*
X84413923Y-53528882D02*
G01*
X84191464Y-53538449D01*
X84006046Y-53552444D01*
X83877455Y-53570587D01*
X83846200Y-53579001D01*
X83672616Y-53678502D01*
X83523562Y-53832345D01*
X83423776Y-54012331D01*
X83403558Y-54083511D01*
X83394327Y-54171083D01*
X83385975Y-54328993D01*
X83378924Y-54542914D01*
X83373593Y-54798520D01*
X83370401Y-55081483D01*
X83369720Y-55238000D01*
X83367833Y-56232833D01*
X83875833Y-56232833D01*
X83918167Y-55907509D01*
X84024000Y-56022710D01*
X84138358Y-56120723D01*
X84265996Y-56195916D01*
X84267332Y-56196488D01*
X84405476Y-56234986D01*
X84595514Y-56262614D01*
X84805120Y-56277200D01*
X85001970Y-56276572D01*
X85153739Y-56258558D01*
X85161801Y-56256600D01*
X85377787Y-56167169D01*
X85533460Y-56022583D01*
X85630906Y-55819640D01*
X85672212Y-55555141D01*
X85674005Y-55470833D01*
X85670776Y-55432661D01*
X85124667Y-55432661D01*
X85114368Y-55580752D01*
X85074898Y-55681822D01*
X84993394Y-55744374D01*
X84856997Y-55776912D01*
X84652843Y-55787940D01*
X84586749Y-55788333D01*
X84410063Y-55786039D01*
X84293539Y-55775118D01*
X84212714Y-55749507D01*
X84143122Y-55703146D01*
X84102824Y-55668445D01*
X84020911Y-55582007D01*
X83975745Y-55487796D01*
X83952650Y-55351536D01*
X83948747Y-55308611D01*
X83928849Y-55068667D01*
X84449341Y-55068667D01*
X84702537Y-55071495D01*
X84883260Y-55084335D01*
X85003630Y-55113720D01*
X85075770Y-55166184D01*
X85111801Y-55248260D01*
X85123844Y-55366481D01*
X85124667Y-55432661D01*
X85670776Y-55432661D01*
X85649580Y-55182133D01*
X85577454Y-54961640D01*
X85456523Y-54806870D01*
X85348273Y-54738990D01*
X85265667Y-54709159D01*
X85161786Y-54688661D01*
X85020878Y-54676106D01*
X84827191Y-54670102D01*
X84564971Y-54669257D01*
X84559226Y-54669282D01*
X83930286Y-54672064D01*
X83948187Y-54424583D01*
X83960279Y-54290118D01*
X83981938Y-54190452D01*
X84024571Y-54120373D01*
X84099583Y-54074675D01*
X84218380Y-54048145D01*
X84392368Y-54035576D01*
X84632953Y-54031758D01*
X84808825Y-54031500D01*
X85505715Y-54031500D01*
X85505691Y-53810056D01*
X85501932Y-53679152D01*
X85483152Y-53608272D01*
X85438040Y-53572858D01*
X85389250Y-53557226D01*
X85278405Y-53540469D01*
X85105663Y-53529535D01*
X84890810Y-53524145D01*
X84653634Y-53524021D01*
X84413923Y-53528882D01*
X84413923Y-53528882D01*
G37*
X84413923Y-53528882D02*
X84191464Y-53538449D01*
X84006046Y-53552444D01*
X83877455Y-53570587D01*
X83846200Y-53579001D01*
X83672616Y-53678502D01*
X83523562Y-53832345D01*
X83423776Y-54012331D01*
X83403558Y-54083511D01*
X83394327Y-54171083D01*
X83385975Y-54328993D01*
X83378924Y-54542914D01*
X83373593Y-54798520D01*
X83370401Y-55081483D01*
X83369720Y-55238000D01*
X83367833Y-56232833D01*
X83875833Y-56232833D01*
X83918167Y-55907509D01*
X84024000Y-56022710D01*
X84138358Y-56120723D01*
X84265996Y-56195916D01*
X84267332Y-56196488D01*
X84405476Y-56234986D01*
X84595514Y-56262614D01*
X84805120Y-56277200D01*
X85001970Y-56276572D01*
X85153739Y-56258558D01*
X85161801Y-56256600D01*
X85377787Y-56167169D01*
X85533460Y-56022583D01*
X85630906Y-55819640D01*
X85672212Y-55555141D01*
X85674005Y-55470833D01*
X85670776Y-55432661D01*
X85124667Y-55432661D01*
X85114368Y-55580752D01*
X85074898Y-55681822D01*
X84993394Y-55744374D01*
X84856997Y-55776912D01*
X84652843Y-55787940D01*
X84586749Y-55788333D01*
X84410063Y-55786039D01*
X84293539Y-55775118D01*
X84212714Y-55749507D01*
X84143122Y-55703146D01*
X84102824Y-55668445D01*
X84020911Y-55582007D01*
X83975745Y-55487796D01*
X83952650Y-55351536D01*
X83948747Y-55308611D01*
X83928849Y-55068667D01*
X84449341Y-55068667D01*
X84702537Y-55071495D01*
X84883260Y-55084335D01*
X85003630Y-55113720D01*
X85075770Y-55166184D01*
X85111801Y-55248260D01*
X85123844Y-55366481D01*
X85124667Y-55432661D01*
X85670776Y-55432661D01*
X85649580Y-55182133D01*
X85577454Y-54961640D01*
X85456523Y-54806870D01*
X85348273Y-54738990D01*
X85265667Y-54709159D01*
X85161786Y-54688661D01*
X85020878Y-54676106D01*
X84827191Y-54670102D01*
X84564971Y-54669257D01*
X84559226Y-54669282D01*
X83930286Y-54672064D01*
X83948187Y-54424583D01*
X83960279Y-54290118D01*
X83981938Y-54190452D01*
X84024571Y-54120373D01*
X84099583Y-54074675D01*
X84218380Y-54048145D01*
X84392368Y-54035576D01*
X84632953Y-54031758D01*
X84808825Y-54031500D01*
X85505715Y-54031500D01*
X85505691Y-53810056D01*
X85501932Y-53679152D01*
X85483152Y-53608272D01*
X85438040Y-53572858D01*
X85389250Y-53557226D01*
X85278405Y-53540469D01*
X85105663Y-53529535D01*
X84890810Y-53524145D01*
X84653634Y-53524021D01*
X84413923Y-53528882D01*
G36*
X76636833Y-53514681D02*
G01*
X76417725Y-53529475D01*
X76269372Y-53547591D01*
X76177981Y-53576842D01*
X76129762Y-53625042D01*
X76110922Y-53700004D01*
X76107668Y-53809540D01*
X76107667Y-53814451D01*
X76107667Y-54032844D01*
X76566811Y-54017129D01*
X76791739Y-54012510D01*
X76951173Y-54017835D01*
X77063884Y-54034776D01*
X77148639Y-54065005D01*
X77158223Y-54069811D01*
X77249283Y-54125215D01*
X77314171Y-54191891D01*
X77357183Y-54284330D01*
X77382616Y-54417023D01*
X77394768Y-54604458D01*
X77397934Y-54861126D01*
X77397933Y-54878167D01*
X77391245Y-55184426D01*
X77365449Y-55415997D01*
X77311411Y-55582265D01*
X77219998Y-55692618D01*
X77082078Y-55756443D01*
X76888518Y-55783127D01*
X76630184Y-55782058D01*
X76523541Y-55776907D01*
X76107667Y-55753991D01*
X76107667Y-55978300D01*
X76116636Y-56128200D01*
X76145769Y-56208197D01*
X76171144Y-56226966D01*
X76261001Y-56244981D01*
X76412393Y-56259204D01*
X76602252Y-56269079D01*
X76807507Y-56274048D01*
X77005091Y-56273554D01*
X77171932Y-56267038D01*
X77284962Y-56253944D01*
X77285200Y-56253893D01*
X77542349Y-56164456D01*
X77736389Y-56018615D01*
X77859295Y-55834473D01*
X77893268Y-55752855D01*
X77917511Y-55667655D01*
X77933624Y-55562995D01*
X77943203Y-55422996D01*
X77947848Y-55231777D01*
X77949158Y-54973459D01*
X77949167Y-54941667D01*
X77947531Y-54663331D01*
X77941726Y-54453869D01*
X77930403Y-54297535D01*
X77912214Y-54178584D01*
X77885813Y-54081268D01*
X77872336Y-54044056D01*
X77760229Y-53836997D01*
X77600624Y-53682523D01*
X77387457Y-53578035D01*
X77114668Y-53520937D01*
X76776192Y-53508631D01*
X76636833Y-53514681D01*
X76636833Y-53514681D01*
G37*
X76636833Y-53514681D02*
X76417725Y-53529475D01*
X76269372Y-53547591D01*
X76177981Y-53576842D01*
X76129762Y-53625042D01*
X76110922Y-53700004D01*
X76107668Y-53809540D01*
X76107667Y-53814451D01*
X76107667Y-54032844D01*
X76566811Y-54017129D01*
X76791739Y-54012510D01*
X76951173Y-54017835D01*
X77063884Y-54034776D01*
X77148639Y-54065005D01*
X77158223Y-54069811D01*
X77249283Y-54125215D01*
X77314171Y-54191891D01*
X77357183Y-54284330D01*
X77382616Y-54417023D01*
X77394768Y-54604458D01*
X77397934Y-54861126D01*
X77397933Y-54878167D01*
X77391245Y-55184426D01*
X77365449Y-55415997D01*
X77311411Y-55582265D01*
X77219998Y-55692618D01*
X77082078Y-55756443D01*
X76888518Y-55783127D01*
X76630184Y-55782058D01*
X76523541Y-55776907D01*
X76107667Y-55753991D01*
X76107667Y-55978300D01*
X76116636Y-56128200D01*
X76145769Y-56208197D01*
X76171144Y-56226966D01*
X76261001Y-56244981D01*
X76412393Y-56259204D01*
X76602252Y-56269079D01*
X76807507Y-56274048D01*
X77005091Y-56273554D01*
X77171932Y-56267038D01*
X77284962Y-56253944D01*
X77285200Y-56253893D01*
X77542349Y-56164456D01*
X77736389Y-56018615D01*
X77859295Y-55834473D01*
X77893268Y-55752855D01*
X77917511Y-55667655D01*
X77933624Y-55562995D01*
X77943203Y-55422996D01*
X77947848Y-55231777D01*
X77949158Y-54973459D01*
X77949167Y-54941667D01*
X77947531Y-54663331D01*
X77941726Y-54453869D01*
X77930403Y-54297535D01*
X77912214Y-54178584D01*
X77885813Y-54081268D01*
X77872336Y-54044056D01*
X77760229Y-53836997D01*
X77600624Y-53682523D01*
X77387457Y-53578035D01*
X77114668Y-53520937D01*
X76776192Y-53508631D01*
X76636833Y-53514681D01*
G36*
X89848135Y-54379810D02*
G01*
X89716225Y-54749101D01*
X89592798Y-55094695D01*
X89480835Y-55408242D01*
X89383316Y-55681394D01*
X89303221Y-55905803D01*
X89243530Y-56073119D01*
X89207224Y-56174996D01*
X89197270Y-56203044D01*
X89206404Y-56231638D01*
X89267668Y-56246107D01*
X89393837Y-56248323D01*
X89486323Y-56245378D01*
X89794542Y-56232833D01*
X89952890Y-55809500D01*
X90111239Y-55386167D01*
X91663431Y-55386167D01*
X91967059Y-56232833D01*
X92574929Y-56257701D01*
X92427357Y-55843100D01*
X92377186Y-55702550D01*
X92302997Y-55495268D01*
X92209430Y-55234190D01*
X92101125Y-54932252D01*
X92058918Y-54814667D01*
X91471926Y-54814667D01*
X90293089Y-54814667D01*
X90350518Y-54655917D01*
X90386741Y-54555573D01*
X90444022Y-54396657D01*
X90514758Y-54200264D01*
X90591351Y-53987489D01*
X90598364Y-53968000D01*
X90674157Y-53758551D01*
X90744128Y-53567326D01*
X90801008Y-53414046D01*
X90837530Y-53318432D01*
X90840174Y-53311833D01*
X90891566Y-53184833D01*
X90967174Y-53396500D01*
X91008866Y-53513389D01*
X91071462Y-53689101D01*
X91147502Y-53902683D01*
X91229525Y-54133185D01*
X91257355Y-54211417D01*
X91471926Y-54814667D01*
X92058918Y-54814667D01*
X91982722Y-54602392D01*
X91858861Y-54257546D01*
X91777625Y-54031500D01*
X91275466Y-52634500D01*
X90877650Y-52622976D01*
X90479833Y-52611453D01*
X89848135Y-54379810D01*
X89848135Y-54379810D01*
G37*
X89848135Y-54379810D02*
X89716225Y-54749101D01*
X89592798Y-55094695D01*
X89480835Y-55408242D01*
X89383316Y-55681394D01*
X89303221Y-55905803D01*
X89243530Y-56073119D01*
X89207224Y-56174996D01*
X89197270Y-56203044D01*
X89206404Y-56231638D01*
X89267668Y-56246107D01*
X89393837Y-56248323D01*
X89486323Y-56245378D01*
X89794542Y-56232833D01*
X89952890Y-55809500D01*
X90111239Y-55386167D01*
X91663431Y-55386167D01*
X91967059Y-56232833D01*
X92574929Y-56257701D01*
X92427357Y-55843100D01*
X92377186Y-55702550D01*
X92302997Y-55495268D01*
X92209430Y-55234190D01*
X92101125Y-54932252D01*
X92058918Y-54814667D01*
X91471926Y-54814667D01*
X90293089Y-54814667D01*
X90350518Y-54655917D01*
X90386741Y-54555573D01*
X90444022Y-54396657D01*
X90514758Y-54200264D01*
X90591351Y-53987489D01*
X90598364Y-53968000D01*
X90674157Y-53758551D01*
X90744128Y-53567326D01*
X90801008Y-53414046D01*
X90837530Y-53318432D01*
X90840174Y-53311833D01*
X90891566Y-53184833D01*
X90967174Y-53396500D01*
X91008866Y-53513389D01*
X91071462Y-53689101D01*
X91147502Y-53902683D01*
X91229525Y-54133185D01*
X91257355Y-54211417D01*
X91471926Y-54814667D01*
X92058918Y-54814667D01*
X91982722Y-54602392D01*
X91858861Y-54257546D01*
X91777625Y-54031500D01*
X91275466Y-52634500D01*
X90877650Y-52622976D01*
X90479833Y-52611453D01*
X89848135Y-54379810D01*
G36*
X80983910Y-53508702D02*
G01*
X80762796Y-53564169D01*
X80576624Y-53664138D01*
X80443776Y-53807689D01*
X80436005Y-53821023D01*
X80404545Y-53851788D01*
X80355919Y-53836321D01*
X80272416Y-53767267D01*
X80245000Y-53741698D01*
X80039238Y-53604538D01*
X79779759Y-53526231D01*
X79476083Y-53509329D01*
X79398172Y-53514648D01*
X79174059Y-53556347D01*
X79006948Y-53642748D01*
X78875492Y-53786460D01*
X78838167Y-53845425D01*
X78812551Y-53894446D01*
X78792419Y-53951423D01*
X78776946Y-54027065D01*
X78765307Y-54132080D01*
X78756678Y-54277175D01*
X78750233Y-54473059D01*
X78745147Y-54730440D01*
X78740596Y-55060025D01*
X78739845Y-55121583D01*
X78726189Y-56254000D01*
X79275951Y-56254000D01*
X79289892Y-55234205D01*
X79294448Y-54914770D01*
X79299016Y-54669240D01*
X79304708Y-54486857D01*
X79312638Y-54356866D01*
X79323917Y-54268510D01*
X79339660Y-54211035D01*
X79360980Y-54173683D01*
X79388987Y-54145700D01*
X79403773Y-54133538D01*
X79513048Y-54084248D01*
X79672593Y-54056346D01*
X79850348Y-54051475D01*
X80014252Y-54071274D01*
X80097873Y-54098012D01*
X80165106Y-54133026D01*
X80217333Y-54176357D01*
X80256632Y-54238538D01*
X80285083Y-54330106D01*
X80304764Y-54461595D01*
X80317756Y-54643542D01*
X80326136Y-54886481D01*
X80331983Y-55200947D01*
X80333278Y-55290917D01*
X80346723Y-56254000D01*
X80891333Y-56254000D01*
X80894424Y-55439083D01*
X80897994Y-55061823D01*
X80906150Y-54760766D01*
X80919813Y-54527528D01*
X80939908Y-54353724D01*
X80967358Y-54230969D01*
X81003086Y-54150881D01*
X81040795Y-54109985D01*
X81133809Y-54075987D01*
X81288924Y-54056241D01*
X81405064Y-54052667D01*
X81571087Y-54057666D01*
X81681408Y-54077480D01*
X81764648Y-54119327D01*
X81809723Y-54154751D01*
X81928500Y-54256836D01*
X81949667Y-55244835D01*
X81970833Y-56232833D01*
X82256583Y-56245351D01*
X82542333Y-56257868D01*
X82542333Y-53544667D01*
X81992000Y-53544667D01*
X81992000Y-53896321D01*
X81850138Y-53750250D01*
X81673079Y-53618510D01*
X81457433Y-53534952D01*
X81221582Y-53498656D01*
X80983910Y-53508702D01*
X80983910Y-53508702D01*
G37*
X80983910Y-53508702D02*
X80762796Y-53564169D01*
X80576624Y-53664138D01*
X80443776Y-53807689D01*
X80436005Y-53821023D01*
X80404545Y-53851788D01*
X80355919Y-53836321D01*
X80272416Y-53767267D01*
X80245000Y-53741698D01*
X80039238Y-53604538D01*
X79779759Y-53526231D01*
X79476083Y-53509329D01*
X79398172Y-53514648D01*
X79174059Y-53556347D01*
X79006948Y-53642748D01*
X78875492Y-53786460D01*
X78838167Y-53845425D01*
X78812551Y-53894446D01*
X78792419Y-53951423D01*
X78776946Y-54027065D01*
X78765307Y-54132080D01*
X78756678Y-54277175D01*
X78750233Y-54473059D01*
X78745147Y-54730440D01*
X78740596Y-55060025D01*
X78739845Y-55121583D01*
X78726189Y-56254000D01*
X79275951Y-56254000D01*
X79289892Y-55234205D01*
X79294448Y-54914770D01*
X79299016Y-54669240D01*
X79304708Y-54486857D01*
X79312638Y-54356866D01*
X79323917Y-54268510D01*
X79339660Y-54211035D01*
X79360980Y-54173683D01*
X79388987Y-54145700D01*
X79403773Y-54133538D01*
X79513048Y-54084248D01*
X79672593Y-54056346D01*
X79850348Y-54051475D01*
X80014252Y-54071274D01*
X80097873Y-54098012D01*
X80165106Y-54133026D01*
X80217333Y-54176357D01*
X80256632Y-54238538D01*
X80285083Y-54330106D01*
X80304764Y-54461595D01*
X80317756Y-54643542D01*
X80326136Y-54886481D01*
X80331983Y-55200947D01*
X80333278Y-55290917D01*
X80346723Y-56254000D01*
X80891333Y-56254000D01*
X80894424Y-55439083D01*
X80897994Y-55061823D01*
X80906150Y-54760766D01*
X80919813Y-54527528D01*
X80939908Y-54353724D01*
X80967358Y-54230969D01*
X81003086Y-54150881D01*
X81040795Y-54109985D01*
X81133809Y-54075987D01*
X81288924Y-54056241D01*
X81405064Y-54052667D01*
X81571087Y-54057666D01*
X81681408Y-54077480D01*
X81764648Y-54119327D01*
X81809723Y-54154751D01*
X81928500Y-54256836D01*
X81949667Y-55244835D01*
X81970833Y-56232833D01*
X82256583Y-56245351D01*
X82542333Y-56257868D01*
X82542333Y-53544667D01*
X81992000Y-53544667D01*
X81992000Y-53896321D01*
X81850138Y-53750250D01*
X81673079Y-53618510D01*
X81457433Y-53534952D01*
X81221582Y-53498656D01*
X80983910Y-53508702D01*
G36*
X74880000Y-56254000D02*
G01*
X75430333Y-56254000D01*
X75430333Y-53544667D01*
X74880000Y-53544667D01*
X74880000Y-56254000D01*
X74880000Y-56254000D01*
G37*
X74880000Y-56254000D02*
X75430333Y-56254000D01*
X75430333Y-53544667D01*
X74880000Y-53544667D01*
X74880000Y-56254000D01*
G36*
X73473097Y-53470583D02*
G01*
X73461833Y-54624167D01*
X73325972Y-54637304D01*
X73272953Y-54638524D01*
X73223370Y-54624816D01*
X73167448Y-54586950D01*
X73095410Y-54515694D01*
X72997481Y-54401819D01*
X72863885Y-54236093D01*
X72754472Y-54097695D01*
X72318833Y-53544949D01*
X72008272Y-53544808D01*
X71697710Y-53544667D01*
X71922051Y-53830417D01*
X72058443Y-54003652D01*
X72217612Y-54205093D01*
X72369537Y-54396756D01*
X72398871Y-54433667D01*
X72512466Y-54576789D01*
X72608297Y-54698030D01*
X72672554Y-54779895D01*
X72689161Y-54801436D01*
X72679467Y-54854097D01*
X72616259Y-54967762D01*
X72498985Y-55143277D01*
X72327097Y-55381488D01*
X72215986Y-55530367D01*
X72060581Y-55737838D01*
X71924209Y-55921942D01*
X71814536Y-56072164D01*
X71739225Y-56177989D01*
X71705941Y-56228898D01*
X71705000Y-56231515D01*
X71743820Y-56242415D01*
X71846251Y-56250375D01*
X71991247Y-56253861D01*
X72011917Y-56253906D01*
X72318833Y-56253811D01*
X72742167Y-55703667D01*
X72899880Y-55499754D01*
X73016567Y-55353647D01*
X73102407Y-55255726D01*
X73167577Y-55196369D01*
X73222257Y-55165953D01*
X73276624Y-55154858D01*
X73324250Y-55153427D01*
X73483000Y-55153333D01*
X73483000Y-56254000D01*
X74033333Y-56254000D01*
X74033333Y-52317000D01*
X73484361Y-52317000D01*
X73473097Y-53470583D01*
X73473097Y-53470583D01*
G37*
X73473097Y-53470583D02*
X73461833Y-54624167D01*
X73325972Y-54637304D01*
X73272953Y-54638524D01*
X73223370Y-54624816D01*
X73167448Y-54586950D01*
X73095410Y-54515694D01*
X72997481Y-54401819D01*
X72863885Y-54236093D01*
X72754472Y-54097695D01*
X72318833Y-53544949D01*
X72008272Y-53544808D01*
X71697710Y-53544667D01*
X71922051Y-53830417D01*
X72058443Y-54003652D01*
X72217612Y-54205093D01*
X72369537Y-54396756D01*
X72398871Y-54433667D01*
X72512466Y-54576789D01*
X72608297Y-54698030D01*
X72672554Y-54779895D01*
X72689161Y-54801436D01*
X72679467Y-54854097D01*
X72616259Y-54967762D01*
X72498985Y-55143277D01*
X72327097Y-55381488D01*
X72215986Y-55530367D01*
X72060581Y-55737838D01*
X71924209Y-55921942D01*
X71814536Y-56072164D01*
X71739225Y-56177989D01*
X71705941Y-56228898D01*
X71705000Y-56231515D01*
X71743820Y-56242415D01*
X71846251Y-56250375D01*
X71991247Y-56253861D01*
X72011917Y-56253906D01*
X72318833Y-56253811D01*
X72742167Y-55703667D01*
X72899880Y-55499754D01*
X73016567Y-55353647D01*
X73102407Y-55255726D01*
X73167577Y-55196369D01*
X73222257Y-55165953D01*
X73276624Y-55154858D01*
X73324250Y-55153427D01*
X73483000Y-55153333D01*
X73483000Y-56254000D01*
X74033333Y-56254000D01*
X74033333Y-52317000D01*
X73484361Y-52317000D01*
X73473097Y-53470583D01*
G36*
X76351646Y-52322086D02*
G01*
X76284924Y-52334930D01*
X76277000Y-52342161D01*
X76300293Y-52384865D01*
X76363194Y-52480322D01*
X76455240Y-52613010D01*
X76533884Y-52723161D01*
X76790768Y-53079000D01*
X77073634Y-53077644D01*
X77356500Y-53076287D01*
X77621586Y-52707227D01*
X77886673Y-52338167D01*
X77694708Y-52325224D01*
X77593716Y-52322098D01*
X77518784Y-52337550D01*
X77446877Y-52384211D01*
X77354962Y-52474713D01*
X77286128Y-52549294D01*
X77069513Y-52786305D01*
X76860370Y-52551652D01*
X76747791Y-52429886D01*
X76665523Y-52359527D01*
X76590036Y-52326642D01*
X76497799Y-52317296D01*
X76464114Y-52317000D01*
X76351646Y-52322086D01*
X76351646Y-52322086D01*
G37*
X76351646Y-52322086D02*
X76284924Y-52334930D01*
X76277000Y-52342161D01*
X76300293Y-52384865D01*
X76363194Y-52480322D01*
X76455240Y-52613010D01*
X76533884Y-52723161D01*
X76790768Y-53079000D01*
X77073634Y-53077644D01*
X77356500Y-53076287D01*
X77621586Y-52707227D01*
X77886673Y-52338167D01*
X77694708Y-52325224D01*
X77593716Y-52322098D01*
X77518784Y-52337550D01*
X77446877Y-52384211D01*
X77354962Y-52474713D01*
X77286128Y-52549294D01*
X77069513Y-52786305D01*
X76860370Y-52551652D01*
X76747791Y-52429886D01*
X76665523Y-52359527D01*
X76590036Y-52326642D01*
X76497799Y-52317296D01*
X76464114Y-52317000D01*
X76351646Y-52322086D01*
G36*
X74395531Y-52412250D02*
G01*
X74459986Y-52485031D01*
X74565163Y-52598646D01*
X74692659Y-52733324D01*
X74750207Y-52793250D01*
X74881669Y-52927163D01*
X74974926Y-53010989D01*
X75049654Y-53056434D01*
X75125532Y-53075200D01*
X75222236Y-53078993D01*
X75230613Y-53079000D01*
X75355211Y-53073106D01*
X75407021Y-53053148D01*
X75404386Y-53026083D01*
X75367385Y-52969901D01*
X75293846Y-52863163D01*
X75196461Y-52724194D01*
X75140475Y-52645083D01*
X74907507Y-52317000D01*
X74316545Y-52317000D01*
X74395531Y-52412250D01*
X74395531Y-52412250D01*
G37*
X74395531Y-52412250D02*
X74459986Y-52485031D01*
X74565163Y-52598646D01*
X74692659Y-52733324D01*
X74750207Y-52793250D01*
X74881669Y-52927163D01*
X74974926Y-53010989D01*
X75049654Y-53056434D01*
X75125532Y-53075200D01*
X75222236Y-53078993D01*
X75230613Y-53079000D01*
X75355211Y-53073106D01*
X75407021Y-53053148D01*
X75404386Y-53026083D01*
X75367385Y-52969901D01*
X75293846Y-52863163D01*
X75196461Y-52724194D01*
X75140475Y-52645083D01*
X74907507Y-52317000D01*
X74316545Y-52317000D01*
X74395531Y-52412250D01*
G36*
X90882000Y-51271367D02*
G01*
X90877068Y-51525059D01*
X90862395Y-51698934D01*
X90838169Y-51791050D01*
X90831200Y-51800533D01*
X90747220Y-51837498D01*
X90618261Y-51849721D01*
X90480102Y-51837887D01*
X90368524Y-51802683D01*
X90350341Y-51791322D01*
X90313385Y-51754117D01*
X90288142Y-51695570D01*
X90271624Y-51599304D01*
X90260846Y-51448945D01*
X90253838Y-51262155D01*
X90239509Y-50793000D01*
X90024669Y-50793000D01*
X90045401Y-51523250D01*
X90054031Y-51768100D01*
X90064897Y-51987080D01*
X90076978Y-52164600D01*
X90089253Y-52285068D01*
X90098197Y-52329149D01*
X90180371Y-52427213D01*
X90331793Y-52491794D01*
X90556321Y-52524150D01*
X90710565Y-52528667D01*
X90880380Y-52526739D01*
X90982397Y-52518317D01*
X91033446Y-52499440D01*
X91050357Y-52466148D01*
X91051333Y-52448482D01*
X91041972Y-52407781D01*
X91002713Y-52381890D01*
X90916799Y-52366058D01*
X90767470Y-52355532D01*
X90714555Y-52353004D01*
X90549825Y-52340105D01*
X90416225Y-52319679D01*
X90337807Y-52295658D01*
X90330215Y-52290148D01*
X90295081Y-52220519D01*
X90265170Y-52104440D01*
X90258572Y-52063052D01*
X90234491Y-51883518D01*
X90335996Y-51947056D01*
X90459202Y-52006788D01*
X90555503Y-52038001D01*
X90691577Y-52045329D01*
X90840559Y-52018231D01*
X90970405Y-51965962D01*
X91049072Y-51897775D01*
X91050614Y-51895012D01*
X91067466Y-51822530D01*
X91081226Y-51685314D01*
X91090441Y-51503282D01*
X91093667Y-51303783D01*
X91093667Y-50793000D01*
X90882000Y-50793000D01*
X90882000Y-51271367D01*
X90882000Y-51271367D01*
G37*
X90882000Y-51271367D02*
X90877068Y-51525059D01*
X90862395Y-51698934D01*
X90838169Y-51791050D01*
X90831200Y-51800533D01*
X90747220Y-51837498D01*
X90618261Y-51849721D01*
X90480102Y-51837887D01*
X90368524Y-51802683D01*
X90350341Y-51791322D01*
X90313385Y-51754117D01*
X90288142Y-51695570D01*
X90271624Y-51599304D01*
X90260846Y-51448945D01*
X90253838Y-51262155D01*
X90239509Y-50793000D01*
X90024669Y-50793000D01*
X90045401Y-51523250D01*
X90054031Y-51768100D01*
X90064897Y-51987080D01*
X90076978Y-52164600D01*
X90089253Y-52285068D01*
X90098197Y-52329149D01*
X90180371Y-52427213D01*
X90331793Y-52491794D01*
X90556321Y-52524150D01*
X90710565Y-52528667D01*
X90880380Y-52526739D01*
X90982397Y-52518317D01*
X91033446Y-52499440D01*
X91050357Y-52466148D01*
X91051333Y-52448482D01*
X91041972Y-52407781D01*
X91002713Y-52381890D01*
X90916799Y-52366058D01*
X90767470Y-52355532D01*
X90714555Y-52353004D01*
X90549825Y-52340105D01*
X90416225Y-52319679D01*
X90337807Y-52295658D01*
X90330215Y-52290148D01*
X90295081Y-52220519D01*
X90265170Y-52104440D01*
X90258572Y-52063052D01*
X90234491Y-51883518D01*
X90335996Y-51947056D01*
X90459202Y-52006788D01*
X90555503Y-52038001D01*
X90691577Y-52045329D01*
X90840559Y-52018231D01*
X90970405Y-51965962D01*
X91049072Y-51897775D01*
X91050614Y-51895012D01*
X91067466Y-51822530D01*
X91081226Y-51685314D01*
X91090441Y-51503282D01*
X91093667Y-51303783D01*
X91093667Y-50793000D01*
X90882000Y-50793000D01*
X90882000Y-51271367D01*
G36*
X92418423Y-50203596D02*
G01*
X92387169Y-50224512D01*
X92370870Y-50279773D01*
X92364659Y-50386071D01*
X92363667Y-50560099D01*
X92363667Y-50926145D01*
X92252124Y-50838406D01*
X92110159Y-50772438D01*
X91932107Y-50751591D01*
X91754836Y-50778022D01*
X91686333Y-50805311D01*
X91582997Y-50903586D01*
X91513218Y-51072963D01*
X91479800Y-51305658D01*
X91477292Y-51385667D01*
X91489539Y-51638194D01*
X91534020Y-51820505D01*
X91614281Y-51942041D01*
X91709064Y-52002882D01*
X91904651Y-52054049D01*
X92108587Y-52037721D01*
X92130833Y-52032552D01*
X92234623Y-51986602D01*
X92284353Y-51950969D01*
X92340847Y-51912151D01*
X92370981Y-51937793D01*
X92378274Y-51955339D01*
X92436317Y-52009154D01*
X92489338Y-52020667D01*
X92517639Y-52017757D01*
X92538934Y-52002008D01*
X92554220Y-51962890D01*
X92564492Y-51889870D01*
X92570744Y-51772420D01*
X92573971Y-51600008D01*
X92574942Y-51406833D01*
X92363667Y-51406833D01*
X92351368Y-51609690D01*
X92308277Y-51742871D01*
X92225104Y-51818593D01*
X92092558Y-51849072D01*
X92025624Y-51851333D01*
X91860119Y-51834918D01*
X91756770Y-51788524D01*
X91752857Y-51784809D01*
X91713873Y-51714989D01*
X91692624Y-51592574D01*
X91686333Y-51406833D01*
X91694285Y-51206893D01*
X91725320Y-51076613D01*
X91790204Y-51001884D01*
X91899707Y-50968600D01*
X92025624Y-50962333D01*
X92179896Y-50978506D01*
X92281181Y-51035167D01*
X92338768Y-51144533D01*
X92361947Y-51318819D01*
X92363667Y-51406833D01*
X92574942Y-51406833D01*
X92575168Y-51362103D01*
X92575333Y-51110500D01*
X92575333Y-50200333D01*
X92469500Y-50200333D01*
X92418423Y-50203596D01*
X92418423Y-50203596D01*
G37*
X92418423Y-50203596D02*
X92387169Y-50224512D01*
X92370870Y-50279773D01*
X92364659Y-50386071D01*
X92363667Y-50560099D01*
X92363667Y-50926145D01*
X92252124Y-50838406D01*
X92110159Y-50772438D01*
X91932107Y-50751591D01*
X91754836Y-50778022D01*
X91686333Y-50805311D01*
X91582997Y-50903586D01*
X91513218Y-51072963D01*
X91479800Y-51305658D01*
X91477292Y-51385667D01*
X91489539Y-51638194D01*
X91534020Y-51820505D01*
X91614281Y-51942041D01*
X91709064Y-52002882D01*
X91904651Y-52054049D01*
X92108587Y-52037721D01*
X92130833Y-52032552D01*
X92234623Y-51986602D01*
X92284353Y-51950969D01*
X92340847Y-51912151D01*
X92370981Y-51937793D01*
X92378274Y-51955339D01*
X92436317Y-52009154D01*
X92489338Y-52020667D01*
X92517639Y-52017757D01*
X92538934Y-52002008D01*
X92554220Y-51962890D01*
X92564492Y-51889870D01*
X92570744Y-51772420D01*
X92573971Y-51600008D01*
X92574942Y-51406833D01*
X92363667Y-51406833D01*
X92351368Y-51609690D01*
X92308277Y-51742871D01*
X92225104Y-51818593D01*
X92092558Y-51849072D01*
X92025624Y-51851333D01*
X91860119Y-51834918D01*
X91756770Y-51788524D01*
X91752857Y-51784809D01*
X91713873Y-51714989D01*
X91692624Y-51592574D01*
X91686333Y-51406833D01*
X91694285Y-51206893D01*
X91725320Y-51076613D01*
X91790204Y-51001884D01*
X91899707Y-50968600D01*
X92025624Y-50962333D01*
X92179896Y-50978506D01*
X92281181Y-51035167D01*
X92338768Y-51144533D01*
X92361947Y-51318819D01*
X92363667Y-51406833D01*
X92574942Y-51406833D01*
X92575168Y-51362103D01*
X92575333Y-51110500D01*
X92575333Y-50200333D01*
X92469500Y-50200333D01*
X92418423Y-50203596D01*
G36*
X79201659Y-49298262D02*
G01*
X78979481Y-49321292D01*
X78814488Y-49363942D01*
X78693369Y-49430006D01*
X78602813Y-49523280D01*
X78583824Y-49550631D01*
X78530321Y-49680917D01*
X78490999Y-49874308D01*
X78465735Y-50112222D01*
X78454409Y-50376073D01*
X78456898Y-50647277D01*
X78473082Y-50907251D01*
X78502839Y-51137408D01*
X78546049Y-51319165D01*
X78596064Y-51425633D01*
X78731821Y-51540909D01*
X78942136Y-51621365D01*
X79224023Y-51666168D01*
X79494333Y-51675814D01*
X79687782Y-51671294D01*
X79864264Y-51661311D01*
X79996077Y-51647659D01*
X80033023Y-51640897D01*
X80252296Y-51551056D01*
X80413656Y-51400164D01*
X80456536Y-51332351D01*
X80484862Y-51268697D01*
X80505212Y-51188126D01*
X80518816Y-51076569D01*
X80526906Y-50919953D01*
X80530712Y-50704206D01*
X80531500Y-50475500D01*
X80531485Y-50470770D01*
X80044667Y-50470770D01*
X80041846Y-50747638D01*
X80027457Y-50950784D01*
X79992614Y-51091110D01*
X79928430Y-51179520D01*
X79826018Y-51226916D01*
X79676490Y-51244199D01*
X79470961Y-51242273D01*
X79417351Y-51240354D01*
X79223538Y-51225455D01*
X79098969Y-51196217D01*
X79036351Y-51157498D01*
X79003676Y-51107747D01*
X78980610Y-51024962D01*
X78964881Y-50894152D01*
X78954223Y-50700326D01*
X78950531Y-50590410D01*
X78945733Y-50312057D01*
X78952375Y-50105520D01*
X78973817Y-49958331D01*
X79013418Y-49858026D01*
X79074539Y-49792139D01*
X79160538Y-49748205D01*
X79179325Y-49741528D01*
X79358853Y-49706845D01*
X79584149Y-49703303D01*
X79619694Y-49705621D01*
X79773552Y-49721596D01*
X79885024Y-49750804D01*
X79960912Y-49805491D01*
X80008016Y-49897900D01*
X80033137Y-50040277D01*
X80043075Y-50244865D01*
X80044667Y-50470770D01*
X80531485Y-50470770D01*
X80530593Y-50207008D01*
X80526913Y-50008632D01*
X80519023Y-49865834D01*
X80505483Y-49764073D01*
X80484855Y-49688811D01*
X80455702Y-49625506D01*
X80445655Y-49607667D01*
X80358502Y-49487117D01*
X80248689Y-49399842D01*
X80102618Y-49341315D01*
X79906686Y-49307009D01*
X79647294Y-49292399D01*
X79494333Y-49291056D01*
X79201659Y-49298262D01*
X79201659Y-49298262D01*
G37*
X79201659Y-49298262D02*
X78979481Y-49321292D01*
X78814488Y-49363942D01*
X78693369Y-49430006D01*
X78602813Y-49523280D01*
X78583824Y-49550631D01*
X78530321Y-49680917D01*
X78490999Y-49874308D01*
X78465735Y-50112222D01*
X78454409Y-50376073D01*
X78456898Y-50647277D01*
X78473082Y-50907251D01*
X78502839Y-51137408D01*
X78546049Y-51319165D01*
X78596064Y-51425633D01*
X78731821Y-51540909D01*
X78942136Y-51621365D01*
X79224023Y-51666168D01*
X79494333Y-51675814D01*
X79687782Y-51671294D01*
X79864264Y-51661311D01*
X79996077Y-51647659D01*
X80033023Y-51640897D01*
X80252296Y-51551056D01*
X80413656Y-51400164D01*
X80456536Y-51332351D01*
X80484862Y-51268697D01*
X80505212Y-51188126D01*
X80518816Y-51076569D01*
X80526906Y-50919953D01*
X80530712Y-50704206D01*
X80531500Y-50475500D01*
X80531485Y-50470770D01*
X80044667Y-50470770D01*
X80041846Y-50747638D01*
X80027457Y-50950784D01*
X79992614Y-51091110D01*
X79928430Y-51179520D01*
X79826018Y-51226916D01*
X79676490Y-51244199D01*
X79470961Y-51242273D01*
X79417351Y-51240354D01*
X79223538Y-51225455D01*
X79098969Y-51196217D01*
X79036351Y-51157498D01*
X79003676Y-51107747D01*
X78980610Y-51024962D01*
X78964881Y-50894152D01*
X78954223Y-50700326D01*
X78950531Y-50590410D01*
X78945733Y-50312057D01*
X78952375Y-50105520D01*
X78973817Y-49958331D01*
X79013418Y-49858026D01*
X79074539Y-49792139D01*
X79160538Y-49748205D01*
X79179325Y-49741528D01*
X79358853Y-49706845D01*
X79584149Y-49703303D01*
X79619694Y-49705621D01*
X79773552Y-49721596D01*
X79885024Y-49750804D01*
X79960912Y-49805491D01*
X80008016Y-49897900D01*
X80033137Y-50040277D01*
X80043075Y-50244865D01*
X80044667Y-50470770D01*
X80531485Y-50470770D01*
X80530593Y-50207008D01*
X80526913Y-50008632D01*
X80519023Y-49865834D01*
X80505483Y-49764073D01*
X80484855Y-49688811D01*
X80455702Y-49625506D01*
X80445655Y-49607667D01*
X80358502Y-49487117D01*
X80248689Y-49399842D01*
X80102618Y-49341315D01*
X79906686Y-49307009D01*
X79647294Y-49292399D01*
X79494333Y-49291056D01*
X79201659Y-49298262D01*
G36*
X76765056Y-49294285D02*
G01*
X76575741Y-49301647D01*
X76429303Y-49312220D01*
X76351083Y-49323826D01*
X76278039Y-49352913D01*
X76244154Y-49405714D01*
X76234859Y-49509549D01*
X76234667Y-49542106D01*
X76234667Y-49728933D01*
X76778074Y-49721216D01*
X77033693Y-49720220D01*
X77216724Y-49728775D01*
X77339106Y-49751597D01*
X77412780Y-49793399D01*
X77449685Y-49858894D01*
X77461762Y-49952796D01*
X77462333Y-49991352D01*
X77454673Y-50100448D01*
X77435700Y-50167022D01*
X77430124Y-50172910D01*
X77377761Y-50186173D01*
X77259147Y-50207501D01*
X77091975Y-50233933D01*
X76897204Y-50262060D01*
X76650202Y-50298897D01*
X76473144Y-50334063D01*
X76351652Y-50373514D01*
X76271346Y-50423202D01*
X76217850Y-50489084D01*
X76184856Y-50557052D01*
X76147641Y-50708440D01*
X76133857Y-50902408D01*
X76142607Y-51105212D01*
X76172992Y-51283112D01*
X76206616Y-51374684D01*
X76275489Y-51485502D01*
X76356840Y-51563737D01*
X76466363Y-51615203D01*
X76619753Y-51645711D01*
X76832704Y-51661073D01*
X76991577Y-51665367D01*
X77209124Y-51666507D01*
X77415574Y-51662781D01*
X77584552Y-51654926D01*
X77674000Y-51646316D01*
X77864500Y-51618500D01*
X77889968Y-51224602D01*
X77297777Y-51231051D01*
X77049935Y-51230594D01*
X76853910Y-51223768D01*
X76720662Y-51211213D01*
X76661420Y-51193844D01*
X76607047Y-51092676D01*
X76589773Y-50960560D01*
X76613595Y-50842289D01*
X76627885Y-50818142D01*
X76677316Y-50776688D01*
X76766420Y-50742827D01*
X76910058Y-50712482D01*
X77123087Y-50681575D01*
X77127930Y-50680953D01*
X77325312Y-50652459D01*
X77502636Y-50621183D01*
X77635662Y-50591689D01*
X77686580Y-50575764D01*
X77808646Y-50489737D01*
X77887789Y-50345579D01*
X77927145Y-50135835D01*
X77932967Y-49990445D01*
X77920224Y-49760821D01*
X77874472Y-49585260D01*
X77786879Y-49457312D01*
X77648613Y-49370527D01*
X77450843Y-49318457D01*
X77184737Y-49294652D01*
X76975500Y-49291270D01*
X76765056Y-49294285D01*
X76765056Y-49294285D01*
G37*
X76765056Y-49294285D02*
X76575741Y-49301647D01*
X76429303Y-49312220D01*
X76351083Y-49323826D01*
X76278039Y-49352913D01*
X76244154Y-49405714D01*
X76234859Y-49509549D01*
X76234667Y-49542106D01*
X76234667Y-49728933D01*
X76778074Y-49721216D01*
X77033693Y-49720220D01*
X77216724Y-49728775D01*
X77339106Y-49751597D01*
X77412780Y-49793399D01*
X77449685Y-49858894D01*
X77461762Y-49952796D01*
X77462333Y-49991352D01*
X77454673Y-50100448D01*
X77435700Y-50167022D01*
X77430124Y-50172910D01*
X77377761Y-50186173D01*
X77259147Y-50207501D01*
X77091975Y-50233933D01*
X76897204Y-50262060D01*
X76650202Y-50298897D01*
X76473144Y-50334063D01*
X76351652Y-50373514D01*
X76271346Y-50423202D01*
X76217850Y-50489084D01*
X76184856Y-50557052D01*
X76147641Y-50708440D01*
X76133857Y-50902408D01*
X76142607Y-51105212D01*
X76172992Y-51283112D01*
X76206616Y-51374684D01*
X76275489Y-51485502D01*
X76356840Y-51563737D01*
X76466363Y-51615203D01*
X76619753Y-51645711D01*
X76832704Y-51661073D01*
X76991577Y-51665367D01*
X77209124Y-51666507D01*
X77415574Y-51662781D01*
X77584552Y-51654926D01*
X77674000Y-51646316D01*
X77864500Y-51618500D01*
X77889968Y-51224602D01*
X77297777Y-51231051D01*
X77049935Y-51230594D01*
X76853910Y-51223768D01*
X76720662Y-51211213D01*
X76661420Y-51193844D01*
X76607047Y-51092676D01*
X76589773Y-50960560D01*
X76613595Y-50842289D01*
X76627885Y-50818142D01*
X76677316Y-50776688D01*
X76766420Y-50742827D01*
X76910058Y-50712482D01*
X77123087Y-50681575D01*
X77127930Y-50680953D01*
X77325312Y-50652459D01*
X77502636Y-50621183D01*
X77635662Y-50591689D01*
X77686580Y-50575764D01*
X77808646Y-50489737D01*
X77887789Y-50345579D01*
X77927145Y-50135835D01*
X77932967Y-49990445D01*
X77920224Y-49760821D01*
X77874472Y-49585260D01*
X77786879Y-49457312D01*
X77648613Y-49370527D01*
X77450843Y-49318457D01*
X77184737Y-49294652D01*
X76975500Y-49291270D01*
X76765056Y-49294285D01*
G36*
X74422919Y-49281798D02*
G01*
X74158389Y-49315770D01*
X73958267Y-49379265D01*
X73813650Y-49482493D01*
X73715634Y-49635665D01*
X73655315Y-49848989D01*
X73623791Y-50132676D01*
X73619976Y-50202557D01*
X73598010Y-50666000D01*
X75145011Y-50666000D01*
X75123005Y-50861242D01*
X75102205Y-50994954D01*
X75066416Y-51092731D01*
X75003645Y-51160072D01*
X74901897Y-51202478D01*
X74749178Y-51225447D01*
X74533495Y-51234480D01*
X74307098Y-51235366D01*
X73694667Y-51233232D01*
X73694667Y-51627605D01*
X73954877Y-51654803D01*
X74192191Y-51671647D01*
X74451502Y-51677111D01*
X74705671Y-51671718D01*
X74927565Y-51655993D01*
X75078787Y-51633096D01*
X75287905Y-51545173D01*
X75450725Y-51392611D01*
X75553011Y-51189130D01*
X75558158Y-51171041D01*
X75582945Y-51026142D01*
X75599120Y-50823475D01*
X75606747Y-50586920D01*
X75605887Y-50340356D01*
X75603679Y-50285000D01*
X75145508Y-50285000D01*
X74075667Y-50285000D01*
X74075667Y-50138825D01*
X74104271Y-49944001D01*
X74191631Y-49806609D01*
X74340064Y-49725050D01*
X74551890Y-49697722D01*
X74702672Y-49705878D01*
X74891593Y-49742765D01*
X75014326Y-49815967D01*
X75086399Y-49939639D01*
X75118032Y-50084537D01*
X75145508Y-50285000D01*
X75603679Y-50285000D01*
X75596602Y-50107661D01*
X75578954Y-49912715D01*
X75554559Y-49784434D01*
X75452439Y-49582336D01*
X75283656Y-49429950D01*
X75050949Y-49328492D01*
X74757058Y-49279179D01*
X74422919Y-49281798D01*
X74422919Y-49281798D01*
G37*
X74422919Y-49281798D02*
X74158389Y-49315770D01*
X73958267Y-49379265D01*
X73813650Y-49482493D01*
X73715634Y-49635665D01*
X73655315Y-49848989D01*
X73623791Y-50132676D01*
X73619976Y-50202557D01*
X73598010Y-50666000D01*
X75145011Y-50666000D01*
X75123005Y-50861242D01*
X75102205Y-50994954D01*
X75066416Y-51092731D01*
X75003645Y-51160072D01*
X74901897Y-51202478D01*
X74749178Y-51225447D01*
X74533495Y-51234480D01*
X74307098Y-51235366D01*
X73694667Y-51233232D01*
X73694667Y-51627605D01*
X73954877Y-51654803D01*
X74192191Y-51671647D01*
X74451502Y-51677111D01*
X74705671Y-51671718D01*
X74927565Y-51655993D01*
X75078787Y-51633096D01*
X75287905Y-51545173D01*
X75450725Y-51392611D01*
X75553011Y-51189130D01*
X75558158Y-51171041D01*
X75582945Y-51026142D01*
X75599120Y-50823475D01*
X75606747Y-50586920D01*
X75605887Y-50340356D01*
X75603679Y-50285000D01*
X75145508Y-50285000D01*
X74075667Y-50285000D01*
X74075667Y-50138825D01*
X74104271Y-49944001D01*
X74191631Y-49806609D01*
X74340064Y-49725050D01*
X74551890Y-49697722D01*
X74702672Y-49705878D01*
X74891593Y-49742765D01*
X75014326Y-49815967D01*
X75086399Y-49939639D01*
X75118032Y-50084537D01*
X75145508Y-50285000D01*
X75603679Y-50285000D01*
X75596602Y-50107661D01*
X75578954Y-49912715D01*
X75554559Y-49784434D01*
X75452439Y-49582336D01*
X75283656Y-49429950D01*
X75050949Y-49328492D01*
X74757058Y-49279179D01*
X74422919Y-49281798D01*
G36*
X81237929Y-49872250D02*
G01*
X81242191Y-50297625D01*
X81248135Y-50646211D01*
X81259057Y-50925869D01*
X81278259Y-51144463D01*
X81309038Y-51309854D01*
X81354694Y-51429905D01*
X81418527Y-51512477D01*
X81503834Y-51565432D01*
X81613917Y-51596634D01*
X81752072Y-51613942D01*
X81921601Y-51625221D01*
X81974836Y-51628351D01*
X82373000Y-51652106D01*
X82373000Y-51226089D01*
X82144901Y-51197590D01*
X82039116Y-51185251D01*
X81954642Y-51171652D01*
X81888997Y-51147966D01*
X81839703Y-51105366D01*
X81804279Y-51035025D01*
X81780247Y-50928116D01*
X81765126Y-50775812D01*
X81756437Y-50569286D01*
X81751700Y-50299711D01*
X81748436Y-49958260D01*
X81746802Y-49780458D01*
X81734438Y-48507000D01*
X81224690Y-48507000D01*
X81237929Y-49872250D01*
X81237929Y-49872250D01*
G37*
X81237929Y-49872250D02*
X81242191Y-50297625D01*
X81248135Y-50646211D01*
X81259057Y-50925869D01*
X81278259Y-51144463D01*
X81309038Y-51309854D01*
X81354694Y-51429905D01*
X81418527Y-51512477D01*
X81503834Y-51565432D01*
X81613917Y-51596634D01*
X81752072Y-51613942D01*
X81921601Y-51625221D01*
X81974836Y-51628351D01*
X82373000Y-51652106D01*
X82373000Y-51226089D01*
X82144901Y-51197590D01*
X82039116Y-51185251D01*
X81954642Y-51171652D01*
X81888997Y-51147966D01*
X81839703Y-51105366D01*
X81804279Y-51035025D01*
X81780247Y-50928116D01*
X81765126Y-50775812D01*
X81756437Y-50569286D01*
X81751700Y-50299711D01*
X81748436Y-49958260D01*
X81746802Y-49780458D01*
X81734438Y-48507000D01*
X81224690Y-48507000D01*
X81237929Y-49872250D01*
G36*
X71662667Y-48623516D02*
G01*
X71892934Y-48642611D01*
X72068590Y-48666265D01*
X72176723Y-48713208D01*
X72233133Y-48800826D01*
X72253620Y-48946504D01*
X72255333Y-49041350D01*
X72255333Y-49311333D01*
X71662667Y-49311333D01*
X71662667Y-49734667D01*
X72255333Y-49734667D01*
X72255333Y-51639667D01*
X72763333Y-51639667D01*
X72763333Y-49734667D01*
X73229000Y-49734667D01*
X73229000Y-49311333D01*
X72775883Y-49311333D01*
X72750221Y-48978565D01*
X72720747Y-48720694D01*
X72670041Y-48534641D01*
X72585763Y-48408028D01*
X72455569Y-48328473D01*
X72267118Y-48283598D01*
X72036414Y-48262566D01*
X71662667Y-48241256D01*
X71662667Y-48623516D01*
X71662667Y-48623516D01*
G37*
X71662667Y-48623516D02*
X71892934Y-48642611D01*
X72068590Y-48666265D01*
X72176723Y-48713208D01*
X72233133Y-48800826D01*
X72253620Y-48946504D01*
X72255333Y-49041350D01*
X72255333Y-49311333D01*
X71662667Y-49311333D01*
X71662667Y-49734667D01*
X72255333Y-49734667D01*
X72255333Y-51639667D01*
X72763333Y-51639667D01*
X72763333Y-49734667D01*
X73229000Y-49734667D01*
X73229000Y-49311333D01*
X72775883Y-49311333D01*
X72750221Y-48978565D01*
X72720747Y-48720694D01*
X72670041Y-48534641D01*
X72585763Y-48408028D01*
X72455569Y-48328473D01*
X72267118Y-48283598D01*
X72036414Y-48262566D01*
X71662667Y-48241256D01*
X71662667Y-48623516D01*
G36*
X86827098Y-48382804D02*
G01*
X86804882Y-48398792D01*
X86789991Y-48439324D01*
X86781350Y-48515764D01*
X86777882Y-48639471D01*
X86778511Y-48821809D01*
X86782161Y-49074139D01*
X86783632Y-49162095D01*
X86788767Y-49438289D01*
X86794560Y-49642664D01*
X86802612Y-49788062D01*
X86814526Y-49887326D01*
X86831904Y-49953299D01*
X86856347Y-49998822D01*
X86889458Y-50036738D01*
X86893213Y-50040511D01*
X86952875Y-50088884D01*
X87028410Y-50119739D01*
X87141226Y-50138163D01*
X87312733Y-50149242D01*
X87358880Y-50151137D01*
X87528567Y-50154135D01*
X87665120Y-50149878D01*
X87747142Y-50139309D01*
X87759917Y-50133498D01*
X87789931Y-50065223D01*
X87791667Y-50045111D01*
X87767388Y-50014110D01*
X87686497Y-49996138D01*
X87536913Y-49989014D01*
X87478857Y-49988667D01*
X87267282Y-49977730D01*
X87123583Y-49939006D01*
X87033109Y-49863620D01*
X86981208Y-49742698D01*
X86967901Y-49679204D01*
X86940209Y-49517908D01*
X87044662Y-49586349D01*
X87175079Y-49635556D01*
X87346276Y-49655060D01*
X87521062Y-49644598D01*
X87662245Y-49603907D01*
X87685070Y-49590893D01*
X87759900Y-49514916D01*
X87807381Y-49395986D01*
X87830016Y-49221991D01*
X87830235Y-49044414D01*
X87636445Y-49044414D01*
X87632747Y-49217465D01*
X87618845Y-49326350D01*
X87590526Y-49391359D01*
X87557798Y-49423159D01*
X87433138Y-49470914D01*
X87277210Y-49475665D01*
X87130675Y-49439069D01*
X87070465Y-49403269D01*
X87019394Y-49350946D01*
X86990392Y-49282070D01*
X86977538Y-49173116D01*
X86974883Y-49023524D01*
X86981752Y-48827601D01*
X87009817Y-48701109D01*
X87070264Y-48629407D01*
X87174279Y-48597855D01*
X87304833Y-48591667D01*
X87452305Y-48600125D01*
X87548654Y-48635101D01*
X87604428Y-48710996D01*
X87630175Y-48842213D01*
X87636444Y-49043153D01*
X87636445Y-49044414D01*
X87830235Y-49044414D01*
X87830314Y-48980818D01*
X87827008Y-48904949D01*
X87815639Y-48736194D01*
X87797141Y-48627673D01*
X87763565Y-48554958D01*
X87706962Y-48493621D01*
X87687652Y-48476659D01*
X87600118Y-48413321D01*
X87509952Y-48386203D01*
X87381261Y-48386294D01*
X87340111Y-48389409D01*
X87171326Y-48418780D01*
X87049346Y-48470496D01*
X87030323Y-48485239D01*
X86968669Y-48536273D01*
X86947385Y-48525947D01*
X86945000Y-48471228D01*
X86918843Y-48396644D01*
X86857716Y-48380000D01*
X86827098Y-48382804D01*
X86827098Y-48382804D01*
G37*
X86827098Y-48382804D02*
X86804882Y-48398792D01*
X86789991Y-48439324D01*
X86781350Y-48515764D01*
X86777882Y-48639471D01*
X86778511Y-48821809D01*
X86782161Y-49074139D01*
X86783632Y-49162095D01*
X86788767Y-49438289D01*
X86794560Y-49642664D01*
X86802612Y-49788062D01*
X86814526Y-49887326D01*
X86831904Y-49953299D01*
X86856347Y-49998822D01*
X86889458Y-50036738D01*
X86893213Y-50040511D01*
X86952875Y-50088884D01*
X87028410Y-50119739D01*
X87141226Y-50138163D01*
X87312733Y-50149242D01*
X87358880Y-50151137D01*
X87528567Y-50154135D01*
X87665120Y-50149878D01*
X87747142Y-50139309D01*
X87759917Y-50133498D01*
X87789931Y-50065223D01*
X87791667Y-50045111D01*
X87767388Y-50014110D01*
X87686497Y-49996138D01*
X87536913Y-49989014D01*
X87478857Y-49988667D01*
X87267282Y-49977730D01*
X87123583Y-49939006D01*
X87033109Y-49863620D01*
X86981208Y-49742698D01*
X86967901Y-49679204D01*
X86940209Y-49517908D01*
X87044662Y-49586349D01*
X87175079Y-49635556D01*
X87346276Y-49655060D01*
X87521062Y-49644598D01*
X87662245Y-49603907D01*
X87685070Y-49590893D01*
X87759900Y-49514916D01*
X87807381Y-49395986D01*
X87830016Y-49221991D01*
X87830235Y-49044414D01*
X87636445Y-49044414D01*
X87632747Y-49217465D01*
X87618845Y-49326350D01*
X87590526Y-49391359D01*
X87557798Y-49423159D01*
X87433138Y-49470914D01*
X87277210Y-49475665D01*
X87130675Y-49439069D01*
X87070465Y-49403269D01*
X87019394Y-49350946D01*
X86990392Y-49282070D01*
X86977538Y-49173116D01*
X86974883Y-49023524D01*
X86981752Y-48827601D01*
X87009817Y-48701109D01*
X87070264Y-48629407D01*
X87174279Y-48597855D01*
X87304833Y-48591667D01*
X87452305Y-48600125D01*
X87548654Y-48635101D01*
X87604428Y-48710996D01*
X87630175Y-48842213D01*
X87636444Y-49043153D01*
X87636445Y-49044414D01*
X87830235Y-49044414D01*
X87830314Y-48980818D01*
X87827008Y-48904949D01*
X87815639Y-48736194D01*
X87797141Y-48627673D01*
X87763565Y-48554958D01*
X87706962Y-48493621D01*
X87687652Y-48476659D01*
X87600118Y-48413321D01*
X87509952Y-48386203D01*
X87381261Y-48386294D01*
X87340111Y-48389409D01*
X87171326Y-48418780D01*
X87049346Y-48470496D01*
X87030323Y-48485239D01*
X86968669Y-48536273D01*
X86947385Y-48525947D01*
X86945000Y-48471228D01*
X86918843Y-48396644D01*
X86857716Y-48380000D01*
X86827098Y-48382804D01*
G36*
X91474667Y-48739833D02*
G01*
X91474960Y-49039415D01*
X91476493Y-49264855D01*
X91480244Y-49426680D01*
X91487193Y-49535414D01*
X91498319Y-49601583D01*
X91514601Y-49635712D01*
X91537017Y-49648326D01*
X91559333Y-49650000D01*
X91628700Y-49621684D01*
X91645287Y-49554750D01*
X91650889Y-49491211D01*
X91672897Y-49505900D01*
X91688792Y-49531917D01*
X91755541Y-49590324D01*
X91865717Y-49641127D01*
X91888588Y-49648097D01*
X92024735Y-49679344D01*
X92138134Y-49682462D01*
X92267573Y-49662568D01*
X92384465Y-49613925D01*
X92464818Y-49514501D01*
X92512683Y-49354943D01*
X92532107Y-49125903D01*
X92533000Y-49049522D01*
X92532429Y-49036167D01*
X92342500Y-49036167D01*
X92333018Y-49237781D01*
X92305583Y-49371142D01*
X92284400Y-49410660D01*
X92197069Y-49460315D01*
X92064376Y-49480934D01*
X91920486Y-49472521D01*
X91799569Y-49435079D01*
X91763750Y-49410605D01*
X91721002Y-49353022D01*
X91696932Y-49263028D01*
X91687196Y-49119412D01*
X91686333Y-49032629D01*
X91694520Y-48833498D01*
X91726246Y-48703973D01*
X91792263Y-48629966D01*
X91903324Y-48597388D01*
X92022840Y-48591667D01*
X92166764Y-48602297D01*
X92260534Y-48643576D01*
X92314281Y-48729591D01*
X92338133Y-48874425D01*
X92342500Y-49036167D01*
X92532429Y-49036167D01*
X92521814Y-48787980D01*
X92486386Y-48600177D01*
X92423910Y-48477940D01*
X92331582Y-48413100D01*
X92312446Y-48407125D01*
X92121958Y-48381885D01*
X91930521Y-48398481D01*
X91802750Y-48441250D01*
X91686333Y-48501979D01*
X91686333Y-48165823D01*
X91685185Y-47998615D01*
X91678101Y-47898735D01*
X91659621Y-47848843D01*
X91624289Y-47831602D01*
X91580500Y-47829667D01*
X91474667Y-47829667D01*
X91474667Y-48739833D01*
X91474667Y-48739833D01*
G37*
X91474667Y-48739833D02*
X91474960Y-49039415D01*
X91476493Y-49264855D01*
X91480244Y-49426680D01*
X91487193Y-49535414D01*
X91498319Y-49601583D01*
X91514601Y-49635712D01*
X91537017Y-49648326D01*
X91559333Y-49650000D01*
X91628700Y-49621684D01*
X91645287Y-49554750D01*
X91650889Y-49491211D01*
X91672897Y-49505900D01*
X91688792Y-49531917D01*
X91755541Y-49590324D01*
X91865717Y-49641127D01*
X91888588Y-49648097D01*
X92024735Y-49679344D01*
X92138134Y-49682462D01*
X92267573Y-49662568D01*
X92384465Y-49613925D01*
X92464818Y-49514501D01*
X92512683Y-49354943D01*
X92532107Y-49125903D01*
X92533000Y-49049522D01*
X92532429Y-49036167D01*
X92342500Y-49036167D01*
X92333018Y-49237781D01*
X92305583Y-49371142D01*
X92284400Y-49410660D01*
X92197069Y-49460315D01*
X92064376Y-49480934D01*
X91920486Y-49472521D01*
X91799569Y-49435079D01*
X91763750Y-49410605D01*
X91721002Y-49353022D01*
X91696932Y-49263028D01*
X91687196Y-49119412D01*
X91686333Y-49032629D01*
X91694520Y-48833498D01*
X91726246Y-48703973D01*
X91792263Y-48629966D01*
X91903324Y-48597388D01*
X92022840Y-48591667D01*
X92166764Y-48602297D01*
X92260534Y-48643576D01*
X92314281Y-48729591D01*
X92338133Y-48874425D01*
X92342500Y-49036167D01*
X92532429Y-49036167D01*
X92521814Y-48787980D01*
X92486386Y-48600177D01*
X92423910Y-48477940D01*
X92331582Y-48413100D01*
X92312446Y-48407125D01*
X92121958Y-48381885D01*
X91930521Y-48398481D01*
X91802750Y-48441250D01*
X91686333Y-48501979D01*
X91686333Y-48165823D01*
X91685185Y-47998615D01*
X91678101Y-47898735D01*
X91659621Y-47848843D01*
X91624289Y-47831602D01*
X91580500Y-47829667D01*
X91474667Y-47829667D01*
X91474667Y-48739833D01*
G36*
X90391808Y-48389452D02*
G01*
X90221183Y-48436800D01*
X90110033Y-48536802D01*
X90050719Y-48695907D01*
X90035333Y-48889992D01*
X90035333Y-49099667D01*
X90882000Y-49099667D01*
X90882000Y-49223643D01*
X90866714Y-49338730D01*
X90812487Y-49414954D01*
X90706769Y-49459197D01*
X90537008Y-49478341D01*
X90413310Y-49480667D01*
X90244856Y-49482705D01*
X90144136Y-49491467D01*
X90094262Y-49510924D01*
X90078346Y-49545045D01*
X90077667Y-49559579D01*
X90116309Y-49618291D01*
X90220003Y-49660120D01*
X90370399Y-49682773D01*
X90549151Y-49683957D01*
X90737908Y-49661379D01*
X90795265Y-49649272D01*
X90909959Y-49605784D01*
X90991030Y-49546637D01*
X90994612Y-49542056D01*
X91046074Y-49422389D01*
X91078843Y-49242354D01*
X91090117Y-49024744D01*
X91081452Y-48835277D01*
X91077089Y-48808517D01*
X90882000Y-48808517D01*
X90882000Y-48930333D01*
X90197940Y-48930333D01*
X90226930Y-48792750D01*
X90263812Y-48669120D01*
X90323365Y-48601731D01*
X90428275Y-48574423D01*
X90538944Y-48570500D01*
X90719868Y-48590621D01*
X90831363Y-48653654D01*
X90879196Y-48763598D01*
X90882000Y-48808517D01*
X91077089Y-48808517D01*
X91049291Y-48638063D01*
X90985559Y-48508931D01*
X90875116Y-48432907D01*
X90702822Y-48395015D01*
X90629546Y-48388308D01*
X90391808Y-48389452D01*
X90391808Y-48389452D01*
G37*
X90391808Y-48389452D02*
X90221183Y-48436800D01*
X90110033Y-48536802D01*
X90050719Y-48695907D01*
X90035333Y-48889992D01*
X90035333Y-49099667D01*
X90882000Y-49099667D01*
X90882000Y-49223643D01*
X90866714Y-49338730D01*
X90812487Y-49414954D01*
X90706769Y-49459197D01*
X90537008Y-49478341D01*
X90413310Y-49480667D01*
X90244856Y-49482705D01*
X90144136Y-49491467D01*
X90094262Y-49510924D01*
X90078346Y-49545045D01*
X90077667Y-49559579D01*
X90116309Y-49618291D01*
X90220003Y-49660120D01*
X90370399Y-49682773D01*
X90549151Y-49683957D01*
X90737908Y-49661379D01*
X90795265Y-49649272D01*
X90909959Y-49605784D01*
X90991030Y-49546637D01*
X90994612Y-49542056D01*
X91046074Y-49422389D01*
X91078843Y-49242354D01*
X91090117Y-49024744D01*
X91081452Y-48835277D01*
X91077089Y-48808517D01*
X90882000Y-48808517D01*
X90882000Y-48930333D01*
X90197940Y-48930333D01*
X90226930Y-48792750D01*
X90263812Y-48669120D01*
X90323365Y-48601731D01*
X90428275Y-48574423D01*
X90538944Y-48570500D01*
X90719868Y-48590621D01*
X90831363Y-48653654D01*
X90879196Y-48763598D01*
X90882000Y-48808517D01*
X91077089Y-48808517D01*
X91049291Y-48638063D01*
X90985559Y-48508931D01*
X90875116Y-48432907D01*
X90702822Y-48395015D01*
X90629546Y-48388308D01*
X90391808Y-48389452D01*
G36*
X88946255Y-48402722D02*
G01*
X88867160Y-48451336D01*
X88850000Y-48507157D01*
X88857552Y-48552991D01*
X88893315Y-48574239D01*
X88976950Y-48575473D01*
X89096901Y-48564562D01*
X89302587Y-48558020D01*
X89438404Y-48591062D01*
X89510782Y-48666572D01*
X89527333Y-48757552D01*
X89506866Y-48848197D01*
X89436772Y-48902193D01*
X89304017Y-48926516D01*
X89205567Y-48929755D01*
X89065635Y-48945136D01*
X88943641Y-48975881D01*
X88829837Y-49056170D01*
X88774790Y-49195666D01*
X88779436Y-49391729D01*
X88784931Y-49423689D01*
X88839953Y-49550541D01*
X88952556Y-49634427D01*
X89127826Y-49676910D01*
X89370847Y-49679554D01*
X89559083Y-49661709D01*
X89660804Y-49633640D01*
X89696089Y-49576535D01*
X89696667Y-49564363D01*
X89687841Y-49524358D01*
X89650337Y-49499002D01*
X89567619Y-49483912D01*
X89423149Y-49474705D01*
X89347417Y-49471795D01*
X88998167Y-49459500D01*
X88998167Y-49163167D01*
X89312674Y-49111126D01*
X89470952Y-49080157D01*
X89597832Y-49046551D01*
X89668684Y-49016973D01*
X89672507Y-49013759D01*
X89699104Y-48947314D01*
X89715410Y-48829790D01*
X89717833Y-48760395D01*
X89702991Y-48595902D01*
X89649321Y-48488323D01*
X89543110Y-48424883D01*
X89370641Y-48392806D01*
X89318492Y-48388401D01*
X89094805Y-48382224D01*
X88946255Y-48402722D01*
X88946255Y-48402722D01*
G37*
X88946255Y-48402722D02*
X88867160Y-48451336D01*
X88850000Y-48507157D01*
X88857552Y-48552991D01*
X88893315Y-48574239D01*
X88976950Y-48575473D01*
X89096901Y-48564562D01*
X89302587Y-48558020D01*
X89438404Y-48591062D01*
X89510782Y-48666572D01*
X89527333Y-48757552D01*
X89506866Y-48848197D01*
X89436772Y-48902193D01*
X89304017Y-48926516D01*
X89205567Y-48929755D01*
X89065635Y-48945136D01*
X88943641Y-48975881D01*
X88829837Y-49056170D01*
X88774790Y-49195666D01*
X88779436Y-49391729D01*
X88784931Y-49423689D01*
X88839953Y-49550541D01*
X88952556Y-49634427D01*
X89127826Y-49676910D01*
X89370847Y-49679554D01*
X89559083Y-49661709D01*
X89660804Y-49633640D01*
X89696089Y-49576535D01*
X89696667Y-49564363D01*
X89687841Y-49524358D01*
X89650337Y-49499002D01*
X89567619Y-49483912D01*
X89423149Y-49474705D01*
X89347417Y-49471795D01*
X88998167Y-49459500D01*
X88998167Y-49163167D01*
X89312674Y-49111126D01*
X89470952Y-49080157D01*
X89597832Y-49046551D01*
X89668684Y-49016973D01*
X89672507Y-49013759D01*
X89699104Y-48947314D01*
X89715410Y-48829790D01*
X89717833Y-48760395D01*
X89702991Y-48595902D01*
X89649321Y-48488323D01*
X89543110Y-48424883D01*
X89370641Y-48392806D01*
X89318492Y-48388401D01*
X89094805Y-48382224D01*
X88946255Y-48402722D01*
G36*
X84110155Y-48410404D02*
G01*
X84027279Y-48441804D01*
X83938985Y-48506770D01*
X83885755Y-48602516D01*
X83860361Y-48748230D01*
X83855245Y-48898583D01*
X83854667Y-49099667D01*
X84701333Y-49099667D01*
X84701333Y-49223643D01*
X84686047Y-49338730D01*
X84631820Y-49414954D01*
X84526102Y-49459197D01*
X84356341Y-49478341D01*
X84232643Y-49480667D01*
X84064189Y-49482705D01*
X83963470Y-49491467D01*
X83913596Y-49510924D01*
X83897680Y-49545045D01*
X83897000Y-49559579D01*
X83936047Y-49618542D01*
X84042701Y-49660180D01*
X84201234Y-49682122D01*
X84395919Y-49681995D01*
X84579707Y-49662514D01*
X84719927Y-49609262D01*
X84817957Y-49495116D01*
X84878103Y-49313270D01*
X84898694Y-49158329D01*
X84904624Y-48876793D01*
X84897178Y-48832591D01*
X84701333Y-48832591D01*
X84696768Y-48880808D01*
X84671669Y-48909827D01*
X84608928Y-48924511D01*
X84491441Y-48929720D01*
X84357375Y-48930333D01*
X84013417Y-48930333D01*
X84040669Y-48794073D01*
X84076759Y-48672339D01*
X84137877Y-48604268D01*
X84245342Y-48575308D01*
X84368196Y-48570500D01*
X84543961Y-48592805D01*
X84652322Y-48662563D01*
X84698697Y-48784035D01*
X84701333Y-48832591D01*
X84897178Y-48832591D01*
X84869014Y-48665428D01*
X84790537Y-48519897D01*
X84679033Y-48440298D01*
X84498422Y-48393279D01*
X84296046Y-48383344D01*
X84110155Y-48410404D01*
X84110155Y-48410404D01*
G37*
X84110155Y-48410404D02*
X84027279Y-48441804D01*
X83938985Y-48506770D01*
X83885755Y-48602516D01*
X83860361Y-48748230D01*
X83855245Y-48898583D01*
X83854667Y-49099667D01*
X84701333Y-49099667D01*
X84701333Y-49223643D01*
X84686047Y-49338730D01*
X84631820Y-49414954D01*
X84526102Y-49459197D01*
X84356341Y-49478341D01*
X84232643Y-49480667D01*
X84064189Y-49482705D01*
X83963470Y-49491467D01*
X83913596Y-49510924D01*
X83897680Y-49545045D01*
X83897000Y-49559579D01*
X83936047Y-49618542D01*
X84042701Y-49660180D01*
X84201234Y-49682122D01*
X84395919Y-49681995D01*
X84579707Y-49662514D01*
X84719927Y-49609262D01*
X84817957Y-49495116D01*
X84878103Y-49313270D01*
X84898694Y-49158329D01*
X84904624Y-48876793D01*
X84897178Y-48832591D01*
X84701333Y-48832591D01*
X84696768Y-48880808D01*
X84671669Y-48909827D01*
X84608928Y-48924511D01*
X84491441Y-48929720D01*
X84357375Y-48930333D01*
X84013417Y-48930333D01*
X84040669Y-48794073D01*
X84076759Y-48672339D01*
X84137877Y-48604268D01*
X84245342Y-48575308D01*
X84368196Y-48570500D01*
X84543961Y-48592805D01*
X84652322Y-48662563D01*
X84698697Y-48784035D01*
X84701333Y-48832591D01*
X84897178Y-48832591D01*
X84869014Y-48665428D01*
X84790537Y-48519897D01*
X84679033Y-48440298D01*
X84498422Y-48393279D01*
X84296046Y-48383344D01*
X84110155Y-48410404D01*
G36*
X82415333Y-49650000D02*
G01*
X82521167Y-49650000D01*
X82607998Y-49626567D01*
X82627000Y-49579939D01*
X82633095Y-49533451D01*
X82665810Y-49546307D01*
X82704177Y-49579722D01*
X82821810Y-49641067D01*
X82984004Y-49671800D01*
X83155195Y-49668654D01*
X83289155Y-49633442D01*
X83398902Y-49553056D01*
X83470315Y-49423143D01*
X83506236Y-49234344D01*
X83509061Y-49012392D01*
X83306712Y-49012392D01*
X83298102Y-49176849D01*
X83277238Y-49316986D01*
X83244671Y-49405867D01*
X83237810Y-49414143D01*
X83143174Y-49460819D01*
X83004888Y-49479101D01*
X82859231Y-49468530D01*
X82742477Y-49428646D01*
X82730341Y-49420579D01*
X82686629Y-49374700D01*
X82661467Y-49302762D01*
X82650234Y-49183698D01*
X82648167Y-49046085D01*
X82655081Y-48843925D01*
X82682809Y-48711602D01*
X82741827Y-48634920D01*
X82842613Y-48599684D01*
X82983550Y-48591667D01*
X83118806Y-48600956D01*
X83221773Y-48624669D01*
X83253533Y-48642467D01*
X83284976Y-48718265D01*
X83302519Y-48850553D01*
X83306712Y-49012392D01*
X83509061Y-49012392D01*
X83509508Y-48977298D01*
X83506541Y-48917674D01*
X83493645Y-48742896D01*
X83474952Y-48629764D01*
X83443409Y-48555267D01*
X83391969Y-48496393D01*
X83372063Y-48478733D01*
X83224507Y-48401602D01*
X83043810Y-48376292D01*
X82864243Y-48403397D01*
X82738543Y-48467739D01*
X82627000Y-48555478D01*
X82627000Y-48192572D01*
X82626049Y-48017427D01*
X82619949Y-47910256D01*
X82603833Y-47854367D01*
X82572834Y-47833068D01*
X82522083Y-47829667D01*
X82415333Y-47829667D01*
X82415333Y-49650000D01*
X82415333Y-49650000D01*
G37*
X82415333Y-49650000D02*
X82521167Y-49650000D01*
X82607998Y-49626567D01*
X82627000Y-49579939D01*
X82633095Y-49533451D01*
X82665810Y-49546307D01*
X82704177Y-49579722D01*
X82821810Y-49641067D01*
X82984004Y-49671800D01*
X83155195Y-49668654D01*
X83289155Y-49633442D01*
X83398902Y-49553056D01*
X83470315Y-49423143D01*
X83506236Y-49234344D01*
X83509061Y-49012392D01*
X83306712Y-49012392D01*
X83298102Y-49176849D01*
X83277238Y-49316986D01*
X83244671Y-49405867D01*
X83237810Y-49414143D01*
X83143174Y-49460819D01*
X83004888Y-49479101D01*
X82859231Y-49468530D01*
X82742477Y-49428646D01*
X82730341Y-49420579D01*
X82686629Y-49374700D01*
X82661467Y-49302762D01*
X82650234Y-49183698D01*
X82648167Y-49046085D01*
X82655081Y-48843925D01*
X82682809Y-48711602D01*
X82741827Y-48634920D01*
X82842613Y-48599684D01*
X82983550Y-48591667D01*
X83118806Y-48600956D01*
X83221773Y-48624669D01*
X83253533Y-48642467D01*
X83284976Y-48718265D01*
X83302519Y-48850553D01*
X83306712Y-49012392D01*
X83509061Y-49012392D01*
X83509508Y-48977298D01*
X83506541Y-48917674D01*
X83493645Y-48742896D01*
X83474952Y-48629764D01*
X83443409Y-48555267D01*
X83391969Y-48496393D01*
X83372063Y-48478733D01*
X83224507Y-48401602D01*
X83043810Y-48376292D01*
X82864243Y-48403397D01*
X82738543Y-48467739D01*
X82627000Y-48555478D01*
X82627000Y-48192572D01*
X82626049Y-48017427D01*
X82619949Y-47910256D01*
X82603833Y-47854367D01*
X82572834Y-47833068D01*
X82522083Y-47829667D01*
X82415333Y-47829667D01*
X82415333Y-49650000D01*
G36*
X88287963Y-48405705D02*
G01*
X88264526Y-48427766D01*
X88248567Y-48480015D01*
X88238132Y-48575118D01*
X88231264Y-48725741D01*
X88226010Y-48944550D01*
X88224452Y-49025583D01*
X88212737Y-49650000D01*
X88428930Y-49650000D01*
X88417215Y-49025583D01*
X88412063Y-48783792D01*
X88405886Y-48613996D01*
X88396729Y-48503530D01*
X88382637Y-48439726D01*
X88361654Y-48409920D01*
X88331826Y-48401443D01*
X88320833Y-48401167D01*
X88287963Y-48405705D01*
X88287963Y-48405705D01*
G37*
X88287963Y-48405705D02*
X88264526Y-48427766D01*
X88248567Y-48480015D01*
X88238132Y-48575118D01*
X88231264Y-48725741D01*
X88226010Y-48944550D01*
X88224452Y-49025583D01*
X88212737Y-49650000D01*
X88428930Y-49650000D01*
X88417215Y-49025583D01*
X88412063Y-48783792D01*
X88405886Y-48613996D01*
X88396729Y-48503530D01*
X88382637Y-48439726D01*
X88361654Y-48409920D01*
X88331826Y-48401443D01*
X88320833Y-48401167D01*
X88287963Y-48405705D01*
G36*
X86178738Y-48415595D02*
G01*
X86152490Y-48466359D01*
X86130443Y-48525050D01*
X86094165Y-48518064D01*
X86049964Y-48480371D01*
X85955357Y-48431746D01*
X85809217Y-48397052D01*
X85740908Y-48389024D01*
X85600042Y-48382653D01*
X85509855Y-48398750D01*
X85437477Y-48446059D01*
X85402897Y-48478921D01*
X85357694Y-48527907D01*
X85327119Y-48579115D01*
X85308317Y-48649322D01*
X85298434Y-48755306D01*
X85294614Y-48913845D01*
X85294000Y-49118909D01*
X85294766Y-49338978D01*
X85298524Y-49488115D01*
X85307461Y-49580047D01*
X85323767Y-49628505D01*
X85349631Y-49647219D01*
X85378667Y-49650000D01*
X85417681Y-49643869D01*
X85442738Y-49615143D01*
X85457175Y-49548326D01*
X85464331Y-49427919D01*
X85467541Y-49238425D01*
X85467553Y-49237250D01*
X85471394Y-48995825D01*
X85481423Y-48826343D01*
X85504037Y-48716082D01*
X85545633Y-48652317D01*
X85612606Y-48622327D01*
X85711355Y-48613387D01*
X85781492Y-48612833D01*
X85925409Y-48616640D01*
X86009558Y-48633803D01*
X86058703Y-48672931D01*
X86085876Y-48718667D01*
X86112593Y-48817216D01*
X86131207Y-48981138D01*
X86139726Y-49191359D01*
X86140043Y-49237250D01*
X86141554Y-49427075D01*
X86147529Y-49547753D01*
X86161173Y-49614793D01*
X86185691Y-49643704D01*
X86224289Y-49649998D01*
X86225333Y-49650000D01*
X86257873Y-49645839D01*
X86280802Y-49624970D01*
X86295795Y-49574817D01*
X86304531Y-49482802D01*
X86308686Y-49336348D01*
X86309937Y-49122877D01*
X86310000Y-49015000D01*
X86309001Y-48768161D01*
X86305145Y-48593878D01*
X86297148Y-48480052D01*
X86283724Y-48414587D01*
X86263589Y-48385385D01*
X86242537Y-48380000D01*
X86178738Y-48415595D01*
X86178738Y-48415595D01*
G37*
X86178738Y-48415595D02*
X86152490Y-48466359D01*
X86130443Y-48525050D01*
X86094165Y-48518064D01*
X86049964Y-48480371D01*
X85955357Y-48431746D01*
X85809217Y-48397052D01*
X85740908Y-48389024D01*
X85600042Y-48382653D01*
X85509855Y-48398750D01*
X85437477Y-48446059D01*
X85402897Y-48478921D01*
X85357694Y-48527907D01*
X85327119Y-48579115D01*
X85308317Y-48649322D01*
X85298434Y-48755306D01*
X85294614Y-48913845D01*
X85294000Y-49118909D01*
X85294766Y-49338978D01*
X85298524Y-49488115D01*
X85307461Y-49580047D01*
X85323767Y-49628505D01*
X85349631Y-49647219D01*
X85378667Y-49650000D01*
X85417681Y-49643869D01*
X85442738Y-49615143D01*
X85457175Y-49548326D01*
X85464331Y-49427919D01*
X85467541Y-49238425D01*
X85467553Y-49237250D01*
X85471394Y-48995825D01*
X85481423Y-48826343D01*
X85504037Y-48716082D01*
X85545633Y-48652317D01*
X85612606Y-48622327D01*
X85711355Y-48613387D01*
X85781492Y-48612833D01*
X85925409Y-48616640D01*
X86009558Y-48633803D01*
X86058703Y-48672931D01*
X86085876Y-48718667D01*
X86112593Y-48817216D01*
X86131207Y-48981138D01*
X86139726Y-49191359D01*
X86140043Y-49237250D01*
X86141554Y-49427075D01*
X86147529Y-49547753D01*
X86161173Y-49614793D01*
X86185691Y-49643704D01*
X86224289Y-49649998D01*
X86225333Y-49650000D01*
X86257873Y-49645839D01*
X86280802Y-49624970D01*
X86295795Y-49574817D01*
X86304531Y-49482802D01*
X86308686Y-49336348D01*
X86309937Y-49122877D01*
X86310000Y-49015000D01*
X86309001Y-48768161D01*
X86305145Y-48593878D01*
X86297148Y-48480052D01*
X86283724Y-48414587D01*
X86263589Y-48385385D01*
X86242537Y-48380000D01*
X86178738Y-48415595D01*
G36*
X88240273Y-47847151D02*
G01*
X88215447Y-47915996D01*
X88215000Y-47935500D01*
X88232485Y-48016061D01*
X88301330Y-48040886D01*
X88320833Y-48041333D01*
X88401394Y-48023848D01*
X88426220Y-47955003D01*
X88426667Y-47935500D01*
X88409182Y-47854939D01*
X88340337Y-47830113D01*
X88320833Y-47829667D01*
X88240273Y-47847151D01*
X88240273Y-47847151D01*
G37*
X88240273Y-47847151D02*
X88215447Y-47915996D01*
X88215000Y-47935500D01*
X88232485Y-48016061D01*
X88301330Y-48040886D01*
X88320833Y-48041333D01*
X88401394Y-48023848D01*
X88426220Y-47955003D01*
X88426667Y-47935500D01*
X88409182Y-47854939D01*
X88340337Y-47830113D01*
X88320833Y-47829667D01*
X88240273Y-47847151D01*
D11*
X32500000Y-33500000D03*
D12*
X23500000Y-49000000D03*
X23500000Y-51540000D03*
X23500000Y-54080000D03*
D13*
X23500000Y-56620000D03*
D14*
X48500000Y-55500000D03*
X48500000Y-58000000D03*
X58000000Y-48500000D03*
X46500000Y-49000000D03*
X46500000Y-53000000D03*
X40500000Y-43500000D03*
X58500000Y-50500000D03*
X66500000Y-53000000D03*
X58500000Y-56000000D03*
X72000000Y-53000000D03*
X56500000Y-56000000D03*
D15*
X48500000Y-55500000D02*
X48500000Y-58000000D01*
X47000000Y-48500000D02*
X46500000Y-49000000D01*
X58000000Y-48500000D02*
X47000000Y-48500000D01*
X46500000Y-49000000D02*
X46500000Y-53000000D01*
X32500000Y-35500000D02*
X40500000Y-43500000D01*
X32500000Y-33500000D02*
X32500000Y-35500000D01*
X54920000Y-54080000D02*
X23500000Y-54080000D01*
X58500000Y-50500000D02*
X54920000Y-54080000D01*
X61500000Y-53000000D02*
X58500000Y-56000000D01*
X66500000Y-53000000D02*
X61500000Y-53000000D01*
X60225001Y-52274999D02*
X56500000Y-56000000D01*
X71274999Y-52274999D02*
X60225001Y-52274999D01*
X72000000Y-53000000D02*
X71274999Y-52274999D01*
M02*
