G04 #@! TF.GenerationSoftware,KiCad,Pcbnew,5.1.4-e60b266~84~ubuntu19.04.1*
G04 #@! TF.CreationDate,2019-09-15T18:03:26+02:00*
G04 #@! TF.ProjectId,TouchSensorDev,546f7563-6853-4656-9e73-6f724465762e,rev?*
G04 #@! TF.SameCoordinates,Original*
G04 #@! TF.FileFunction,Soldermask,Bot*
G04 #@! TF.FilePolarity,Negative*
%FSLAX46Y46*%
G04 Gerber Fmt 4.6, Leading zero omitted, Abs format (unit mm)*
G04 Created by KiCad (PCBNEW 5.1.4-e60b266~84~ubuntu19.04.1) date 2019-09-15 18:03:26*
%MOMM*%
%LPD*%
G04 APERTURE LIST*
%ADD10C,0.010000*%
%ADD11C,0.100000*%
G04 APERTURE END LIST*
D10*
G36*
X86394667Y-56254000D02*
G01*
X86648667Y-56254000D01*
X86789519Y-56251646D01*
X86865574Y-56239252D01*
X86896675Y-56208819D01*
X86902667Y-56152351D01*
X86902667Y-56151629D01*
X86912346Y-56019250D01*
X86945091Y-55966978D01*
X87006463Y-55992082D01*
X87079028Y-56065036D01*
X87197845Y-56171585D01*
X87343985Y-56241998D01*
X87534919Y-56281620D01*
X87788120Y-56295800D01*
X87834000Y-56296064D01*
X88048329Y-56286916D01*
X88210940Y-56255445D01*
X88330165Y-56207829D01*
X88453229Y-56130289D01*
X88546350Y-56023786D01*
X88622542Y-55886970D01*
X88671966Y-55776884D01*
X88706190Y-55670600D01*
X88728973Y-55546742D01*
X88744073Y-55383935D01*
X88755247Y-55160803D01*
X88756699Y-55123874D01*
X88760421Y-54764381D01*
X88209415Y-54764381D01*
X88208569Y-55049958D01*
X88199408Y-55191764D01*
X88163857Y-55433862D01*
X88101251Y-55603296D01*
X88007035Y-55709023D01*
X87914851Y-55751356D01*
X87738415Y-55779221D01*
X87536538Y-55779876D01*
X87350424Y-55754776D01*
X87264433Y-55728369D01*
X87150204Y-55669357D01*
X87068726Y-55593458D01*
X87014802Y-55486502D01*
X86983237Y-55334313D01*
X86968834Y-55122718D01*
X86966167Y-54914883D01*
X86971470Y-54648730D01*
X86991296Y-54452870D01*
X87031517Y-54313371D01*
X87098004Y-54216303D01*
X87196631Y-54147733D01*
X87308877Y-54101876D01*
X87491641Y-54064131D01*
X87689207Y-54062583D01*
X87874505Y-54093810D01*
X88020470Y-54154388D01*
X88073857Y-54198611D01*
X88140213Y-54324101D01*
X88186015Y-54517560D01*
X88209415Y-54764381D01*
X88760421Y-54764381D01*
X88760842Y-54723790D01*
X88737875Y-54395720D01*
X88685448Y-54130715D01*
X88601210Y-53919823D01*
X88482812Y-53754094D01*
X88370892Y-53654576D01*
X88281183Y-53604596D01*
X88161233Y-53573097D01*
X87988030Y-53554899D01*
X87909379Y-53550659D01*
X87616451Y-53553165D01*
X87385693Y-53593315D01*
X87201540Y-53675212D01*
X87082583Y-53768458D01*
X86945000Y-53899942D01*
X86945000Y-52317000D01*
X86394667Y-52317000D01*
X86394667Y-56254000D01*
X86394667Y-56254000D01*
G37*
X86394667Y-56254000D02*
X86648667Y-56254000D01*
X86789519Y-56251646D01*
X86865574Y-56239252D01*
X86896675Y-56208819D01*
X86902667Y-56152351D01*
X86902667Y-56151629D01*
X86912346Y-56019250D01*
X86945091Y-55966978D01*
X87006463Y-55992082D01*
X87079028Y-56065036D01*
X87197845Y-56171585D01*
X87343985Y-56241998D01*
X87534919Y-56281620D01*
X87788120Y-56295800D01*
X87834000Y-56296064D01*
X88048329Y-56286916D01*
X88210940Y-56255445D01*
X88330165Y-56207829D01*
X88453229Y-56130289D01*
X88546350Y-56023786D01*
X88622542Y-55886970D01*
X88671966Y-55776884D01*
X88706190Y-55670600D01*
X88728973Y-55546742D01*
X88744073Y-55383935D01*
X88755247Y-55160803D01*
X88756699Y-55123874D01*
X88760421Y-54764381D01*
X88209415Y-54764381D01*
X88208569Y-55049958D01*
X88199408Y-55191764D01*
X88163857Y-55433862D01*
X88101251Y-55603296D01*
X88007035Y-55709023D01*
X87914851Y-55751356D01*
X87738415Y-55779221D01*
X87536538Y-55779876D01*
X87350424Y-55754776D01*
X87264433Y-55728369D01*
X87150204Y-55669357D01*
X87068726Y-55593458D01*
X87014802Y-55486502D01*
X86983237Y-55334313D01*
X86968834Y-55122718D01*
X86966167Y-54914883D01*
X86971470Y-54648730D01*
X86991296Y-54452870D01*
X87031517Y-54313371D01*
X87098004Y-54216303D01*
X87196631Y-54147733D01*
X87308877Y-54101876D01*
X87491641Y-54064131D01*
X87689207Y-54062583D01*
X87874505Y-54093810D01*
X88020470Y-54154388D01*
X88073857Y-54198611D01*
X88140213Y-54324101D01*
X88186015Y-54517560D01*
X88209415Y-54764381D01*
X88760421Y-54764381D01*
X88760842Y-54723790D01*
X88737875Y-54395720D01*
X88685448Y-54130715D01*
X88601210Y-53919823D01*
X88482812Y-53754094D01*
X88370892Y-53654576D01*
X88281183Y-53604596D01*
X88161233Y-53573097D01*
X87988030Y-53554899D01*
X87909379Y-53550659D01*
X87616451Y-53553165D01*
X87385693Y-53593315D01*
X87201540Y-53675212D01*
X87082583Y-53768458D01*
X86945000Y-53899942D01*
X86945000Y-52317000D01*
X86394667Y-52317000D01*
X86394667Y-56254000D01*
G36*
X84304068Y-53555232D02*
G01*
X84025568Y-53586147D01*
X83811485Y-53644262D01*
X83652703Y-53733991D01*
X83540106Y-53859747D01*
X83464578Y-54025943D01*
X83435106Y-54138181D01*
X83421392Y-54244731D01*
X83409329Y-54420268D01*
X83399536Y-54649119D01*
X83392634Y-54915611D01*
X83389243Y-55204072D01*
X83389000Y-55303584D01*
X83389000Y-56254000D01*
X83889558Y-56254000D01*
X83917775Y-56086985D01*
X83945992Y-55919971D01*
X84067630Y-56058509D01*
X84187464Y-56161057D01*
X84328050Y-56237414D01*
X84354962Y-56246690D01*
X84540079Y-56282284D01*
X84763115Y-56296136D01*
X84993888Y-56289155D01*
X85202214Y-56262248D01*
X85357500Y-56216516D01*
X85506995Y-56125069D01*
X85607969Y-56003013D01*
X85667224Y-55835663D01*
X85691560Y-55608332D01*
X85692244Y-55553337D01*
X85156914Y-55553337D01*
X85147770Y-55610182D01*
X85108235Y-55708631D01*
X85032325Y-55773173D01*
X84907010Y-55808531D01*
X84719259Y-55819427D01*
X84578466Y-55816469D01*
X84401740Y-55807693D01*
X84286777Y-55793254D01*
X84210681Y-55766232D01*
X84150560Y-55719709D01*
X84107872Y-55674246D01*
X84036510Y-55563201D01*
X83982141Y-55422290D01*
X83951121Y-55278824D01*
X83949804Y-55160114D01*
X83974529Y-55101204D01*
X84037378Y-55081734D01*
X84163177Y-55071392D01*
X84330808Y-55069278D01*
X84519149Y-55074495D01*
X84707081Y-55086144D01*
X84873485Y-55103327D01*
X84997239Y-55125146D01*
X85053660Y-55147103D01*
X85117749Y-55245228D01*
X85154445Y-55391851D01*
X85156914Y-55553337D01*
X85692244Y-55553337D01*
X85693008Y-55492000D01*
X85678631Y-55233247D01*
X85635729Y-55041654D01*
X85558546Y-54902834D01*
X85441323Y-54802400D01*
X85409700Y-54784087D01*
X85338551Y-54754045D01*
X85242547Y-54731817D01*
X85107464Y-54715836D01*
X84919082Y-54704531D01*
X84663177Y-54696334D01*
X84601135Y-54694896D01*
X83929436Y-54680051D01*
X83957981Y-54464869D01*
X83991829Y-54279145D01*
X84039701Y-54160265D01*
X84110643Y-54090553D01*
X84161539Y-54067198D01*
X84236121Y-54055927D01*
X84377883Y-54047279D01*
X84569360Y-54041868D01*
X84793091Y-54040307D01*
X84904557Y-54041080D01*
X85552280Y-54048497D01*
X85539557Y-53828869D01*
X85526833Y-53609240D01*
X85357500Y-53579393D01*
X85248727Y-53567530D01*
X85078815Y-53557468D01*
X84871288Y-53550290D01*
X84656100Y-53547106D01*
X84304068Y-53555232D01*
X84304068Y-53555232D01*
G37*
X84304068Y-53555232D02*
X84025568Y-53586147D01*
X83811485Y-53644262D01*
X83652703Y-53733991D01*
X83540106Y-53859747D01*
X83464578Y-54025943D01*
X83435106Y-54138181D01*
X83421392Y-54244731D01*
X83409329Y-54420268D01*
X83399536Y-54649119D01*
X83392634Y-54915611D01*
X83389243Y-55204072D01*
X83389000Y-55303584D01*
X83389000Y-56254000D01*
X83889558Y-56254000D01*
X83917775Y-56086985D01*
X83945992Y-55919971D01*
X84067630Y-56058509D01*
X84187464Y-56161057D01*
X84328050Y-56237414D01*
X84354962Y-56246690D01*
X84540079Y-56282284D01*
X84763115Y-56296136D01*
X84993888Y-56289155D01*
X85202214Y-56262248D01*
X85357500Y-56216516D01*
X85506995Y-56125069D01*
X85607969Y-56003013D01*
X85667224Y-55835663D01*
X85691560Y-55608332D01*
X85692244Y-55553337D01*
X85156914Y-55553337D01*
X85147770Y-55610182D01*
X85108235Y-55708631D01*
X85032325Y-55773173D01*
X84907010Y-55808531D01*
X84719259Y-55819427D01*
X84578466Y-55816469D01*
X84401740Y-55807693D01*
X84286777Y-55793254D01*
X84210681Y-55766232D01*
X84150560Y-55719709D01*
X84107872Y-55674246D01*
X84036510Y-55563201D01*
X83982141Y-55422290D01*
X83951121Y-55278824D01*
X83949804Y-55160114D01*
X83974529Y-55101204D01*
X84037378Y-55081734D01*
X84163177Y-55071392D01*
X84330808Y-55069278D01*
X84519149Y-55074495D01*
X84707081Y-55086144D01*
X84873485Y-55103327D01*
X84997239Y-55125146D01*
X85053660Y-55147103D01*
X85117749Y-55245228D01*
X85154445Y-55391851D01*
X85156914Y-55553337D01*
X85692244Y-55553337D01*
X85693008Y-55492000D01*
X85678631Y-55233247D01*
X85635729Y-55041654D01*
X85558546Y-54902834D01*
X85441323Y-54802400D01*
X85409700Y-54784087D01*
X85338551Y-54754045D01*
X85242547Y-54731817D01*
X85107464Y-54715836D01*
X84919082Y-54704531D01*
X84663177Y-54696334D01*
X84601135Y-54694896D01*
X83929436Y-54680051D01*
X83957981Y-54464869D01*
X83991829Y-54279145D01*
X84039701Y-54160265D01*
X84110643Y-54090553D01*
X84161539Y-54067198D01*
X84236121Y-54055927D01*
X84377883Y-54047279D01*
X84569360Y-54041868D01*
X84793091Y-54040307D01*
X84904557Y-54041080D01*
X85552280Y-54048497D01*
X85539557Y-53828869D01*
X85526833Y-53609240D01*
X85357500Y-53579393D01*
X85248727Y-53567530D01*
X85078815Y-53557468D01*
X84871288Y-53550290D01*
X84656100Y-53547106D01*
X84304068Y-53555232D01*
G36*
X76631074Y-53547666D02*
G01*
X76430296Y-53557727D01*
X76308750Y-53571838D01*
X76150000Y-53598078D01*
X76150000Y-54080987D01*
X76414583Y-54043452D01*
X76615734Y-54026980D01*
X76827697Y-54029193D01*
X77022909Y-54048133D01*
X77173807Y-54081843D01*
X77218479Y-54100538D01*
X77298985Y-54163906D01*
X77356341Y-54262686D01*
X77393595Y-54408955D01*
X77413797Y-54614793D01*
X77419998Y-54892276D01*
X77420000Y-54898591D01*
X77413571Y-55189360D01*
X77392289Y-55407967D01*
X77353166Y-55566083D01*
X77293211Y-55675376D01*
X77209436Y-55747516D01*
X77201334Y-55752190D01*
X77108853Y-55780072D01*
X76948199Y-55796195D01*
X76712709Y-55801092D01*
X76602947Y-55800132D01*
X76103395Y-55792734D01*
X76116114Y-56012550D01*
X76127415Y-56142435D01*
X76150996Y-56211887D01*
X76200570Y-56245126D01*
X76255833Y-56259341D01*
X76400397Y-56278346D01*
X76595833Y-56288468D01*
X76818358Y-56290223D01*
X77044187Y-56284124D01*
X77249534Y-56270688D01*
X77410615Y-56250429D01*
X77483500Y-56232748D01*
X77685772Y-56118105D01*
X77842829Y-55940156D01*
X77934391Y-55737074D01*
X77958206Y-55604473D01*
X77974911Y-55409044D01*
X77984534Y-55172325D01*
X77987102Y-54915856D01*
X77982640Y-54661173D01*
X77971177Y-54429815D01*
X77952738Y-54243320D01*
X77932401Y-54138868D01*
X77840284Y-53944910D01*
X77693500Y-53770628D01*
X77515979Y-53640510D01*
X77397879Y-53591884D01*
X77265457Y-53569151D01*
X77075571Y-53553873D01*
X76855138Y-53546546D01*
X76631074Y-53547666D01*
X76631074Y-53547666D01*
G37*
X76631074Y-53547666D02*
X76430296Y-53557727D01*
X76308750Y-53571838D01*
X76150000Y-53598078D01*
X76150000Y-54080987D01*
X76414583Y-54043452D01*
X76615734Y-54026980D01*
X76827697Y-54029193D01*
X77022909Y-54048133D01*
X77173807Y-54081843D01*
X77218479Y-54100538D01*
X77298985Y-54163906D01*
X77356341Y-54262686D01*
X77393595Y-54408955D01*
X77413797Y-54614793D01*
X77419998Y-54892276D01*
X77420000Y-54898591D01*
X77413571Y-55189360D01*
X77392289Y-55407967D01*
X77353166Y-55566083D01*
X77293211Y-55675376D01*
X77209436Y-55747516D01*
X77201334Y-55752190D01*
X77108853Y-55780072D01*
X76948199Y-55796195D01*
X76712709Y-55801092D01*
X76602947Y-55800132D01*
X76103395Y-55792734D01*
X76116114Y-56012550D01*
X76127415Y-56142435D01*
X76150996Y-56211887D01*
X76200570Y-56245126D01*
X76255833Y-56259341D01*
X76400397Y-56278346D01*
X76595833Y-56288468D01*
X76818358Y-56290223D01*
X77044187Y-56284124D01*
X77249534Y-56270688D01*
X77410615Y-56250429D01*
X77483500Y-56232748D01*
X77685772Y-56118105D01*
X77842829Y-55940156D01*
X77934391Y-55737074D01*
X77958206Y-55604473D01*
X77974911Y-55409044D01*
X77984534Y-55172325D01*
X77987102Y-54915856D01*
X77982640Y-54661173D01*
X77971177Y-54429815D01*
X77952738Y-54243320D01*
X77932401Y-54138868D01*
X77840284Y-53944910D01*
X77693500Y-53770628D01*
X77515979Y-53640510D01*
X77397879Y-53591884D01*
X77265457Y-53569151D01*
X77075571Y-53553873D01*
X76855138Y-53546546D01*
X76631074Y-53547666D01*
G36*
X89874836Y-54404480D02*
G01*
X89741919Y-54774924D01*
X89618262Y-55120854D01*
X89506739Y-55434136D01*
X89410224Y-55706636D01*
X89331590Y-55930221D01*
X89273711Y-56096757D01*
X89239462Y-56198110D01*
X89231000Y-56226668D01*
X89269727Y-56240218D01*
X89371824Y-56247076D01*
X89516168Y-56245946D01*
X89533889Y-56245271D01*
X89836778Y-56232833D01*
X90131536Y-55407333D01*
X90909982Y-55407333D01*
X91184167Y-55407630D01*
X91385588Y-55409452D01*
X91526150Y-55414194D01*
X91617757Y-55423252D01*
X91672312Y-55438022D01*
X91701720Y-55459899D01*
X91717883Y-55490278D01*
X91722402Y-55502583D01*
X91752477Y-55586762D01*
X91801606Y-55724130D01*
X91860304Y-55888166D01*
X91873816Y-55925917D01*
X91991257Y-56254000D01*
X92286399Y-56254000D01*
X92448067Y-56249899D01*
X92537941Y-56235930D01*
X92568569Y-56209591D01*
X92567854Y-56197921D01*
X92551084Y-56147472D01*
X92508616Y-56025714D01*
X92443420Y-55841003D01*
X92358467Y-55601696D01*
X92256728Y-55316147D01*
X92141173Y-54992714D01*
X92092573Y-54857000D01*
X91514905Y-54857000D01*
X90325961Y-54857000D01*
X90355597Y-54761750D01*
X90415503Y-54577848D01*
X90488477Y-54367085D01*
X90569303Y-54143029D01*
X90652766Y-53919248D01*
X90733650Y-53709309D01*
X90806739Y-53526780D01*
X90866817Y-53385230D01*
X90908669Y-53298226D01*
X90926190Y-53277456D01*
X90950669Y-53327197D01*
X90997550Y-53442745D01*
X91061392Y-53609950D01*
X91136752Y-53814661D01*
X91191775Y-53968000D01*
X91273643Y-54197862D01*
X91348723Y-54407523D01*
X91411081Y-54580502D01*
X91454788Y-54700322D01*
X91469877Y-54740583D01*
X91514905Y-54857000D01*
X92092573Y-54857000D01*
X92014774Y-54639752D01*
X91920715Y-54377587D01*
X91287264Y-52613333D01*
X90518672Y-52613333D01*
X89874836Y-54404480D01*
X89874836Y-54404480D01*
G37*
X89874836Y-54404480D02*
X89741919Y-54774924D01*
X89618262Y-55120854D01*
X89506739Y-55434136D01*
X89410224Y-55706636D01*
X89331590Y-55930221D01*
X89273711Y-56096757D01*
X89239462Y-56198110D01*
X89231000Y-56226668D01*
X89269727Y-56240218D01*
X89371824Y-56247076D01*
X89516168Y-56245946D01*
X89533889Y-56245271D01*
X89836778Y-56232833D01*
X90131536Y-55407333D01*
X90909982Y-55407333D01*
X91184167Y-55407630D01*
X91385588Y-55409452D01*
X91526150Y-55414194D01*
X91617757Y-55423252D01*
X91672312Y-55438022D01*
X91701720Y-55459899D01*
X91717883Y-55490278D01*
X91722402Y-55502583D01*
X91752477Y-55586762D01*
X91801606Y-55724130D01*
X91860304Y-55888166D01*
X91873816Y-55925917D01*
X91991257Y-56254000D01*
X92286399Y-56254000D01*
X92448067Y-56249899D01*
X92537941Y-56235930D01*
X92568569Y-56209591D01*
X92567854Y-56197921D01*
X92551084Y-56147472D01*
X92508616Y-56025714D01*
X92443420Y-55841003D01*
X92358467Y-55601696D01*
X92256728Y-55316147D01*
X92141173Y-54992714D01*
X92092573Y-54857000D01*
X91514905Y-54857000D01*
X90325961Y-54857000D01*
X90355597Y-54761750D01*
X90415503Y-54577848D01*
X90488477Y-54367085D01*
X90569303Y-54143029D01*
X90652766Y-53919248D01*
X90733650Y-53709309D01*
X90806739Y-53526780D01*
X90866817Y-53385230D01*
X90908669Y-53298226D01*
X90926190Y-53277456D01*
X90950669Y-53327197D01*
X90997550Y-53442745D01*
X91061392Y-53609950D01*
X91136752Y-53814661D01*
X91191775Y-53968000D01*
X91273643Y-54197862D01*
X91348723Y-54407523D01*
X91411081Y-54580502D01*
X91454788Y-54700322D01*
X91469877Y-54740583D01*
X91514905Y-54857000D01*
X92092573Y-54857000D01*
X92014774Y-54639752D01*
X91920715Y-54377587D01*
X91287264Y-52613333D01*
X90518672Y-52613333D01*
X89874836Y-54404480D01*
G36*
X80934453Y-53560830D02*
G01*
X80737227Y-53613367D01*
X80585801Y-53708344D01*
X80503221Y-53796779D01*
X80397300Y-53932121D01*
X80323517Y-53819513D01*
X80186482Y-53686203D01*
X79981289Y-53595837D01*
X79714019Y-53550652D01*
X79579000Y-53545662D01*
X79329506Y-53558872D01*
X79144117Y-53605561D01*
X79006120Y-53693979D01*
X78898803Y-53832371D01*
X78862978Y-53898994D01*
X78831501Y-53965921D01*
X78806960Y-54031987D01*
X78788240Y-54108873D01*
X78774228Y-54208258D01*
X78763808Y-54341823D01*
X78755867Y-54521247D01*
X78749289Y-54758209D01*
X78742962Y-55064391D01*
X78740795Y-55179577D01*
X78720800Y-56254000D01*
X79320723Y-56254000D01*
X79333445Y-55239432D01*
X79338378Y-54910120D01*
X79344371Y-54655547D01*
X79352136Y-54465789D01*
X79362383Y-54330918D01*
X79375821Y-54241008D01*
X79393162Y-54186134D01*
X79410676Y-54160435D01*
X79513266Y-54104611D01*
X79668630Y-54071846D01*
X79847230Y-54065370D01*
X80019526Y-54088418D01*
X80034239Y-54092192D01*
X80130215Y-54122852D01*
X80205334Y-54163743D01*
X80262365Y-54224929D01*
X80304079Y-54316476D01*
X80333248Y-54448448D01*
X80352641Y-54630912D01*
X80365029Y-54873933D01*
X80373182Y-55187575D01*
X80375847Y-55333250D01*
X80391625Y-56254000D01*
X80933667Y-56254000D01*
X80933903Y-55354417D01*
X80935538Y-55002434D01*
X80941357Y-54725423D01*
X80953045Y-54513723D01*
X80972281Y-54357676D01*
X81000749Y-54247624D01*
X81040132Y-54173906D01*
X81092110Y-54126865D01*
X81152587Y-54098815D01*
X81368280Y-54054881D01*
X81573840Y-54069005D01*
X81751323Y-54135462D01*
X81882784Y-54248526D01*
X81936694Y-54349000D01*
X81956654Y-54455137D01*
X81972173Y-54640365D01*
X81982968Y-54899208D01*
X81988758Y-55226194D01*
X81989611Y-55375583D01*
X81992000Y-56254000D01*
X82542333Y-56254000D01*
X82542333Y-53587000D01*
X82034333Y-53587000D01*
X82034333Y-53756333D01*
X82023553Y-53877909D01*
X81993719Y-53921037D01*
X81948591Y-53883502D01*
X81917501Y-53825242D01*
X81822321Y-53711721D01*
X81660065Y-53623124D01*
X81446177Y-53565443D01*
X81196102Y-53544668D01*
X81194108Y-53544667D01*
X80934453Y-53560830D01*
X80934453Y-53560830D01*
G37*
X80934453Y-53560830D02*
X80737227Y-53613367D01*
X80585801Y-53708344D01*
X80503221Y-53796779D01*
X80397300Y-53932121D01*
X80323517Y-53819513D01*
X80186482Y-53686203D01*
X79981289Y-53595837D01*
X79714019Y-53550652D01*
X79579000Y-53545662D01*
X79329506Y-53558872D01*
X79144117Y-53605561D01*
X79006120Y-53693979D01*
X78898803Y-53832371D01*
X78862978Y-53898994D01*
X78831501Y-53965921D01*
X78806960Y-54031987D01*
X78788240Y-54108873D01*
X78774228Y-54208258D01*
X78763808Y-54341823D01*
X78755867Y-54521247D01*
X78749289Y-54758209D01*
X78742962Y-55064391D01*
X78740795Y-55179577D01*
X78720800Y-56254000D01*
X79320723Y-56254000D01*
X79333445Y-55239432D01*
X79338378Y-54910120D01*
X79344371Y-54655547D01*
X79352136Y-54465789D01*
X79362383Y-54330918D01*
X79375821Y-54241008D01*
X79393162Y-54186134D01*
X79410676Y-54160435D01*
X79513266Y-54104611D01*
X79668630Y-54071846D01*
X79847230Y-54065370D01*
X80019526Y-54088418D01*
X80034239Y-54092192D01*
X80130215Y-54122852D01*
X80205334Y-54163743D01*
X80262365Y-54224929D01*
X80304079Y-54316476D01*
X80333248Y-54448448D01*
X80352641Y-54630912D01*
X80365029Y-54873933D01*
X80373182Y-55187575D01*
X80375847Y-55333250D01*
X80391625Y-56254000D01*
X80933667Y-56254000D01*
X80933903Y-55354417D01*
X80935538Y-55002434D01*
X80941357Y-54725423D01*
X80953045Y-54513723D01*
X80972281Y-54357676D01*
X81000749Y-54247624D01*
X81040132Y-54173906D01*
X81092110Y-54126865D01*
X81152587Y-54098815D01*
X81368280Y-54054881D01*
X81573840Y-54069005D01*
X81751323Y-54135462D01*
X81882784Y-54248526D01*
X81936694Y-54349000D01*
X81956654Y-54455137D01*
X81972173Y-54640365D01*
X81982968Y-54899208D01*
X81988758Y-55226194D01*
X81989611Y-55375583D01*
X81992000Y-56254000D01*
X82542333Y-56254000D01*
X82542333Y-53587000D01*
X82034333Y-53587000D01*
X82034333Y-53756333D01*
X82023553Y-53877909D01*
X81993719Y-53921037D01*
X81948591Y-53883502D01*
X81917501Y-53825242D01*
X81822321Y-53711721D01*
X81660065Y-53623124D01*
X81446177Y-53565443D01*
X81196102Y-53544668D01*
X81194108Y-53544667D01*
X80934453Y-53560830D01*
G36*
X74880000Y-56254000D02*
G01*
X75472667Y-56254000D01*
X75472667Y-53587000D01*
X74880000Y-53587000D01*
X74880000Y-56254000D01*
X74880000Y-56254000D01*
G37*
X74880000Y-56254000D02*
X75472667Y-56254000D01*
X75472667Y-53587000D01*
X74880000Y-53587000D01*
X74880000Y-56254000D01*
G36*
X73768750Y-52325563D02*
G01*
X73504167Y-52338167D01*
X73481639Y-54645333D01*
X73336547Y-54645333D01*
X73278427Y-54641090D01*
X73224355Y-54621886D01*
X73164030Y-54578007D01*
X73087147Y-54499739D01*
X72983405Y-54377368D01*
X72842501Y-54201182D01*
X72776311Y-54117135D01*
X72361167Y-53588936D01*
X72051752Y-53587968D01*
X71905555Y-53591490D01*
X71802461Y-53601685D01*
X71761664Y-53616482D01*
X71762242Y-53619208D01*
X71793887Y-53661115D01*
X71869762Y-53758048D01*
X71981145Y-53898970D01*
X72119312Y-54072844D01*
X72269018Y-54260470D01*
X72755888Y-54869526D01*
X72251611Y-55539278D01*
X72097278Y-55745337D01*
X71962032Y-55927983D01*
X71853589Y-56076627D01*
X71779663Y-56180675D01*
X71747970Y-56229538D01*
X71747333Y-56231515D01*
X71786181Y-56242351D01*
X71888805Y-56250324D01*
X72034324Y-56253929D01*
X72059112Y-56254000D01*
X72370891Y-56254000D01*
X72789360Y-55703667D01*
X72946910Y-55498053D01*
X73064004Y-55350927D01*
X73150412Y-55252620D01*
X73215905Y-55193461D01*
X73270254Y-55163779D01*
X73323230Y-55153904D01*
X73345415Y-55153333D01*
X73483000Y-55153333D01*
X73483000Y-56254000D01*
X74033333Y-56254000D01*
X74033333Y-52312960D01*
X73768750Y-52325563D01*
X73768750Y-52325563D01*
G37*
X73768750Y-52325563D02*
X73504167Y-52338167D01*
X73481639Y-54645333D01*
X73336547Y-54645333D01*
X73278427Y-54641090D01*
X73224355Y-54621886D01*
X73164030Y-54578007D01*
X73087147Y-54499739D01*
X72983405Y-54377368D01*
X72842501Y-54201182D01*
X72776311Y-54117135D01*
X72361167Y-53588936D01*
X72051752Y-53587968D01*
X71905555Y-53591490D01*
X71802461Y-53601685D01*
X71761664Y-53616482D01*
X71762242Y-53619208D01*
X71793887Y-53661115D01*
X71869762Y-53758048D01*
X71981145Y-53898970D01*
X72119312Y-54072844D01*
X72269018Y-54260470D01*
X72755888Y-54869526D01*
X72251611Y-55539278D01*
X72097278Y-55745337D01*
X71962032Y-55927983D01*
X71853589Y-56076627D01*
X71779663Y-56180675D01*
X71747970Y-56229538D01*
X71747333Y-56231515D01*
X71786181Y-56242351D01*
X71888805Y-56250324D01*
X72034324Y-56253929D01*
X72059112Y-56254000D01*
X72370891Y-56254000D01*
X72789360Y-55703667D01*
X72946910Y-55498053D01*
X73064004Y-55350927D01*
X73150412Y-55252620D01*
X73215905Y-55193461D01*
X73270254Y-55163779D01*
X73323230Y-55153904D01*
X73345415Y-55153333D01*
X73483000Y-55153333D01*
X73483000Y-56254000D01*
X74033333Y-56254000D01*
X74033333Y-52312960D01*
X73768750Y-52325563D01*
G36*
X76381867Y-52323262D02*
G01*
X76313533Y-52338710D01*
X76307889Y-52342556D01*
X76320610Y-52385029D01*
X76375070Y-52479712D01*
X76461893Y-52611314D01*
X76541521Y-52723556D01*
X76800710Y-53079000D01*
X77099772Y-53077900D01*
X77398833Y-53076800D01*
X77642250Y-52740083D01*
X77746198Y-52592131D01*
X77828013Y-52467764D01*
X77876791Y-52383997D01*
X77885667Y-52360183D01*
X77848205Y-52332731D01*
X77755014Y-52317868D01*
X77722474Y-52317000D01*
X77629674Y-52324651D01*
X77550033Y-52356638D01*
X77461243Y-52426507D01*
X77340995Y-52547807D01*
X77339078Y-52549833D01*
X77231073Y-52661195D01*
X77146095Y-52743542D01*
X77099950Y-52781672D01*
X77096986Y-52782667D01*
X77059956Y-52753686D01*
X76982221Y-52677123D01*
X76879472Y-52568544D01*
X76862301Y-52549833D01*
X76744361Y-52426809D01*
X76657078Y-52356222D01*
X76578417Y-52324235D01*
X76491475Y-52317000D01*
X76381867Y-52323262D01*
X76381867Y-52323262D01*
G37*
X76381867Y-52323262D02*
X76313533Y-52338710D01*
X76307889Y-52342556D01*
X76320610Y-52385029D01*
X76375070Y-52479712D01*
X76461893Y-52611314D01*
X76541521Y-52723556D01*
X76800710Y-53079000D01*
X77099772Y-53077900D01*
X77398833Y-53076800D01*
X77642250Y-52740083D01*
X77746198Y-52592131D01*
X77828013Y-52467764D01*
X77876791Y-52383997D01*
X77885667Y-52360183D01*
X77848205Y-52332731D01*
X77755014Y-52317868D01*
X77722474Y-52317000D01*
X77629674Y-52324651D01*
X77550033Y-52356638D01*
X77461243Y-52426507D01*
X77340995Y-52547807D01*
X77339078Y-52549833D01*
X77231073Y-52661195D01*
X77146095Y-52743542D01*
X77099950Y-52781672D01*
X77096986Y-52782667D01*
X77059956Y-52753686D01*
X76982221Y-52677123D01*
X76879472Y-52568544D01*
X76862301Y-52549833D01*
X76744361Y-52426809D01*
X76657078Y-52356222D01*
X76578417Y-52324235D01*
X76491475Y-52317000D01*
X76381867Y-52323262D01*
G36*
X74504105Y-52322526D02*
G01*
X74406343Y-52336966D01*
X74372000Y-52355820D01*
X74399415Y-52400596D01*
X74473731Y-52492217D01*
X74583054Y-52616606D01*
X74693898Y-52736820D01*
X74835530Y-52885948D01*
X74936050Y-52983901D01*
X75012087Y-53041433D01*
X75080266Y-53069295D01*
X75157214Y-53078238D01*
X75223065Y-53079000D01*
X75342399Y-53075300D01*
X75417318Y-53065861D01*
X75430333Y-53058850D01*
X75407220Y-53018226D01*
X75344754Y-52924253D01*
X75253248Y-52792152D01*
X75172220Y-52677850D01*
X74914106Y-52317000D01*
X74643053Y-52317000D01*
X74504105Y-52322526D01*
X74504105Y-52322526D01*
G37*
X74504105Y-52322526D02*
X74406343Y-52336966D01*
X74372000Y-52355820D01*
X74399415Y-52400596D01*
X74473731Y-52492217D01*
X74583054Y-52616606D01*
X74693898Y-52736820D01*
X74835530Y-52885948D01*
X74936050Y-52983901D01*
X75012087Y-53041433D01*
X75080266Y-53069295D01*
X75157214Y-53078238D01*
X75223065Y-53079000D01*
X75342399Y-53075300D01*
X75417318Y-53065861D01*
X75430333Y-53058850D01*
X75407220Y-53018226D01*
X75344754Y-52924253D01*
X75253248Y-52792152D01*
X75172220Y-52677850D01*
X74914106Y-52317000D01*
X74643053Y-52317000D01*
X74504105Y-52322526D01*
G36*
X90923685Y-51269250D02*
G01*
X90919996Y-51466713D01*
X90910493Y-51636392D01*
X90896692Y-51758257D01*
X90882896Y-51809000D01*
X90809119Y-51854245D01*
X90659873Y-51872109D01*
X90626132Y-51872500D01*
X90495116Y-51865937D01*
X90403095Y-51837901D01*
X90343287Y-51775870D01*
X90308912Y-51667322D01*
X90293189Y-51499737D01*
X90289337Y-51260593D01*
X90289333Y-51250575D01*
X90289333Y-50793000D01*
X90077667Y-50793000D01*
X90077667Y-51485183D01*
X90080176Y-51795752D01*
X90089446Y-52033085D01*
X90108096Y-52208510D01*
X90138741Y-52333356D01*
X90183999Y-52418950D01*
X90246486Y-52476622D01*
X90314869Y-52512054D01*
X90418733Y-52539685D01*
X90563405Y-52559364D01*
X90722730Y-52569957D01*
X90870557Y-52570327D01*
X90980730Y-52559342D01*
X91023111Y-52542778D01*
X91046872Y-52480936D01*
X91051333Y-52432138D01*
X91042003Y-52382614D01*
X90999439Y-52364787D01*
X90901779Y-52372360D01*
X90863129Y-52377943D01*
X90699125Y-52385669D01*
X90537867Y-52365666D01*
X90404417Y-52323799D01*
X90323833Y-52265937D01*
X90314853Y-52249578D01*
X90295996Y-52159129D01*
X90289333Y-52057137D01*
X90293879Y-51971930D01*
X90321207Y-51958257D01*
X90383420Y-51997099D01*
X90510772Y-52047168D01*
X90677652Y-52064041D01*
X90848046Y-52048576D01*
X90985942Y-52001628D01*
X91014894Y-51982098D01*
X91055890Y-51943987D01*
X91084441Y-51897221D01*
X91103368Y-51826190D01*
X91115492Y-51715286D01*
X91123634Y-51548900D01*
X91129668Y-51347098D01*
X91144503Y-50793000D01*
X90924333Y-50793000D01*
X90923685Y-51269250D01*
X90923685Y-51269250D01*
G37*
X90923685Y-51269250D02*
X90919996Y-51466713D01*
X90910493Y-51636392D01*
X90896692Y-51758257D01*
X90882896Y-51809000D01*
X90809119Y-51854245D01*
X90659873Y-51872109D01*
X90626132Y-51872500D01*
X90495116Y-51865937D01*
X90403095Y-51837901D01*
X90343287Y-51775870D01*
X90308912Y-51667322D01*
X90293189Y-51499737D01*
X90289337Y-51260593D01*
X90289333Y-51250575D01*
X90289333Y-50793000D01*
X90077667Y-50793000D01*
X90077667Y-51485183D01*
X90080176Y-51795752D01*
X90089446Y-52033085D01*
X90108096Y-52208510D01*
X90138741Y-52333356D01*
X90183999Y-52418950D01*
X90246486Y-52476622D01*
X90314869Y-52512054D01*
X90418733Y-52539685D01*
X90563405Y-52559364D01*
X90722730Y-52569957D01*
X90870557Y-52570327D01*
X90980730Y-52559342D01*
X91023111Y-52542778D01*
X91046872Y-52480936D01*
X91051333Y-52432138D01*
X91042003Y-52382614D01*
X90999439Y-52364787D01*
X90901779Y-52372360D01*
X90863129Y-52377943D01*
X90699125Y-52385669D01*
X90537867Y-52365666D01*
X90404417Y-52323799D01*
X90323833Y-52265937D01*
X90314853Y-52249578D01*
X90295996Y-52159129D01*
X90289333Y-52057137D01*
X90293879Y-51971930D01*
X90321207Y-51958257D01*
X90383420Y-51997099D01*
X90510772Y-52047168D01*
X90677652Y-52064041D01*
X90848046Y-52048576D01*
X90985942Y-52001628D01*
X91014894Y-51982098D01*
X91055890Y-51943987D01*
X91084441Y-51897221D01*
X91103368Y-51826190D01*
X91115492Y-51715286D01*
X91123634Y-51548900D01*
X91129668Y-51347098D01*
X91144503Y-50793000D01*
X90924333Y-50793000D01*
X90923685Y-51269250D01*
G36*
X92448482Y-50249737D02*
G01*
X92423200Y-50282302D01*
X92410562Y-50357393D01*
X92406312Y-50492041D01*
X92406000Y-50581333D01*
X92402348Y-50738391D01*
X92392643Y-50856393D01*
X92378760Y-50915414D01*
X92374250Y-50918653D01*
X92319125Y-50894549D01*
X92260326Y-50855153D01*
X92161418Y-50816221D01*
X92015581Y-50796336D01*
X91858673Y-50796793D01*
X91726551Y-50818893D01*
X91688003Y-50834440D01*
X91602129Y-50927117D01*
X91545264Y-51094952D01*
X91518815Y-51333065D01*
X91517000Y-51428000D01*
X91532913Y-51688632D01*
X91579714Y-51880627D01*
X91655998Y-51999104D01*
X91688003Y-52021560D01*
X91772735Y-52044886D01*
X91906342Y-52059917D01*
X92001050Y-52063000D01*
X92161583Y-52053595D01*
X92265912Y-52020648D01*
X92321333Y-51978333D01*
X92382022Y-51921071D01*
X92403394Y-51923676D01*
X92406000Y-51978333D01*
X92435934Y-52049085D01*
X92490667Y-52063000D01*
X92518535Y-52059846D01*
X92539506Y-52043368D01*
X92554560Y-52003041D01*
X92564674Y-51928339D01*
X92570830Y-51808738D01*
X92574004Y-51633711D01*
X92574981Y-51432967D01*
X92384639Y-51432967D01*
X92381559Y-51594602D01*
X92367599Y-51696099D01*
X92336075Y-51761879D01*
X92280299Y-51816368D01*
X92279498Y-51817018D01*
X92181631Y-51873629D01*
X92061787Y-51887258D01*
X91988513Y-51881479D01*
X91866752Y-51856417D01*
X91781844Y-51818376D01*
X91766413Y-51803026D01*
X91748832Y-51734969D01*
X91735711Y-51607710D01*
X91729505Y-51446691D01*
X91729315Y-51418392D01*
X91731159Y-51250788D01*
X91741372Y-51146113D01*
X91765747Y-51082671D01*
X91810079Y-51038765D01*
X91835320Y-51021403D01*
X91975391Y-50971346D01*
X92096972Y-50976674D01*
X92232821Y-51011529D01*
X92318900Y-51073794D01*
X92365605Y-51179960D01*
X92383333Y-51346518D01*
X92384639Y-51432967D01*
X92574981Y-51432967D01*
X92575178Y-51392734D01*
X92575333Y-51152833D01*
X92575040Y-50853252D01*
X92573507Y-50627811D01*
X92569756Y-50465987D01*
X92562807Y-50357252D01*
X92551681Y-50291084D01*
X92535400Y-50256955D01*
X92512983Y-50244341D01*
X92490667Y-50242667D01*
X92448482Y-50249737D01*
X92448482Y-50249737D01*
G37*
X92448482Y-50249737D02*
X92423200Y-50282302D01*
X92410562Y-50357393D01*
X92406312Y-50492041D01*
X92406000Y-50581333D01*
X92402348Y-50738391D01*
X92392643Y-50856393D01*
X92378760Y-50915414D01*
X92374250Y-50918653D01*
X92319125Y-50894549D01*
X92260326Y-50855153D01*
X92161418Y-50816221D01*
X92015581Y-50796336D01*
X91858673Y-50796793D01*
X91726551Y-50818893D01*
X91688003Y-50834440D01*
X91602129Y-50927117D01*
X91545264Y-51094952D01*
X91518815Y-51333065D01*
X91517000Y-51428000D01*
X91532913Y-51688632D01*
X91579714Y-51880627D01*
X91655998Y-51999104D01*
X91688003Y-52021560D01*
X91772735Y-52044886D01*
X91906342Y-52059917D01*
X92001050Y-52063000D01*
X92161583Y-52053595D01*
X92265912Y-52020648D01*
X92321333Y-51978333D01*
X92382022Y-51921071D01*
X92403394Y-51923676D01*
X92406000Y-51978333D01*
X92435934Y-52049085D01*
X92490667Y-52063000D01*
X92518535Y-52059846D01*
X92539506Y-52043368D01*
X92554560Y-52003041D01*
X92564674Y-51928339D01*
X92570830Y-51808738D01*
X92574004Y-51633711D01*
X92574981Y-51432967D01*
X92384639Y-51432967D01*
X92381559Y-51594602D01*
X92367599Y-51696099D01*
X92336075Y-51761879D01*
X92280299Y-51816368D01*
X92279498Y-51817018D01*
X92181631Y-51873629D01*
X92061787Y-51887258D01*
X91988513Y-51881479D01*
X91866752Y-51856417D01*
X91781844Y-51818376D01*
X91766413Y-51803026D01*
X91748832Y-51734969D01*
X91735711Y-51607710D01*
X91729505Y-51446691D01*
X91729315Y-51418392D01*
X91731159Y-51250788D01*
X91741372Y-51146113D01*
X91765747Y-51082671D01*
X91810079Y-51038765D01*
X91835320Y-51021403D01*
X91975391Y-50971346D01*
X92096972Y-50976674D01*
X92232821Y-51011529D01*
X92318900Y-51073794D01*
X92365605Y-51179960D01*
X92383333Y-51346518D01*
X92384639Y-51432967D01*
X92574981Y-51432967D01*
X92575178Y-51392734D01*
X92575333Y-51152833D01*
X92575040Y-50853252D01*
X92573507Y-50627811D01*
X92569756Y-50465987D01*
X92562807Y-50357252D01*
X92551681Y-50291084D01*
X92535400Y-50256955D01*
X92512983Y-50244341D01*
X92490667Y-50242667D01*
X92448482Y-50249737D01*
G36*
X79232280Y-49337120D02*
G01*
X78993855Y-49357074D01*
X78813400Y-49401499D01*
X78682924Y-49479534D01*
X78594434Y-49600315D01*
X78539938Y-49772981D01*
X78511444Y-50006670D01*
X78500960Y-50310521D01*
X78499979Y-50517833D01*
X78502677Y-50827264D01*
X78512823Y-51064257D01*
X78534199Y-51240960D01*
X78570585Y-51369522D01*
X78625760Y-51462092D01*
X78703505Y-51530817D01*
X78807601Y-51587848D01*
X78837081Y-51601214D01*
X78996053Y-51649142D01*
X79211433Y-51684053D01*
X79455690Y-51703993D01*
X79701292Y-51707008D01*
X79920705Y-51691146D01*
X79978464Y-51682205D01*
X80200156Y-51615921D01*
X80362681Y-51501616D01*
X80483801Y-51326631D01*
X80487418Y-51319435D01*
X80519920Y-51243668D01*
X80542799Y-51157836D01*
X80557663Y-51045987D01*
X80566118Y-50892169D01*
X80569471Y-50697832D01*
X80084126Y-50697832D01*
X80083539Y-50860212D01*
X80075924Y-50970768D01*
X80059449Y-51045886D01*
X80032283Y-51101956D01*
X80004230Y-51140807D01*
X79904255Y-51227650D01*
X79764204Y-51266878D01*
X79736546Y-51269772D01*
X79611326Y-51276729D01*
X79517749Y-51274673D01*
X79501454Y-51272148D01*
X79421957Y-51262819D01*
X79306592Y-51258679D01*
X79300371Y-51258667D01*
X79153533Y-51228296D01*
X79071000Y-51174000D01*
X79036587Y-51132076D01*
X79012930Y-51076981D01*
X78998057Y-50993380D01*
X78989994Y-50865937D01*
X78986770Y-50679319D01*
X78986333Y-50515909D01*
X78986974Y-50284935D01*
X78990578Y-50122735D01*
X78999666Y-50013416D01*
X79016761Y-49941084D01*
X79044385Y-49889849D01*
X79085058Y-49843818D01*
X79094491Y-49834327D01*
X79153341Y-49781468D01*
X79214201Y-49750538D01*
X79299523Y-49737022D01*
X79431757Y-49736407D01*
X79558663Y-49741001D01*
X79743628Y-49750910D01*
X79876989Y-49771050D01*
X79967590Y-49813751D01*
X80024274Y-49891345D01*
X80055885Y-50016161D01*
X80071267Y-50200532D01*
X80079262Y-50456787D01*
X80079517Y-50467240D01*
X80084126Y-50697832D01*
X80569471Y-50697832D01*
X80569772Y-50680432D01*
X80570335Y-50496667D01*
X80569004Y-50236611D01*
X80563937Y-50045206D01*
X80553526Y-49906462D01*
X80536164Y-49804388D01*
X80510241Y-49722996D01*
X80487418Y-49672345D01*
X80414817Y-49548563D01*
X80328002Y-49458208D01*
X80213190Y-49396355D01*
X80056596Y-49358075D01*
X79844438Y-49338441D01*
X79562930Y-49332528D01*
X79536667Y-49332500D01*
X79232280Y-49337120D01*
X79232280Y-49337120D01*
G37*
X79232280Y-49337120D02*
X78993855Y-49357074D01*
X78813400Y-49401499D01*
X78682924Y-49479534D01*
X78594434Y-49600315D01*
X78539938Y-49772981D01*
X78511444Y-50006670D01*
X78500960Y-50310521D01*
X78499979Y-50517833D01*
X78502677Y-50827264D01*
X78512823Y-51064257D01*
X78534199Y-51240960D01*
X78570585Y-51369522D01*
X78625760Y-51462092D01*
X78703505Y-51530817D01*
X78807601Y-51587848D01*
X78837081Y-51601214D01*
X78996053Y-51649142D01*
X79211433Y-51684053D01*
X79455690Y-51703993D01*
X79701292Y-51707008D01*
X79920705Y-51691146D01*
X79978464Y-51682205D01*
X80200156Y-51615921D01*
X80362681Y-51501616D01*
X80483801Y-51326631D01*
X80487418Y-51319435D01*
X80519920Y-51243668D01*
X80542799Y-51157836D01*
X80557663Y-51045987D01*
X80566118Y-50892169D01*
X80569471Y-50697832D01*
X80084126Y-50697832D01*
X80083539Y-50860212D01*
X80075924Y-50970768D01*
X80059449Y-51045886D01*
X80032283Y-51101956D01*
X80004230Y-51140807D01*
X79904255Y-51227650D01*
X79764204Y-51266878D01*
X79736546Y-51269772D01*
X79611326Y-51276729D01*
X79517749Y-51274673D01*
X79501454Y-51272148D01*
X79421957Y-51262819D01*
X79306592Y-51258679D01*
X79300371Y-51258667D01*
X79153533Y-51228296D01*
X79071000Y-51174000D01*
X79036587Y-51132076D01*
X79012930Y-51076981D01*
X78998057Y-50993380D01*
X78989994Y-50865937D01*
X78986770Y-50679319D01*
X78986333Y-50515909D01*
X78986974Y-50284935D01*
X78990578Y-50122735D01*
X78999666Y-50013416D01*
X79016761Y-49941084D01*
X79044385Y-49889849D01*
X79085058Y-49843818D01*
X79094491Y-49834327D01*
X79153341Y-49781468D01*
X79214201Y-49750538D01*
X79299523Y-49737022D01*
X79431757Y-49736407D01*
X79558663Y-49741001D01*
X79743628Y-49750910D01*
X79876989Y-49771050D01*
X79967590Y-49813751D01*
X80024274Y-49891345D01*
X80055885Y-50016161D01*
X80071267Y-50200532D01*
X80079262Y-50456787D01*
X80079517Y-50467240D01*
X80084126Y-50697832D01*
X80569471Y-50697832D01*
X80569772Y-50680432D01*
X80570335Y-50496667D01*
X80569004Y-50236611D01*
X80563937Y-50045206D01*
X80553526Y-49906462D01*
X80536164Y-49804388D01*
X80510241Y-49722996D01*
X80487418Y-49672345D01*
X80414817Y-49548563D01*
X80328002Y-49458208D01*
X80213190Y-49396355D01*
X80056596Y-49358075D01*
X79844438Y-49338441D01*
X79562930Y-49332528D01*
X79536667Y-49332500D01*
X79232280Y-49337120D01*
G36*
X76672182Y-49320643D02*
G01*
X76553758Y-49330767D01*
X76277000Y-49360405D01*
X76277000Y-49764888D01*
X76783647Y-49744022D01*
X77050704Y-49737971D01*
X77244675Y-49747746D01*
X77376300Y-49777284D01*
X77456321Y-49830522D01*
X77495479Y-49911397D01*
X77504667Y-50008311D01*
X77490783Y-50115327D01*
X77456961Y-50182063D01*
X77453000Y-50184935D01*
X77392629Y-50203160D01*
X77266904Y-50228943D01*
X77094419Y-50258805D01*
X76900970Y-50288241D01*
X76654784Y-50327089D01*
X76478383Y-50367089D01*
X76357129Y-50415800D01*
X76276383Y-50480782D01*
X76221507Y-50569594D01*
X76188623Y-50656076D01*
X76161721Y-50804532D01*
X76157924Y-50990766D01*
X76174732Y-51183208D01*
X76209644Y-51350285D01*
X76251357Y-51448275D01*
X76340584Y-51544969D01*
X76443702Y-51617139D01*
X76553935Y-51651399D01*
X76726361Y-51678873D01*
X76938655Y-51697831D01*
X77168495Y-51706543D01*
X77393557Y-51703277D01*
X77483500Y-51697745D01*
X77669726Y-51681017D01*
X77787255Y-51659946D01*
X77851880Y-51624735D01*
X77879396Y-51565590D01*
X77885595Y-51472715D01*
X77885667Y-51448311D01*
X77885667Y-51258570D01*
X77305096Y-51261464D01*
X77068470Y-51261429D01*
X76902274Y-51257499D01*
X76792302Y-51248075D01*
X76724350Y-51231555D01*
X76684211Y-51206339D01*
X76670096Y-51189921D01*
X76628865Y-51088645D01*
X76617645Y-50963726D01*
X76636584Y-50853005D01*
X76668583Y-50803631D01*
X76731251Y-50780852D01*
X76857270Y-50753480D01*
X77025774Y-50725632D01*
X77144833Y-50709638D01*
X77342221Y-50681371D01*
X77522793Y-50648333D01*
X77660066Y-50615691D01*
X77707274Y-50599881D01*
X77842700Y-50498807D01*
X77929758Y-50328520D01*
X77968271Y-50089420D01*
X77970333Y-50007007D01*
X77942727Y-49756234D01*
X77862197Y-49560173D01*
X77732177Y-49426441D01*
X77700042Y-49407583D01*
X77577072Y-49367626D01*
X77391327Y-49337515D01*
X77164281Y-49318688D01*
X76917408Y-49312585D01*
X76672182Y-49320643D01*
X76672182Y-49320643D01*
G37*
X76672182Y-49320643D02*
X76553758Y-49330767D01*
X76277000Y-49360405D01*
X76277000Y-49764888D01*
X76783647Y-49744022D01*
X77050704Y-49737971D01*
X77244675Y-49747746D01*
X77376300Y-49777284D01*
X77456321Y-49830522D01*
X77495479Y-49911397D01*
X77504667Y-50008311D01*
X77490783Y-50115327D01*
X77456961Y-50182063D01*
X77453000Y-50184935D01*
X77392629Y-50203160D01*
X77266904Y-50228943D01*
X77094419Y-50258805D01*
X76900970Y-50288241D01*
X76654784Y-50327089D01*
X76478383Y-50367089D01*
X76357129Y-50415800D01*
X76276383Y-50480782D01*
X76221507Y-50569594D01*
X76188623Y-50656076D01*
X76161721Y-50804532D01*
X76157924Y-50990766D01*
X76174732Y-51183208D01*
X76209644Y-51350285D01*
X76251357Y-51448275D01*
X76340584Y-51544969D01*
X76443702Y-51617139D01*
X76553935Y-51651399D01*
X76726361Y-51678873D01*
X76938655Y-51697831D01*
X77168495Y-51706543D01*
X77393557Y-51703277D01*
X77483500Y-51697745D01*
X77669726Y-51681017D01*
X77787255Y-51659946D01*
X77851880Y-51624735D01*
X77879396Y-51565590D01*
X77885595Y-51472715D01*
X77885667Y-51448311D01*
X77885667Y-51258570D01*
X77305096Y-51261464D01*
X77068470Y-51261429D01*
X76902274Y-51257499D01*
X76792302Y-51248075D01*
X76724350Y-51231555D01*
X76684211Y-51206339D01*
X76670096Y-51189921D01*
X76628865Y-51088645D01*
X76617645Y-50963726D01*
X76636584Y-50853005D01*
X76668583Y-50803631D01*
X76731251Y-50780852D01*
X76857270Y-50753480D01*
X77025774Y-50725632D01*
X77144833Y-50709638D01*
X77342221Y-50681371D01*
X77522793Y-50648333D01*
X77660066Y-50615691D01*
X77707274Y-50599881D01*
X77842700Y-50498807D01*
X77929758Y-50328520D01*
X77968271Y-50089420D01*
X77970333Y-50007007D01*
X77942727Y-49756234D01*
X77862197Y-49560173D01*
X77732177Y-49426441D01*
X77700042Y-49407583D01*
X77577072Y-49367626D01*
X77391327Y-49337515D01*
X77164281Y-49318688D01*
X76917408Y-49312585D01*
X76672182Y-49320643D01*
G36*
X74175971Y-49344850D02*
G01*
X73998166Y-49402348D01*
X73863721Y-49493062D01*
X73848606Y-49507606D01*
X73773958Y-49600837D01*
X73719294Y-49719063D01*
X73680318Y-49878297D01*
X73652736Y-50094555D01*
X73637515Y-50294636D01*
X73614255Y-50664106D01*
X74384595Y-50675636D01*
X75154934Y-50687167D01*
X75142056Y-50856500D01*
X75128779Y-50983622D01*
X75112367Y-51082230D01*
X75109014Y-51095364D01*
X75060909Y-51167916D01*
X74959773Y-51220034D01*
X74797904Y-51253337D01*
X74567598Y-51269442D01*
X74276750Y-51270260D01*
X73737000Y-51260686D01*
X73737000Y-51445647D01*
X73749939Y-51578853D01*
X73785795Y-51648162D01*
X73793478Y-51652281D01*
X73878374Y-51668758D01*
X74026111Y-51682350D01*
X74214895Y-51692493D01*
X74422931Y-51698626D01*
X74628426Y-51700187D01*
X74809585Y-51696612D01*
X74944615Y-51687340D01*
X74976129Y-51682793D01*
X75199559Y-51626221D01*
X75367563Y-51540550D01*
X75487650Y-51414850D01*
X75567326Y-51238197D01*
X75614098Y-50999663D01*
X75634192Y-50724992D01*
X75640329Y-50368470D01*
X75636356Y-50287673D01*
X75161454Y-50287673D01*
X75133939Y-50306459D01*
X75064890Y-50318265D01*
X74942047Y-50324629D01*
X74753149Y-50327088D01*
X74625592Y-50327333D01*
X74065792Y-50327333D01*
X74091318Y-50232083D01*
X74112937Y-50108275D01*
X74117422Y-50039659D01*
X74146841Y-49943446D01*
X74217320Y-49843258D01*
X74221909Y-49838576D01*
X74288607Y-49782672D01*
X74365330Y-49751171D01*
X74478005Y-49737404D01*
X74626000Y-49734667D01*
X74791236Y-49738403D01*
X74897893Y-49754056D01*
X74971900Y-49788294D01*
X75030091Y-49838576D01*
X75113786Y-49967175D01*
X75134000Y-50067947D01*
X75142469Y-50182902D01*
X75159696Y-50260371D01*
X75161454Y-50287673D01*
X75636356Y-50287673D01*
X75626339Y-50083989D01*
X75589110Y-49860652D01*
X75525533Y-49687561D01*
X75432498Y-49553819D01*
X75306893Y-49448528D01*
X75261897Y-49420568D01*
X75158940Y-49374327D01*
X75025691Y-49343834D01*
X74840827Y-49325136D01*
X74711707Y-49318539D01*
X74409648Y-49317827D01*
X74175971Y-49344850D01*
X74175971Y-49344850D01*
G37*
X74175971Y-49344850D02*
X73998166Y-49402348D01*
X73863721Y-49493062D01*
X73848606Y-49507606D01*
X73773958Y-49600837D01*
X73719294Y-49719063D01*
X73680318Y-49878297D01*
X73652736Y-50094555D01*
X73637515Y-50294636D01*
X73614255Y-50664106D01*
X74384595Y-50675636D01*
X75154934Y-50687167D01*
X75142056Y-50856500D01*
X75128779Y-50983622D01*
X75112367Y-51082230D01*
X75109014Y-51095364D01*
X75060909Y-51167916D01*
X74959773Y-51220034D01*
X74797904Y-51253337D01*
X74567598Y-51269442D01*
X74276750Y-51270260D01*
X73737000Y-51260686D01*
X73737000Y-51445647D01*
X73749939Y-51578853D01*
X73785795Y-51648162D01*
X73793478Y-51652281D01*
X73878374Y-51668758D01*
X74026111Y-51682350D01*
X74214895Y-51692493D01*
X74422931Y-51698626D01*
X74628426Y-51700187D01*
X74809585Y-51696612D01*
X74944615Y-51687340D01*
X74976129Y-51682793D01*
X75199559Y-51626221D01*
X75367563Y-51540550D01*
X75487650Y-51414850D01*
X75567326Y-51238197D01*
X75614098Y-50999663D01*
X75634192Y-50724992D01*
X75640329Y-50368470D01*
X75636356Y-50287673D01*
X75161454Y-50287673D01*
X75133939Y-50306459D01*
X75064890Y-50318265D01*
X74942047Y-50324629D01*
X74753149Y-50327088D01*
X74625592Y-50327333D01*
X74065792Y-50327333D01*
X74091318Y-50232083D01*
X74112937Y-50108275D01*
X74117422Y-50039659D01*
X74146841Y-49943446D01*
X74217320Y-49843258D01*
X74221909Y-49838576D01*
X74288607Y-49782672D01*
X74365330Y-49751171D01*
X74478005Y-49737404D01*
X74626000Y-49734667D01*
X74791236Y-49738403D01*
X74897893Y-49754056D01*
X74971900Y-49788294D01*
X75030091Y-49838576D01*
X75113786Y-49967175D01*
X75134000Y-50067947D01*
X75142469Y-50182902D01*
X75159696Y-50260371D01*
X75161454Y-50287673D01*
X75636356Y-50287673D01*
X75626339Y-50083989D01*
X75589110Y-49860652D01*
X75525533Y-49687561D01*
X75432498Y-49553819D01*
X75306893Y-49448528D01*
X75261897Y-49420568D01*
X75158940Y-49374327D01*
X75025691Y-49343834D01*
X74840827Y-49325136D01*
X74711707Y-49318539D01*
X74409648Y-49317827D01*
X74175971Y-49344850D01*
G36*
X81239884Y-49827772D02*
G01*
X81246701Y-50241232D01*
X81254713Y-50578592D01*
X81265333Y-50848415D01*
X81279975Y-51059269D01*
X81300054Y-51219717D01*
X81326983Y-51338325D01*
X81362176Y-51423658D01*
X81407046Y-51484282D01*
X81463007Y-51528762D01*
X81526333Y-51563190D01*
X81637990Y-51599918D01*
X81803439Y-51634013D01*
X81991873Y-51659471D01*
X82044917Y-51664262D01*
X82415333Y-51693643D01*
X82415333Y-51216333D01*
X82190591Y-51216333D01*
X82085359Y-51216749D01*
X82001048Y-51212360D01*
X81935187Y-51194705D01*
X81885306Y-51155329D01*
X81848933Y-51085771D01*
X81823596Y-50977575D01*
X81806825Y-50822282D01*
X81796147Y-50611433D01*
X81789092Y-50336571D01*
X81783188Y-49989237D01*
X81780333Y-49812212D01*
X81759167Y-48528167D01*
X81489769Y-48515438D01*
X81220372Y-48502710D01*
X81239884Y-49827772D01*
X81239884Y-49827772D01*
G37*
X81239884Y-49827772D02*
X81246701Y-50241232D01*
X81254713Y-50578592D01*
X81265333Y-50848415D01*
X81279975Y-51059269D01*
X81300054Y-51219717D01*
X81326983Y-51338325D01*
X81362176Y-51423658D01*
X81407046Y-51484282D01*
X81463007Y-51528762D01*
X81526333Y-51563190D01*
X81637990Y-51599918D01*
X81803439Y-51634013D01*
X81991873Y-51659471D01*
X82044917Y-51664262D01*
X82415333Y-51693643D01*
X82415333Y-51216333D01*
X82190591Y-51216333D01*
X82085359Y-51216749D01*
X82001048Y-51212360D01*
X81935187Y-51194705D01*
X81885306Y-51155329D01*
X81848933Y-51085771D01*
X81823596Y-50977575D01*
X81806825Y-50822282D01*
X81796147Y-50611433D01*
X81789092Y-50336571D01*
X81783188Y-49989237D01*
X81780333Y-49812212D01*
X81759167Y-48528167D01*
X81489769Y-48515438D01*
X81220372Y-48502710D01*
X81239884Y-49827772D01*
G36*
X71705000Y-48676333D02*
G01*
X71916667Y-48676333D01*
X72098765Y-48694517D01*
X72215476Y-48756114D01*
X72276290Y-48871692D01*
X72290697Y-49051819D01*
X72289135Y-49091135D01*
X72276500Y-49332500D01*
X71990750Y-49345017D01*
X71705000Y-49357535D01*
X71705000Y-49777000D01*
X72297667Y-49777000D01*
X72297667Y-51682000D01*
X72763333Y-51682000D01*
X72763333Y-49777000D01*
X73229000Y-49777000D01*
X73229000Y-49358091D01*
X73006750Y-49345295D01*
X72784500Y-49332500D01*
X72762685Y-48969816D01*
X72740426Y-48735440D01*
X72697888Y-48564097D01*
X72622767Y-48444404D01*
X72502759Y-48364973D01*
X72325558Y-48314419D01*
X72078862Y-48281358D01*
X72011917Y-48275112D01*
X71705000Y-48247873D01*
X71705000Y-48676333D01*
X71705000Y-48676333D01*
G37*
X71705000Y-48676333D02*
X71916667Y-48676333D01*
X72098765Y-48694517D01*
X72215476Y-48756114D01*
X72276290Y-48871692D01*
X72290697Y-49051819D01*
X72289135Y-49091135D01*
X72276500Y-49332500D01*
X71990750Y-49345017D01*
X71705000Y-49357535D01*
X71705000Y-49777000D01*
X72297667Y-49777000D01*
X72297667Y-51682000D01*
X72763333Y-51682000D01*
X72763333Y-49777000D01*
X73229000Y-49777000D01*
X73229000Y-49358091D01*
X73006750Y-49345295D01*
X72784500Y-49332500D01*
X72762685Y-48969816D01*
X72740426Y-48735440D01*
X72697888Y-48564097D01*
X72622767Y-48444404D01*
X72502759Y-48364973D01*
X72325558Y-48314419D01*
X72078862Y-48281358D01*
X72011917Y-48275112D01*
X71705000Y-48247873D01*
X71705000Y-48676333D01*
G36*
X86776677Y-49046750D02*
G01*
X86780296Y-49384179D01*
X86793181Y-49646649D01*
X86820205Y-49843750D01*
X86866243Y-49985076D01*
X86936170Y-50080218D01*
X87034860Y-50138770D01*
X87167188Y-50170324D01*
X87338027Y-50184471D01*
X87355196Y-50185208D01*
X87519273Y-50188737D01*
X87653127Y-50185811D01*
X87731984Y-50177101D01*
X87738750Y-50174827D01*
X87783540Y-50117314D01*
X87791667Y-50071444D01*
X87783232Y-50031193D01*
X87746474Y-50007740D01*
X87664209Y-49997085D01*
X87519255Y-49995232D01*
X87466251Y-49995732D01*
X87296339Y-49994934D01*
X87188719Y-49984332D01*
X87121155Y-49958893D01*
X87071407Y-49913585D01*
X87064085Y-49904737D01*
X87009805Y-49793052D01*
X86987980Y-49656377D01*
X86987982Y-49655893D01*
X86995489Y-49568842D01*
X87013380Y-49542158D01*
X87019732Y-49548412D01*
X87123799Y-49635389D01*
X87276276Y-49683718D01*
X87449437Y-49691785D01*
X87615552Y-49657973D01*
X87736390Y-49590165D01*
X87790462Y-49539779D01*
X87824996Y-49488050D01*
X87844366Y-49415612D01*
X87852947Y-49303104D01*
X87855114Y-49131162D01*
X87855167Y-49064409D01*
X87855074Y-49053126D01*
X87664667Y-49053126D01*
X87657362Y-49254276D01*
X87636076Y-49383335D01*
X87611750Y-49428594D01*
X87474975Y-49491454D01*
X87311764Y-49499848D01*
X87156386Y-49456610D01*
X87057199Y-49382707D01*
X87013905Y-49314270D01*
X86993362Y-49222725D01*
X86991423Y-49082929D01*
X86995039Y-49005878D01*
X87009773Y-48853915D01*
X87032635Y-48733984D01*
X87057631Y-48673769D01*
X87155612Y-48623441D01*
X87296583Y-48601711D01*
X87443247Y-48610300D01*
X87557940Y-48650688D01*
X87611795Y-48692528D01*
X87643687Y-48744900D01*
X87659306Y-48829255D01*
X87664339Y-48967045D01*
X87664667Y-49053126D01*
X87855074Y-49053126D01*
X87853539Y-48867765D01*
X87846098Y-48735858D01*
X87829010Y-48648778D01*
X87798441Y-48586619D01*
X87752538Y-48531577D01*
X87678977Y-48467341D01*
X87593875Y-48434346D01*
X87466504Y-48422981D01*
X87403288Y-48422333D01*
X87241617Y-48430532D01*
X87136989Y-48459632D01*
X87072000Y-48507000D01*
X87011312Y-48564262D01*
X86989940Y-48561657D01*
X86987333Y-48507000D01*
X86962529Y-48440607D01*
X86881500Y-48422333D01*
X86775667Y-48422333D01*
X86776677Y-49046750D01*
X86776677Y-49046750D01*
G37*
X86776677Y-49046750D02*
X86780296Y-49384179D01*
X86793181Y-49646649D01*
X86820205Y-49843750D01*
X86866243Y-49985076D01*
X86936170Y-50080218D01*
X87034860Y-50138770D01*
X87167188Y-50170324D01*
X87338027Y-50184471D01*
X87355196Y-50185208D01*
X87519273Y-50188737D01*
X87653127Y-50185811D01*
X87731984Y-50177101D01*
X87738750Y-50174827D01*
X87783540Y-50117314D01*
X87791667Y-50071444D01*
X87783232Y-50031193D01*
X87746474Y-50007740D01*
X87664209Y-49997085D01*
X87519255Y-49995232D01*
X87466251Y-49995732D01*
X87296339Y-49994934D01*
X87188719Y-49984332D01*
X87121155Y-49958893D01*
X87071407Y-49913585D01*
X87064085Y-49904737D01*
X87009805Y-49793052D01*
X86987980Y-49656377D01*
X86987982Y-49655893D01*
X86995489Y-49568842D01*
X87013380Y-49542158D01*
X87019732Y-49548412D01*
X87123799Y-49635389D01*
X87276276Y-49683718D01*
X87449437Y-49691785D01*
X87615552Y-49657973D01*
X87736390Y-49590165D01*
X87790462Y-49539779D01*
X87824996Y-49488050D01*
X87844366Y-49415612D01*
X87852947Y-49303104D01*
X87855114Y-49131162D01*
X87855167Y-49064409D01*
X87855074Y-49053126D01*
X87664667Y-49053126D01*
X87657362Y-49254276D01*
X87636076Y-49383335D01*
X87611750Y-49428594D01*
X87474975Y-49491454D01*
X87311764Y-49499848D01*
X87156386Y-49456610D01*
X87057199Y-49382707D01*
X87013905Y-49314270D01*
X86993362Y-49222725D01*
X86991423Y-49082929D01*
X86995039Y-49005878D01*
X87009773Y-48853915D01*
X87032635Y-48733984D01*
X87057631Y-48673769D01*
X87155612Y-48623441D01*
X87296583Y-48601711D01*
X87443247Y-48610300D01*
X87557940Y-48650688D01*
X87611795Y-48692528D01*
X87643687Y-48744900D01*
X87659306Y-48829255D01*
X87664339Y-48967045D01*
X87664667Y-49053126D01*
X87855074Y-49053126D01*
X87853539Y-48867765D01*
X87846098Y-48735858D01*
X87829010Y-48648778D01*
X87798441Y-48586619D01*
X87752538Y-48531577D01*
X87678977Y-48467341D01*
X87593875Y-48434346D01*
X87466504Y-48422981D01*
X87403288Y-48422333D01*
X87241617Y-48430532D01*
X87136989Y-48459632D01*
X87072000Y-48507000D01*
X87011312Y-48564262D01*
X86989940Y-48561657D01*
X86987333Y-48507000D01*
X86962529Y-48440607D01*
X86881500Y-48422333D01*
X86775667Y-48422333D01*
X86776677Y-49046750D01*
G36*
X91591083Y-47837306D02*
G01*
X91495833Y-47850833D01*
X91495833Y-49671167D01*
X91591083Y-49684694D01*
X91665655Y-49676674D01*
X91686332Y-49611611D01*
X91686333Y-49610611D01*
X91689759Y-49551238D01*
X91713737Y-49553100D01*
X91771000Y-49607667D01*
X91847422Y-49660384D01*
X91957293Y-49685787D01*
X92099083Y-49690987D01*
X92245925Y-49680992D01*
X92365662Y-49656695D01*
X92414919Y-49634620D01*
X92500737Y-49528953D01*
X92553117Y-49363122D01*
X92574529Y-49128297D01*
X92575333Y-49060894D01*
X92575119Y-49057333D01*
X92363667Y-49057333D01*
X92361102Y-49228948D01*
X92350092Y-49337087D01*
X92325668Y-49402871D01*
X92282858Y-49447421D01*
X92269581Y-49457099D01*
X92121244Y-49514615D01*
X91955637Y-49510127D01*
X91810962Y-49444879D01*
X91807440Y-49442073D01*
X91754392Y-49389246D01*
X91724167Y-49322650D01*
X91710594Y-49218527D01*
X91707500Y-49057333D01*
X91710747Y-48893438D01*
X91724603Y-48790335D01*
X91755239Y-48724266D01*
X91807440Y-48672593D01*
X91950929Y-48605589D01*
X92116467Y-48599310D01*
X92265849Y-48654997D01*
X92269581Y-48657567D01*
X92317437Y-48700189D01*
X92345738Y-48759080D01*
X92359456Y-48855358D01*
X92363560Y-49010144D01*
X92363667Y-49057333D01*
X92575119Y-49057333D01*
X92559495Y-48798141D01*
X92512808Y-48605188D01*
X92436511Y-48486364D01*
X92404330Y-48463773D01*
X92290825Y-48432227D01*
X92134235Y-48422517D01*
X91969835Y-48433259D01*
X91832900Y-48463072D01*
X91780420Y-48488234D01*
X91686333Y-48554134D01*
X91686333Y-48188956D01*
X91685269Y-48013300D01*
X91679192Y-47906333D01*
X91663775Y-47852078D01*
X91634690Y-47834560D01*
X91591083Y-47837306D01*
X91591083Y-47837306D01*
G37*
X91591083Y-47837306D02*
X91495833Y-47850833D01*
X91495833Y-49671167D01*
X91591083Y-49684694D01*
X91665655Y-49676674D01*
X91686332Y-49611611D01*
X91686333Y-49610611D01*
X91689759Y-49551238D01*
X91713737Y-49553100D01*
X91771000Y-49607667D01*
X91847422Y-49660384D01*
X91957293Y-49685787D01*
X92099083Y-49690987D01*
X92245925Y-49680992D01*
X92365662Y-49656695D01*
X92414919Y-49634620D01*
X92500737Y-49528953D01*
X92553117Y-49363122D01*
X92574529Y-49128297D01*
X92575333Y-49060894D01*
X92575119Y-49057333D01*
X92363667Y-49057333D01*
X92361102Y-49228948D01*
X92350092Y-49337087D01*
X92325668Y-49402871D01*
X92282858Y-49447421D01*
X92269581Y-49457099D01*
X92121244Y-49514615D01*
X91955637Y-49510127D01*
X91810962Y-49444879D01*
X91807440Y-49442073D01*
X91754392Y-49389246D01*
X91724167Y-49322650D01*
X91710594Y-49218527D01*
X91707500Y-49057333D01*
X91710747Y-48893438D01*
X91724603Y-48790335D01*
X91755239Y-48724266D01*
X91807440Y-48672593D01*
X91950929Y-48605589D01*
X92116467Y-48599310D01*
X92265849Y-48654997D01*
X92269581Y-48657567D01*
X92317437Y-48700189D01*
X92345738Y-48759080D01*
X92359456Y-48855358D01*
X92363560Y-49010144D01*
X92363667Y-49057333D01*
X92575119Y-49057333D01*
X92559495Y-48798141D01*
X92512808Y-48605188D01*
X92436511Y-48486364D01*
X92404330Y-48463773D01*
X92290825Y-48432227D01*
X92134235Y-48422517D01*
X91969835Y-48433259D01*
X91832900Y-48463072D01*
X91780420Y-48488234D01*
X91686333Y-48554134D01*
X91686333Y-48188956D01*
X91685269Y-48013300D01*
X91679192Y-47906333D01*
X91663775Y-47852078D01*
X91634690Y-47834560D01*
X91591083Y-47837306D01*
G36*
X90383020Y-48433250D02*
G01*
X90241122Y-48473987D01*
X90151184Y-48556521D01*
X90097803Y-48692830D01*
X90074127Y-48825275D01*
X90059354Y-48964035D01*
X90055734Y-49068128D01*
X90061543Y-49107826D01*
X90110198Y-49122200D01*
X90224448Y-49133593D01*
X90385233Y-49140548D01*
X90508790Y-49142000D01*
X90934917Y-49142000D01*
X90907888Y-49279583D01*
X90870065Y-49397159D01*
X90802043Y-49470939D01*
X90688301Y-49508515D01*
X90513316Y-49517481D01*
X90426818Y-49514936D01*
X90268584Y-49509720D01*
X90176834Y-49514149D01*
X90133523Y-49533053D01*
X90120606Y-49571261D01*
X90119902Y-49597083D01*
X90124696Y-49643761D01*
X90150273Y-49671819D01*
X90213600Y-49685752D01*
X90331645Y-49690058D01*
X90469250Y-49689650D01*
X90644588Y-49683973D01*
X90796427Y-49671324D01*
X90897440Y-49654174D01*
X90910983Y-49649704D01*
X91004790Y-49586898D01*
X91062152Y-49479720D01*
X91090664Y-49311555D01*
X91094676Y-49247833D01*
X91102804Y-48997894D01*
X91102214Y-48972667D01*
X90934917Y-48972667D01*
X90590958Y-48972667D01*
X90421248Y-48971332D01*
X90319101Y-48964133D01*
X90267422Y-48946277D01*
X90249115Y-48912973D01*
X90247000Y-48876253D01*
X90281137Y-48727076D01*
X90379602Y-48630565D01*
X90536476Y-48592121D01*
X90558809Y-48591667D01*
X90730956Y-48612117D01*
X90840535Y-48679593D01*
X90900716Y-48803278D01*
X90907888Y-48835083D01*
X90934917Y-48972667D01*
X91102214Y-48972667D01*
X91098553Y-48816340D01*
X91079645Y-48687495D01*
X91043801Y-48595683D01*
X90989758Y-48526242D01*
X90922023Y-48469722D01*
X90843832Y-48438187D01*
X90728752Y-48424729D01*
X90592281Y-48422333D01*
X90383020Y-48433250D01*
X90383020Y-48433250D01*
G37*
X90383020Y-48433250D02*
X90241122Y-48473987D01*
X90151184Y-48556521D01*
X90097803Y-48692830D01*
X90074127Y-48825275D01*
X90059354Y-48964035D01*
X90055734Y-49068128D01*
X90061543Y-49107826D01*
X90110198Y-49122200D01*
X90224448Y-49133593D01*
X90385233Y-49140548D01*
X90508790Y-49142000D01*
X90934917Y-49142000D01*
X90907888Y-49279583D01*
X90870065Y-49397159D01*
X90802043Y-49470939D01*
X90688301Y-49508515D01*
X90513316Y-49517481D01*
X90426818Y-49514936D01*
X90268584Y-49509720D01*
X90176834Y-49514149D01*
X90133523Y-49533053D01*
X90120606Y-49571261D01*
X90119902Y-49597083D01*
X90124696Y-49643761D01*
X90150273Y-49671819D01*
X90213600Y-49685752D01*
X90331645Y-49690058D01*
X90469250Y-49689650D01*
X90644588Y-49683973D01*
X90796427Y-49671324D01*
X90897440Y-49654174D01*
X90910983Y-49649704D01*
X91004790Y-49586898D01*
X91062152Y-49479720D01*
X91090664Y-49311555D01*
X91094676Y-49247833D01*
X91102804Y-48997894D01*
X91102214Y-48972667D01*
X90934917Y-48972667D01*
X90590958Y-48972667D01*
X90421248Y-48971332D01*
X90319101Y-48964133D01*
X90267422Y-48946277D01*
X90249115Y-48912973D01*
X90247000Y-48876253D01*
X90281137Y-48727076D01*
X90379602Y-48630565D01*
X90536476Y-48592121D01*
X90558809Y-48591667D01*
X90730956Y-48612117D01*
X90840535Y-48679593D01*
X90900716Y-48803278D01*
X90907888Y-48835083D01*
X90934917Y-48972667D01*
X91102214Y-48972667D01*
X91098553Y-48816340D01*
X91079645Y-48687495D01*
X91043801Y-48595683D01*
X90989758Y-48526242D01*
X90922023Y-48469722D01*
X90843832Y-48438187D01*
X90728752Y-48424729D01*
X90592281Y-48422333D01*
X90383020Y-48433250D01*
G36*
X89204296Y-48431053D02*
G01*
X89033048Y-48440438D01*
X88929474Y-48455627D01*
X88876597Y-48480863D01*
X88857939Y-48517583D01*
X88860152Y-48555655D01*
X88895731Y-48578010D01*
X88981010Y-48588665D01*
X89132319Y-48591635D01*
X89159213Y-48591667D01*
X89358021Y-48600122D01*
X89484637Y-48629545D01*
X89550217Y-48686022D01*
X89565918Y-48775640D01*
X89562333Y-48811586D01*
X89545850Y-48863945D01*
X89502090Y-48899338D01*
X89412528Y-48926101D01*
X89258639Y-48952568D01*
X89244180Y-48954745D01*
X89046651Y-48990319D01*
X88918969Y-49034079D01*
X88846409Y-49098226D01*
X88814246Y-49194966D01*
X88807667Y-49316517D01*
X88819171Y-49474443D01*
X88862128Y-49581985D01*
X88949200Y-49648135D01*
X89093052Y-49681888D01*
X89306346Y-49692237D01*
X89336833Y-49692333D01*
X89511257Y-49691089D01*
X89617739Y-49684407D01*
X89672999Y-49667862D01*
X89693757Y-49637030D01*
X89696762Y-49597083D01*
X89691753Y-49547693D01*
X89664406Y-49520492D01*
X89596431Y-49510508D01*
X89469536Y-49512764D01*
X89398462Y-49515967D01*
X89199649Y-49516326D01*
X89071147Y-49491323D01*
X89001012Y-49435654D01*
X88977297Y-49344013D01*
X88977000Y-49328806D01*
X88995069Y-49249160D01*
X89058003Y-49193729D01*
X89178893Y-49155984D01*
X89370828Y-49129395D01*
X89378226Y-49128662D01*
X89556083Y-49099304D01*
X89665249Y-49043347D01*
X89721018Y-48944903D01*
X89738686Y-48788083D01*
X89739000Y-48753885D01*
X89725885Y-48610519D01*
X89678485Y-48513830D01*
X89584714Y-48456519D01*
X89432489Y-48431292D01*
X89209726Y-48430853D01*
X89204296Y-48431053D01*
X89204296Y-48431053D01*
G37*
X89204296Y-48431053D02*
X89033048Y-48440438D01*
X88929474Y-48455627D01*
X88876597Y-48480863D01*
X88857939Y-48517583D01*
X88860152Y-48555655D01*
X88895731Y-48578010D01*
X88981010Y-48588665D01*
X89132319Y-48591635D01*
X89159213Y-48591667D01*
X89358021Y-48600122D01*
X89484637Y-48629545D01*
X89550217Y-48686022D01*
X89565918Y-48775640D01*
X89562333Y-48811586D01*
X89545850Y-48863945D01*
X89502090Y-48899338D01*
X89412528Y-48926101D01*
X89258639Y-48952568D01*
X89244180Y-48954745D01*
X89046651Y-48990319D01*
X88918969Y-49034079D01*
X88846409Y-49098226D01*
X88814246Y-49194966D01*
X88807667Y-49316517D01*
X88819171Y-49474443D01*
X88862128Y-49581985D01*
X88949200Y-49648135D01*
X89093052Y-49681888D01*
X89306346Y-49692237D01*
X89336833Y-49692333D01*
X89511257Y-49691089D01*
X89617739Y-49684407D01*
X89672999Y-49667862D01*
X89693757Y-49637030D01*
X89696762Y-49597083D01*
X89691753Y-49547693D01*
X89664406Y-49520492D01*
X89596431Y-49510508D01*
X89469536Y-49512764D01*
X89398462Y-49515967D01*
X89199649Y-49516326D01*
X89071147Y-49491323D01*
X89001012Y-49435654D01*
X88977297Y-49344013D01*
X88977000Y-49328806D01*
X88995069Y-49249160D01*
X89058003Y-49193729D01*
X89178893Y-49155984D01*
X89370828Y-49129395D01*
X89378226Y-49128662D01*
X89556083Y-49099304D01*
X89665249Y-49043347D01*
X89721018Y-48944903D01*
X89738686Y-48788083D01*
X89739000Y-48753885D01*
X89725885Y-48610519D01*
X89678485Y-48513830D01*
X89584714Y-48456519D01*
X89432489Y-48431292D01*
X89209726Y-48430853D01*
X89204296Y-48431053D01*
G36*
X88309460Y-48426494D02*
G01*
X88286532Y-48447363D01*
X88271539Y-48497516D01*
X88262803Y-48589531D01*
X88258648Y-48735985D01*
X88257397Y-48949456D01*
X88257333Y-49057333D01*
X88257888Y-49301382D01*
X88260671Y-49473344D01*
X88267358Y-49585795D01*
X88279627Y-49651313D01*
X88299154Y-49682476D01*
X88327617Y-49691860D01*
X88342000Y-49692333D01*
X88374540Y-49688172D01*
X88397468Y-49667303D01*
X88412462Y-49617150D01*
X88421198Y-49525135D01*
X88425353Y-49378681D01*
X88426604Y-49165210D01*
X88426667Y-49057333D01*
X88426112Y-48813284D01*
X88423330Y-48641323D01*
X88416642Y-48528871D01*
X88404374Y-48463353D01*
X88384847Y-48432190D01*
X88356384Y-48422806D01*
X88342000Y-48422333D01*
X88309460Y-48426494D01*
X88309460Y-48426494D01*
G37*
X88309460Y-48426494D02*
X88286532Y-48447363D01*
X88271539Y-48497516D01*
X88262803Y-48589531D01*
X88258648Y-48735985D01*
X88257397Y-48949456D01*
X88257333Y-49057333D01*
X88257888Y-49301382D01*
X88260671Y-49473344D01*
X88267358Y-49585795D01*
X88279627Y-49651313D01*
X88299154Y-49682476D01*
X88327617Y-49691860D01*
X88342000Y-49692333D01*
X88374540Y-49688172D01*
X88397468Y-49667303D01*
X88412462Y-49617150D01*
X88421198Y-49525135D01*
X88425353Y-49378681D01*
X88426604Y-49165210D01*
X88426667Y-49057333D01*
X88426112Y-48813284D01*
X88423330Y-48641323D01*
X88416642Y-48528871D01*
X88404374Y-48463353D01*
X88384847Y-48432190D01*
X88356384Y-48422806D01*
X88342000Y-48422333D01*
X88309460Y-48426494D01*
G36*
X85583561Y-48433036D02*
G01*
X85439125Y-48486175D01*
X85415107Y-48503235D01*
X85374110Y-48541346D01*
X85345559Y-48588112D01*
X85326632Y-48659143D01*
X85314508Y-48770047D01*
X85306366Y-48936433D01*
X85300332Y-49138235D01*
X85285498Y-49692333D01*
X85505667Y-49692333D01*
X85506315Y-49216083D01*
X85510005Y-49018620D01*
X85519507Y-48848941D01*
X85533309Y-48727076D01*
X85547104Y-48676333D01*
X85614997Y-48635703D01*
X85733643Y-48615272D01*
X85871496Y-48615364D01*
X85997009Y-48636306D01*
X86070660Y-48670933D01*
X86102053Y-48711267D01*
X86122728Y-48780432D01*
X86134684Y-48893836D01*
X86139920Y-49066887D01*
X86140667Y-49210683D01*
X86140667Y-49692333D01*
X86352333Y-49692333D01*
X86352333Y-49057333D01*
X86351779Y-48813284D01*
X86348996Y-48641323D01*
X86342309Y-48528871D01*
X86330040Y-48463353D01*
X86310513Y-48432190D01*
X86282050Y-48422806D01*
X86267667Y-48422333D01*
X86197407Y-48451742D01*
X86183000Y-48510072D01*
X86183000Y-48597812D01*
X86071458Y-48510072D01*
X85934428Y-48445346D01*
X85760229Y-48419546D01*
X85583561Y-48433036D01*
X85583561Y-48433036D01*
G37*
X85583561Y-48433036D02*
X85439125Y-48486175D01*
X85415107Y-48503235D01*
X85374110Y-48541346D01*
X85345559Y-48588112D01*
X85326632Y-48659143D01*
X85314508Y-48770047D01*
X85306366Y-48936433D01*
X85300332Y-49138235D01*
X85285498Y-49692333D01*
X85505667Y-49692333D01*
X85506315Y-49216083D01*
X85510005Y-49018620D01*
X85519507Y-48848941D01*
X85533309Y-48727076D01*
X85547104Y-48676333D01*
X85614997Y-48635703D01*
X85733643Y-48615272D01*
X85871496Y-48615364D01*
X85997009Y-48636306D01*
X86070660Y-48670933D01*
X86102053Y-48711267D01*
X86122728Y-48780432D01*
X86134684Y-48893836D01*
X86139920Y-49066887D01*
X86140667Y-49210683D01*
X86140667Y-49692333D01*
X86352333Y-49692333D01*
X86352333Y-49057333D01*
X86351779Y-48813284D01*
X86348996Y-48641323D01*
X86342309Y-48528871D01*
X86330040Y-48463353D01*
X86310513Y-48432190D01*
X86282050Y-48422806D01*
X86267667Y-48422333D01*
X86197407Y-48451742D01*
X86183000Y-48510072D01*
X86183000Y-48597812D01*
X86071458Y-48510072D01*
X85934428Y-48445346D01*
X85760229Y-48419546D01*
X85583561Y-48433036D01*
G36*
X84160966Y-48431811D02*
G01*
X84084990Y-48457474D01*
X84016689Y-48506170D01*
X84008341Y-48513325D01*
X83941283Y-48583651D01*
X83904702Y-48665914D01*
X83888227Y-48789743D01*
X83884613Y-48866833D01*
X83875833Y-49120833D01*
X84749729Y-49145029D01*
X84721572Y-49281098D01*
X84684242Y-49396317D01*
X84619104Y-49469310D01*
X84510191Y-49507873D01*
X84341539Y-49519805D01*
X84235667Y-49518390D01*
X84073281Y-49515773D01*
X83977952Y-49522021D01*
X83932214Y-49541088D01*
X83918601Y-49576930D01*
X83918167Y-49590268D01*
X83926426Y-49629976D01*
X83962115Y-49655087D01*
X84041605Y-49669731D01*
X84181266Y-49678041D01*
X84278000Y-49681090D01*
X84517451Y-49678880D01*
X84679149Y-49656494D01*
X84741504Y-49632761D01*
X84812600Y-49582885D01*
X84860306Y-49516911D01*
X84889293Y-49418131D01*
X84904236Y-49269836D01*
X84909808Y-49055315D01*
X84910025Y-49030273D01*
X84909055Y-48972667D01*
X84750394Y-48972667D01*
X84066333Y-48972667D01*
X84066333Y-48848690D01*
X84097167Y-48709602D01*
X84191235Y-48624737D01*
X84350885Y-48592164D01*
X84378766Y-48591667D01*
X84547432Y-48611640D01*
X84654385Y-48678512D01*
X84714320Y-48802705D01*
X84721905Y-48835083D01*
X84750394Y-48972667D01*
X84909055Y-48972667D01*
X84906117Y-48798227D01*
X84883113Y-48636873D01*
X84830362Y-48532660D01*
X84737214Y-48472036D01*
X84593019Y-48441448D01*
X84438072Y-48429713D01*
X84270148Y-48424213D01*
X84160966Y-48431811D01*
X84160966Y-48431811D01*
G37*
X84160966Y-48431811D02*
X84084990Y-48457474D01*
X84016689Y-48506170D01*
X84008341Y-48513325D01*
X83941283Y-48583651D01*
X83904702Y-48665914D01*
X83888227Y-48789743D01*
X83884613Y-48866833D01*
X83875833Y-49120833D01*
X84749729Y-49145029D01*
X84721572Y-49281098D01*
X84684242Y-49396317D01*
X84619104Y-49469310D01*
X84510191Y-49507873D01*
X84341539Y-49519805D01*
X84235667Y-49518390D01*
X84073281Y-49515773D01*
X83977952Y-49522021D01*
X83932214Y-49541088D01*
X83918601Y-49576930D01*
X83918167Y-49590268D01*
X83926426Y-49629976D01*
X83962115Y-49655087D01*
X84041605Y-49669731D01*
X84181266Y-49678041D01*
X84278000Y-49681090D01*
X84517451Y-49678880D01*
X84679149Y-49656494D01*
X84741504Y-49632761D01*
X84812600Y-49582885D01*
X84860306Y-49516911D01*
X84889293Y-49418131D01*
X84904236Y-49269836D01*
X84909808Y-49055315D01*
X84910025Y-49030273D01*
X84909055Y-48972667D01*
X84750394Y-48972667D01*
X84066333Y-48972667D01*
X84066333Y-48848690D01*
X84097167Y-48709602D01*
X84191235Y-48624737D01*
X84350885Y-48592164D01*
X84378766Y-48591667D01*
X84547432Y-48611640D01*
X84654385Y-48678512D01*
X84714320Y-48802705D01*
X84721905Y-48835083D01*
X84750394Y-48972667D01*
X84909055Y-48972667D01*
X84906117Y-48798227D01*
X84883113Y-48636873D01*
X84830362Y-48532660D01*
X84737214Y-48472036D01*
X84593019Y-48441448D01*
X84438072Y-48429713D01*
X84270148Y-48424213D01*
X84160966Y-48431811D01*
G36*
X82457667Y-48758056D02*
G01*
X82457947Y-49062081D01*
X82459416Y-49291830D01*
X82463014Y-49457692D01*
X82469683Y-49570055D01*
X82480365Y-49639310D01*
X82496002Y-49675846D01*
X82517534Y-49690052D01*
X82542333Y-49692333D01*
X82612593Y-49662925D01*
X82627000Y-49604594D01*
X82627000Y-49516855D01*
X82738543Y-49604594D01*
X82871141Y-49667327D01*
X83041432Y-49694193D01*
X83214981Y-49684537D01*
X83357356Y-49637702D01*
X83388040Y-49616956D01*
X83465549Y-49507338D01*
X83516842Y-49340907D01*
X83541538Y-49141481D01*
X83540468Y-49043829D01*
X83348244Y-49043829D01*
X83335666Y-49212818D01*
X83299458Y-49359355D01*
X83240459Y-49459180D01*
X83206747Y-49482378D01*
X83082877Y-49507927D01*
X82937888Y-49501263D01*
X82806521Y-49467457D01*
X82723735Y-49411883D01*
X82691395Y-49321014D01*
X82673707Y-49177303D01*
X82670625Y-49011287D01*
X82682102Y-48853506D01*
X82708090Y-48734498D01*
X82724825Y-48701294D01*
X82811263Y-48642162D01*
X82944312Y-48607730D01*
X83088501Y-48601923D01*
X83208362Y-48628666D01*
X83235782Y-48644737D01*
X83299142Y-48735529D01*
X83336349Y-48876646D01*
X83348244Y-49043829D01*
X83540468Y-49043829D01*
X83539252Y-48932875D01*
X83509603Y-48738908D01*
X83452208Y-48583397D01*
X83405680Y-48519831D01*
X83322595Y-48457792D01*
X83215305Y-48428587D01*
X83082844Y-48422333D01*
X82917636Y-48435940D01*
X82791314Y-48472140D01*
X82765151Y-48487021D01*
X82672796Y-48551709D01*
X82660481Y-48201271D01*
X82652766Y-48028848D01*
X82641046Y-47923514D01*
X82620129Y-47867700D01*
X82584822Y-47843835D01*
X82552917Y-47837306D01*
X82457667Y-47823778D01*
X82457667Y-48758056D01*
X82457667Y-48758056D01*
G37*
X82457667Y-48758056D02*
X82457947Y-49062081D01*
X82459416Y-49291830D01*
X82463014Y-49457692D01*
X82469683Y-49570055D01*
X82480365Y-49639310D01*
X82496002Y-49675846D01*
X82517534Y-49690052D01*
X82542333Y-49692333D01*
X82612593Y-49662925D01*
X82627000Y-49604594D01*
X82627000Y-49516855D01*
X82738543Y-49604594D01*
X82871141Y-49667327D01*
X83041432Y-49694193D01*
X83214981Y-49684537D01*
X83357356Y-49637702D01*
X83388040Y-49616956D01*
X83465549Y-49507338D01*
X83516842Y-49340907D01*
X83541538Y-49141481D01*
X83540468Y-49043829D01*
X83348244Y-49043829D01*
X83335666Y-49212818D01*
X83299458Y-49359355D01*
X83240459Y-49459180D01*
X83206747Y-49482378D01*
X83082877Y-49507927D01*
X82937888Y-49501263D01*
X82806521Y-49467457D01*
X82723735Y-49411883D01*
X82691395Y-49321014D01*
X82673707Y-49177303D01*
X82670625Y-49011287D01*
X82682102Y-48853506D01*
X82708090Y-48734498D01*
X82724825Y-48701294D01*
X82811263Y-48642162D01*
X82944312Y-48607730D01*
X83088501Y-48601923D01*
X83208362Y-48628666D01*
X83235782Y-48644737D01*
X83299142Y-48735529D01*
X83336349Y-48876646D01*
X83348244Y-49043829D01*
X83540468Y-49043829D01*
X83539252Y-48932875D01*
X83509603Y-48738908D01*
X83452208Y-48583397D01*
X83405680Y-48519831D01*
X83322595Y-48457792D01*
X83215305Y-48428587D01*
X83082844Y-48422333D01*
X82917636Y-48435940D01*
X82791314Y-48472140D01*
X82765151Y-48487021D01*
X82672796Y-48551709D01*
X82660481Y-48201271D01*
X82652766Y-48028848D01*
X82641046Y-47923514D01*
X82620129Y-47867700D01*
X82584822Y-47843835D01*
X82552917Y-47837306D01*
X82457667Y-47823778D01*
X82457667Y-48758056D01*
G36*
X88285483Y-47840648D02*
G01*
X88260122Y-47892288D01*
X88257333Y-47953722D01*
X88267967Y-48045685D01*
X88314271Y-48079997D01*
X88365979Y-48083667D01*
X88443387Y-48071465D01*
X88464736Y-48017316D01*
X88461229Y-47967250D01*
X88426152Y-47871524D01*
X88352583Y-47837306D01*
X88285483Y-47840648D01*
X88285483Y-47840648D01*
G37*
X88285483Y-47840648D02*
X88260122Y-47892288D01*
X88257333Y-47953722D01*
X88267967Y-48045685D01*
X88314271Y-48079997D01*
X88365979Y-48083667D01*
X88443387Y-48071465D01*
X88464736Y-48017316D01*
X88461229Y-47967250D01*
X88426152Y-47871524D01*
X88352583Y-47837306D01*
X88285483Y-47840648D01*
D11*
G36*
X24401000Y-57521000D02*
G01*
X22599000Y-57521000D01*
X22599000Y-55719000D01*
X24401000Y-55719000D01*
X24401000Y-57521000D01*
X24401000Y-57521000D01*
G37*
G36*
X23610443Y-53185519D02*
G01*
X23676627Y-53192037D01*
X23846466Y-53243557D01*
X24002991Y-53327222D01*
X24038729Y-53356552D01*
X24140186Y-53439814D01*
X24223448Y-53541271D01*
X24252778Y-53577009D01*
X24336443Y-53733534D01*
X24387963Y-53903373D01*
X24405359Y-54080000D01*
X24387963Y-54256627D01*
X24336443Y-54426466D01*
X24252778Y-54582991D01*
X24223448Y-54618729D01*
X24140186Y-54720186D01*
X24038729Y-54803448D01*
X24002991Y-54832778D01*
X23846466Y-54916443D01*
X23676627Y-54967963D01*
X23610442Y-54974482D01*
X23544260Y-54981000D01*
X23455740Y-54981000D01*
X23389558Y-54974482D01*
X23323373Y-54967963D01*
X23153534Y-54916443D01*
X22997009Y-54832778D01*
X22961271Y-54803448D01*
X22859814Y-54720186D01*
X22776552Y-54618729D01*
X22747222Y-54582991D01*
X22663557Y-54426466D01*
X22612037Y-54256627D01*
X22594641Y-54080000D01*
X22612037Y-53903373D01*
X22663557Y-53733534D01*
X22747222Y-53577009D01*
X22776552Y-53541271D01*
X22859814Y-53439814D01*
X22961271Y-53356552D01*
X22997009Y-53327222D01*
X23153534Y-53243557D01*
X23323373Y-53192037D01*
X23389557Y-53185519D01*
X23455740Y-53179000D01*
X23544260Y-53179000D01*
X23610443Y-53185519D01*
X23610443Y-53185519D01*
G37*
G36*
X23610443Y-50645519D02*
G01*
X23676627Y-50652037D01*
X23846466Y-50703557D01*
X24002991Y-50787222D01*
X24038729Y-50816552D01*
X24140186Y-50899814D01*
X24223448Y-51001271D01*
X24252778Y-51037009D01*
X24336443Y-51193534D01*
X24387963Y-51363373D01*
X24405359Y-51540000D01*
X24387963Y-51716627D01*
X24336443Y-51886466D01*
X24252778Y-52042991D01*
X24223448Y-52078729D01*
X24140186Y-52180186D01*
X24038729Y-52263448D01*
X24002991Y-52292778D01*
X23846466Y-52376443D01*
X23676627Y-52427963D01*
X23610442Y-52434482D01*
X23544260Y-52441000D01*
X23455740Y-52441000D01*
X23389558Y-52434482D01*
X23323373Y-52427963D01*
X23153534Y-52376443D01*
X22997009Y-52292778D01*
X22961271Y-52263448D01*
X22859814Y-52180186D01*
X22776552Y-52078729D01*
X22747222Y-52042991D01*
X22663557Y-51886466D01*
X22612037Y-51716627D01*
X22594641Y-51540000D01*
X22612037Y-51363373D01*
X22663557Y-51193534D01*
X22747222Y-51037009D01*
X22776552Y-51001271D01*
X22859814Y-50899814D01*
X22961271Y-50816552D01*
X22997009Y-50787222D01*
X23153534Y-50703557D01*
X23323373Y-50652037D01*
X23389558Y-50645518D01*
X23455740Y-50639000D01*
X23544260Y-50639000D01*
X23610443Y-50645519D01*
X23610443Y-50645519D01*
G37*
G36*
X23610442Y-48105518D02*
G01*
X23676627Y-48112037D01*
X23846466Y-48163557D01*
X24002991Y-48247222D01*
X24038729Y-48276552D01*
X24140186Y-48359814D01*
X24223448Y-48461271D01*
X24252778Y-48497009D01*
X24336443Y-48653534D01*
X24387963Y-48823373D01*
X24405359Y-49000000D01*
X24387963Y-49176627D01*
X24336443Y-49346466D01*
X24252778Y-49502991D01*
X24223448Y-49538729D01*
X24140186Y-49640186D01*
X24038729Y-49723448D01*
X24002991Y-49752778D01*
X23846466Y-49836443D01*
X23676627Y-49887963D01*
X23610443Y-49894481D01*
X23544260Y-49901000D01*
X23455740Y-49901000D01*
X23389557Y-49894481D01*
X23323373Y-49887963D01*
X23153534Y-49836443D01*
X22997009Y-49752778D01*
X22961271Y-49723448D01*
X22859814Y-49640186D01*
X22776552Y-49538729D01*
X22747222Y-49502991D01*
X22663557Y-49346466D01*
X22612037Y-49176627D01*
X22594641Y-49000000D01*
X22612037Y-48823373D01*
X22663557Y-48653534D01*
X22747222Y-48497009D01*
X22776552Y-48461271D01*
X22859814Y-48359814D01*
X22961271Y-48276552D01*
X22997009Y-48247222D01*
X23153534Y-48163557D01*
X23323373Y-48112037D01*
X23389558Y-48105518D01*
X23455740Y-48099000D01*
X23544260Y-48099000D01*
X23610442Y-48105518D01*
X23610442Y-48105518D01*
G37*
M02*
