G04 #@! TF.GenerationSoftware,KiCad,Pcbnew,5.1.4-e60b266~84~ubuntu19.04.1*
G04 #@! TF.CreationDate,2019-09-15T18:03:26+02:00*
G04 #@! TF.ProjectId,TouchSensorDev,546f7563-6853-4656-9e73-6f724465762e,rev?*
G04 #@! TF.SameCoordinates,Original*
G04 #@! TF.FileFunction,Paste,Top*
G04 #@! TF.FilePolarity,Positive*
%FSLAX46Y46*%
G04 Gerber Fmt 4.6, Leading zero omitted, Abs format (unit mm)*
G04 Created by KiCad (PCBNEW 5.1.4-e60b266~84~ubuntu19.04.1) date 2019-09-15 18:03:26*
%MOMM*%
%LPD*%
G04 APERTURE LIST*
%ADD10R,0.650000X1.560000*%
%ADD11C,0.100000*%
%ADD12C,1.425000*%
G04 APERTURE END LIST*
D10*
X57500000Y-54850000D03*
X58450000Y-54850000D03*
X56550000Y-54850000D03*
X56550000Y-52150000D03*
X57500000Y-52150000D03*
X58450000Y-52150000D03*
D11*
G36*
X62149504Y-51301204D02*
G01*
X62173773Y-51304804D01*
X62197571Y-51310765D01*
X62220671Y-51319030D01*
X62242849Y-51329520D01*
X62263893Y-51342133D01*
X62283598Y-51356747D01*
X62301777Y-51373223D01*
X62318253Y-51391402D01*
X62332867Y-51411107D01*
X62345480Y-51432151D01*
X62355970Y-51454329D01*
X62364235Y-51477429D01*
X62370196Y-51501227D01*
X62373796Y-51525496D01*
X62375000Y-51550000D01*
X62375000Y-52475000D01*
X62373796Y-52499504D01*
X62370196Y-52523773D01*
X62364235Y-52547571D01*
X62355970Y-52570671D01*
X62345480Y-52592849D01*
X62332867Y-52613893D01*
X62318253Y-52633598D01*
X62301777Y-52651777D01*
X62283598Y-52668253D01*
X62263893Y-52682867D01*
X62242849Y-52695480D01*
X62220671Y-52705970D01*
X62197571Y-52714235D01*
X62173773Y-52720196D01*
X62149504Y-52723796D01*
X62125000Y-52725000D01*
X60875000Y-52725000D01*
X60850496Y-52723796D01*
X60826227Y-52720196D01*
X60802429Y-52714235D01*
X60779329Y-52705970D01*
X60757151Y-52695480D01*
X60736107Y-52682867D01*
X60716402Y-52668253D01*
X60698223Y-52651777D01*
X60681747Y-52633598D01*
X60667133Y-52613893D01*
X60654520Y-52592849D01*
X60644030Y-52570671D01*
X60635765Y-52547571D01*
X60629804Y-52523773D01*
X60626204Y-52499504D01*
X60625000Y-52475000D01*
X60625000Y-51550000D01*
X60626204Y-51525496D01*
X60629804Y-51501227D01*
X60635765Y-51477429D01*
X60644030Y-51454329D01*
X60654520Y-51432151D01*
X60667133Y-51411107D01*
X60681747Y-51391402D01*
X60698223Y-51373223D01*
X60716402Y-51356747D01*
X60736107Y-51342133D01*
X60757151Y-51329520D01*
X60779329Y-51319030D01*
X60802429Y-51310765D01*
X60826227Y-51304804D01*
X60850496Y-51301204D01*
X60875000Y-51300000D01*
X62125000Y-51300000D01*
X62149504Y-51301204D01*
X62149504Y-51301204D01*
G37*
D12*
X61500000Y-52012500D03*
D11*
G36*
X62149504Y-54276204D02*
G01*
X62173773Y-54279804D01*
X62197571Y-54285765D01*
X62220671Y-54294030D01*
X62242849Y-54304520D01*
X62263893Y-54317133D01*
X62283598Y-54331747D01*
X62301777Y-54348223D01*
X62318253Y-54366402D01*
X62332867Y-54386107D01*
X62345480Y-54407151D01*
X62355970Y-54429329D01*
X62364235Y-54452429D01*
X62370196Y-54476227D01*
X62373796Y-54500496D01*
X62375000Y-54525000D01*
X62375000Y-55450000D01*
X62373796Y-55474504D01*
X62370196Y-55498773D01*
X62364235Y-55522571D01*
X62355970Y-55545671D01*
X62345480Y-55567849D01*
X62332867Y-55588893D01*
X62318253Y-55608598D01*
X62301777Y-55626777D01*
X62283598Y-55643253D01*
X62263893Y-55657867D01*
X62242849Y-55670480D01*
X62220671Y-55680970D01*
X62197571Y-55689235D01*
X62173773Y-55695196D01*
X62149504Y-55698796D01*
X62125000Y-55700000D01*
X60875000Y-55700000D01*
X60850496Y-55698796D01*
X60826227Y-55695196D01*
X60802429Y-55689235D01*
X60779329Y-55680970D01*
X60757151Y-55670480D01*
X60736107Y-55657867D01*
X60716402Y-55643253D01*
X60698223Y-55626777D01*
X60681747Y-55608598D01*
X60667133Y-55588893D01*
X60654520Y-55567849D01*
X60644030Y-55545671D01*
X60635765Y-55522571D01*
X60629804Y-55498773D01*
X60626204Y-55474504D01*
X60625000Y-55450000D01*
X60625000Y-54525000D01*
X60626204Y-54500496D01*
X60629804Y-54476227D01*
X60635765Y-54452429D01*
X60644030Y-54429329D01*
X60654520Y-54407151D01*
X60667133Y-54386107D01*
X60681747Y-54366402D01*
X60698223Y-54348223D01*
X60716402Y-54331747D01*
X60736107Y-54317133D01*
X60757151Y-54304520D01*
X60779329Y-54294030D01*
X60802429Y-54285765D01*
X60826227Y-54279804D01*
X60850496Y-54276204D01*
X60875000Y-54275000D01*
X62125000Y-54275000D01*
X62149504Y-54276204D01*
X62149504Y-54276204D01*
G37*
D12*
X61500000Y-54987500D03*
D11*
G36*
X52149504Y-54276204D02*
G01*
X52173773Y-54279804D01*
X52197571Y-54285765D01*
X52220671Y-54294030D01*
X52242849Y-54304520D01*
X52263893Y-54317133D01*
X52283598Y-54331747D01*
X52301777Y-54348223D01*
X52318253Y-54366402D01*
X52332867Y-54386107D01*
X52345480Y-54407151D01*
X52355970Y-54429329D01*
X52364235Y-54452429D01*
X52370196Y-54476227D01*
X52373796Y-54500496D01*
X52375000Y-54525000D01*
X52375000Y-55450000D01*
X52373796Y-55474504D01*
X52370196Y-55498773D01*
X52364235Y-55522571D01*
X52355970Y-55545671D01*
X52345480Y-55567849D01*
X52332867Y-55588893D01*
X52318253Y-55608598D01*
X52301777Y-55626777D01*
X52283598Y-55643253D01*
X52263893Y-55657867D01*
X52242849Y-55670480D01*
X52220671Y-55680970D01*
X52197571Y-55689235D01*
X52173773Y-55695196D01*
X52149504Y-55698796D01*
X52125000Y-55700000D01*
X50875000Y-55700000D01*
X50850496Y-55698796D01*
X50826227Y-55695196D01*
X50802429Y-55689235D01*
X50779329Y-55680970D01*
X50757151Y-55670480D01*
X50736107Y-55657867D01*
X50716402Y-55643253D01*
X50698223Y-55626777D01*
X50681747Y-55608598D01*
X50667133Y-55588893D01*
X50654520Y-55567849D01*
X50644030Y-55545671D01*
X50635765Y-55522571D01*
X50629804Y-55498773D01*
X50626204Y-55474504D01*
X50625000Y-55450000D01*
X50625000Y-54525000D01*
X50626204Y-54500496D01*
X50629804Y-54476227D01*
X50635765Y-54452429D01*
X50644030Y-54429329D01*
X50654520Y-54407151D01*
X50667133Y-54386107D01*
X50681747Y-54366402D01*
X50698223Y-54348223D01*
X50716402Y-54331747D01*
X50736107Y-54317133D01*
X50757151Y-54304520D01*
X50779329Y-54294030D01*
X50802429Y-54285765D01*
X50826227Y-54279804D01*
X50850496Y-54276204D01*
X50875000Y-54275000D01*
X52125000Y-54275000D01*
X52149504Y-54276204D01*
X52149504Y-54276204D01*
G37*
D12*
X51500000Y-54987500D03*
D11*
G36*
X52149504Y-51301204D02*
G01*
X52173773Y-51304804D01*
X52197571Y-51310765D01*
X52220671Y-51319030D01*
X52242849Y-51329520D01*
X52263893Y-51342133D01*
X52283598Y-51356747D01*
X52301777Y-51373223D01*
X52318253Y-51391402D01*
X52332867Y-51411107D01*
X52345480Y-51432151D01*
X52355970Y-51454329D01*
X52364235Y-51477429D01*
X52370196Y-51501227D01*
X52373796Y-51525496D01*
X52375000Y-51550000D01*
X52375000Y-52475000D01*
X52373796Y-52499504D01*
X52370196Y-52523773D01*
X52364235Y-52547571D01*
X52355970Y-52570671D01*
X52345480Y-52592849D01*
X52332867Y-52613893D01*
X52318253Y-52633598D01*
X52301777Y-52651777D01*
X52283598Y-52668253D01*
X52263893Y-52682867D01*
X52242849Y-52695480D01*
X52220671Y-52705970D01*
X52197571Y-52714235D01*
X52173773Y-52720196D01*
X52149504Y-52723796D01*
X52125000Y-52725000D01*
X50875000Y-52725000D01*
X50850496Y-52723796D01*
X50826227Y-52720196D01*
X50802429Y-52714235D01*
X50779329Y-52705970D01*
X50757151Y-52695480D01*
X50736107Y-52682867D01*
X50716402Y-52668253D01*
X50698223Y-52651777D01*
X50681747Y-52633598D01*
X50667133Y-52613893D01*
X50654520Y-52592849D01*
X50644030Y-52570671D01*
X50635765Y-52547571D01*
X50629804Y-52523773D01*
X50626204Y-52499504D01*
X50625000Y-52475000D01*
X50625000Y-51550000D01*
X50626204Y-51525496D01*
X50629804Y-51501227D01*
X50635765Y-51477429D01*
X50644030Y-51454329D01*
X50654520Y-51432151D01*
X50667133Y-51411107D01*
X50681747Y-51391402D01*
X50698223Y-51373223D01*
X50716402Y-51356747D01*
X50736107Y-51342133D01*
X50757151Y-51329520D01*
X50779329Y-51319030D01*
X50802429Y-51310765D01*
X50826227Y-51304804D01*
X50850496Y-51301204D01*
X50875000Y-51300000D01*
X52125000Y-51300000D01*
X52149504Y-51301204D01*
X52149504Y-51301204D01*
G37*
D12*
X51500000Y-52012500D03*
M02*
