G04 #@! TF.GenerationSoftware,KiCad,Pcbnew,5.1.4-e60b266~84~ubuntu19.04.1*
G04 #@! TF.CreationDate,2019-09-15T18:03:26+02:00*
G04 #@! TF.ProjectId,TouchSensorDev,546f7563-6853-4656-9e73-6f724465762e,rev?*
G04 #@! TF.SameCoordinates,Original*
G04 #@! TF.FileFunction,Legend,Bot*
G04 #@! TF.FilePolarity,Positive*
%FSLAX46Y46*%
G04 Gerber Fmt 4.6, Leading zero omitted, Abs format (unit mm)*
G04 Created by KiCad (PCBNEW 5.1.4-e60b266~84~ubuntu19.04.1) date 2019-09-15 18:03:26*
%MOMM*%
%LPD*%
G04 APERTURE LIST*
%ADD10C,0.150000*%
%ADD11C,0.010000*%
G04 APERTURE END LIST*
D10*
X68690476Y-57976190D02*
X68738095Y-57928571D01*
X68833333Y-57880952D01*
X68928571Y-57880952D01*
X69023809Y-57928571D01*
X69071428Y-57976190D01*
X69119047Y-58071428D01*
X69119047Y-58166666D01*
X69071428Y-58261904D01*
X69023809Y-58309523D01*
X68928571Y-58357142D01*
X68833333Y-58357142D01*
X68738095Y-58309523D01*
X68690476Y-58261904D01*
X68690476Y-57880952D02*
X68690476Y-58261904D01*
X68642857Y-58309523D01*
X68595238Y-58309523D01*
X68500000Y-58261904D01*
X68452380Y-58166666D01*
X68452380Y-57928571D01*
X68547619Y-57785714D01*
X68690476Y-57690476D01*
X68880952Y-57642857D01*
X69071428Y-57690476D01*
X69214285Y-57785714D01*
X69309523Y-57928571D01*
X69357142Y-58119047D01*
X69309523Y-58309523D01*
X69214285Y-58452380D01*
X69071428Y-58547619D01*
X68880952Y-58595238D01*
X68690476Y-58547619D01*
X68547619Y-58452380D01*
X68023809Y-57785714D02*
X68023809Y-58642857D01*
X68071428Y-58738095D01*
X68166666Y-58785714D01*
X68214285Y-58785714D01*
X68023809Y-57452380D02*
X68071428Y-57500000D01*
X68023809Y-57547619D01*
X67976190Y-57500000D01*
X68023809Y-57452380D01*
X68023809Y-57547619D01*
X67404761Y-58452380D02*
X67500000Y-58404761D01*
X67547619Y-58357142D01*
X67595238Y-58261904D01*
X67595238Y-57976190D01*
X67547619Y-57880952D01*
X67500000Y-57833333D01*
X67404761Y-57785714D01*
X67261904Y-57785714D01*
X67166666Y-57833333D01*
X67119047Y-57880952D01*
X67071428Y-57976190D01*
X67071428Y-58261904D01*
X67119047Y-58357142D01*
X67166666Y-58404761D01*
X67261904Y-58452380D01*
X67404761Y-58452380D01*
X66690476Y-58404761D02*
X66595238Y-58452380D01*
X66404761Y-58452380D01*
X66309523Y-58404761D01*
X66261904Y-58309523D01*
X66261904Y-58261904D01*
X66309523Y-58166666D01*
X66404761Y-58119047D01*
X66547619Y-58119047D01*
X66642857Y-58071428D01*
X66690476Y-57976190D01*
X66690476Y-57928571D01*
X66642857Y-57833333D01*
X66547619Y-57785714D01*
X66404761Y-57785714D01*
X66309523Y-57833333D01*
X65452380Y-58404761D02*
X65547619Y-58452380D01*
X65738095Y-58452380D01*
X65833333Y-58404761D01*
X65880952Y-58309523D01*
X65880952Y-57928571D01*
X65833333Y-57833333D01*
X65738095Y-57785714D01*
X65547619Y-57785714D01*
X65452380Y-57833333D01*
X65404761Y-57928571D01*
X65404761Y-58023809D01*
X65880952Y-58119047D01*
X65119047Y-57785714D02*
X64738095Y-57785714D01*
X64976190Y-58452380D02*
X64976190Y-57595238D01*
X64928571Y-57500000D01*
X64833333Y-57452380D01*
X64738095Y-57452380D01*
X63976190Y-58452380D02*
X63976190Y-57928571D01*
X64023809Y-57833333D01*
X64119047Y-57785714D01*
X64309523Y-57785714D01*
X64404761Y-57833333D01*
X63976190Y-58404761D02*
X64071428Y-58452380D01*
X64309523Y-58452380D01*
X64404761Y-58404761D01*
X64452380Y-58309523D01*
X64452380Y-58214285D01*
X64404761Y-58119047D01*
X64309523Y-58071428D01*
X64071428Y-58071428D01*
X63976190Y-58023809D01*
X63071428Y-58452380D02*
X63071428Y-57452380D01*
X63071428Y-58404761D02*
X63166666Y-58452380D01*
X63357142Y-58452380D01*
X63452380Y-58404761D01*
X63500000Y-58357142D01*
X63547619Y-58261904D01*
X63547619Y-57976190D01*
X63500000Y-57880952D01*
X63452380Y-57833333D01*
X63357142Y-57785714D01*
X63166666Y-57785714D01*
X63071428Y-57833333D01*
X62166666Y-58452380D02*
X62166666Y-57928571D01*
X62214285Y-57833333D01*
X62309523Y-57785714D01*
X62500000Y-57785714D01*
X62595238Y-57833333D01*
X62166666Y-58404761D02*
X62261904Y-58452380D01*
X62500000Y-58452380D01*
X62595238Y-58404761D01*
X62642857Y-58309523D01*
X62642857Y-58214285D01*
X62595238Y-58119047D01*
X62500000Y-58071428D01*
X62261904Y-58071428D01*
X62166666Y-58023809D01*
X61690476Y-58452380D02*
X61690476Y-57785714D01*
X61690476Y-57880952D02*
X61642857Y-57833333D01*
X61547619Y-57785714D01*
X61404761Y-57785714D01*
X61309523Y-57833333D01*
X61261904Y-57928571D01*
X61261904Y-58452380D01*
X61261904Y-57928571D02*
X61214285Y-57833333D01*
X61119047Y-57785714D01*
X60976190Y-57785714D01*
X60880952Y-57833333D01*
X60833333Y-57928571D01*
X60833333Y-58452380D01*
X59928571Y-58404761D02*
X60023809Y-58452380D01*
X60214285Y-58452380D01*
X60309523Y-58404761D01*
X60357142Y-58357142D01*
X60404761Y-58261904D01*
X60404761Y-57976190D01*
X60357142Y-57880952D01*
X60309523Y-57833333D01*
X60214285Y-57785714D01*
X60023809Y-57785714D01*
X59928571Y-57833333D01*
X59500000Y-58452380D02*
X59500000Y-57785714D01*
X59500000Y-57452380D02*
X59547619Y-57500000D01*
X59500000Y-57547619D01*
X59452380Y-57500000D01*
X59500000Y-57452380D01*
X59500000Y-57547619D01*
X59023809Y-58452380D02*
X59023809Y-57452380D01*
X58928571Y-58071428D02*
X58642857Y-58452380D01*
X58642857Y-57785714D02*
X59023809Y-58166666D01*
X92523809Y-58452380D02*
X92523809Y-57452380D01*
X92095238Y-58452380D02*
X92095238Y-57928571D01*
X92142857Y-57833333D01*
X92238095Y-57785714D01*
X92380952Y-57785714D01*
X92476190Y-57833333D01*
X92523809Y-57880952D01*
X91761904Y-57785714D02*
X91380952Y-57785714D01*
X91619047Y-57452380D02*
X91619047Y-58309523D01*
X91571428Y-58404761D01*
X91476190Y-58452380D01*
X91380952Y-58452380D01*
X91190476Y-57785714D02*
X90809523Y-57785714D01*
X91047619Y-57452380D02*
X91047619Y-58309523D01*
X91000000Y-58404761D01*
X90904761Y-58452380D01*
X90809523Y-58452380D01*
X90476190Y-57785714D02*
X90476190Y-58785714D01*
X90476190Y-57833333D02*
X90380952Y-57785714D01*
X90190476Y-57785714D01*
X90095238Y-57833333D01*
X90047619Y-57880952D01*
X90000000Y-57976190D01*
X90000000Y-58261904D01*
X90047619Y-58357142D01*
X90095238Y-58404761D01*
X90190476Y-58452380D01*
X90380952Y-58452380D01*
X90476190Y-58404761D01*
X89619047Y-58404761D02*
X89523809Y-58452380D01*
X89333333Y-58452380D01*
X89238095Y-58404761D01*
X89190476Y-58309523D01*
X89190476Y-58261904D01*
X89238095Y-58166666D01*
X89333333Y-58119047D01*
X89476190Y-58119047D01*
X89571428Y-58071428D01*
X89619047Y-57976190D01*
X89619047Y-57928571D01*
X89571428Y-57833333D01*
X89476190Y-57785714D01*
X89333333Y-57785714D01*
X89238095Y-57833333D01*
X88761904Y-58357142D02*
X88714285Y-58404761D01*
X88761904Y-58452380D01*
X88809523Y-58404761D01*
X88761904Y-58357142D01*
X88761904Y-58452380D01*
X88761904Y-57833333D02*
X88714285Y-57880952D01*
X88761904Y-57928571D01*
X88809523Y-57880952D01*
X88761904Y-57833333D01*
X88761904Y-57928571D01*
X87571428Y-57404761D02*
X88428571Y-58690476D01*
X86523809Y-57404761D02*
X87380952Y-58690476D01*
X86190476Y-57785714D02*
X86190476Y-58642857D01*
X86238095Y-58738095D01*
X86333333Y-58785714D01*
X86380952Y-58785714D01*
X86190476Y-57452380D02*
X86238095Y-57500000D01*
X86190476Y-57547619D01*
X86142857Y-57500000D01*
X86190476Y-57452380D01*
X86190476Y-57547619D01*
X85571428Y-58452380D02*
X85666666Y-58404761D01*
X85714285Y-58357142D01*
X85761904Y-58261904D01*
X85761904Y-57976190D01*
X85714285Y-57880952D01*
X85666666Y-57833333D01*
X85571428Y-57785714D01*
X85428571Y-57785714D01*
X85333333Y-57833333D01*
X85285714Y-57880952D01*
X85238095Y-57976190D01*
X85238095Y-58261904D01*
X85285714Y-58357142D01*
X85333333Y-58404761D01*
X85428571Y-58452380D01*
X85571428Y-58452380D01*
X84857142Y-58404761D02*
X84761904Y-58452380D01*
X84571428Y-58452380D01*
X84476190Y-58404761D01*
X84428571Y-58309523D01*
X84428571Y-58261904D01*
X84476190Y-58166666D01*
X84571428Y-58119047D01*
X84714285Y-58119047D01*
X84809523Y-58071428D01*
X84857142Y-57976190D01*
X84857142Y-57928571D01*
X84809523Y-57833333D01*
X84714285Y-57785714D01*
X84571428Y-57785714D01*
X84476190Y-57833333D01*
X83619047Y-58404761D02*
X83714285Y-58452380D01*
X83904761Y-58452380D01*
X84000000Y-58404761D01*
X84047619Y-58309523D01*
X84047619Y-57928571D01*
X84000000Y-57833333D01*
X83904761Y-57785714D01*
X83714285Y-57785714D01*
X83619047Y-57833333D01*
X83571428Y-57928571D01*
X83571428Y-58023809D01*
X84047619Y-58119047D01*
X83285714Y-57785714D02*
X82904761Y-57785714D01*
X83142857Y-58452380D02*
X83142857Y-57595238D01*
X83095238Y-57500000D01*
X83000000Y-57452380D01*
X82904761Y-57452380D01*
X82571428Y-58071428D02*
X81809523Y-58071428D01*
X80904761Y-58452380D02*
X80904761Y-57928571D01*
X80952380Y-57833333D01*
X81047619Y-57785714D01*
X81238095Y-57785714D01*
X81333333Y-57833333D01*
X80904761Y-58404761D02*
X81000000Y-58452380D01*
X81238095Y-58452380D01*
X81333333Y-58404761D01*
X81380952Y-58309523D01*
X81380952Y-58214285D01*
X81333333Y-58119047D01*
X81238095Y-58071428D01*
X81000000Y-58071428D01*
X80904761Y-58023809D01*
X80000000Y-58452380D02*
X80000000Y-57452380D01*
X80000000Y-58404761D02*
X80095238Y-58452380D01*
X80285714Y-58452380D01*
X80380952Y-58404761D01*
X80428571Y-58357142D01*
X80476190Y-58261904D01*
X80476190Y-57976190D01*
X80428571Y-57880952D01*
X80380952Y-57833333D01*
X80285714Y-57785714D01*
X80095238Y-57785714D01*
X80000000Y-57833333D01*
X79095238Y-58452380D02*
X79095238Y-57928571D01*
X79142857Y-57833333D01*
X79238095Y-57785714D01*
X79428571Y-57785714D01*
X79523809Y-57833333D01*
X79095238Y-58404761D02*
X79190476Y-58452380D01*
X79428571Y-58452380D01*
X79523809Y-58404761D01*
X79571428Y-58309523D01*
X79571428Y-58214285D01*
X79523809Y-58119047D01*
X79428571Y-58071428D01*
X79190476Y-58071428D01*
X79095238Y-58023809D01*
X78619047Y-58452380D02*
X78619047Y-57785714D01*
X78619047Y-57880952D02*
X78571428Y-57833333D01*
X78476190Y-57785714D01*
X78333333Y-57785714D01*
X78238095Y-57833333D01*
X78190476Y-57928571D01*
X78190476Y-58452380D01*
X78190476Y-57928571D02*
X78142857Y-57833333D01*
X78047619Y-57785714D01*
X77904761Y-57785714D01*
X77809523Y-57833333D01*
X77761904Y-57928571D01*
X77761904Y-58452380D01*
X76857142Y-58404761D02*
X76952380Y-58452380D01*
X77142857Y-58452380D01*
X77238095Y-58404761D01*
X77285714Y-58357142D01*
X77333333Y-58261904D01*
X77333333Y-57976190D01*
X77285714Y-57880952D01*
X77238095Y-57833333D01*
X77142857Y-57785714D01*
X76952380Y-57785714D01*
X76857142Y-57833333D01*
X76428571Y-58452380D02*
X76428571Y-57785714D01*
X76428571Y-57452380D02*
X76476190Y-57500000D01*
X76428571Y-57547619D01*
X76380952Y-57500000D01*
X76428571Y-57452380D01*
X76428571Y-57547619D01*
X75952380Y-58452380D02*
X75952380Y-57452380D01*
X75857142Y-58071428D02*
X75571428Y-58452380D01*
X75571428Y-57785714D02*
X75952380Y-58166666D01*
X75142857Y-58357142D02*
X75095238Y-58404761D01*
X75142857Y-58452380D01*
X75190476Y-58404761D01*
X75142857Y-58357142D01*
X75142857Y-58452380D01*
X74238095Y-58404761D02*
X74333333Y-58452380D01*
X74523809Y-58452380D01*
X74619047Y-58404761D01*
X74666666Y-58357142D01*
X74714285Y-58261904D01*
X74714285Y-57976190D01*
X74666666Y-57880952D01*
X74619047Y-57833333D01*
X74523809Y-57785714D01*
X74333333Y-57785714D01*
X74238095Y-57833333D01*
X73904761Y-57785714D02*
X73380952Y-57785714D01*
X73904761Y-58452380D01*
X73380952Y-58452380D01*
D11*
G36*
X32271177Y-56774533D02*
G01*
X32239798Y-56796776D01*
X32212089Y-56824485D01*
X32212089Y-57133920D01*
X32212162Y-57225799D01*
X32212505Y-57297840D01*
X32213308Y-57352780D01*
X32214759Y-57393360D01*
X32217048Y-57422317D01*
X32220364Y-57442391D01*
X32224895Y-57456321D01*
X32230831Y-57466845D01*
X32235486Y-57473100D01*
X32266217Y-57497673D01*
X32301504Y-57500341D01*
X32333755Y-57485271D01*
X32344412Y-57476374D01*
X32351536Y-57464557D01*
X32355833Y-57445526D01*
X32358009Y-57414992D01*
X32358772Y-57368662D01*
X32358845Y-57332871D01*
X32358845Y-57198045D01*
X32855556Y-57198045D01*
X32855556Y-57320700D01*
X32856069Y-57376787D01*
X32858124Y-57415333D01*
X32862492Y-57441361D01*
X32869944Y-57459897D01*
X32878953Y-57473100D01*
X32909856Y-57497604D01*
X32944804Y-57500506D01*
X32978262Y-57483089D01*
X32987396Y-57473959D01*
X32993848Y-57461855D01*
X32998103Y-57443001D01*
X33000648Y-57413620D01*
X33001971Y-57369937D01*
X33002557Y-57308175D01*
X33002625Y-57294000D01*
X33003109Y-57177631D01*
X33003359Y-57081727D01*
X33003277Y-57004177D01*
X33002769Y-56942869D01*
X33001738Y-56895690D01*
X33000087Y-56860530D01*
X32997721Y-56835276D01*
X32994543Y-56817817D01*
X32990456Y-56806041D01*
X32985366Y-56797835D01*
X32979734Y-56791645D01*
X32947872Y-56771844D01*
X32914643Y-56774533D01*
X32883265Y-56796776D01*
X32870567Y-56811126D01*
X32862474Y-56826978D01*
X32857958Y-56849554D01*
X32855994Y-56884078D01*
X32855556Y-56935776D01*
X32855556Y-57051289D01*
X32358845Y-57051289D01*
X32358845Y-56932756D01*
X32358338Y-56878148D01*
X32356302Y-56841275D01*
X32351965Y-56817307D01*
X32344553Y-56801415D01*
X32336267Y-56791645D01*
X32304406Y-56771844D01*
X32271177Y-56774533D01*
X32271177Y-56774533D01*
G37*
X32271177Y-56774533D02*
X32239798Y-56796776D01*
X32212089Y-56824485D01*
X32212089Y-57133920D01*
X32212162Y-57225799D01*
X32212505Y-57297840D01*
X32213308Y-57352780D01*
X32214759Y-57393360D01*
X32217048Y-57422317D01*
X32220364Y-57442391D01*
X32224895Y-57456321D01*
X32230831Y-57466845D01*
X32235486Y-57473100D01*
X32266217Y-57497673D01*
X32301504Y-57500341D01*
X32333755Y-57485271D01*
X32344412Y-57476374D01*
X32351536Y-57464557D01*
X32355833Y-57445526D01*
X32358009Y-57414992D01*
X32358772Y-57368662D01*
X32358845Y-57332871D01*
X32358845Y-57198045D01*
X32855556Y-57198045D01*
X32855556Y-57320700D01*
X32856069Y-57376787D01*
X32858124Y-57415333D01*
X32862492Y-57441361D01*
X32869944Y-57459897D01*
X32878953Y-57473100D01*
X32909856Y-57497604D01*
X32944804Y-57500506D01*
X32978262Y-57483089D01*
X32987396Y-57473959D01*
X32993848Y-57461855D01*
X32998103Y-57443001D01*
X33000648Y-57413620D01*
X33001971Y-57369937D01*
X33002557Y-57308175D01*
X33002625Y-57294000D01*
X33003109Y-57177631D01*
X33003359Y-57081727D01*
X33003277Y-57004177D01*
X33002769Y-56942869D01*
X33001738Y-56895690D01*
X33000087Y-56860530D01*
X32997721Y-56835276D01*
X32994543Y-56817817D01*
X32990456Y-56806041D01*
X32985366Y-56797835D01*
X32979734Y-56791645D01*
X32947872Y-56771844D01*
X32914643Y-56774533D01*
X32883265Y-56796776D01*
X32870567Y-56811126D01*
X32862474Y-56826978D01*
X32857958Y-56849554D01*
X32855994Y-56884078D01*
X32855556Y-56935776D01*
X32855556Y-57051289D01*
X32358845Y-57051289D01*
X32358845Y-56932756D01*
X32358338Y-56878148D01*
X32356302Y-56841275D01*
X32351965Y-56817307D01*
X32344553Y-56801415D01*
X32336267Y-56791645D01*
X32304406Y-56771844D01*
X32271177Y-56774533D01*
G36*
X33536935Y-56769163D02*
G01*
X33458228Y-56769542D01*
X33397137Y-56770333D01*
X33351183Y-56771670D01*
X33317886Y-56773683D01*
X33294764Y-56776506D01*
X33279338Y-56780269D01*
X33269129Y-56785105D01*
X33264187Y-56788822D01*
X33238543Y-56821358D01*
X33235441Y-56855138D01*
X33251289Y-56885826D01*
X33261652Y-56898089D01*
X33272804Y-56906450D01*
X33288965Y-56911657D01*
X33314358Y-56914457D01*
X33353202Y-56915596D01*
X33409720Y-56915821D01*
X33420820Y-56915822D01*
X33566756Y-56915822D01*
X33566756Y-57186756D01*
X33566852Y-57272154D01*
X33567289Y-57337864D01*
X33568288Y-57386774D01*
X33570072Y-57421773D01*
X33572863Y-57445749D01*
X33576883Y-57461593D01*
X33582355Y-57472191D01*
X33589334Y-57480267D01*
X33622266Y-57500112D01*
X33656646Y-57498548D01*
X33687824Y-57475906D01*
X33690114Y-57473100D01*
X33697571Y-57462492D01*
X33703253Y-57450081D01*
X33707399Y-57432850D01*
X33710250Y-57407784D01*
X33712046Y-57371867D01*
X33713028Y-57322083D01*
X33713436Y-57255417D01*
X33713511Y-57179589D01*
X33713511Y-56915822D01*
X33852873Y-56915822D01*
X33912678Y-56915418D01*
X33954082Y-56913840D01*
X33981252Y-56910547D01*
X33998354Y-56904992D01*
X34009557Y-56896631D01*
X34010917Y-56895178D01*
X34027275Y-56861939D01*
X34025828Y-56824362D01*
X34007022Y-56791645D01*
X33999750Y-56785298D01*
X33990373Y-56780266D01*
X33976391Y-56776396D01*
X33955304Y-56773537D01*
X33924611Y-56771535D01*
X33881811Y-56770239D01*
X33824405Y-56769498D01*
X33749890Y-56769158D01*
X33655767Y-56769068D01*
X33635740Y-56769067D01*
X33536935Y-56769163D01*
X33536935Y-56769163D01*
G37*
X33536935Y-56769163D02*
X33458228Y-56769542D01*
X33397137Y-56770333D01*
X33351183Y-56771670D01*
X33317886Y-56773683D01*
X33294764Y-56776506D01*
X33279338Y-56780269D01*
X33269129Y-56785105D01*
X33264187Y-56788822D01*
X33238543Y-56821358D01*
X33235441Y-56855138D01*
X33251289Y-56885826D01*
X33261652Y-56898089D01*
X33272804Y-56906450D01*
X33288965Y-56911657D01*
X33314358Y-56914457D01*
X33353202Y-56915596D01*
X33409720Y-56915821D01*
X33420820Y-56915822D01*
X33566756Y-56915822D01*
X33566756Y-57186756D01*
X33566852Y-57272154D01*
X33567289Y-57337864D01*
X33568288Y-57386774D01*
X33570072Y-57421773D01*
X33572863Y-57445749D01*
X33576883Y-57461593D01*
X33582355Y-57472191D01*
X33589334Y-57480267D01*
X33622266Y-57500112D01*
X33656646Y-57498548D01*
X33687824Y-57475906D01*
X33690114Y-57473100D01*
X33697571Y-57462492D01*
X33703253Y-57450081D01*
X33707399Y-57432850D01*
X33710250Y-57407784D01*
X33712046Y-57371867D01*
X33713028Y-57322083D01*
X33713436Y-57255417D01*
X33713511Y-57179589D01*
X33713511Y-56915822D01*
X33852873Y-56915822D01*
X33912678Y-56915418D01*
X33954082Y-56913840D01*
X33981252Y-56910547D01*
X33998354Y-56904992D01*
X34009557Y-56896631D01*
X34010917Y-56895178D01*
X34027275Y-56861939D01*
X34025828Y-56824362D01*
X34007022Y-56791645D01*
X33999750Y-56785298D01*
X33990373Y-56780266D01*
X33976391Y-56776396D01*
X33955304Y-56773537D01*
X33924611Y-56771535D01*
X33881811Y-56770239D01*
X33824405Y-56769498D01*
X33749890Y-56769158D01*
X33655767Y-56769068D01*
X33635740Y-56769067D01*
X33536935Y-56769163D01*
G36*
X34311386Y-56775877D02*
G01*
X34287673Y-56790647D01*
X34261022Y-56812227D01*
X34261022Y-57133773D01*
X34261107Y-57227830D01*
X34261471Y-57301932D01*
X34262276Y-57358704D01*
X34263687Y-57400768D01*
X34265867Y-57430748D01*
X34268979Y-57451267D01*
X34273186Y-57464949D01*
X34278652Y-57474416D01*
X34282528Y-57479082D01*
X34313966Y-57499575D01*
X34349767Y-57498739D01*
X34381127Y-57481264D01*
X34407778Y-57459684D01*
X34407778Y-56812227D01*
X34381127Y-56790647D01*
X34355406Y-56774949D01*
X34334400Y-56769067D01*
X34311386Y-56775877D01*
X34311386Y-56775877D01*
G37*
X34311386Y-56775877D02*
X34287673Y-56790647D01*
X34261022Y-56812227D01*
X34261022Y-57133773D01*
X34261107Y-57227830D01*
X34261471Y-57301932D01*
X34262276Y-57358704D01*
X34263687Y-57400768D01*
X34265867Y-57430748D01*
X34268979Y-57451267D01*
X34273186Y-57464949D01*
X34278652Y-57474416D01*
X34282528Y-57479082D01*
X34313966Y-57499575D01*
X34349767Y-57498739D01*
X34381127Y-57481264D01*
X34407778Y-57459684D01*
X34407778Y-56812227D01*
X34381127Y-56790647D01*
X34355406Y-56774949D01*
X34334400Y-56769067D01*
X34311386Y-56775877D01*
G36*
X34755335Y-56771034D02*
G01*
X34735745Y-56778035D01*
X34734990Y-56778377D01*
X34708387Y-56798678D01*
X34693730Y-56819561D01*
X34690862Y-56829352D01*
X34691004Y-56842361D01*
X34695039Y-56860895D01*
X34703854Y-56887257D01*
X34718331Y-56923752D01*
X34739355Y-56972687D01*
X34767812Y-57036365D01*
X34804585Y-57117093D01*
X34824825Y-57161216D01*
X34861375Y-57239985D01*
X34895685Y-57312423D01*
X34926448Y-57375880D01*
X34952352Y-57427708D01*
X34972090Y-57465259D01*
X34984350Y-57485884D01*
X34986776Y-57488733D01*
X35017817Y-57501302D01*
X35052879Y-57499619D01*
X35081000Y-57484332D01*
X35082146Y-57483089D01*
X35093332Y-57466154D01*
X35112096Y-57433170D01*
X35136125Y-57388380D01*
X35163103Y-57336032D01*
X35172799Y-57316742D01*
X35245986Y-57170150D01*
X35325760Y-57329393D01*
X35354233Y-57384415D01*
X35380650Y-57432132D01*
X35402852Y-57468893D01*
X35418681Y-57491044D01*
X35424046Y-57495741D01*
X35465743Y-57502102D01*
X35500151Y-57488733D01*
X35510272Y-57474446D01*
X35527786Y-57442692D01*
X35551265Y-57396597D01*
X35579280Y-57339285D01*
X35610401Y-57273880D01*
X35643201Y-57203507D01*
X35676250Y-57131291D01*
X35708119Y-57060355D01*
X35737381Y-56993825D01*
X35762605Y-56934826D01*
X35782364Y-56886481D01*
X35795228Y-56851915D01*
X35799769Y-56834253D01*
X35799723Y-56833613D01*
X35788674Y-56811388D01*
X35766590Y-56788753D01*
X35765290Y-56787768D01*
X35738147Y-56772425D01*
X35713042Y-56772574D01*
X35703632Y-56775466D01*
X35692166Y-56781718D01*
X35679990Y-56794014D01*
X35665643Y-56814908D01*
X35647664Y-56846949D01*
X35624593Y-56892688D01*
X35594970Y-56954677D01*
X35568255Y-57011898D01*
X35537520Y-57078226D01*
X35509979Y-57137874D01*
X35487062Y-57187725D01*
X35470202Y-57224664D01*
X35460827Y-57245573D01*
X35459460Y-57248845D01*
X35453311Y-57243497D01*
X35439178Y-57221109D01*
X35418943Y-57184946D01*
X35394485Y-57138277D01*
X35384752Y-57119022D01*
X35351783Y-57054004D01*
X35326357Y-57006654D01*
X35306388Y-56974219D01*
X35289790Y-56953946D01*
X35274476Y-56943082D01*
X35258360Y-56938875D01*
X35247857Y-56938400D01*
X35229330Y-56940042D01*
X35213096Y-56946831D01*
X35196965Y-56961566D01*
X35178749Y-56987044D01*
X35156261Y-57026061D01*
X35127311Y-57081414D01*
X35111338Y-57112903D01*
X35085430Y-57163087D01*
X35062833Y-57204704D01*
X35045542Y-57234242D01*
X35035550Y-57248189D01*
X35034191Y-57248770D01*
X35027739Y-57237793D01*
X35013292Y-57209290D01*
X34992297Y-57166244D01*
X34966203Y-57111638D01*
X34936454Y-57048454D01*
X34921820Y-57017071D01*
X34883750Y-56936078D01*
X34853095Y-56873756D01*
X34828263Y-56828071D01*
X34807663Y-56796989D01*
X34789702Y-56778478D01*
X34772790Y-56770504D01*
X34755335Y-56771034D01*
X34755335Y-56771034D01*
G37*
X34755335Y-56771034D02*
X34735745Y-56778035D01*
X34734990Y-56778377D01*
X34708387Y-56798678D01*
X34693730Y-56819561D01*
X34690862Y-56829352D01*
X34691004Y-56842361D01*
X34695039Y-56860895D01*
X34703854Y-56887257D01*
X34718331Y-56923752D01*
X34739355Y-56972687D01*
X34767812Y-57036365D01*
X34804585Y-57117093D01*
X34824825Y-57161216D01*
X34861375Y-57239985D01*
X34895685Y-57312423D01*
X34926448Y-57375880D01*
X34952352Y-57427708D01*
X34972090Y-57465259D01*
X34984350Y-57485884D01*
X34986776Y-57488733D01*
X35017817Y-57501302D01*
X35052879Y-57499619D01*
X35081000Y-57484332D01*
X35082146Y-57483089D01*
X35093332Y-57466154D01*
X35112096Y-57433170D01*
X35136125Y-57388380D01*
X35163103Y-57336032D01*
X35172799Y-57316742D01*
X35245986Y-57170150D01*
X35325760Y-57329393D01*
X35354233Y-57384415D01*
X35380650Y-57432132D01*
X35402852Y-57468893D01*
X35418681Y-57491044D01*
X35424046Y-57495741D01*
X35465743Y-57502102D01*
X35500151Y-57488733D01*
X35510272Y-57474446D01*
X35527786Y-57442692D01*
X35551265Y-57396597D01*
X35579280Y-57339285D01*
X35610401Y-57273880D01*
X35643201Y-57203507D01*
X35676250Y-57131291D01*
X35708119Y-57060355D01*
X35737381Y-56993825D01*
X35762605Y-56934826D01*
X35782364Y-56886481D01*
X35795228Y-56851915D01*
X35799769Y-56834253D01*
X35799723Y-56833613D01*
X35788674Y-56811388D01*
X35766590Y-56788753D01*
X35765290Y-56787768D01*
X35738147Y-56772425D01*
X35713042Y-56772574D01*
X35703632Y-56775466D01*
X35692166Y-56781718D01*
X35679990Y-56794014D01*
X35665643Y-56814908D01*
X35647664Y-56846949D01*
X35624593Y-56892688D01*
X35594970Y-56954677D01*
X35568255Y-57011898D01*
X35537520Y-57078226D01*
X35509979Y-57137874D01*
X35487062Y-57187725D01*
X35470202Y-57224664D01*
X35460827Y-57245573D01*
X35459460Y-57248845D01*
X35453311Y-57243497D01*
X35439178Y-57221109D01*
X35418943Y-57184946D01*
X35394485Y-57138277D01*
X35384752Y-57119022D01*
X35351783Y-57054004D01*
X35326357Y-57006654D01*
X35306388Y-56974219D01*
X35289790Y-56953946D01*
X35274476Y-56943082D01*
X35258360Y-56938875D01*
X35247857Y-56938400D01*
X35229330Y-56940042D01*
X35213096Y-56946831D01*
X35196965Y-56961566D01*
X35178749Y-56987044D01*
X35156261Y-57026061D01*
X35127311Y-57081414D01*
X35111338Y-57112903D01*
X35085430Y-57163087D01*
X35062833Y-57204704D01*
X35045542Y-57234242D01*
X35035550Y-57248189D01*
X35034191Y-57248770D01*
X35027739Y-57237793D01*
X35013292Y-57209290D01*
X34992297Y-57166244D01*
X34966203Y-57111638D01*
X34936454Y-57048454D01*
X34921820Y-57017071D01*
X34883750Y-56936078D01*
X34853095Y-56873756D01*
X34828263Y-56828071D01*
X34807663Y-56796989D01*
X34789702Y-56778478D01*
X34772790Y-56770504D01*
X34755335Y-56771034D01*
G36*
X37481691Y-56769275D02*
G01*
X37352712Y-56773636D01*
X37243009Y-56786861D01*
X37150774Y-56809741D01*
X37074198Y-56843070D01*
X37011473Y-56887638D01*
X36960788Y-56944236D01*
X36920337Y-57013658D01*
X36919541Y-57015351D01*
X36895399Y-57077483D01*
X36886797Y-57132509D01*
X36893769Y-57187887D01*
X36916346Y-57251073D01*
X36920628Y-57260689D01*
X36949828Y-57316966D01*
X36982644Y-57360451D01*
X37024998Y-57397417D01*
X37082810Y-57434135D01*
X37086169Y-57436052D01*
X37136496Y-57460227D01*
X37193379Y-57478282D01*
X37260473Y-57490839D01*
X37341435Y-57498522D01*
X37439918Y-57501953D01*
X37474714Y-57502251D01*
X37640406Y-57502845D01*
X37663803Y-57473100D01*
X37670743Y-57463319D01*
X37676158Y-57451897D01*
X37680235Y-57436095D01*
X37683163Y-57413175D01*
X37685133Y-57380396D01*
X37685775Y-57356089D01*
X37529156Y-57356089D01*
X37435274Y-57356089D01*
X37380336Y-57354483D01*
X37323940Y-57350255D01*
X37277655Y-57344292D01*
X37274861Y-57343790D01*
X37192652Y-57321736D01*
X37128886Y-57288600D01*
X37081548Y-57242847D01*
X37048618Y-57182939D01*
X37042892Y-57167061D01*
X37037279Y-57142333D01*
X37039709Y-57117902D01*
X37051533Y-57085400D01*
X37058660Y-57069434D01*
X37082000Y-57027006D01*
X37110120Y-56997240D01*
X37141060Y-56976511D01*
X37203034Y-56949537D01*
X37282349Y-56929998D01*
X37374747Y-56918746D01*
X37441667Y-56916270D01*
X37529156Y-56915822D01*
X37529156Y-57356089D01*
X37685775Y-57356089D01*
X37686332Y-57335021D01*
X37686950Y-57274311D01*
X37687175Y-57195526D01*
X37687200Y-57133920D01*
X37687200Y-56824485D01*
X37659491Y-56796776D01*
X37647194Y-56785544D01*
X37633897Y-56777853D01*
X37615328Y-56773040D01*
X37587214Y-56770446D01*
X37545283Y-56769410D01*
X37485263Y-56769270D01*
X37481691Y-56769275D01*
X37481691Y-56769275D01*
G37*
X37481691Y-56769275D02*
X37352712Y-56773636D01*
X37243009Y-56786861D01*
X37150774Y-56809741D01*
X37074198Y-56843070D01*
X37011473Y-56887638D01*
X36960788Y-56944236D01*
X36920337Y-57013658D01*
X36919541Y-57015351D01*
X36895399Y-57077483D01*
X36886797Y-57132509D01*
X36893769Y-57187887D01*
X36916346Y-57251073D01*
X36920628Y-57260689D01*
X36949828Y-57316966D01*
X36982644Y-57360451D01*
X37024998Y-57397417D01*
X37082810Y-57434135D01*
X37086169Y-57436052D01*
X37136496Y-57460227D01*
X37193379Y-57478282D01*
X37260473Y-57490839D01*
X37341435Y-57498522D01*
X37439918Y-57501953D01*
X37474714Y-57502251D01*
X37640406Y-57502845D01*
X37663803Y-57473100D01*
X37670743Y-57463319D01*
X37676158Y-57451897D01*
X37680235Y-57436095D01*
X37683163Y-57413175D01*
X37685133Y-57380396D01*
X37685775Y-57356089D01*
X37529156Y-57356089D01*
X37435274Y-57356089D01*
X37380336Y-57354483D01*
X37323940Y-57350255D01*
X37277655Y-57344292D01*
X37274861Y-57343790D01*
X37192652Y-57321736D01*
X37128886Y-57288600D01*
X37081548Y-57242847D01*
X37048618Y-57182939D01*
X37042892Y-57167061D01*
X37037279Y-57142333D01*
X37039709Y-57117902D01*
X37051533Y-57085400D01*
X37058660Y-57069434D01*
X37082000Y-57027006D01*
X37110120Y-56997240D01*
X37141060Y-56976511D01*
X37203034Y-56949537D01*
X37282349Y-56929998D01*
X37374747Y-56918746D01*
X37441667Y-56916270D01*
X37529156Y-56915822D01*
X37529156Y-57356089D01*
X37685775Y-57356089D01*
X37686332Y-57335021D01*
X37686950Y-57274311D01*
X37687175Y-57195526D01*
X37687200Y-57133920D01*
X37687200Y-56824485D01*
X37659491Y-56796776D01*
X37647194Y-56785544D01*
X37633897Y-56777853D01*
X37615328Y-56773040D01*
X37587214Y-56770446D01*
X37545283Y-56769410D01*
X37485263Y-56769270D01*
X37481691Y-56769275D01*
G36*
X38269657Y-56769260D02*
G01*
X38193299Y-56770174D01*
X38134783Y-56772311D01*
X38091745Y-56776175D01*
X38061817Y-56782267D01*
X38042632Y-56791090D01*
X38031824Y-56803146D01*
X38027027Y-56818939D01*
X38025873Y-56838970D01*
X38025867Y-56841335D01*
X38026869Y-56863992D01*
X38031604Y-56881503D01*
X38042667Y-56894574D01*
X38062652Y-56903913D01*
X38094154Y-56910227D01*
X38139768Y-56914222D01*
X38202087Y-56916606D01*
X38283707Y-56918086D01*
X38308723Y-56918414D01*
X38550800Y-56921467D01*
X38554186Y-56986378D01*
X38557571Y-57051289D01*
X38389424Y-57051289D01*
X38323734Y-57051531D01*
X38276828Y-57052556D01*
X38244917Y-57054811D01*
X38224209Y-57058742D01*
X38210916Y-57064798D01*
X38201245Y-57073424D01*
X38201183Y-57073493D01*
X38183644Y-57107112D01*
X38184278Y-57143448D01*
X38202686Y-57174423D01*
X38206329Y-57177607D01*
X38219259Y-57185812D01*
X38236976Y-57191521D01*
X38263430Y-57195162D01*
X38302568Y-57197167D01*
X38358338Y-57197964D01*
X38394006Y-57198045D01*
X38556445Y-57198045D01*
X38556445Y-57356089D01*
X38309839Y-57356089D01*
X38228420Y-57356231D01*
X38166590Y-57356814D01*
X38121363Y-57358068D01*
X38089752Y-57360227D01*
X38068769Y-57363523D01*
X38055427Y-57368189D01*
X38046739Y-57374457D01*
X38044550Y-57376733D01*
X38028386Y-57408280D01*
X38027203Y-57444168D01*
X38040464Y-57475285D01*
X38050957Y-57485271D01*
X38061871Y-57490769D01*
X38078783Y-57495022D01*
X38104367Y-57498180D01*
X38141299Y-57500392D01*
X38192254Y-57501806D01*
X38259906Y-57502572D01*
X38346931Y-57502838D01*
X38366606Y-57502845D01*
X38455089Y-57502787D01*
X38523773Y-57502467D01*
X38575436Y-57501667D01*
X38612855Y-57500167D01*
X38638810Y-57497749D01*
X38656078Y-57494194D01*
X38667438Y-57489282D01*
X38675668Y-57482795D01*
X38680183Y-57478138D01*
X38686979Y-57469889D01*
X38692288Y-57459669D01*
X38696294Y-57444800D01*
X38699179Y-57422602D01*
X38701126Y-57390393D01*
X38702319Y-57345496D01*
X38702939Y-57285228D01*
X38703171Y-57206911D01*
X38703200Y-57140994D01*
X38703129Y-57048628D01*
X38702792Y-56976117D01*
X38702002Y-56920737D01*
X38700574Y-56879765D01*
X38698321Y-56850478D01*
X38695057Y-56830153D01*
X38690596Y-56816066D01*
X38684752Y-56805495D01*
X38679803Y-56798811D01*
X38656406Y-56769067D01*
X38366226Y-56769067D01*
X38269657Y-56769260D01*
X38269657Y-56769260D01*
G37*
X38269657Y-56769260D02*
X38193299Y-56770174D01*
X38134783Y-56772311D01*
X38091745Y-56776175D01*
X38061817Y-56782267D01*
X38042632Y-56791090D01*
X38031824Y-56803146D01*
X38027027Y-56818939D01*
X38025873Y-56838970D01*
X38025867Y-56841335D01*
X38026869Y-56863992D01*
X38031604Y-56881503D01*
X38042667Y-56894574D01*
X38062652Y-56903913D01*
X38094154Y-56910227D01*
X38139768Y-56914222D01*
X38202087Y-56916606D01*
X38283707Y-56918086D01*
X38308723Y-56918414D01*
X38550800Y-56921467D01*
X38554186Y-56986378D01*
X38557571Y-57051289D01*
X38389424Y-57051289D01*
X38323734Y-57051531D01*
X38276828Y-57052556D01*
X38244917Y-57054811D01*
X38224209Y-57058742D01*
X38210916Y-57064798D01*
X38201245Y-57073424D01*
X38201183Y-57073493D01*
X38183644Y-57107112D01*
X38184278Y-57143448D01*
X38202686Y-57174423D01*
X38206329Y-57177607D01*
X38219259Y-57185812D01*
X38236976Y-57191521D01*
X38263430Y-57195162D01*
X38302568Y-57197167D01*
X38358338Y-57197964D01*
X38394006Y-57198045D01*
X38556445Y-57198045D01*
X38556445Y-57356089D01*
X38309839Y-57356089D01*
X38228420Y-57356231D01*
X38166590Y-57356814D01*
X38121363Y-57358068D01*
X38089752Y-57360227D01*
X38068769Y-57363523D01*
X38055427Y-57368189D01*
X38046739Y-57374457D01*
X38044550Y-57376733D01*
X38028386Y-57408280D01*
X38027203Y-57444168D01*
X38040464Y-57475285D01*
X38050957Y-57485271D01*
X38061871Y-57490769D01*
X38078783Y-57495022D01*
X38104367Y-57498180D01*
X38141299Y-57500392D01*
X38192254Y-57501806D01*
X38259906Y-57502572D01*
X38346931Y-57502838D01*
X38366606Y-57502845D01*
X38455089Y-57502787D01*
X38523773Y-57502467D01*
X38575436Y-57501667D01*
X38612855Y-57500167D01*
X38638810Y-57497749D01*
X38656078Y-57494194D01*
X38667438Y-57489282D01*
X38675668Y-57482795D01*
X38680183Y-57478138D01*
X38686979Y-57469889D01*
X38692288Y-57459669D01*
X38696294Y-57444800D01*
X38699179Y-57422602D01*
X38701126Y-57390393D01*
X38702319Y-57345496D01*
X38702939Y-57285228D01*
X38703171Y-57206911D01*
X38703200Y-57140994D01*
X38703129Y-57048628D01*
X38702792Y-56976117D01*
X38702002Y-56920737D01*
X38700574Y-56879765D01*
X38698321Y-56850478D01*
X38695057Y-56830153D01*
X38690596Y-56816066D01*
X38684752Y-56805495D01*
X38679803Y-56798811D01*
X38656406Y-56769067D01*
X38366226Y-56769067D01*
X38269657Y-56769260D01*
G36*
X39800114Y-56773448D02*
G01*
X39776548Y-56787273D01*
X39745735Y-56809881D01*
X39706078Y-56842338D01*
X39655980Y-56885708D01*
X39593843Y-56941058D01*
X39518072Y-57009451D01*
X39431334Y-57088084D01*
X39250711Y-57251878D01*
X39245067Y-57032029D01*
X39243029Y-56956351D01*
X39241063Y-56899994D01*
X39238734Y-56859706D01*
X39235606Y-56832235D01*
X39231245Y-56814329D01*
X39225216Y-56802737D01*
X39217084Y-56794208D01*
X39212772Y-56790623D01*
X39178241Y-56771670D01*
X39145383Y-56774441D01*
X39119318Y-56790633D01*
X39092667Y-56812199D01*
X39089352Y-57127151D01*
X39088435Y-57219779D01*
X39087968Y-57292544D01*
X39088113Y-57348161D01*
X39089032Y-57389342D01*
X39090887Y-57418803D01*
X39093839Y-57439255D01*
X39098050Y-57453413D01*
X39103682Y-57463991D01*
X39109927Y-57472474D01*
X39123439Y-57488207D01*
X39136883Y-57498636D01*
X39152124Y-57502639D01*
X39171026Y-57499094D01*
X39195455Y-57486879D01*
X39227273Y-57464871D01*
X39268348Y-57431949D01*
X39320542Y-57386991D01*
X39385722Y-57328875D01*
X39459556Y-57262099D01*
X39724845Y-57021458D01*
X39730489Y-57240589D01*
X39732531Y-57316128D01*
X39734502Y-57372354D01*
X39736839Y-57412524D01*
X39739981Y-57439896D01*
X39744364Y-57457728D01*
X39750424Y-57469279D01*
X39758600Y-57477807D01*
X39762784Y-57481282D01*
X39799765Y-57500372D01*
X39834708Y-57497493D01*
X39865136Y-57473100D01*
X39872097Y-57463286D01*
X39877523Y-57451826D01*
X39881603Y-57435968D01*
X39884529Y-57412963D01*
X39886492Y-57380062D01*
X39887683Y-57334516D01*
X39888292Y-57273573D01*
X39888511Y-57194486D01*
X39888534Y-57135956D01*
X39888460Y-57044407D01*
X39888113Y-56972687D01*
X39887301Y-56918045D01*
X39885833Y-56877732D01*
X39883519Y-56848998D01*
X39880167Y-56829093D01*
X39875588Y-56815268D01*
X39869589Y-56804772D01*
X39865136Y-56798811D01*
X39853850Y-56784691D01*
X39843301Y-56774029D01*
X39831893Y-56767892D01*
X39818030Y-56767343D01*
X39800114Y-56773448D01*
X39800114Y-56773448D01*
G37*
X39800114Y-56773448D02*
X39776548Y-56787273D01*
X39745735Y-56809881D01*
X39706078Y-56842338D01*
X39655980Y-56885708D01*
X39593843Y-56941058D01*
X39518072Y-57009451D01*
X39431334Y-57088084D01*
X39250711Y-57251878D01*
X39245067Y-57032029D01*
X39243029Y-56956351D01*
X39241063Y-56899994D01*
X39238734Y-56859706D01*
X39235606Y-56832235D01*
X39231245Y-56814329D01*
X39225216Y-56802737D01*
X39217084Y-56794208D01*
X39212772Y-56790623D01*
X39178241Y-56771670D01*
X39145383Y-56774441D01*
X39119318Y-56790633D01*
X39092667Y-56812199D01*
X39089352Y-57127151D01*
X39088435Y-57219779D01*
X39087968Y-57292544D01*
X39088113Y-57348161D01*
X39089032Y-57389342D01*
X39090887Y-57418803D01*
X39093839Y-57439255D01*
X39098050Y-57453413D01*
X39103682Y-57463991D01*
X39109927Y-57472474D01*
X39123439Y-57488207D01*
X39136883Y-57498636D01*
X39152124Y-57502639D01*
X39171026Y-57499094D01*
X39195455Y-57486879D01*
X39227273Y-57464871D01*
X39268348Y-57431949D01*
X39320542Y-57386991D01*
X39385722Y-57328875D01*
X39459556Y-57262099D01*
X39724845Y-57021458D01*
X39730489Y-57240589D01*
X39732531Y-57316128D01*
X39734502Y-57372354D01*
X39736839Y-57412524D01*
X39739981Y-57439896D01*
X39744364Y-57457728D01*
X39750424Y-57469279D01*
X39758600Y-57477807D01*
X39762784Y-57481282D01*
X39799765Y-57500372D01*
X39834708Y-57497493D01*
X39865136Y-57473100D01*
X39872097Y-57463286D01*
X39877523Y-57451826D01*
X39881603Y-57435968D01*
X39884529Y-57412963D01*
X39886492Y-57380062D01*
X39887683Y-57334516D01*
X39888292Y-57273573D01*
X39888511Y-57194486D01*
X39888534Y-57135956D01*
X39888460Y-57044407D01*
X39888113Y-56972687D01*
X39887301Y-56918045D01*
X39885833Y-56877732D01*
X39883519Y-56848998D01*
X39880167Y-56829093D01*
X39875588Y-56815268D01*
X39869589Y-56804772D01*
X39865136Y-56798811D01*
X39853850Y-56784691D01*
X39843301Y-56774029D01*
X39831893Y-56767892D01*
X39818030Y-56767343D01*
X39800114Y-56773448D01*
G36*
X40450081Y-56774599D02*
G01*
X40381565Y-56786095D01*
X40328943Y-56803967D01*
X40294708Y-56827499D01*
X40285379Y-56840924D01*
X40275893Y-56872148D01*
X40282277Y-56900395D01*
X40302430Y-56927182D01*
X40333745Y-56939713D01*
X40379183Y-56938696D01*
X40414326Y-56931906D01*
X40492419Y-56918971D01*
X40572226Y-56917742D01*
X40661555Y-56928241D01*
X40686229Y-56932690D01*
X40769291Y-56956108D01*
X40834273Y-56990945D01*
X40880461Y-57036604D01*
X40907145Y-57092494D01*
X40912663Y-57121388D01*
X40909051Y-57180012D01*
X40885729Y-57231879D01*
X40844824Y-57275978D01*
X40788459Y-57311299D01*
X40718760Y-57336829D01*
X40637852Y-57351559D01*
X40547860Y-57354478D01*
X40450910Y-57344575D01*
X40445436Y-57343641D01*
X40406875Y-57336459D01*
X40385494Y-57329521D01*
X40376227Y-57319227D01*
X40374006Y-57301976D01*
X40373956Y-57292841D01*
X40373956Y-57254489D01*
X40442431Y-57254489D01*
X40502900Y-57250347D01*
X40544165Y-57237147D01*
X40568175Y-57213730D01*
X40576877Y-57178936D01*
X40576983Y-57174394D01*
X40571892Y-57144654D01*
X40554433Y-57123419D01*
X40521939Y-57109366D01*
X40471743Y-57101173D01*
X40423123Y-57098161D01*
X40352456Y-57096433D01*
X40301198Y-57099070D01*
X40266239Y-57108800D01*
X40244470Y-57128353D01*
X40232780Y-57160456D01*
X40228060Y-57207838D01*
X40227200Y-57270071D01*
X40228609Y-57339535D01*
X40232848Y-57386786D01*
X40239936Y-57412012D01*
X40241311Y-57413988D01*
X40280228Y-57445508D01*
X40337286Y-57470470D01*
X40408869Y-57488340D01*
X40491358Y-57498586D01*
X40581139Y-57500673D01*
X40674592Y-57494068D01*
X40729556Y-57485956D01*
X40815766Y-57461554D01*
X40895892Y-57421662D01*
X40962977Y-57369887D01*
X40973173Y-57359539D01*
X41006302Y-57316035D01*
X41036194Y-57262118D01*
X41059357Y-57205592D01*
X41072298Y-57154259D01*
X41073858Y-57134544D01*
X41067218Y-57093419D01*
X41049568Y-57042252D01*
X41024297Y-56988394D01*
X40994789Y-56939195D01*
X40968719Y-56906334D01*
X40907765Y-56857452D01*
X40828969Y-56818545D01*
X40735157Y-56790494D01*
X40629150Y-56774179D01*
X40532000Y-56770192D01*
X40450081Y-56774599D01*
X40450081Y-56774599D01*
G37*
X40450081Y-56774599D02*
X40381565Y-56786095D01*
X40328943Y-56803967D01*
X40294708Y-56827499D01*
X40285379Y-56840924D01*
X40275893Y-56872148D01*
X40282277Y-56900395D01*
X40302430Y-56927182D01*
X40333745Y-56939713D01*
X40379183Y-56938696D01*
X40414326Y-56931906D01*
X40492419Y-56918971D01*
X40572226Y-56917742D01*
X40661555Y-56928241D01*
X40686229Y-56932690D01*
X40769291Y-56956108D01*
X40834273Y-56990945D01*
X40880461Y-57036604D01*
X40907145Y-57092494D01*
X40912663Y-57121388D01*
X40909051Y-57180012D01*
X40885729Y-57231879D01*
X40844824Y-57275978D01*
X40788459Y-57311299D01*
X40718760Y-57336829D01*
X40637852Y-57351559D01*
X40547860Y-57354478D01*
X40450910Y-57344575D01*
X40445436Y-57343641D01*
X40406875Y-57336459D01*
X40385494Y-57329521D01*
X40376227Y-57319227D01*
X40374006Y-57301976D01*
X40373956Y-57292841D01*
X40373956Y-57254489D01*
X40442431Y-57254489D01*
X40502900Y-57250347D01*
X40544165Y-57237147D01*
X40568175Y-57213730D01*
X40576877Y-57178936D01*
X40576983Y-57174394D01*
X40571892Y-57144654D01*
X40554433Y-57123419D01*
X40521939Y-57109366D01*
X40471743Y-57101173D01*
X40423123Y-57098161D01*
X40352456Y-57096433D01*
X40301198Y-57099070D01*
X40266239Y-57108800D01*
X40244470Y-57128353D01*
X40232780Y-57160456D01*
X40228060Y-57207838D01*
X40227200Y-57270071D01*
X40228609Y-57339535D01*
X40232848Y-57386786D01*
X40239936Y-57412012D01*
X40241311Y-57413988D01*
X40280228Y-57445508D01*
X40337286Y-57470470D01*
X40408869Y-57488340D01*
X40491358Y-57498586D01*
X40581139Y-57500673D01*
X40674592Y-57494068D01*
X40729556Y-57485956D01*
X40815766Y-57461554D01*
X40895892Y-57421662D01*
X40962977Y-57369887D01*
X40973173Y-57359539D01*
X41006302Y-57316035D01*
X41036194Y-57262118D01*
X41059357Y-57205592D01*
X41072298Y-57154259D01*
X41073858Y-57134544D01*
X41067218Y-57093419D01*
X41049568Y-57042252D01*
X41024297Y-56988394D01*
X40994789Y-56939195D01*
X40968719Y-56906334D01*
X40907765Y-56857452D01*
X40828969Y-56818545D01*
X40735157Y-56790494D01*
X40629150Y-56774179D01*
X40532000Y-56770192D01*
X40450081Y-56774599D01*
G36*
X41423822Y-56791645D02*
G01*
X41417242Y-56799218D01*
X41412079Y-56808987D01*
X41408164Y-56823571D01*
X41405324Y-56845585D01*
X41403387Y-56877648D01*
X41402183Y-56922375D01*
X41401539Y-56982385D01*
X41401284Y-57060294D01*
X41401245Y-57135956D01*
X41401314Y-57229802D01*
X41401638Y-57303689D01*
X41402386Y-57360232D01*
X41403732Y-57402049D01*
X41405846Y-57431757D01*
X41408900Y-57451973D01*
X41413066Y-57465314D01*
X41418516Y-57474398D01*
X41423822Y-57480267D01*
X41456826Y-57499947D01*
X41491991Y-57498181D01*
X41523455Y-57476717D01*
X41530684Y-57468337D01*
X41536334Y-57458614D01*
X41540599Y-57444861D01*
X41543673Y-57424389D01*
X41545752Y-57394512D01*
X41547030Y-57352541D01*
X41547701Y-57295789D01*
X41547959Y-57221567D01*
X41548000Y-57137537D01*
X41548000Y-56824485D01*
X41520291Y-56796776D01*
X41486137Y-56773463D01*
X41453006Y-56772623D01*
X41423822Y-56791645D01*
X41423822Y-56791645D01*
G37*
X41423822Y-56791645D02*
X41417242Y-56799218D01*
X41412079Y-56808987D01*
X41408164Y-56823571D01*
X41405324Y-56845585D01*
X41403387Y-56877648D01*
X41402183Y-56922375D01*
X41401539Y-56982385D01*
X41401284Y-57060294D01*
X41401245Y-57135956D01*
X41401314Y-57229802D01*
X41401638Y-57303689D01*
X41402386Y-57360232D01*
X41403732Y-57402049D01*
X41405846Y-57431757D01*
X41408900Y-57451973D01*
X41413066Y-57465314D01*
X41418516Y-57474398D01*
X41423822Y-57480267D01*
X41456826Y-57499947D01*
X41491991Y-57498181D01*
X41523455Y-57476717D01*
X41530684Y-57468337D01*
X41536334Y-57458614D01*
X41540599Y-57444861D01*
X41543673Y-57424389D01*
X41545752Y-57394512D01*
X41547030Y-57352541D01*
X41547701Y-57295789D01*
X41547959Y-57221567D01*
X41548000Y-57137537D01*
X41548000Y-56824485D01*
X41520291Y-56796776D01*
X41486137Y-56773463D01*
X41453006Y-56772623D01*
X41423822Y-56791645D01*
G36*
X42191703Y-56770351D02*
G01*
X42116888Y-56775581D01*
X42047306Y-56783750D01*
X41987002Y-56794550D01*
X41940020Y-56807673D01*
X41910406Y-56822813D01*
X41905860Y-56827269D01*
X41890054Y-56861850D01*
X41894847Y-56897351D01*
X41919364Y-56927725D01*
X41920534Y-56928596D01*
X41934954Y-56937954D01*
X41950008Y-56942876D01*
X41971005Y-56943473D01*
X42003257Y-56939861D01*
X42052073Y-56932154D01*
X42056000Y-56931505D01*
X42128739Y-56922569D01*
X42207217Y-56918161D01*
X42285927Y-56918119D01*
X42359361Y-56922279D01*
X42422011Y-56930479D01*
X42468370Y-56942557D01*
X42471416Y-56943771D01*
X42505048Y-56962615D01*
X42516864Y-56981685D01*
X42507614Y-57000439D01*
X42478047Y-57018337D01*
X42428911Y-57034837D01*
X42360957Y-57049396D01*
X42315645Y-57056406D01*
X42221456Y-57069889D01*
X42146544Y-57082214D01*
X42087717Y-57094449D01*
X42041785Y-57107661D01*
X42005555Y-57122917D01*
X41975838Y-57141285D01*
X41949442Y-57163831D01*
X41928230Y-57185971D01*
X41903065Y-57216819D01*
X41890681Y-57243345D01*
X41886808Y-57276026D01*
X41886667Y-57287995D01*
X41889576Y-57327712D01*
X41901202Y-57357259D01*
X41921323Y-57383486D01*
X41962216Y-57423576D01*
X42007817Y-57454149D01*
X42061513Y-57476203D01*
X42126692Y-57490735D01*
X42206744Y-57498741D01*
X42305057Y-57501218D01*
X42321289Y-57501177D01*
X42386849Y-57499818D01*
X42451866Y-57496730D01*
X42509252Y-57492356D01*
X42551922Y-57487140D01*
X42555372Y-57486541D01*
X42597796Y-57476491D01*
X42633780Y-57463796D01*
X42654150Y-57452190D01*
X42673107Y-57421572D01*
X42674427Y-57385918D01*
X42658085Y-57354144D01*
X42654429Y-57350551D01*
X42639315Y-57339876D01*
X42620415Y-57335276D01*
X42591162Y-57336059D01*
X42555651Y-57340127D01*
X42515970Y-57343762D01*
X42460345Y-57346828D01*
X42395406Y-57349053D01*
X42327785Y-57350164D01*
X42310000Y-57350237D01*
X42242128Y-57349964D01*
X42192454Y-57348646D01*
X42156610Y-57345827D01*
X42130224Y-57341050D01*
X42108926Y-57333857D01*
X42096126Y-57327867D01*
X42068000Y-57311233D01*
X42050068Y-57296168D01*
X42047447Y-57291897D01*
X42052976Y-57274263D01*
X42079260Y-57257192D01*
X42124478Y-57241458D01*
X42186808Y-57227838D01*
X42205171Y-57224804D01*
X42301090Y-57209738D01*
X42377641Y-57197146D01*
X42437780Y-57186111D01*
X42484460Y-57175720D01*
X42520637Y-57165056D01*
X42549265Y-57153205D01*
X42573298Y-57139251D01*
X42595692Y-57122281D01*
X42619402Y-57101378D01*
X42627380Y-57094049D01*
X42655353Y-57066699D01*
X42670160Y-57045029D01*
X42675952Y-57020232D01*
X42676889Y-56988983D01*
X42666575Y-56927705D01*
X42635752Y-56875640D01*
X42584595Y-56832958D01*
X42513283Y-56799825D01*
X42462400Y-56784964D01*
X42407100Y-56775366D01*
X42340853Y-56769936D01*
X42267706Y-56768367D01*
X42191703Y-56770351D01*
X42191703Y-56770351D01*
G37*
X42191703Y-56770351D02*
X42116888Y-56775581D01*
X42047306Y-56783750D01*
X41987002Y-56794550D01*
X41940020Y-56807673D01*
X41910406Y-56822813D01*
X41905860Y-56827269D01*
X41890054Y-56861850D01*
X41894847Y-56897351D01*
X41919364Y-56927725D01*
X41920534Y-56928596D01*
X41934954Y-56937954D01*
X41950008Y-56942876D01*
X41971005Y-56943473D01*
X42003257Y-56939861D01*
X42052073Y-56932154D01*
X42056000Y-56931505D01*
X42128739Y-56922569D01*
X42207217Y-56918161D01*
X42285927Y-56918119D01*
X42359361Y-56922279D01*
X42422011Y-56930479D01*
X42468370Y-56942557D01*
X42471416Y-56943771D01*
X42505048Y-56962615D01*
X42516864Y-56981685D01*
X42507614Y-57000439D01*
X42478047Y-57018337D01*
X42428911Y-57034837D01*
X42360957Y-57049396D01*
X42315645Y-57056406D01*
X42221456Y-57069889D01*
X42146544Y-57082214D01*
X42087717Y-57094449D01*
X42041785Y-57107661D01*
X42005555Y-57122917D01*
X41975838Y-57141285D01*
X41949442Y-57163831D01*
X41928230Y-57185971D01*
X41903065Y-57216819D01*
X41890681Y-57243345D01*
X41886808Y-57276026D01*
X41886667Y-57287995D01*
X41889576Y-57327712D01*
X41901202Y-57357259D01*
X41921323Y-57383486D01*
X41962216Y-57423576D01*
X42007817Y-57454149D01*
X42061513Y-57476203D01*
X42126692Y-57490735D01*
X42206744Y-57498741D01*
X42305057Y-57501218D01*
X42321289Y-57501177D01*
X42386849Y-57499818D01*
X42451866Y-57496730D01*
X42509252Y-57492356D01*
X42551922Y-57487140D01*
X42555372Y-57486541D01*
X42597796Y-57476491D01*
X42633780Y-57463796D01*
X42654150Y-57452190D01*
X42673107Y-57421572D01*
X42674427Y-57385918D01*
X42658085Y-57354144D01*
X42654429Y-57350551D01*
X42639315Y-57339876D01*
X42620415Y-57335276D01*
X42591162Y-57336059D01*
X42555651Y-57340127D01*
X42515970Y-57343762D01*
X42460345Y-57346828D01*
X42395406Y-57349053D01*
X42327785Y-57350164D01*
X42310000Y-57350237D01*
X42242128Y-57349964D01*
X42192454Y-57348646D01*
X42156610Y-57345827D01*
X42130224Y-57341050D01*
X42108926Y-57333857D01*
X42096126Y-57327867D01*
X42068000Y-57311233D01*
X42050068Y-57296168D01*
X42047447Y-57291897D01*
X42052976Y-57274263D01*
X42079260Y-57257192D01*
X42124478Y-57241458D01*
X42186808Y-57227838D01*
X42205171Y-57224804D01*
X42301090Y-57209738D01*
X42377641Y-57197146D01*
X42437780Y-57186111D01*
X42484460Y-57175720D01*
X42520637Y-57165056D01*
X42549265Y-57153205D01*
X42573298Y-57139251D01*
X42595692Y-57122281D01*
X42619402Y-57101378D01*
X42627380Y-57094049D01*
X42655353Y-57066699D01*
X42670160Y-57045029D01*
X42675952Y-57020232D01*
X42676889Y-56988983D01*
X42666575Y-56927705D01*
X42635752Y-56875640D01*
X42584595Y-56832958D01*
X42513283Y-56799825D01*
X42462400Y-56784964D01*
X42407100Y-56775366D01*
X42340853Y-56769936D01*
X42267706Y-56768367D01*
X42191703Y-56770351D01*
G36*
X43212794Y-56769146D02*
G01*
X43143386Y-56769518D01*
X43090997Y-56770385D01*
X43052847Y-56771946D01*
X43026159Y-56774403D01*
X43008153Y-56777957D01*
X42996049Y-56782810D01*
X42987069Y-56789161D01*
X42983818Y-56792084D01*
X42964043Y-56823142D01*
X42960482Y-56858828D01*
X42973491Y-56890510D01*
X42979506Y-56896913D01*
X42989235Y-56903121D01*
X43004901Y-56907910D01*
X43029408Y-56911514D01*
X43065661Y-56914164D01*
X43116565Y-56916095D01*
X43185026Y-56917539D01*
X43247617Y-56918418D01*
X43495334Y-56921467D01*
X43498719Y-56986378D01*
X43502105Y-57051289D01*
X43333958Y-57051289D01*
X43260959Y-57051919D01*
X43207517Y-57054553D01*
X43170628Y-57060309D01*
X43147288Y-57070304D01*
X43134494Y-57085656D01*
X43129242Y-57107482D01*
X43128445Y-57127738D01*
X43130923Y-57152592D01*
X43140277Y-57170906D01*
X43159383Y-57183637D01*
X43191118Y-57191741D01*
X43238359Y-57196176D01*
X43303983Y-57197899D01*
X43339801Y-57198045D01*
X43500978Y-57198045D01*
X43500978Y-57356089D01*
X43252622Y-57356089D01*
X43171213Y-57356202D01*
X43109342Y-57356712D01*
X43063968Y-57357870D01*
X43032054Y-57359930D01*
X43010559Y-57363146D01*
X42996443Y-57367772D01*
X42986668Y-57374059D01*
X42981689Y-57378667D01*
X42964610Y-57405560D01*
X42959111Y-57429467D01*
X42966963Y-57458667D01*
X42981689Y-57480267D01*
X42989546Y-57487066D01*
X42999688Y-57492346D01*
X43014844Y-57496298D01*
X43037741Y-57499113D01*
X43071109Y-57500982D01*
X43117675Y-57502098D01*
X43180167Y-57502651D01*
X43261314Y-57502833D01*
X43303422Y-57502845D01*
X43393598Y-57502765D01*
X43463924Y-57502398D01*
X43517129Y-57501552D01*
X43555940Y-57500036D01*
X43583087Y-57497659D01*
X43601298Y-57494229D01*
X43613300Y-57489554D01*
X43621822Y-57483444D01*
X43625156Y-57480267D01*
X43631755Y-57472670D01*
X43636927Y-57462870D01*
X43640846Y-57448239D01*
X43643684Y-57426152D01*
X43645615Y-57393982D01*
X43646812Y-57349103D01*
X43647448Y-57288889D01*
X43647697Y-57210713D01*
X43647734Y-57137923D01*
X43647700Y-57044707D01*
X43647465Y-56971431D01*
X43646830Y-56915458D01*
X43645594Y-56874151D01*
X43643556Y-56844872D01*
X43640517Y-56824984D01*
X43636277Y-56811850D01*
X43630635Y-56802832D01*
X43623391Y-56795293D01*
X43621606Y-56793612D01*
X43612945Y-56786172D01*
X43602882Y-56780409D01*
X43588625Y-56776112D01*
X43567383Y-56773064D01*
X43536364Y-56771051D01*
X43492777Y-56769860D01*
X43433831Y-56769275D01*
X43356734Y-56769083D01*
X43302001Y-56769067D01*
X43212794Y-56769146D01*
X43212794Y-56769146D01*
G37*
X43212794Y-56769146D02*
X43143386Y-56769518D01*
X43090997Y-56770385D01*
X43052847Y-56771946D01*
X43026159Y-56774403D01*
X43008153Y-56777957D01*
X42996049Y-56782810D01*
X42987069Y-56789161D01*
X42983818Y-56792084D01*
X42964043Y-56823142D01*
X42960482Y-56858828D01*
X42973491Y-56890510D01*
X42979506Y-56896913D01*
X42989235Y-56903121D01*
X43004901Y-56907910D01*
X43029408Y-56911514D01*
X43065661Y-56914164D01*
X43116565Y-56916095D01*
X43185026Y-56917539D01*
X43247617Y-56918418D01*
X43495334Y-56921467D01*
X43498719Y-56986378D01*
X43502105Y-57051289D01*
X43333958Y-57051289D01*
X43260959Y-57051919D01*
X43207517Y-57054553D01*
X43170628Y-57060309D01*
X43147288Y-57070304D01*
X43134494Y-57085656D01*
X43129242Y-57107482D01*
X43128445Y-57127738D01*
X43130923Y-57152592D01*
X43140277Y-57170906D01*
X43159383Y-57183637D01*
X43191118Y-57191741D01*
X43238359Y-57196176D01*
X43303983Y-57197899D01*
X43339801Y-57198045D01*
X43500978Y-57198045D01*
X43500978Y-57356089D01*
X43252622Y-57356089D01*
X43171213Y-57356202D01*
X43109342Y-57356712D01*
X43063968Y-57357870D01*
X43032054Y-57359930D01*
X43010559Y-57363146D01*
X42996443Y-57367772D01*
X42986668Y-57374059D01*
X42981689Y-57378667D01*
X42964610Y-57405560D01*
X42959111Y-57429467D01*
X42966963Y-57458667D01*
X42981689Y-57480267D01*
X42989546Y-57487066D01*
X42999688Y-57492346D01*
X43014844Y-57496298D01*
X43037741Y-57499113D01*
X43071109Y-57500982D01*
X43117675Y-57502098D01*
X43180167Y-57502651D01*
X43261314Y-57502833D01*
X43303422Y-57502845D01*
X43393598Y-57502765D01*
X43463924Y-57502398D01*
X43517129Y-57501552D01*
X43555940Y-57500036D01*
X43583087Y-57497659D01*
X43601298Y-57494229D01*
X43613300Y-57489554D01*
X43621822Y-57483444D01*
X43625156Y-57480267D01*
X43631755Y-57472670D01*
X43636927Y-57462870D01*
X43640846Y-57448239D01*
X43643684Y-57426152D01*
X43645615Y-57393982D01*
X43646812Y-57349103D01*
X43647448Y-57288889D01*
X43647697Y-57210713D01*
X43647734Y-57137923D01*
X43647700Y-57044707D01*
X43647465Y-56971431D01*
X43646830Y-56915458D01*
X43645594Y-56874151D01*
X43643556Y-56844872D01*
X43640517Y-56824984D01*
X43636277Y-56811850D01*
X43630635Y-56802832D01*
X43623391Y-56795293D01*
X43621606Y-56793612D01*
X43612945Y-56786172D01*
X43602882Y-56780409D01*
X43588625Y-56776112D01*
X43567383Y-56773064D01*
X43536364Y-56771051D01*
X43492777Y-56769860D01*
X43433831Y-56769275D01*
X43356734Y-56769083D01*
X43302001Y-56769067D01*
X43212794Y-56769146D01*
G36*
X44621371Y-56769066D02*
G01*
X44581889Y-56769467D01*
X44466200Y-56772259D01*
X44369311Y-56780550D01*
X44287919Y-56795232D01*
X44218723Y-56817193D01*
X44158420Y-56847322D01*
X44103708Y-56886510D01*
X44084167Y-56903532D01*
X44051750Y-56943363D01*
X44022520Y-56997413D01*
X43999991Y-57057323D01*
X43987679Y-57114739D01*
X43986400Y-57135956D01*
X43994417Y-57194769D01*
X44015899Y-57259013D01*
X44046999Y-57319821D01*
X44083866Y-57368330D01*
X44089854Y-57374182D01*
X44140579Y-57415321D01*
X44196125Y-57447435D01*
X44259696Y-57471365D01*
X44334494Y-57487953D01*
X44423722Y-57498041D01*
X44530582Y-57502469D01*
X44579528Y-57502845D01*
X44641762Y-57502545D01*
X44685528Y-57501292D01*
X44714931Y-57498554D01*
X44734079Y-57493801D01*
X44747077Y-57486501D01*
X44754045Y-57480267D01*
X44760626Y-57472694D01*
X44765788Y-57462924D01*
X44769703Y-57448340D01*
X44772543Y-57426326D01*
X44774480Y-57394264D01*
X44775684Y-57349536D01*
X44776328Y-57289526D01*
X44776583Y-57211617D01*
X44776622Y-57135956D01*
X44776870Y-57035041D01*
X44776817Y-56954427D01*
X44775857Y-56915822D01*
X44629867Y-56915822D01*
X44629867Y-57356089D01*
X44536734Y-57356004D01*
X44480693Y-57354396D01*
X44421999Y-57350256D01*
X44373028Y-57344464D01*
X44371538Y-57344226D01*
X44292392Y-57325090D01*
X44231002Y-57295287D01*
X44184305Y-57252878D01*
X44154635Y-57206961D01*
X44136353Y-57156026D01*
X44137771Y-57108200D01*
X44158988Y-57056933D01*
X44200489Y-57003899D01*
X44257998Y-56964600D01*
X44332750Y-56938331D01*
X44382708Y-56929035D01*
X44439416Y-56922507D01*
X44499519Y-56917782D01*
X44550639Y-56915817D01*
X44553667Y-56915808D01*
X44629867Y-56915822D01*
X44775857Y-56915822D01*
X44775260Y-56891851D01*
X44770998Y-56845055D01*
X44762830Y-56811778D01*
X44749556Y-56789759D01*
X44729974Y-56776739D01*
X44702883Y-56770457D01*
X44667082Y-56768653D01*
X44621371Y-56769066D01*
X44621371Y-56769066D01*
G37*
X44621371Y-56769066D02*
X44581889Y-56769467D01*
X44466200Y-56772259D01*
X44369311Y-56780550D01*
X44287919Y-56795232D01*
X44218723Y-56817193D01*
X44158420Y-56847322D01*
X44103708Y-56886510D01*
X44084167Y-56903532D01*
X44051750Y-56943363D01*
X44022520Y-56997413D01*
X43999991Y-57057323D01*
X43987679Y-57114739D01*
X43986400Y-57135956D01*
X43994417Y-57194769D01*
X44015899Y-57259013D01*
X44046999Y-57319821D01*
X44083866Y-57368330D01*
X44089854Y-57374182D01*
X44140579Y-57415321D01*
X44196125Y-57447435D01*
X44259696Y-57471365D01*
X44334494Y-57487953D01*
X44423722Y-57498041D01*
X44530582Y-57502469D01*
X44579528Y-57502845D01*
X44641762Y-57502545D01*
X44685528Y-57501292D01*
X44714931Y-57498554D01*
X44734079Y-57493801D01*
X44747077Y-57486501D01*
X44754045Y-57480267D01*
X44760626Y-57472694D01*
X44765788Y-57462924D01*
X44769703Y-57448340D01*
X44772543Y-57426326D01*
X44774480Y-57394264D01*
X44775684Y-57349536D01*
X44776328Y-57289526D01*
X44776583Y-57211617D01*
X44776622Y-57135956D01*
X44776870Y-57035041D01*
X44776817Y-56954427D01*
X44775857Y-56915822D01*
X44629867Y-56915822D01*
X44629867Y-57356089D01*
X44536734Y-57356004D01*
X44480693Y-57354396D01*
X44421999Y-57350256D01*
X44373028Y-57344464D01*
X44371538Y-57344226D01*
X44292392Y-57325090D01*
X44231002Y-57295287D01*
X44184305Y-57252878D01*
X44154635Y-57206961D01*
X44136353Y-57156026D01*
X44137771Y-57108200D01*
X44158988Y-57056933D01*
X44200489Y-57003899D01*
X44257998Y-56964600D01*
X44332750Y-56938331D01*
X44382708Y-56929035D01*
X44439416Y-56922507D01*
X44499519Y-56917782D01*
X44550639Y-56915817D01*
X44553667Y-56915808D01*
X44629867Y-56915822D01*
X44775857Y-56915822D01*
X44775260Y-56891851D01*
X44770998Y-56845055D01*
X44762830Y-56811778D01*
X44749556Y-56789759D01*
X44729974Y-56776739D01*
X44702883Y-56770457D01*
X44667082Y-56768653D01*
X44621371Y-56769066D01*
G36*
X40773043Y-51526571D02*
G01*
X40676768Y-51550809D01*
X40590184Y-51593641D01*
X40515373Y-51653419D01*
X40454418Y-51728494D01*
X40409399Y-51817220D01*
X40383136Y-51913530D01*
X40377286Y-52010795D01*
X40392140Y-52104654D01*
X40425840Y-52192511D01*
X40476528Y-52271770D01*
X40542345Y-52339836D01*
X40621434Y-52394112D01*
X40711934Y-52432002D01*
X40763200Y-52444426D01*
X40807698Y-52451947D01*
X40841999Y-52454919D01*
X40874960Y-52453094D01*
X40915434Y-52446225D01*
X40948531Y-52439250D01*
X41041947Y-52407741D01*
X41125619Y-52356617D01*
X41197665Y-52287429D01*
X41256200Y-52201728D01*
X41270148Y-52174489D01*
X41286586Y-52138122D01*
X41296894Y-52107582D01*
X41302460Y-52075450D01*
X41304669Y-52034307D01*
X41304948Y-51988222D01*
X41300861Y-51903865D01*
X41287446Y-51834586D01*
X41262256Y-51773961D01*
X41222846Y-51715567D01*
X41184298Y-51671302D01*
X41112406Y-51605484D01*
X41037313Y-51560053D01*
X40954562Y-51532850D01*
X40876928Y-51522576D01*
X40773043Y-51526571D01*
X40773043Y-51526571D01*
G37*
X40773043Y-51526571D02*
X40676768Y-51550809D01*
X40590184Y-51593641D01*
X40515373Y-51653419D01*
X40454418Y-51728494D01*
X40409399Y-51817220D01*
X40383136Y-51913530D01*
X40377286Y-52010795D01*
X40392140Y-52104654D01*
X40425840Y-52192511D01*
X40476528Y-52271770D01*
X40542345Y-52339836D01*
X40621434Y-52394112D01*
X40711934Y-52432002D01*
X40763200Y-52444426D01*
X40807698Y-52451947D01*
X40841999Y-52454919D01*
X40874960Y-52453094D01*
X40915434Y-52446225D01*
X40948531Y-52439250D01*
X41041947Y-52407741D01*
X41125619Y-52356617D01*
X41197665Y-52287429D01*
X41256200Y-52201728D01*
X41270148Y-52174489D01*
X41286586Y-52138122D01*
X41296894Y-52107582D01*
X41302460Y-52075450D01*
X41304669Y-52034307D01*
X41304948Y-51988222D01*
X41300861Y-51903865D01*
X41287446Y-51834586D01*
X41262256Y-51773961D01*
X41222846Y-51715567D01*
X41184298Y-51671302D01*
X41112406Y-51605484D01*
X41037313Y-51560053D01*
X40954562Y-51532850D01*
X40876928Y-51522576D01*
X40773043Y-51526571D01*
G36*
X32313493Y-53972245D02*
G01*
X32313474Y-54206662D01*
X32313448Y-54419603D01*
X32313375Y-54612168D01*
X32313218Y-54785459D01*
X32312936Y-54940576D01*
X32312491Y-55078620D01*
X32311844Y-55200692D01*
X32310955Y-55307894D01*
X32309787Y-55401326D01*
X32308299Y-55482090D01*
X32306454Y-55551286D01*
X32304211Y-55610015D01*
X32301531Y-55659379D01*
X32298377Y-55700478D01*
X32294708Y-55734413D01*
X32290487Y-55762286D01*
X32285673Y-55785198D01*
X32280227Y-55804249D01*
X32274112Y-55820540D01*
X32267288Y-55835173D01*
X32259715Y-55849249D01*
X32251355Y-55863868D01*
X32246161Y-55872974D01*
X32211896Y-55933689D01*
X33070045Y-55933689D01*
X33070045Y-55837733D01*
X33070776Y-55794370D01*
X33072728Y-55761205D01*
X33075537Y-55743424D01*
X33076779Y-55741778D01*
X33088201Y-55748662D01*
X33110916Y-55766505D01*
X33133615Y-55785879D01*
X33188200Y-55826614D01*
X33257679Y-55867617D01*
X33334730Y-55905123D01*
X33412035Y-55935364D01*
X33442887Y-55945012D01*
X33511384Y-55959578D01*
X33594236Y-55969539D01*
X33683629Y-55974583D01*
X33771752Y-55974396D01*
X33850793Y-55968666D01*
X33888489Y-55962858D01*
X34026586Y-55924797D01*
X34153887Y-55867073D01*
X34269708Y-55790211D01*
X34373363Y-55694739D01*
X34464167Y-55581179D01*
X34530969Y-55470381D01*
X34585836Y-55353625D01*
X34627837Y-55234276D01*
X34657833Y-55108283D01*
X34676689Y-54971594D01*
X34685268Y-54820158D01*
X34685994Y-54742711D01*
X34683900Y-54685934D01*
X33854783Y-54685934D01*
X33854576Y-54779002D01*
X33851663Y-54866692D01*
X33846000Y-54943772D01*
X33837545Y-55005009D01*
X33834962Y-55017350D01*
X33803160Y-55124633D01*
X33761502Y-55211658D01*
X33709637Y-55278642D01*
X33647219Y-55325805D01*
X33573900Y-55353365D01*
X33489331Y-55361541D01*
X33393165Y-55350551D01*
X33329689Y-55334829D01*
X33280546Y-55316639D01*
X33226417Y-55290791D01*
X33185756Y-55267089D01*
X33115200Y-55220721D01*
X33115200Y-54070530D01*
X33182608Y-54026962D01*
X33261133Y-53986040D01*
X33345319Y-53959389D01*
X33430443Y-53947465D01*
X33511784Y-53950722D01*
X33584620Y-53969615D01*
X33616574Y-53985184D01*
X33674499Y-54028181D01*
X33723456Y-54084953D01*
X33764610Y-54157575D01*
X33799126Y-54248121D01*
X33828167Y-54358666D01*
X33829448Y-54364533D01*
X33839619Y-54426788D01*
X33847261Y-54504594D01*
X33852330Y-54592720D01*
X33854783Y-54685934D01*
X34683900Y-54685934D01*
X34678143Y-54529895D01*
X34656198Y-54334059D01*
X34620214Y-54155332D01*
X34570241Y-53993845D01*
X34506332Y-53849726D01*
X34428538Y-53723106D01*
X34336911Y-53614115D01*
X34231503Y-53522883D01*
X34186338Y-53491932D01*
X34085389Y-53435785D01*
X33982099Y-53396174D01*
X33872011Y-53372014D01*
X33750670Y-53362219D01*
X33658164Y-53363265D01*
X33528510Y-53374231D01*
X33415916Y-53396046D01*
X33317125Y-53429714D01*
X33228879Y-53476236D01*
X33180014Y-53510448D01*
X33150647Y-53532362D01*
X33128957Y-53547333D01*
X33120747Y-53551733D01*
X33119132Y-53540904D01*
X33117841Y-53510251D01*
X33116862Y-53462526D01*
X33116183Y-53400479D01*
X33115790Y-53326862D01*
X33115670Y-53244427D01*
X33115812Y-53155925D01*
X33116203Y-53064107D01*
X33116829Y-52971724D01*
X33117680Y-52881528D01*
X33118740Y-52796271D01*
X33119999Y-52718703D01*
X33121444Y-52651576D01*
X33123062Y-52597641D01*
X33124839Y-52559650D01*
X33125331Y-52552667D01*
X33132908Y-52482251D01*
X33144469Y-52427102D01*
X33162208Y-52379981D01*
X33188318Y-52333647D01*
X33194585Y-52324067D01*
X33219017Y-52287378D01*
X32313689Y-52287378D01*
X32313493Y-53972245D01*
X32313493Y-53972245D01*
G37*
X32313493Y-53972245D02*
X32313474Y-54206662D01*
X32313448Y-54419603D01*
X32313375Y-54612168D01*
X32313218Y-54785459D01*
X32312936Y-54940576D01*
X32312491Y-55078620D01*
X32311844Y-55200692D01*
X32310955Y-55307894D01*
X32309787Y-55401326D01*
X32308299Y-55482090D01*
X32306454Y-55551286D01*
X32304211Y-55610015D01*
X32301531Y-55659379D01*
X32298377Y-55700478D01*
X32294708Y-55734413D01*
X32290487Y-55762286D01*
X32285673Y-55785198D01*
X32280227Y-55804249D01*
X32274112Y-55820540D01*
X32267288Y-55835173D01*
X32259715Y-55849249D01*
X32251355Y-55863868D01*
X32246161Y-55872974D01*
X32211896Y-55933689D01*
X33070045Y-55933689D01*
X33070045Y-55837733D01*
X33070776Y-55794370D01*
X33072728Y-55761205D01*
X33075537Y-55743424D01*
X33076779Y-55741778D01*
X33088201Y-55748662D01*
X33110916Y-55766505D01*
X33133615Y-55785879D01*
X33188200Y-55826614D01*
X33257679Y-55867617D01*
X33334730Y-55905123D01*
X33412035Y-55935364D01*
X33442887Y-55945012D01*
X33511384Y-55959578D01*
X33594236Y-55969539D01*
X33683629Y-55974583D01*
X33771752Y-55974396D01*
X33850793Y-55968666D01*
X33888489Y-55962858D01*
X34026586Y-55924797D01*
X34153887Y-55867073D01*
X34269708Y-55790211D01*
X34373363Y-55694739D01*
X34464167Y-55581179D01*
X34530969Y-55470381D01*
X34585836Y-55353625D01*
X34627837Y-55234276D01*
X34657833Y-55108283D01*
X34676689Y-54971594D01*
X34685268Y-54820158D01*
X34685994Y-54742711D01*
X34683900Y-54685934D01*
X33854783Y-54685934D01*
X33854576Y-54779002D01*
X33851663Y-54866692D01*
X33846000Y-54943772D01*
X33837545Y-55005009D01*
X33834962Y-55017350D01*
X33803160Y-55124633D01*
X33761502Y-55211658D01*
X33709637Y-55278642D01*
X33647219Y-55325805D01*
X33573900Y-55353365D01*
X33489331Y-55361541D01*
X33393165Y-55350551D01*
X33329689Y-55334829D01*
X33280546Y-55316639D01*
X33226417Y-55290791D01*
X33185756Y-55267089D01*
X33115200Y-55220721D01*
X33115200Y-54070530D01*
X33182608Y-54026962D01*
X33261133Y-53986040D01*
X33345319Y-53959389D01*
X33430443Y-53947465D01*
X33511784Y-53950722D01*
X33584620Y-53969615D01*
X33616574Y-53985184D01*
X33674499Y-54028181D01*
X33723456Y-54084953D01*
X33764610Y-54157575D01*
X33799126Y-54248121D01*
X33828167Y-54358666D01*
X33829448Y-54364533D01*
X33839619Y-54426788D01*
X33847261Y-54504594D01*
X33852330Y-54592720D01*
X33854783Y-54685934D01*
X34683900Y-54685934D01*
X34678143Y-54529895D01*
X34656198Y-54334059D01*
X34620214Y-54155332D01*
X34570241Y-53993845D01*
X34506332Y-53849726D01*
X34428538Y-53723106D01*
X34336911Y-53614115D01*
X34231503Y-53522883D01*
X34186338Y-53491932D01*
X34085389Y-53435785D01*
X33982099Y-53396174D01*
X33872011Y-53372014D01*
X33750670Y-53362219D01*
X33658164Y-53363265D01*
X33528510Y-53374231D01*
X33415916Y-53396046D01*
X33317125Y-53429714D01*
X33228879Y-53476236D01*
X33180014Y-53510448D01*
X33150647Y-53532362D01*
X33128957Y-53547333D01*
X33120747Y-53551733D01*
X33119132Y-53540904D01*
X33117841Y-53510251D01*
X33116862Y-53462526D01*
X33116183Y-53400479D01*
X33115790Y-53326862D01*
X33115670Y-53244427D01*
X33115812Y-53155925D01*
X33116203Y-53064107D01*
X33116829Y-52971724D01*
X33117680Y-52881528D01*
X33118740Y-52796271D01*
X33119999Y-52718703D01*
X33121444Y-52651576D01*
X33123062Y-52597641D01*
X33124839Y-52559650D01*
X33125331Y-52552667D01*
X33132908Y-52482251D01*
X33144469Y-52427102D01*
X33162208Y-52379981D01*
X33188318Y-52333647D01*
X33194585Y-52324067D01*
X33219017Y-52287378D01*
X32313689Y-52287378D01*
X32313493Y-53972245D01*
G36*
X35826426Y-53366552D02*
G01*
X35674508Y-53386567D01*
X35539244Y-53420202D01*
X35419761Y-53467725D01*
X35315185Y-53529405D01*
X35237576Y-53592965D01*
X35168735Y-53667099D01*
X35114994Y-53746871D01*
X35072090Y-53839091D01*
X35056616Y-53882161D01*
X35043756Y-53921142D01*
X35032554Y-53957289D01*
X35022880Y-53992434D01*
X35014604Y-54028410D01*
X35007597Y-54067050D01*
X35001728Y-54110185D01*
X34996869Y-54159649D01*
X34992890Y-54217273D01*
X34989660Y-54284891D01*
X34987051Y-54364334D01*
X34984933Y-54457436D01*
X34983176Y-54566027D01*
X34981651Y-54691942D01*
X34980228Y-54837012D01*
X34978975Y-54979778D01*
X34977649Y-55135968D01*
X34976444Y-55271239D01*
X34975234Y-55387246D01*
X34973894Y-55485645D01*
X34972300Y-55568093D01*
X34970325Y-55636246D01*
X34967844Y-55691760D01*
X34964731Y-55736292D01*
X34960862Y-55771498D01*
X34956111Y-55799034D01*
X34950352Y-55820556D01*
X34943461Y-55837722D01*
X34935311Y-55852186D01*
X34925777Y-55865606D01*
X34914734Y-55879638D01*
X34910434Y-55885071D01*
X34894614Y-55907910D01*
X34887578Y-55923463D01*
X34887556Y-55923922D01*
X34898433Y-55926121D01*
X34929418Y-55928147D01*
X34978043Y-55929942D01*
X35041837Y-55931451D01*
X35118331Y-55932616D01*
X35205056Y-55933380D01*
X35299543Y-55933686D01*
X35310450Y-55933689D01*
X35733343Y-55933689D01*
X35736605Y-55837622D01*
X35739867Y-55741556D01*
X35801956Y-55792543D01*
X35899286Y-55860057D01*
X36009187Y-55914749D01*
X36095651Y-55944978D01*
X36164722Y-55959666D01*
X36248075Y-55969659D01*
X36337841Y-55974646D01*
X36426155Y-55974313D01*
X36505149Y-55968351D01*
X36541378Y-55962638D01*
X36681397Y-55924776D01*
X36807822Y-55869932D01*
X36919740Y-55798924D01*
X37016238Y-55712568D01*
X37096400Y-55611679D01*
X37159313Y-55497076D01*
X37203688Y-55370984D01*
X37216022Y-55314401D01*
X37223632Y-55252202D01*
X37227261Y-55177363D01*
X37227755Y-55143467D01*
X37227690Y-55140282D01*
X36467752Y-55140282D01*
X36458459Y-55215333D01*
X36430272Y-55279160D01*
X36381803Y-55334798D01*
X36376746Y-55339211D01*
X36328452Y-55374037D01*
X36276743Y-55396620D01*
X36216011Y-55408540D01*
X36140648Y-55411383D01*
X36122541Y-55410978D01*
X36068722Y-55408325D01*
X36028692Y-55402909D01*
X35993676Y-55392745D01*
X35954897Y-55375850D01*
X35944255Y-55370672D01*
X35883604Y-55334844D01*
X35836785Y-55292212D01*
X35824048Y-55276973D01*
X35779378Y-55220462D01*
X35779378Y-55024586D01*
X35779914Y-54945939D01*
X35781604Y-54887988D01*
X35784572Y-54848875D01*
X35788943Y-54826741D01*
X35793028Y-54820274D01*
X35808953Y-54817111D01*
X35842736Y-54814488D01*
X35889660Y-54812655D01*
X35945007Y-54811857D01*
X35953894Y-54811842D01*
X36074670Y-54817096D01*
X36177340Y-54833263D01*
X36263894Y-54860961D01*
X36336319Y-54900808D01*
X36391249Y-54947758D01*
X36435796Y-55005645D01*
X36460520Y-55068693D01*
X36467752Y-55140282D01*
X37227690Y-55140282D01*
X37225822Y-55049712D01*
X37217478Y-54970812D01*
X37201232Y-54899590D01*
X37175595Y-54828864D01*
X37151599Y-54776493D01*
X37092980Y-54681196D01*
X37014883Y-54593170D01*
X36919685Y-54514017D01*
X36809762Y-54445340D01*
X36687490Y-54388741D01*
X36555245Y-54345821D01*
X36490578Y-54330882D01*
X36354396Y-54308777D01*
X36205951Y-54294194D01*
X36054495Y-54287813D01*
X35927936Y-54289445D01*
X35766050Y-54296224D01*
X35773470Y-54237245D01*
X35792762Y-54138092D01*
X35823896Y-54057372D01*
X35867731Y-53994466D01*
X35925129Y-53948756D01*
X35996952Y-53919622D01*
X36084059Y-53906447D01*
X36187314Y-53908611D01*
X36225289Y-53912612D01*
X36366480Y-53937780D01*
X36503293Y-53978814D01*
X36597822Y-54016815D01*
X36642982Y-54036190D01*
X36681415Y-54051760D01*
X36707766Y-54061405D01*
X36715454Y-54063452D01*
X36725198Y-54054374D01*
X36741917Y-54025405D01*
X36765768Y-53976217D01*
X36796907Y-53906484D01*
X36835493Y-53815879D01*
X36842090Y-53800089D01*
X36872147Y-53727772D01*
X36899126Y-53662425D01*
X36921864Y-53606906D01*
X36939194Y-53564072D01*
X36949952Y-53536781D01*
X36953059Y-53527942D01*
X36943060Y-53523187D01*
X36916783Y-53517910D01*
X36888511Y-53514231D01*
X36858354Y-53509474D01*
X36810567Y-53500028D01*
X36749388Y-53486820D01*
X36679054Y-53470776D01*
X36603806Y-53452820D01*
X36575245Y-53445797D01*
X36470184Y-53420209D01*
X36382520Y-53400147D01*
X36307932Y-53384969D01*
X36242097Y-53374035D01*
X36180693Y-53366704D01*
X36119398Y-53362335D01*
X36053890Y-53360287D01*
X35995872Y-53359889D01*
X35826426Y-53366552D01*
X35826426Y-53366552D01*
G37*
X35826426Y-53366552D02*
X35674508Y-53386567D01*
X35539244Y-53420202D01*
X35419761Y-53467725D01*
X35315185Y-53529405D01*
X35237576Y-53592965D01*
X35168735Y-53667099D01*
X35114994Y-53746871D01*
X35072090Y-53839091D01*
X35056616Y-53882161D01*
X35043756Y-53921142D01*
X35032554Y-53957289D01*
X35022880Y-53992434D01*
X35014604Y-54028410D01*
X35007597Y-54067050D01*
X35001728Y-54110185D01*
X34996869Y-54159649D01*
X34992890Y-54217273D01*
X34989660Y-54284891D01*
X34987051Y-54364334D01*
X34984933Y-54457436D01*
X34983176Y-54566027D01*
X34981651Y-54691942D01*
X34980228Y-54837012D01*
X34978975Y-54979778D01*
X34977649Y-55135968D01*
X34976444Y-55271239D01*
X34975234Y-55387246D01*
X34973894Y-55485645D01*
X34972300Y-55568093D01*
X34970325Y-55636246D01*
X34967844Y-55691760D01*
X34964731Y-55736292D01*
X34960862Y-55771498D01*
X34956111Y-55799034D01*
X34950352Y-55820556D01*
X34943461Y-55837722D01*
X34935311Y-55852186D01*
X34925777Y-55865606D01*
X34914734Y-55879638D01*
X34910434Y-55885071D01*
X34894614Y-55907910D01*
X34887578Y-55923463D01*
X34887556Y-55923922D01*
X34898433Y-55926121D01*
X34929418Y-55928147D01*
X34978043Y-55929942D01*
X35041837Y-55931451D01*
X35118331Y-55932616D01*
X35205056Y-55933380D01*
X35299543Y-55933686D01*
X35310450Y-55933689D01*
X35733343Y-55933689D01*
X35736605Y-55837622D01*
X35739867Y-55741556D01*
X35801956Y-55792543D01*
X35899286Y-55860057D01*
X36009187Y-55914749D01*
X36095651Y-55944978D01*
X36164722Y-55959666D01*
X36248075Y-55969659D01*
X36337841Y-55974646D01*
X36426155Y-55974313D01*
X36505149Y-55968351D01*
X36541378Y-55962638D01*
X36681397Y-55924776D01*
X36807822Y-55869932D01*
X36919740Y-55798924D01*
X37016238Y-55712568D01*
X37096400Y-55611679D01*
X37159313Y-55497076D01*
X37203688Y-55370984D01*
X37216022Y-55314401D01*
X37223632Y-55252202D01*
X37227261Y-55177363D01*
X37227755Y-55143467D01*
X37227690Y-55140282D01*
X36467752Y-55140282D01*
X36458459Y-55215333D01*
X36430272Y-55279160D01*
X36381803Y-55334798D01*
X36376746Y-55339211D01*
X36328452Y-55374037D01*
X36276743Y-55396620D01*
X36216011Y-55408540D01*
X36140648Y-55411383D01*
X36122541Y-55410978D01*
X36068722Y-55408325D01*
X36028692Y-55402909D01*
X35993676Y-55392745D01*
X35954897Y-55375850D01*
X35944255Y-55370672D01*
X35883604Y-55334844D01*
X35836785Y-55292212D01*
X35824048Y-55276973D01*
X35779378Y-55220462D01*
X35779378Y-55024586D01*
X35779914Y-54945939D01*
X35781604Y-54887988D01*
X35784572Y-54848875D01*
X35788943Y-54826741D01*
X35793028Y-54820274D01*
X35808953Y-54817111D01*
X35842736Y-54814488D01*
X35889660Y-54812655D01*
X35945007Y-54811857D01*
X35953894Y-54811842D01*
X36074670Y-54817096D01*
X36177340Y-54833263D01*
X36263894Y-54860961D01*
X36336319Y-54900808D01*
X36391249Y-54947758D01*
X36435796Y-55005645D01*
X36460520Y-55068693D01*
X36467752Y-55140282D01*
X37227690Y-55140282D01*
X37225822Y-55049712D01*
X37217478Y-54970812D01*
X37201232Y-54899590D01*
X37175595Y-54828864D01*
X37151599Y-54776493D01*
X37092980Y-54681196D01*
X37014883Y-54593170D01*
X36919685Y-54514017D01*
X36809762Y-54445340D01*
X36687490Y-54388741D01*
X36555245Y-54345821D01*
X36490578Y-54330882D01*
X36354396Y-54308777D01*
X36205951Y-54294194D01*
X36054495Y-54287813D01*
X35927936Y-54289445D01*
X35766050Y-54296224D01*
X35773470Y-54237245D01*
X35792762Y-54138092D01*
X35823896Y-54057372D01*
X35867731Y-53994466D01*
X35925129Y-53948756D01*
X35996952Y-53919622D01*
X36084059Y-53906447D01*
X36187314Y-53908611D01*
X36225289Y-53912612D01*
X36366480Y-53937780D01*
X36503293Y-53978814D01*
X36597822Y-54016815D01*
X36642982Y-54036190D01*
X36681415Y-54051760D01*
X36707766Y-54061405D01*
X36715454Y-54063452D01*
X36725198Y-54054374D01*
X36741917Y-54025405D01*
X36765768Y-53976217D01*
X36796907Y-53906484D01*
X36835493Y-53815879D01*
X36842090Y-53800089D01*
X36872147Y-53727772D01*
X36899126Y-53662425D01*
X36921864Y-53606906D01*
X36939194Y-53564072D01*
X36949952Y-53536781D01*
X36953059Y-53527942D01*
X36943060Y-53523187D01*
X36916783Y-53517910D01*
X36888511Y-53514231D01*
X36858354Y-53509474D01*
X36810567Y-53500028D01*
X36749388Y-53486820D01*
X36679054Y-53470776D01*
X36603806Y-53452820D01*
X36575245Y-53445797D01*
X36470184Y-53420209D01*
X36382520Y-53400147D01*
X36307932Y-53384969D01*
X36242097Y-53374035D01*
X36180693Y-53366704D01*
X36119398Y-53362335D01*
X36053890Y-53360287D01*
X35995872Y-53359889D01*
X35826426Y-53366552D01*
G36*
X38171571Y-52449071D02*
G01*
X38011430Y-52470245D01*
X37847490Y-52510385D01*
X37677687Y-52569889D01*
X37499957Y-52649154D01*
X37488690Y-52654699D01*
X37430995Y-52682725D01*
X37379448Y-52706802D01*
X37337809Y-52725249D01*
X37309838Y-52736386D01*
X37300267Y-52738933D01*
X37281050Y-52743941D01*
X37276439Y-52748147D01*
X37281542Y-52758580D01*
X37297582Y-52784868D01*
X37322712Y-52824257D01*
X37355086Y-52873991D01*
X37392857Y-52931315D01*
X37434178Y-52993476D01*
X37477202Y-53057718D01*
X37520083Y-53121285D01*
X37560974Y-53181425D01*
X37598029Y-53235380D01*
X37629400Y-53280397D01*
X37653241Y-53313721D01*
X37667706Y-53332597D01*
X37669691Y-53334787D01*
X37679809Y-53330138D01*
X37702150Y-53312962D01*
X37732720Y-53286440D01*
X37748464Y-53271964D01*
X37844953Y-53196682D01*
X37951664Y-53141241D01*
X38067168Y-53106141D01*
X38190038Y-53091880D01*
X38259439Y-53093051D01*
X38380577Y-53110212D01*
X38489795Y-53146094D01*
X38587418Y-53200959D01*
X38673772Y-53275070D01*
X38749185Y-53368688D01*
X38813982Y-53482076D01*
X38851399Y-53568667D01*
X38895252Y-53704366D01*
X38927572Y-53851850D01*
X38948443Y-54007314D01*
X38957949Y-54166956D01*
X38956173Y-54326973D01*
X38943197Y-54483561D01*
X38919106Y-54632918D01*
X38883982Y-54771240D01*
X38837908Y-54894724D01*
X38821627Y-54928978D01*
X38753380Y-55043064D01*
X38672921Y-55139557D01*
X38581430Y-55217670D01*
X38480089Y-55276617D01*
X38370080Y-55315612D01*
X38252585Y-55333868D01*
X38211117Y-55335211D01*
X38089559Y-55324290D01*
X37969122Y-55291474D01*
X37851334Y-55237439D01*
X37737723Y-55162865D01*
X37646315Y-55084539D01*
X37599785Y-55040008D01*
X37418517Y-55337271D01*
X37373420Y-55411433D01*
X37332181Y-55479646D01*
X37296265Y-55539459D01*
X37267134Y-55588420D01*
X37246250Y-55624079D01*
X37235076Y-55643984D01*
X37233625Y-55647079D01*
X37241854Y-55656718D01*
X37267433Y-55673999D01*
X37307127Y-55697283D01*
X37357703Y-55724934D01*
X37415926Y-55755315D01*
X37478563Y-55786790D01*
X37542379Y-55817722D01*
X37604140Y-55846473D01*
X37660612Y-55871408D01*
X37708562Y-55890889D01*
X37732014Y-55899318D01*
X37865779Y-55937133D01*
X38003673Y-55962136D01*
X38151378Y-55975140D01*
X38278167Y-55977468D01*
X38346122Y-55976373D01*
X38411723Y-55974275D01*
X38469153Y-55971434D01*
X38512597Y-55968106D01*
X38526702Y-55966422D01*
X38665716Y-55937587D01*
X38807243Y-55892468D01*
X38944725Y-55833750D01*
X39071606Y-55764120D01*
X39149111Y-55711441D01*
X39276519Y-55603239D01*
X39394822Y-55476671D01*
X39501828Y-55334866D01*
X39595348Y-55180951D01*
X39673190Y-55018053D01*
X39717044Y-54900756D01*
X39767292Y-54717128D01*
X39800791Y-54522581D01*
X39817551Y-54321325D01*
X39817584Y-54117568D01*
X39800899Y-53915521D01*
X39767507Y-53719392D01*
X39717420Y-53533391D01*
X39713603Y-53521803D01*
X39650719Y-53359750D01*
X39573972Y-53211832D01*
X39480758Y-53073865D01*
X39368473Y-52941661D01*
X39324608Y-52896399D01*
X39188466Y-52772457D01*
X39048509Y-52669915D01*
X38902589Y-52587656D01*
X38748558Y-52524564D01*
X38584268Y-52479523D01*
X38488711Y-52462033D01*
X38329977Y-52446466D01*
X38171571Y-52449071D01*
X38171571Y-52449071D01*
G37*
X38171571Y-52449071D02*
X38011430Y-52470245D01*
X37847490Y-52510385D01*
X37677687Y-52569889D01*
X37499957Y-52649154D01*
X37488690Y-52654699D01*
X37430995Y-52682725D01*
X37379448Y-52706802D01*
X37337809Y-52725249D01*
X37309838Y-52736386D01*
X37300267Y-52738933D01*
X37281050Y-52743941D01*
X37276439Y-52748147D01*
X37281542Y-52758580D01*
X37297582Y-52784868D01*
X37322712Y-52824257D01*
X37355086Y-52873991D01*
X37392857Y-52931315D01*
X37434178Y-52993476D01*
X37477202Y-53057718D01*
X37520083Y-53121285D01*
X37560974Y-53181425D01*
X37598029Y-53235380D01*
X37629400Y-53280397D01*
X37653241Y-53313721D01*
X37667706Y-53332597D01*
X37669691Y-53334787D01*
X37679809Y-53330138D01*
X37702150Y-53312962D01*
X37732720Y-53286440D01*
X37748464Y-53271964D01*
X37844953Y-53196682D01*
X37951664Y-53141241D01*
X38067168Y-53106141D01*
X38190038Y-53091880D01*
X38259439Y-53093051D01*
X38380577Y-53110212D01*
X38489795Y-53146094D01*
X38587418Y-53200959D01*
X38673772Y-53275070D01*
X38749185Y-53368688D01*
X38813982Y-53482076D01*
X38851399Y-53568667D01*
X38895252Y-53704366D01*
X38927572Y-53851850D01*
X38948443Y-54007314D01*
X38957949Y-54166956D01*
X38956173Y-54326973D01*
X38943197Y-54483561D01*
X38919106Y-54632918D01*
X38883982Y-54771240D01*
X38837908Y-54894724D01*
X38821627Y-54928978D01*
X38753380Y-55043064D01*
X38672921Y-55139557D01*
X38581430Y-55217670D01*
X38480089Y-55276617D01*
X38370080Y-55315612D01*
X38252585Y-55333868D01*
X38211117Y-55335211D01*
X38089559Y-55324290D01*
X37969122Y-55291474D01*
X37851334Y-55237439D01*
X37737723Y-55162865D01*
X37646315Y-55084539D01*
X37599785Y-55040008D01*
X37418517Y-55337271D01*
X37373420Y-55411433D01*
X37332181Y-55479646D01*
X37296265Y-55539459D01*
X37267134Y-55588420D01*
X37246250Y-55624079D01*
X37235076Y-55643984D01*
X37233625Y-55647079D01*
X37241854Y-55656718D01*
X37267433Y-55673999D01*
X37307127Y-55697283D01*
X37357703Y-55724934D01*
X37415926Y-55755315D01*
X37478563Y-55786790D01*
X37542379Y-55817722D01*
X37604140Y-55846473D01*
X37660612Y-55871408D01*
X37708562Y-55890889D01*
X37732014Y-55899318D01*
X37865779Y-55937133D01*
X38003673Y-55962136D01*
X38151378Y-55975140D01*
X38278167Y-55977468D01*
X38346122Y-55976373D01*
X38411723Y-55974275D01*
X38469153Y-55971434D01*
X38512597Y-55968106D01*
X38526702Y-55966422D01*
X38665716Y-55937587D01*
X38807243Y-55892468D01*
X38944725Y-55833750D01*
X39071606Y-55764120D01*
X39149111Y-55711441D01*
X39276519Y-55603239D01*
X39394822Y-55476671D01*
X39501828Y-55334866D01*
X39595348Y-55180951D01*
X39673190Y-55018053D01*
X39717044Y-54900756D01*
X39767292Y-54717128D01*
X39800791Y-54522581D01*
X39817551Y-54321325D01*
X39817584Y-54117568D01*
X39800899Y-53915521D01*
X39767507Y-53719392D01*
X39717420Y-53533391D01*
X39713603Y-53521803D01*
X39650719Y-53359750D01*
X39573972Y-53211832D01*
X39480758Y-53073865D01*
X39368473Y-52941661D01*
X39324608Y-52896399D01*
X39188466Y-52772457D01*
X39048509Y-52669915D01*
X38902589Y-52587656D01*
X38748558Y-52524564D01*
X38584268Y-52479523D01*
X38488711Y-52462033D01*
X38329977Y-52446466D01*
X38171571Y-52449071D01*
G36*
X41446400Y-51989054D02*
G01*
X41435535Y-52102993D01*
X41403918Y-52210616D01*
X41353015Y-52309615D01*
X41284293Y-52397684D01*
X41199219Y-52472516D01*
X41102232Y-52530384D01*
X40995964Y-52570005D01*
X40888950Y-52588573D01*
X40783300Y-52587434D01*
X40681125Y-52567930D01*
X40584534Y-52531406D01*
X40495638Y-52479205D01*
X40416546Y-52412673D01*
X40349369Y-52333152D01*
X40296217Y-52241987D01*
X40259199Y-52140523D01*
X40240427Y-52030102D01*
X40238489Y-51980206D01*
X40238489Y-51892267D01*
X40186560Y-51892267D01*
X40150253Y-51895111D01*
X40123355Y-51906911D01*
X40096249Y-51930649D01*
X40057867Y-51969031D01*
X40057867Y-54160602D01*
X40057876Y-54422739D01*
X40057908Y-54663241D01*
X40057972Y-54883048D01*
X40058076Y-55083101D01*
X40058227Y-55264344D01*
X40058434Y-55427716D01*
X40058706Y-55574160D01*
X40059050Y-55704617D01*
X40059474Y-55820029D01*
X40059987Y-55921338D01*
X40060597Y-56009484D01*
X40061312Y-56085410D01*
X40062140Y-56150057D01*
X40063089Y-56204367D01*
X40064167Y-56249280D01*
X40065383Y-56285740D01*
X40066745Y-56314687D01*
X40068261Y-56337063D01*
X40069938Y-56353809D01*
X40071786Y-56365868D01*
X40073813Y-56374180D01*
X40076025Y-56379687D01*
X40077108Y-56381537D01*
X40081271Y-56388549D01*
X40084805Y-56394996D01*
X40088635Y-56400900D01*
X40093682Y-56406286D01*
X40100871Y-56411178D01*
X40111123Y-56415598D01*
X40125364Y-56419572D01*
X40144514Y-56423121D01*
X40169499Y-56426270D01*
X40201240Y-56429042D01*
X40240662Y-56431461D01*
X40288686Y-56433551D01*
X40346237Y-56435335D01*
X40414237Y-56436837D01*
X40493610Y-56438080D01*
X40585279Y-56439089D01*
X40690166Y-56439885D01*
X40809196Y-56440494D01*
X40943290Y-56440939D01*
X41093373Y-56441243D01*
X41260367Y-56441430D01*
X41445196Y-56441524D01*
X41648783Y-56441548D01*
X41872050Y-56441525D01*
X42115922Y-56441480D01*
X42381321Y-56441437D01*
X42419704Y-56441432D01*
X42686682Y-56441389D01*
X42932002Y-56441318D01*
X43156583Y-56441213D01*
X43361345Y-56441066D01*
X43547206Y-56440869D01*
X43715088Y-56440616D01*
X43865908Y-56440300D01*
X44000587Y-56439913D01*
X44120044Y-56439447D01*
X44225199Y-56438897D01*
X44316971Y-56438253D01*
X44396279Y-56437511D01*
X44464043Y-56436661D01*
X44521182Y-56435697D01*
X44568617Y-56434611D01*
X44607266Y-56433397D01*
X44638049Y-56432047D01*
X44661885Y-56430555D01*
X44679694Y-56428911D01*
X44692395Y-56427111D01*
X44700908Y-56425145D01*
X44705266Y-56423477D01*
X44713728Y-56419906D01*
X44721497Y-56417270D01*
X44728602Y-56414634D01*
X44735073Y-56411062D01*
X44740939Y-56405621D01*
X44746229Y-56397375D01*
X44750974Y-56385390D01*
X44755202Y-56368731D01*
X44758943Y-56346463D01*
X44762227Y-56317652D01*
X44765083Y-56281363D01*
X44767540Y-56236661D01*
X44769629Y-56182611D01*
X44771378Y-56118279D01*
X44772817Y-56042730D01*
X44773976Y-55955030D01*
X44774883Y-55854243D01*
X44775569Y-55739434D01*
X44776063Y-55609670D01*
X44776395Y-55464015D01*
X44776593Y-55301535D01*
X44776687Y-55121295D01*
X44776708Y-54922360D01*
X44776685Y-54703796D01*
X44776646Y-54464668D01*
X44776622Y-54204040D01*
X44776622Y-54161889D01*
X44776636Y-53898992D01*
X44776661Y-53657732D01*
X44776671Y-53437165D01*
X44776642Y-53236352D01*
X44776548Y-53054349D01*
X44776362Y-52890216D01*
X44776059Y-52743011D01*
X44775614Y-52611792D01*
X44775034Y-52501867D01*
X44472197Y-52501867D01*
X44432407Y-52559711D01*
X44421236Y-52575479D01*
X44411166Y-52589441D01*
X44402138Y-52602784D01*
X44394097Y-52616693D01*
X44386986Y-52632356D01*
X44380747Y-52650958D01*
X44375325Y-52673686D01*
X44370662Y-52701727D01*
X44366701Y-52736267D01*
X44363385Y-52778492D01*
X44360659Y-52829589D01*
X44358464Y-52890744D01*
X44356745Y-52963144D01*
X44355444Y-53047975D01*
X44354505Y-53146422D01*
X44353870Y-53259674D01*
X44353484Y-53388916D01*
X44353288Y-53535334D01*
X44353227Y-53700116D01*
X44353243Y-53884447D01*
X44353280Y-54089513D01*
X44353289Y-54212133D01*
X44353265Y-54429082D01*
X44353231Y-54624642D01*
X44353243Y-54799999D01*
X44353358Y-54956341D01*
X44353630Y-55094857D01*
X44354118Y-55216734D01*
X44354876Y-55323160D01*
X44355962Y-55415322D01*
X44357431Y-55494409D01*
X44359340Y-55561608D01*
X44361744Y-55618107D01*
X44364701Y-55665093D01*
X44368266Y-55703755D01*
X44372495Y-55735280D01*
X44377446Y-55760855D01*
X44383173Y-55781670D01*
X44389733Y-55798911D01*
X44397183Y-55813765D01*
X44405579Y-55827422D01*
X44414976Y-55841069D01*
X44425432Y-55855893D01*
X44431523Y-55864783D01*
X44470296Y-55922400D01*
X43938732Y-55922400D01*
X43815483Y-55922365D01*
X43712987Y-55922215D01*
X43629420Y-55921878D01*
X43562956Y-55921286D01*
X43511771Y-55920367D01*
X43474041Y-55919051D01*
X43447940Y-55917269D01*
X43431644Y-55914951D01*
X43423328Y-55912026D01*
X43421168Y-55908424D01*
X43423339Y-55904075D01*
X43424535Y-55902645D01*
X43449685Y-55865573D01*
X43475583Y-55812772D01*
X43499192Y-55750770D01*
X43507461Y-55724357D01*
X43512078Y-55706416D01*
X43515979Y-55685355D01*
X43519248Y-55659089D01*
X43521966Y-55625532D01*
X43524215Y-55582599D01*
X43526077Y-55528204D01*
X43527636Y-55460262D01*
X43528972Y-55376688D01*
X43530169Y-55275395D01*
X43531308Y-55154300D01*
X43531685Y-55109600D01*
X43532702Y-54984449D01*
X43533460Y-54880082D01*
X43533903Y-54794707D01*
X43533970Y-54726533D01*
X43533605Y-54673765D01*
X43532748Y-54634614D01*
X43531341Y-54607285D01*
X43529325Y-54589986D01*
X43526643Y-54580926D01*
X43523236Y-54578312D01*
X43519044Y-54580351D01*
X43514571Y-54584667D01*
X43504216Y-54597602D01*
X43482158Y-54626676D01*
X43449957Y-54669759D01*
X43409174Y-54724718D01*
X43361370Y-54789423D01*
X43308105Y-54861742D01*
X43250940Y-54939544D01*
X43191437Y-55020698D01*
X43131155Y-55103072D01*
X43071655Y-55184536D01*
X43014498Y-55262957D01*
X42961245Y-55336204D01*
X42913457Y-55402147D01*
X42872693Y-55458654D01*
X42840516Y-55503593D01*
X42818485Y-55534834D01*
X42813917Y-55541466D01*
X42790996Y-55578369D01*
X42764188Y-55626359D01*
X42738789Y-55675897D01*
X42735568Y-55682577D01*
X42713890Y-55730772D01*
X42701304Y-55768334D01*
X42695574Y-55804160D01*
X42694456Y-55846200D01*
X42695090Y-55922400D01*
X41540651Y-55922400D01*
X41631815Y-55828669D01*
X41678612Y-55778775D01*
X41728899Y-55722295D01*
X41774944Y-55668026D01*
X41795369Y-55642673D01*
X41825807Y-55603128D01*
X41865862Y-55549916D01*
X41914361Y-55484667D01*
X41970135Y-55409011D01*
X42032011Y-55324577D01*
X42098819Y-55232994D01*
X42169387Y-55135892D01*
X42242545Y-55034901D01*
X42317121Y-54931650D01*
X42391944Y-54827768D01*
X42465843Y-54724885D01*
X42537646Y-54624631D01*
X42606184Y-54528636D01*
X42670284Y-54438527D01*
X42728775Y-54355936D01*
X42780486Y-54282492D01*
X42824247Y-54219824D01*
X42858885Y-54169561D01*
X42883230Y-54133334D01*
X42896111Y-54112771D01*
X42897869Y-54108668D01*
X42889910Y-54097342D01*
X42869115Y-54070162D01*
X42836847Y-54028829D01*
X42794470Y-53975044D01*
X42743347Y-53910506D01*
X42684841Y-53836918D01*
X42620314Y-53755978D01*
X42551131Y-53669388D01*
X42478653Y-53578848D01*
X42404246Y-53486060D01*
X42344517Y-53411702D01*
X41333511Y-53411702D01*
X41327602Y-53424659D01*
X41313272Y-53446908D01*
X41312225Y-53448391D01*
X41293438Y-53478544D01*
X41273791Y-53515375D01*
X41269892Y-53523511D01*
X41266356Y-53531940D01*
X41263230Y-53542059D01*
X41260486Y-53555260D01*
X41258092Y-53572938D01*
X41256019Y-53596484D01*
X41254235Y-53627293D01*
X41252712Y-53666757D01*
X41251419Y-53716269D01*
X41250326Y-53777223D01*
X41249403Y-53851011D01*
X41248619Y-53939028D01*
X41247945Y-54042665D01*
X41247350Y-54163316D01*
X41246805Y-54302374D01*
X41246279Y-54461232D01*
X41245745Y-54640089D01*
X41245206Y-54825207D01*
X41244772Y-54989145D01*
X41244509Y-55133303D01*
X41244484Y-55259079D01*
X41244765Y-55367871D01*
X41245419Y-55461077D01*
X41246514Y-55540097D01*
X41248118Y-55606328D01*
X41250297Y-55661170D01*
X41253119Y-55706021D01*
X41256651Y-55742278D01*
X41260961Y-55771341D01*
X41266117Y-55794609D01*
X41272185Y-55813479D01*
X41279233Y-55829351D01*
X41287329Y-55843622D01*
X41296540Y-55857691D01*
X41305040Y-55870158D01*
X41322176Y-55896452D01*
X41332322Y-55914037D01*
X41333511Y-55917257D01*
X41322604Y-55918334D01*
X41291411Y-55919335D01*
X41242223Y-55920235D01*
X41177333Y-55921010D01*
X41099030Y-55921637D01*
X41009607Y-55922091D01*
X40911356Y-55922349D01*
X40842445Y-55922400D01*
X40737452Y-55922180D01*
X40640610Y-55921548D01*
X40554107Y-55920549D01*
X40480132Y-55919227D01*
X40420874Y-55917626D01*
X40378520Y-55915791D01*
X40355260Y-55913765D01*
X40351378Y-55912493D01*
X40359076Y-55897591D01*
X40367074Y-55889560D01*
X40380246Y-55872434D01*
X40397485Y-55842183D01*
X40409407Y-55817622D01*
X40436045Y-55758711D01*
X40439120Y-54581845D01*
X40442195Y-53404978D01*
X40887853Y-53404978D01*
X40985670Y-53405142D01*
X41076064Y-53405611D01*
X41156630Y-53406347D01*
X41224962Y-53407316D01*
X41278656Y-53408480D01*
X41315305Y-53409803D01*
X41332504Y-53411249D01*
X41333511Y-53411702D01*
X42344517Y-53411702D01*
X42329270Y-53392722D01*
X42255090Y-53300537D01*
X42183069Y-53211204D01*
X42114569Y-53126424D01*
X42050955Y-53047898D01*
X41993588Y-52977326D01*
X41943833Y-52916409D01*
X41903052Y-52866847D01*
X41885888Y-52846178D01*
X41799596Y-52745516D01*
X41722997Y-52662259D01*
X41654183Y-52594438D01*
X41591248Y-52540089D01*
X41581867Y-52532722D01*
X41542356Y-52502117D01*
X42674116Y-52501867D01*
X42668827Y-52549844D01*
X42672130Y-52607188D01*
X42693661Y-52675463D01*
X42733635Y-52755212D01*
X42778943Y-52827495D01*
X42795161Y-52850140D01*
X42823214Y-52887696D01*
X42861430Y-52938021D01*
X42908137Y-52998973D01*
X42961661Y-53068411D01*
X43020331Y-53144194D01*
X43082475Y-53224180D01*
X43146421Y-53306228D01*
X43210495Y-53388196D01*
X43273027Y-53467943D01*
X43332343Y-53543327D01*
X43386771Y-53612207D01*
X43434639Y-53672442D01*
X43474275Y-53721889D01*
X43504006Y-53758408D01*
X43522161Y-53779858D01*
X43525220Y-53783156D01*
X43528079Y-53775149D01*
X43530293Y-53744855D01*
X43531857Y-53692556D01*
X43532767Y-53618531D01*
X43533020Y-53523063D01*
X43532613Y-53406434D01*
X43531704Y-53286445D01*
X43530382Y-53154333D01*
X43528857Y-53042594D01*
X43526881Y-52949025D01*
X43524206Y-52871419D01*
X43520582Y-52807574D01*
X43515761Y-52755283D01*
X43509494Y-52712344D01*
X43501532Y-52676551D01*
X43491627Y-52645700D01*
X43479531Y-52617586D01*
X43464993Y-52590005D01*
X43450311Y-52564966D01*
X43412314Y-52501867D01*
X44472197Y-52501867D01*
X44775034Y-52501867D01*
X44775001Y-52495617D01*
X44774195Y-52393544D01*
X44773170Y-52304633D01*
X44771900Y-52227941D01*
X44770360Y-52162527D01*
X44768524Y-52107449D01*
X44766367Y-52061765D01*
X44763863Y-52024534D01*
X44760987Y-51994813D01*
X44757713Y-51971662D01*
X44754015Y-51954139D01*
X44749869Y-51941301D01*
X44745247Y-51932208D01*
X44740126Y-51925918D01*
X44734478Y-51921488D01*
X44728279Y-51917978D01*
X44721504Y-51914445D01*
X44715508Y-51910876D01*
X44710275Y-51908300D01*
X44702099Y-51905972D01*
X44689886Y-51903878D01*
X44672541Y-51902007D01*
X44648969Y-51900347D01*
X44618077Y-51898884D01*
X44578768Y-51897608D01*
X44529950Y-51896504D01*
X44470527Y-51895561D01*
X44399404Y-51894767D01*
X44315488Y-51894109D01*
X44217683Y-51893575D01*
X44104894Y-51893153D01*
X43976029Y-51892829D01*
X43829991Y-51892592D01*
X43665686Y-51892430D01*
X43482020Y-51892330D01*
X43277897Y-51892280D01*
X43066753Y-51892267D01*
X41446400Y-51892267D01*
X41446400Y-51989054D01*
X41446400Y-51989054D01*
G37*
X41446400Y-51989054D02*
X41435535Y-52102993D01*
X41403918Y-52210616D01*
X41353015Y-52309615D01*
X41284293Y-52397684D01*
X41199219Y-52472516D01*
X41102232Y-52530384D01*
X40995964Y-52570005D01*
X40888950Y-52588573D01*
X40783300Y-52587434D01*
X40681125Y-52567930D01*
X40584534Y-52531406D01*
X40495638Y-52479205D01*
X40416546Y-52412673D01*
X40349369Y-52333152D01*
X40296217Y-52241987D01*
X40259199Y-52140523D01*
X40240427Y-52030102D01*
X40238489Y-51980206D01*
X40238489Y-51892267D01*
X40186560Y-51892267D01*
X40150253Y-51895111D01*
X40123355Y-51906911D01*
X40096249Y-51930649D01*
X40057867Y-51969031D01*
X40057867Y-54160602D01*
X40057876Y-54422739D01*
X40057908Y-54663241D01*
X40057972Y-54883048D01*
X40058076Y-55083101D01*
X40058227Y-55264344D01*
X40058434Y-55427716D01*
X40058706Y-55574160D01*
X40059050Y-55704617D01*
X40059474Y-55820029D01*
X40059987Y-55921338D01*
X40060597Y-56009484D01*
X40061312Y-56085410D01*
X40062140Y-56150057D01*
X40063089Y-56204367D01*
X40064167Y-56249280D01*
X40065383Y-56285740D01*
X40066745Y-56314687D01*
X40068261Y-56337063D01*
X40069938Y-56353809D01*
X40071786Y-56365868D01*
X40073813Y-56374180D01*
X40076025Y-56379687D01*
X40077108Y-56381537D01*
X40081271Y-56388549D01*
X40084805Y-56394996D01*
X40088635Y-56400900D01*
X40093682Y-56406286D01*
X40100871Y-56411178D01*
X40111123Y-56415598D01*
X40125364Y-56419572D01*
X40144514Y-56423121D01*
X40169499Y-56426270D01*
X40201240Y-56429042D01*
X40240662Y-56431461D01*
X40288686Y-56433551D01*
X40346237Y-56435335D01*
X40414237Y-56436837D01*
X40493610Y-56438080D01*
X40585279Y-56439089D01*
X40690166Y-56439885D01*
X40809196Y-56440494D01*
X40943290Y-56440939D01*
X41093373Y-56441243D01*
X41260367Y-56441430D01*
X41445196Y-56441524D01*
X41648783Y-56441548D01*
X41872050Y-56441525D01*
X42115922Y-56441480D01*
X42381321Y-56441437D01*
X42419704Y-56441432D01*
X42686682Y-56441389D01*
X42932002Y-56441318D01*
X43156583Y-56441213D01*
X43361345Y-56441066D01*
X43547206Y-56440869D01*
X43715088Y-56440616D01*
X43865908Y-56440300D01*
X44000587Y-56439913D01*
X44120044Y-56439447D01*
X44225199Y-56438897D01*
X44316971Y-56438253D01*
X44396279Y-56437511D01*
X44464043Y-56436661D01*
X44521182Y-56435697D01*
X44568617Y-56434611D01*
X44607266Y-56433397D01*
X44638049Y-56432047D01*
X44661885Y-56430555D01*
X44679694Y-56428911D01*
X44692395Y-56427111D01*
X44700908Y-56425145D01*
X44705266Y-56423477D01*
X44713728Y-56419906D01*
X44721497Y-56417270D01*
X44728602Y-56414634D01*
X44735073Y-56411062D01*
X44740939Y-56405621D01*
X44746229Y-56397375D01*
X44750974Y-56385390D01*
X44755202Y-56368731D01*
X44758943Y-56346463D01*
X44762227Y-56317652D01*
X44765083Y-56281363D01*
X44767540Y-56236661D01*
X44769629Y-56182611D01*
X44771378Y-56118279D01*
X44772817Y-56042730D01*
X44773976Y-55955030D01*
X44774883Y-55854243D01*
X44775569Y-55739434D01*
X44776063Y-55609670D01*
X44776395Y-55464015D01*
X44776593Y-55301535D01*
X44776687Y-55121295D01*
X44776708Y-54922360D01*
X44776685Y-54703796D01*
X44776646Y-54464668D01*
X44776622Y-54204040D01*
X44776622Y-54161889D01*
X44776636Y-53898992D01*
X44776661Y-53657732D01*
X44776671Y-53437165D01*
X44776642Y-53236352D01*
X44776548Y-53054349D01*
X44776362Y-52890216D01*
X44776059Y-52743011D01*
X44775614Y-52611792D01*
X44775034Y-52501867D01*
X44472197Y-52501867D01*
X44432407Y-52559711D01*
X44421236Y-52575479D01*
X44411166Y-52589441D01*
X44402138Y-52602784D01*
X44394097Y-52616693D01*
X44386986Y-52632356D01*
X44380747Y-52650958D01*
X44375325Y-52673686D01*
X44370662Y-52701727D01*
X44366701Y-52736267D01*
X44363385Y-52778492D01*
X44360659Y-52829589D01*
X44358464Y-52890744D01*
X44356745Y-52963144D01*
X44355444Y-53047975D01*
X44354505Y-53146422D01*
X44353870Y-53259674D01*
X44353484Y-53388916D01*
X44353288Y-53535334D01*
X44353227Y-53700116D01*
X44353243Y-53884447D01*
X44353280Y-54089513D01*
X44353289Y-54212133D01*
X44353265Y-54429082D01*
X44353231Y-54624642D01*
X44353243Y-54799999D01*
X44353358Y-54956341D01*
X44353630Y-55094857D01*
X44354118Y-55216734D01*
X44354876Y-55323160D01*
X44355962Y-55415322D01*
X44357431Y-55494409D01*
X44359340Y-55561608D01*
X44361744Y-55618107D01*
X44364701Y-55665093D01*
X44368266Y-55703755D01*
X44372495Y-55735280D01*
X44377446Y-55760855D01*
X44383173Y-55781670D01*
X44389733Y-55798911D01*
X44397183Y-55813765D01*
X44405579Y-55827422D01*
X44414976Y-55841069D01*
X44425432Y-55855893D01*
X44431523Y-55864783D01*
X44470296Y-55922400D01*
X43938732Y-55922400D01*
X43815483Y-55922365D01*
X43712987Y-55922215D01*
X43629420Y-55921878D01*
X43562956Y-55921286D01*
X43511771Y-55920367D01*
X43474041Y-55919051D01*
X43447940Y-55917269D01*
X43431644Y-55914951D01*
X43423328Y-55912026D01*
X43421168Y-55908424D01*
X43423339Y-55904075D01*
X43424535Y-55902645D01*
X43449685Y-55865573D01*
X43475583Y-55812772D01*
X43499192Y-55750770D01*
X43507461Y-55724357D01*
X43512078Y-55706416D01*
X43515979Y-55685355D01*
X43519248Y-55659089D01*
X43521966Y-55625532D01*
X43524215Y-55582599D01*
X43526077Y-55528204D01*
X43527636Y-55460262D01*
X43528972Y-55376688D01*
X43530169Y-55275395D01*
X43531308Y-55154300D01*
X43531685Y-55109600D01*
X43532702Y-54984449D01*
X43533460Y-54880082D01*
X43533903Y-54794707D01*
X43533970Y-54726533D01*
X43533605Y-54673765D01*
X43532748Y-54634614D01*
X43531341Y-54607285D01*
X43529325Y-54589986D01*
X43526643Y-54580926D01*
X43523236Y-54578312D01*
X43519044Y-54580351D01*
X43514571Y-54584667D01*
X43504216Y-54597602D01*
X43482158Y-54626676D01*
X43449957Y-54669759D01*
X43409174Y-54724718D01*
X43361370Y-54789423D01*
X43308105Y-54861742D01*
X43250940Y-54939544D01*
X43191437Y-55020698D01*
X43131155Y-55103072D01*
X43071655Y-55184536D01*
X43014498Y-55262957D01*
X42961245Y-55336204D01*
X42913457Y-55402147D01*
X42872693Y-55458654D01*
X42840516Y-55503593D01*
X42818485Y-55534834D01*
X42813917Y-55541466D01*
X42790996Y-55578369D01*
X42764188Y-55626359D01*
X42738789Y-55675897D01*
X42735568Y-55682577D01*
X42713890Y-55730772D01*
X42701304Y-55768334D01*
X42695574Y-55804160D01*
X42694456Y-55846200D01*
X42695090Y-55922400D01*
X41540651Y-55922400D01*
X41631815Y-55828669D01*
X41678612Y-55778775D01*
X41728899Y-55722295D01*
X41774944Y-55668026D01*
X41795369Y-55642673D01*
X41825807Y-55603128D01*
X41865862Y-55549916D01*
X41914361Y-55484667D01*
X41970135Y-55409011D01*
X42032011Y-55324577D01*
X42098819Y-55232994D01*
X42169387Y-55135892D01*
X42242545Y-55034901D01*
X42317121Y-54931650D01*
X42391944Y-54827768D01*
X42465843Y-54724885D01*
X42537646Y-54624631D01*
X42606184Y-54528636D01*
X42670284Y-54438527D01*
X42728775Y-54355936D01*
X42780486Y-54282492D01*
X42824247Y-54219824D01*
X42858885Y-54169561D01*
X42883230Y-54133334D01*
X42896111Y-54112771D01*
X42897869Y-54108668D01*
X42889910Y-54097342D01*
X42869115Y-54070162D01*
X42836847Y-54028829D01*
X42794470Y-53975044D01*
X42743347Y-53910506D01*
X42684841Y-53836918D01*
X42620314Y-53755978D01*
X42551131Y-53669388D01*
X42478653Y-53578848D01*
X42404246Y-53486060D01*
X42344517Y-53411702D01*
X41333511Y-53411702D01*
X41327602Y-53424659D01*
X41313272Y-53446908D01*
X41312225Y-53448391D01*
X41293438Y-53478544D01*
X41273791Y-53515375D01*
X41269892Y-53523511D01*
X41266356Y-53531940D01*
X41263230Y-53542059D01*
X41260486Y-53555260D01*
X41258092Y-53572938D01*
X41256019Y-53596484D01*
X41254235Y-53627293D01*
X41252712Y-53666757D01*
X41251419Y-53716269D01*
X41250326Y-53777223D01*
X41249403Y-53851011D01*
X41248619Y-53939028D01*
X41247945Y-54042665D01*
X41247350Y-54163316D01*
X41246805Y-54302374D01*
X41246279Y-54461232D01*
X41245745Y-54640089D01*
X41245206Y-54825207D01*
X41244772Y-54989145D01*
X41244509Y-55133303D01*
X41244484Y-55259079D01*
X41244765Y-55367871D01*
X41245419Y-55461077D01*
X41246514Y-55540097D01*
X41248118Y-55606328D01*
X41250297Y-55661170D01*
X41253119Y-55706021D01*
X41256651Y-55742278D01*
X41260961Y-55771341D01*
X41266117Y-55794609D01*
X41272185Y-55813479D01*
X41279233Y-55829351D01*
X41287329Y-55843622D01*
X41296540Y-55857691D01*
X41305040Y-55870158D01*
X41322176Y-55896452D01*
X41332322Y-55914037D01*
X41333511Y-55917257D01*
X41322604Y-55918334D01*
X41291411Y-55919335D01*
X41242223Y-55920235D01*
X41177333Y-55921010D01*
X41099030Y-55921637D01*
X41009607Y-55922091D01*
X40911356Y-55922349D01*
X40842445Y-55922400D01*
X40737452Y-55922180D01*
X40640610Y-55921548D01*
X40554107Y-55920549D01*
X40480132Y-55919227D01*
X40420874Y-55917626D01*
X40378520Y-55915791D01*
X40355260Y-55913765D01*
X40351378Y-55912493D01*
X40359076Y-55897591D01*
X40367074Y-55889560D01*
X40380246Y-55872434D01*
X40397485Y-55842183D01*
X40409407Y-55817622D01*
X40436045Y-55758711D01*
X40439120Y-54581845D01*
X40442195Y-53404978D01*
X40887853Y-53404978D01*
X40985670Y-53405142D01*
X41076064Y-53405611D01*
X41156630Y-53406347D01*
X41224962Y-53407316D01*
X41278656Y-53408480D01*
X41315305Y-53409803D01*
X41332504Y-53411249D01*
X41333511Y-53411702D01*
X42344517Y-53411702D01*
X42329270Y-53392722D01*
X42255090Y-53300537D01*
X42183069Y-53211204D01*
X42114569Y-53126424D01*
X42050955Y-53047898D01*
X41993588Y-52977326D01*
X41943833Y-52916409D01*
X41903052Y-52866847D01*
X41885888Y-52846178D01*
X41799596Y-52745516D01*
X41722997Y-52662259D01*
X41654183Y-52594438D01*
X41591248Y-52540089D01*
X41581867Y-52532722D01*
X41542356Y-52502117D01*
X42674116Y-52501867D01*
X42668827Y-52549844D01*
X42672130Y-52607188D01*
X42693661Y-52675463D01*
X42733635Y-52755212D01*
X42778943Y-52827495D01*
X42795161Y-52850140D01*
X42823214Y-52887696D01*
X42861430Y-52938021D01*
X42908137Y-52998973D01*
X42961661Y-53068411D01*
X43020331Y-53144194D01*
X43082475Y-53224180D01*
X43146421Y-53306228D01*
X43210495Y-53388196D01*
X43273027Y-53467943D01*
X43332343Y-53543327D01*
X43386771Y-53612207D01*
X43434639Y-53672442D01*
X43474275Y-53721889D01*
X43504006Y-53758408D01*
X43522161Y-53779858D01*
X43525220Y-53783156D01*
X43528079Y-53775149D01*
X43530293Y-53744855D01*
X43531857Y-53692556D01*
X43532767Y-53618531D01*
X43533020Y-53523063D01*
X43532613Y-53406434D01*
X43531704Y-53286445D01*
X43530382Y-53154333D01*
X43528857Y-53042594D01*
X43526881Y-52949025D01*
X43524206Y-52871419D01*
X43520582Y-52807574D01*
X43515761Y-52755283D01*
X43509494Y-52712344D01*
X43501532Y-52676551D01*
X43491627Y-52645700D01*
X43479531Y-52617586D01*
X43464993Y-52590005D01*
X43450311Y-52564966D01*
X43412314Y-52501867D01*
X44472197Y-52501867D01*
X44775034Y-52501867D01*
X44775001Y-52495617D01*
X44774195Y-52393544D01*
X44773170Y-52304633D01*
X44771900Y-52227941D01*
X44770360Y-52162527D01*
X44768524Y-52107449D01*
X44766367Y-52061765D01*
X44763863Y-52024534D01*
X44760987Y-51994813D01*
X44757713Y-51971662D01*
X44754015Y-51954139D01*
X44749869Y-51941301D01*
X44745247Y-51932208D01*
X44740126Y-51925918D01*
X44734478Y-51921488D01*
X44728279Y-51917978D01*
X44721504Y-51914445D01*
X44715508Y-51910876D01*
X44710275Y-51908300D01*
X44702099Y-51905972D01*
X44689886Y-51903878D01*
X44672541Y-51902007D01*
X44648969Y-51900347D01*
X44618077Y-51898884D01*
X44578768Y-51897608D01*
X44529950Y-51896504D01*
X44470527Y-51895561D01*
X44399404Y-51894767D01*
X44315488Y-51894109D01*
X44217683Y-51893575D01*
X44104894Y-51893153D01*
X43976029Y-51892829D01*
X43829991Y-51892592D01*
X43665686Y-51892430D01*
X43482020Y-51892330D01*
X43277897Y-51892280D01*
X43066753Y-51892267D01*
X41446400Y-51892267D01*
X41446400Y-51989054D01*
M02*
