G04 #@! TF.GenerationSoftware,KiCad,Pcbnew,5.1.4-e60b266~84~ubuntu19.04.1*
G04 #@! TF.CreationDate,2019-09-15T18:03:26+02:00*
G04 #@! TF.ProjectId,TouchSensorDev,546f7563-6853-4656-9e73-6f724465762e,rev?*
G04 #@! TF.SameCoordinates,Original*
G04 #@! TF.FileFunction,Soldermask,Top*
G04 #@! TF.FilePolarity,Negative*
%FSLAX46Y46*%
G04 Gerber Fmt 4.6, Leading zero omitted, Abs format (unit mm)*
G04 Created by KiCad (PCBNEW 5.1.4-e60b266~84~ubuntu19.04.1) date 2019-09-15 18:03:26*
%MOMM*%
%LPD*%
G04 APERTURE LIST*
%ADD10C,0.010000*%
%ADD11C,0.100000*%
G04 APERTURE END LIST*
D10*
G36*
X57241385Y-23060019D02*
G01*
X58039536Y-23176342D01*
X58838072Y-23366286D01*
X59231661Y-23487925D01*
X59947226Y-23763210D01*
X60621186Y-24096461D01*
X61247568Y-24482928D01*
X61820395Y-24917863D01*
X62333692Y-25396515D01*
X62781482Y-25914135D01*
X63157791Y-26465974D01*
X63301339Y-26722521D01*
X63514435Y-27184776D01*
X63703725Y-27705527D01*
X63860573Y-28259972D01*
X63907278Y-28462333D01*
X63938710Y-28615831D01*
X63962561Y-28758658D01*
X63979847Y-28906200D01*
X63991585Y-29073846D01*
X63998790Y-29276982D01*
X64002477Y-29530997D01*
X64003664Y-29851278D01*
X64003690Y-29922833D01*
X64003165Y-30249536D01*
X64000475Y-30511888D01*
X63993957Y-30730206D01*
X63981945Y-30924805D01*
X63962777Y-31115999D01*
X63934790Y-31324105D01*
X63896318Y-31569437D01*
X63845699Y-31872310D01*
X63842480Y-31891333D01*
X63777105Y-32292966D01*
X63731243Y-32621343D01*
X63706150Y-32885882D01*
X63703083Y-33096005D01*
X63723298Y-33261128D01*
X63768054Y-33390672D01*
X63838607Y-33494056D01*
X63936213Y-33580699D01*
X64062130Y-33660020D01*
X64079816Y-33669831D01*
X64265932Y-33783081D01*
X64387771Y-33888399D01*
X64462006Y-34002665D01*
X64491904Y-34087095D01*
X64513091Y-34299543D01*
X64460916Y-34486674D01*
X64344501Y-34634956D01*
X64172967Y-34730860D01*
X64039298Y-34758426D01*
X63918218Y-34761738D01*
X63805425Y-34741799D01*
X63671989Y-34690963D01*
X63535656Y-34625288D01*
X63216135Y-34420824D01*
X62949138Y-34160060D01*
X62747192Y-33855628D01*
X62722622Y-33805565D01*
X62676322Y-33700983D01*
X62644691Y-33606821D01*
X62624997Y-33503330D01*
X62614511Y-33370760D01*
X62610502Y-33189361D01*
X62610129Y-32992000D01*
X62613735Y-32750532D01*
X62625346Y-32528976D01*
X62647462Y-32303963D01*
X62682579Y-32052124D01*
X62733197Y-31750089D01*
X62757220Y-31616167D01*
X62808309Y-31328960D01*
X62845953Y-31095732D01*
X62872208Y-30893132D01*
X62889130Y-30697810D01*
X62898773Y-30486414D01*
X62903195Y-30235594D01*
X62904425Y-29944000D01*
X62903672Y-29632026D01*
X62899657Y-29386801D01*
X62891046Y-29190430D01*
X62876508Y-29025018D01*
X62854710Y-28872669D01*
X62824320Y-28715489D01*
X62807109Y-28636725D01*
X62659689Y-28072345D01*
X62481442Y-27573809D01*
X62263624Y-27125223D01*
X61997491Y-26710696D01*
X61674300Y-26314335D01*
X61342128Y-25974034D01*
X60818284Y-25530333D01*
X60241034Y-25145011D01*
X59618943Y-24819124D01*
X58960577Y-24553727D01*
X58274502Y-24349879D01*
X57569284Y-24208633D01*
X56853491Y-24131048D01*
X56135686Y-24118177D01*
X55424438Y-24171079D01*
X54728312Y-24290809D01*
X54055873Y-24478422D01*
X53415689Y-24734975D01*
X53008067Y-24946538D01*
X52436205Y-25319632D01*
X51909248Y-25759767D01*
X51423381Y-26270520D01*
X50976040Y-26853667D01*
X50839131Y-27046934D01*
X50735011Y-27180884D01*
X50651841Y-27268152D01*
X50577783Y-27321370D01*
X50510988Y-27349990D01*
X50321228Y-27372499D01*
X50142016Y-27323952D01*
X49991156Y-27217119D01*
X49886454Y-27064769D01*
X49845715Y-26879670D01*
X49845667Y-26872876D01*
X49870191Y-26744544D01*
X49937849Y-26566168D01*
X50039764Y-26354516D01*
X50167062Y-26126355D01*
X50310869Y-25898451D01*
X50462308Y-25687572D01*
X50495046Y-25646028D01*
X50985847Y-25101118D01*
X51532215Y-24616197D01*
X52128632Y-24192628D01*
X52769579Y-23831775D01*
X53449539Y-23535001D01*
X54162993Y-23303668D01*
X54904423Y-23139141D01*
X55668310Y-23042781D01*
X56449137Y-23015953D01*
X57241385Y-23060019D01*
X57241385Y-23060019D01*
G37*
X57241385Y-23060019D02*
X58039536Y-23176342D01*
X58838072Y-23366286D01*
X59231661Y-23487925D01*
X59947226Y-23763210D01*
X60621186Y-24096461D01*
X61247568Y-24482928D01*
X61820395Y-24917863D01*
X62333692Y-25396515D01*
X62781482Y-25914135D01*
X63157791Y-26465974D01*
X63301339Y-26722521D01*
X63514435Y-27184776D01*
X63703725Y-27705527D01*
X63860573Y-28259972D01*
X63907278Y-28462333D01*
X63938710Y-28615831D01*
X63962561Y-28758658D01*
X63979847Y-28906200D01*
X63991585Y-29073846D01*
X63998790Y-29276982D01*
X64002477Y-29530997D01*
X64003664Y-29851278D01*
X64003690Y-29922833D01*
X64003165Y-30249536D01*
X64000475Y-30511888D01*
X63993957Y-30730206D01*
X63981945Y-30924805D01*
X63962777Y-31115999D01*
X63934790Y-31324105D01*
X63896318Y-31569437D01*
X63845699Y-31872310D01*
X63842480Y-31891333D01*
X63777105Y-32292966D01*
X63731243Y-32621343D01*
X63706150Y-32885882D01*
X63703083Y-33096005D01*
X63723298Y-33261128D01*
X63768054Y-33390672D01*
X63838607Y-33494056D01*
X63936213Y-33580699D01*
X64062130Y-33660020D01*
X64079816Y-33669831D01*
X64265932Y-33783081D01*
X64387771Y-33888399D01*
X64462006Y-34002665D01*
X64491904Y-34087095D01*
X64513091Y-34299543D01*
X64460916Y-34486674D01*
X64344501Y-34634956D01*
X64172967Y-34730860D01*
X64039298Y-34758426D01*
X63918218Y-34761738D01*
X63805425Y-34741799D01*
X63671989Y-34690963D01*
X63535656Y-34625288D01*
X63216135Y-34420824D01*
X62949138Y-34160060D01*
X62747192Y-33855628D01*
X62722622Y-33805565D01*
X62676322Y-33700983D01*
X62644691Y-33606821D01*
X62624997Y-33503330D01*
X62614511Y-33370760D01*
X62610502Y-33189361D01*
X62610129Y-32992000D01*
X62613735Y-32750532D01*
X62625346Y-32528976D01*
X62647462Y-32303963D01*
X62682579Y-32052124D01*
X62733197Y-31750089D01*
X62757220Y-31616167D01*
X62808309Y-31328960D01*
X62845953Y-31095732D01*
X62872208Y-30893132D01*
X62889130Y-30697810D01*
X62898773Y-30486414D01*
X62903195Y-30235594D01*
X62904425Y-29944000D01*
X62903672Y-29632026D01*
X62899657Y-29386801D01*
X62891046Y-29190430D01*
X62876508Y-29025018D01*
X62854710Y-28872669D01*
X62824320Y-28715489D01*
X62807109Y-28636725D01*
X62659689Y-28072345D01*
X62481442Y-27573809D01*
X62263624Y-27125223D01*
X61997491Y-26710696D01*
X61674300Y-26314335D01*
X61342128Y-25974034D01*
X60818284Y-25530333D01*
X60241034Y-25145011D01*
X59618943Y-24819124D01*
X58960577Y-24553727D01*
X58274502Y-24349879D01*
X57569284Y-24208633D01*
X56853491Y-24131048D01*
X56135686Y-24118177D01*
X55424438Y-24171079D01*
X54728312Y-24290809D01*
X54055873Y-24478422D01*
X53415689Y-24734975D01*
X53008067Y-24946538D01*
X52436205Y-25319632D01*
X51909248Y-25759767D01*
X51423381Y-26270520D01*
X50976040Y-26853667D01*
X50839131Y-27046934D01*
X50735011Y-27180884D01*
X50651841Y-27268152D01*
X50577783Y-27321370D01*
X50510988Y-27349990D01*
X50321228Y-27372499D01*
X50142016Y-27323952D01*
X49991156Y-27217119D01*
X49886454Y-27064769D01*
X49845715Y-26879670D01*
X49845667Y-26872876D01*
X49870191Y-26744544D01*
X49937849Y-26566168D01*
X50039764Y-26354516D01*
X50167062Y-26126355D01*
X50310869Y-25898451D01*
X50462308Y-25687572D01*
X50495046Y-25646028D01*
X50985847Y-25101118D01*
X51532215Y-24616197D01*
X52128632Y-24192628D01*
X52769579Y-23831775D01*
X53449539Y-23535001D01*
X54162993Y-23303668D01*
X54904423Y-23139141D01*
X55668310Y-23042781D01*
X56449137Y-23015953D01*
X57241385Y-23060019D01*
G36*
X56675729Y-29672041D02*
G01*
X56842589Y-29779579D01*
X56954342Y-29941460D01*
X56999574Y-30146178D01*
X57000000Y-30169463D01*
X56974778Y-30316764D01*
X56903453Y-30518144D01*
X56792537Y-30761352D01*
X56648543Y-31034134D01*
X56477981Y-31324236D01*
X56287366Y-31619407D01*
X56083207Y-31907391D01*
X56059649Y-31938840D01*
X55590173Y-32496760D01*
X55046014Y-33026572D01*
X54433683Y-33524171D01*
X53759691Y-33985452D01*
X53030546Y-34406313D01*
X52252759Y-34782648D01*
X51432841Y-35110353D01*
X50605614Y-35377255D01*
X50322120Y-35456770D01*
X50106024Y-35512269D01*
X49944028Y-35545356D01*
X49822832Y-35557637D01*
X49729138Y-35550715D01*
X49649646Y-35526197D01*
X49594937Y-35499206D01*
X49435046Y-35368621D01*
X49335748Y-35197107D01*
X49302795Y-35004807D01*
X49341939Y-34811865D01*
X49378286Y-34740305D01*
X49452339Y-34642811D01*
X49551062Y-34565033D01*
X49690940Y-34498325D01*
X49888458Y-34434044D01*
X50039575Y-34393534D01*
X50560830Y-34242421D01*
X51115632Y-34049216D01*
X51672286Y-33825793D01*
X52195167Y-33585960D01*
X52736922Y-33305183D01*
X53213256Y-33025535D01*
X53642236Y-32734093D01*
X54041933Y-32417934D01*
X54430417Y-32064137D01*
X54694280Y-31798711D01*
X55009974Y-31451729D01*
X55279881Y-31110958D01*
X55524102Y-30748488D01*
X55762738Y-30336409D01*
X55807864Y-30252535D01*
X55943688Y-30010398D01*
X56059911Y-29837314D01*
X56167142Y-29723243D01*
X56275986Y-29658145D01*
X56397053Y-29631979D01*
X56465178Y-29630351D01*
X56675729Y-29672041D01*
X56675729Y-29672041D01*
G37*
X56675729Y-29672041D02*
X56842589Y-29779579D01*
X56954342Y-29941460D01*
X56999574Y-30146178D01*
X57000000Y-30169463D01*
X56974778Y-30316764D01*
X56903453Y-30518144D01*
X56792537Y-30761352D01*
X56648543Y-31034134D01*
X56477981Y-31324236D01*
X56287366Y-31619407D01*
X56083207Y-31907391D01*
X56059649Y-31938840D01*
X55590173Y-32496760D01*
X55046014Y-33026572D01*
X54433683Y-33524171D01*
X53759691Y-33985452D01*
X53030546Y-34406313D01*
X52252759Y-34782648D01*
X51432841Y-35110353D01*
X50605614Y-35377255D01*
X50322120Y-35456770D01*
X50106024Y-35512269D01*
X49944028Y-35545356D01*
X49822832Y-35557637D01*
X49729138Y-35550715D01*
X49649646Y-35526197D01*
X49594937Y-35499206D01*
X49435046Y-35368621D01*
X49335748Y-35197107D01*
X49302795Y-35004807D01*
X49341939Y-34811865D01*
X49378286Y-34740305D01*
X49452339Y-34642811D01*
X49551062Y-34565033D01*
X49690940Y-34498325D01*
X49888458Y-34434044D01*
X50039575Y-34393534D01*
X50560830Y-34242421D01*
X51115632Y-34049216D01*
X51672286Y-33825793D01*
X52195167Y-33585960D01*
X52736922Y-33305183D01*
X53213256Y-33025535D01*
X53642236Y-32734093D01*
X54041933Y-32417934D01*
X54430417Y-32064137D01*
X54694280Y-31798711D01*
X55009974Y-31451729D01*
X55279881Y-31110958D01*
X55524102Y-30748488D01*
X55762738Y-30336409D01*
X55807864Y-30252535D01*
X55943688Y-30010398D01*
X56059911Y-29837314D01*
X56167142Y-29723243D01*
X56275986Y-29658145D01*
X56397053Y-29631979D01*
X56465178Y-29630351D01*
X56675729Y-29672041D01*
G36*
X57233112Y-25143197D02*
G01*
X57889952Y-25258408D01*
X58519259Y-25447160D01*
X59114271Y-25706633D01*
X59668227Y-26034006D01*
X60174365Y-26426459D01*
X60511921Y-26754730D01*
X60911808Y-27234859D01*
X61237160Y-27742512D01*
X61495057Y-28290478D01*
X61690158Y-28882544D01*
X61728820Y-29032323D01*
X61757229Y-29165335D01*
X61776967Y-29299177D01*
X61789616Y-29451448D01*
X61796756Y-29639748D01*
X61799969Y-29881674D01*
X61800760Y-30113333D01*
X61800254Y-30390638D01*
X61796636Y-30617850D01*
X61787999Y-30815440D01*
X61772436Y-31003882D01*
X61748038Y-31203648D01*
X61712900Y-31435210D01*
X61665114Y-31719042D01*
X61635115Y-31891333D01*
X61575521Y-32241348D01*
X61531334Y-32527045D01*
X61500483Y-32766951D01*
X61480900Y-32979592D01*
X61470515Y-33183494D01*
X61467266Y-33394167D01*
X61468010Y-33624850D01*
X61473325Y-33791531D01*
X61486223Y-33914859D01*
X61509714Y-34015484D01*
X61546808Y-34114055D01*
X61584269Y-34196714D01*
X61714249Y-34443896D01*
X61855022Y-34638170D01*
X62031549Y-34810100D01*
X62180315Y-34926585D01*
X62492799Y-35132647D01*
X62844229Y-35315850D01*
X63253510Y-35485575D01*
X63446512Y-35554857D01*
X63704802Y-35651946D01*
X63891204Y-35743881D01*
X64017154Y-35840524D01*
X64094087Y-35951743D01*
X64133440Y-36087402D01*
X64141547Y-36154437D01*
X64124611Y-36370021D01*
X64038147Y-36546985D01*
X63888432Y-36674098D01*
X63837266Y-36698714D01*
X63747995Y-36732667D01*
X63668418Y-36749195D01*
X63580115Y-36745971D01*
X63464663Y-36720667D01*
X63303642Y-36670959D01*
X63117167Y-36607775D01*
X62621948Y-36416341D01*
X62159597Y-36195720D01*
X61741545Y-35952905D01*
X61379223Y-35694894D01*
X61084062Y-35428682D01*
X60959172Y-35287161D01*
X60760217Y-35011208D01*
X60601792Y-34725126D01*
X60482881Y-34420369D01*
X60402472Y-34088389D01*
X60359548Y-33720641D01*
X60353097Y-33308578D01*
X60382102Y-32843654D01*
X60445550Y-32317323D01*
X60538486Y-31743167D01*
X60593673Y-31425624D01*
X60634433Y-31169336D01*
X60662907Y-30952528D01*
X60681241Y-30753427D01*
X60691578Y-30550257D01*
X60696061Y-30321244D01*
X60696864Y-30134500D01*
X60696028Y-29862027D01*
X60691757Y-29655023D01*
X60682070Y-29494303D01*
X60664982Y-29360683D01*
X60638514Y-29234976D01*
X60600681Y-29097997D01*
X60584069Y-29042794D01*
X60376899Y-28500708D01*
X60102042Y-28007854D01*
X59762514Y-27566886D01*
X59361331Y-27180458D01*
X58901509Y-26851224D01*
X58386064Y-26581839D01*
X57818013Y-26374956D01*
X57444500Y-26280053D01*
X57125612Y-26231384D01*
X56756014Y-26207318D01*
X56365930Y-26207598D01*
X55985584Y-26231964D01*
X55645200Y-26280156D01*
X55568888Y-26296124D01*
X54969789Y-26472359D01*
X54413203Y-26718833D01*
X53903652Y-27032351D01*
X53445661Y-27409714D01*
X53043751Y-27847727D01*
X52724333Y-28306602D01*
X52447654Y-28754023D01*
X52197779Y-29133273D01*
X51966089Y-29453078D01*
X51743961Y-29722164D01*
X51522776Y-29949260D01*
X51293914Y-30143091D01*
X51048752Y-30312386D01*
X50778671Y-30465871D01*
X50475051Y-30612273D01*
X50424436Y-30634891D01*
X50119372Y-30755104D01*
X49869993Y-30819196D01*
X49669215Y-30827868D01*
X49509954Y-30781819D01*
X49436383Y-30732493D01*
X49291173Y-30564698D01*
X49224576Y-30375369D01*
X49229259Y-30218000D01*
X49290553Y-30053548D01*
X49413006Y-29912140D01*
X49604900Y-29786404D01*
X49824500Y-29688014D01*
X50020260Y-29605029D01*
X50221084Y-29509301D01*
X50386663Y-29420156D01*
X50400743Y-29411734D01*
X50629519Y-29243607D01*
X50872753Y-29013059D01*
X51115190Y-28736949D01*
X51341577Y-28432138D01*
X51472755Y-28226842D01*
X51754917Y-27769765D01*
X52016713Y-27380807D01*
X52267737Y-27048896D01*
X52517582Y-26762962D01*
X52775840Y-26511935D01*
X53052104Y-26284743D01*
X53321669Y-26093101D01*
X53911547Y-25739504D01*
X54506230Y-25467169D01*
X55116226Y-25272882D01*
X55752043Y-25153431D01*
X56424189Y-25105604D01*
X56555500Y-25104349D01*
X57233112Y-25143197D01*
X57233112Y-25143197D01*
G37*
X57233112Y-25143197D02*
X57889952Y-25258408D01*
X58519259Y-25447160D01*
X59114271Y-25706633D01*
X59668227Y-26034006D01*
X60174365Y-26426459D01*
X60511921Y-26754730D01*
X60911808Y-27234859D01*
X61237160Y-27742512D01*
X61495057Y-28290478D01*
X61690158Y-28882544D01*
X61728820Y-29032323D01*
X61757229Y-29165335D01*
X61776967Y-29299177D01*
X61789616Y-29451448D01*
X61796756Y-29639748D01*
X61799969Y-29881674D01*
X61800760Y-30113333D01*
X61800254Y-30390638D01*
X61796636Y-30617850D01*
X61787999Y-30815440D01*
X61772436Y-31003882D01*
X61748038Y-31203648D01*
X61712900Y-31435210D01*
X61665114Y-31719042D01*
X61635115Y-31891333D01*
X61575521Y-32241348D01*
X61531334Y-32527045D01*
X61500483Y-32766951D01*
X61480900Y-32979592D01*
X61470515Y-33183494D01*
X61467266Y-33394167D01*
X61468010Y-33624850D01*
X61473325Y-33791531D01*
X61486223Y-33914859D01*
X61509714Y-34015484D01*
X61546808Y-34114055D01*
X61584269Y-34196714D01*
X61714249Y-34443896D01*
X61855022Y-34638170D01*
X62031549Y-34810100D01*
X62180315Y-34926585D01*
X62492799Y-35132647D01*
X62844229Y-35315850D01*
X63253510Y-35485575D01*
X63446512Y-35554857D01*
X63704802Y-35651946D01*
X63891204Y-35743881D01*
X64017154Y-35840524D01*
X64094087Y-35951743D01*
X64133440Y-36087402D01*
X64141547Y-36154437D01*
X64124611Y-36370021D01*
X64038147Y-36546985D01*
X63888432Y-36674098D01*
X63837266Y-36698714D01*
X63747995Y-36732667D01*
X63668418Y-36749195D01*
X63580115Y-36745971D01*
X63464663Y-36720667D01*
X63303642Y-36670959D01*
X63117167Y-36607775D01*
X62621948Y-36416341D01*
X62159597Y-36195720D01*
X61741545Y-35952905D01*
X61379223Y-35694894D01*
X61084062Y-35428682D01*
X60959172Y-35287161D01*
X60760217Y-35011208D01*
X60601792Y-34725126D01*
X60482881Y-34420369D01*
X60402472Y-34088389D01*
X60359548Y-33720641D01*
X60353097Y-33308578D01*
X60382102Y-32843654D01*
X60445550Y-32317323D01*
X60538486Y-31743167D01*
X60593673Y-31425624D01*
X60634433Y-31169336D01*
X60662907Y-30952528D01*
X60681241Y-30753427D01*
X60691578Y-30550257D01*
X60696061Y-30321244D01*
X60696864Y-30134500D01*
X60696028Y-29862027D01*
X60691757Y-29655023D01*
X60682070Y-29494303D01*
X60664982Y-29360683D01*
X60638514Y-29234976D01*
X60600681Y-29097997D01*
X60584069Y-29042794D01*
X60376899Y-28500708D01*
X60102042Y-28007854D01*
X59762514Y-27566886D01*
X59361331Y-27180458D01*
X58901509Y-26851224D01*
X58386064Y-26581839D01*
X57818013Y-26374956D01*
X57444500Y-26280053D01*
X57125612Y-26231384D01*
X56756014Y-26207318D01*
X56365930Y-26207598D01*
X55985584Y-26231964D01*
X55645200Y-26280156D01*
X55568888Y-26296124D01*
X54969789Y-26472359D01*
X54413203Y-26718833D01*
X53903652Y-27032351D01*
X53445661Y-27409714D01*
X53043751Y-27847727D01*
X52724333Y-28306602D01*
X52447654Y-28754023D01*
X52197779Y-29133273D01*
X51966089Y-29453078D01*
X51743961Y-29722164D01*
X51522776Y-29949260D01*
X51293914Y-30143091D01*
X51048752Y-30312386D01*
X50778671Y-30465871D01*
X50475051Y-30612273D01*
X50424436Y-30634891D01*
X50119372Y-30755104D01*
X49869993Y-30819196D01*
X49669215Y-30827868D01*
X49509954Y-30781819D01*
X49436383Y-30732493D01*
X49291173Y-30564698D01*
X49224576Y-30375369D01*
X49229259Y-30218000D01*
X49290553Y-30053548D01*
X49413006Y-29912140D01*
X49604900Y-29786404D01*
X49824500Y-29688014D01*
X50020260Y-29605029D01*
X50221084Y-29509301D01*
X50386663Y-29420156D01*
X50400743Y-29411734D01*
X50629519Y-29243607D01*
X50872753Y-29013059D01*
X51115190Y-28736949D01*
X51341577Y-28432138D01*
X51472755Y-28226842D01*
X51754917Y-27769765D01*
X52016713Y-27380807D01*
X52267737Y-27048896D01*
X52517582Y-26762962D01*
X52775840Y-26511935D01*
X53052104Y-26284743D01*
X53321669Y-26093101D01*
X53911547Y-25739504D01*
X54506230Y-25467169D01*
X55116226Y-25272882D01*
X55752043Y-25153431D01*
X56424189Y-25105604D01*
X56555500Y-25104349D01*
X57233112Y-25143197D01*
G36*
X56911614Y-27305074D02*
G01*
X57395303Y-27413514D01*
X57841813Y-27596498D01*
X58255725Y-27855870D01*
X58613310Y-28165162D01*
X58795946Y-28353206D01*
X58931591Y-28513743D01*
X59039326Y-28672209D01*
X59138232Y-28854037D01*
X59153862Y-28885667D01*
X59329060Y-29317297D01*
X59425032Y-29738583D01*
X59444296Y-30161232D01*
X59441030Y-30220960D01*
X59413923Y-30492307D01*
X59366707Y-30746343D01*
X59293293Y-31002901D01*
X59187589Y-31281816D01*
X59043506Y-31602922D01*
X58969712Y-31755892D01*
X58540322Y-32540591D01*
X58042515Y-33280526D01*
X57474188Y-33978191D01*
X56833239Y-34636082D01*
X56117567Y-35256693D01*
X55835833Y-35475541D01*
X55125927Y-35969058D01*
X54349218Y-36431124D01*
X53519903Y-36854938D01*
X52652179Y-37233699D01*
X51760243Y-37560605D01*
X51007356Y-37788878D01*
X50790535Y-37847893D01*
X50638149Y-37887151D01*
X50533020Y-37909412D01*
X50457964Y-37917435D01*
X50395802Y-37913979D01*
X50329352Y-37901804D01*
X50318501Y-37899512D01*
X50134100Y-37821066D01*
X49996642Y-37684708D01*
X49916692Y-37508979D01*
X49904817Y-37312419D01*
X49927368Y-37213151D01*
X49974298Y-37102473D01*
X50041895Y-37012750D01*
X50142887Y-36936229D01*
X50290000Y-36865155D01*
X50495960Y-36791774D01*
X50740132Y-36717935D01*
X51748173Y-36392289D01*
X52697268Y-36015618D01*
X53585628Y-35589281D01*
X54411464Y-35114639D01*
X55172988Y-34593050D01*
X55868412Y-34025876D01*
X56495947Y-33414476D01*
X57053804Y-32760209D01*
X57540196Y-32064437D01*
X57953333Y-31328518D01*
X58026746Y-31177201D01*
X58202823Y-30746476D01*
X58304733Y-30353198D01*
X58332337Y-29993715D01*
X58285493Y-29664380D01*
X58164059Y-29361542D01*
X57967896Y-29081553D01*
X57944733Y-29055303D01*
X57639562Y-28775551D01*
X57295540Y-28565377D01*
X56923432Y-28426929D01*
X56534002Y-28362353D01*
X56138016Y-28373796D01*
X55746239Y-28463405D01*
X55494601Y-28566701D01*
X55239872Y-28715326D01*
X55016438Y-28901115D01*
X54813198Y-29136479D01*
X54619052Y-29433828D01*
X54467980Y-29714405D01*
X54235085Y-30146156D01*
X53999157Y-30516154D01*
X53744763Y-30846397D01*
X53456471Y-31158888D01*
X53450575Y-31164786D01*
X52949366Y-31612756D01*
X52378670Y-32027625D01*
X51749312Y-32403094D01*
X51072115Y-32732865D01*
X50357904Y-33010639D01*
X50173244Y-33071729D01*
X49910995Y-33149503D01*
X49710314Y-33192246D01*
X49555586Y-33199734D01*
X49431200Y-33171746D01*
X49321541Y-33108058D01*
X49262961Y-33058753D01*
X49171502Y-32967591D01*
X49124347Y-32887713D01*
X49107001Y-32783900D01*
X49104833Y-32674500D01*
X49109844Y-32531041D01*
X49134056Y-32437422D01*
X49191238Y-32358989D01*
X49254389Y-32298103D01*
X49412934Y-32189201D01*
X49644006Y-32089026D01*
X49770328Y-32046813D01*
X50476317Y-31794751D01*
X51124078Y-31497952D01*
X51710209Y-31158980D01*
X52231310Y-30780396D01*
X52683979Y-30364760D01*
X53064817Y-29914636D01*
X53370423Y-29432585D01*
X53450602Y-29274454D01*
X53714491Y-28786554D01*
X54005075Y-28374842D01*
X54327395Y-28033653D01*
X54686492Y-27757325D01*
X54924245Y-27618980D01*
X55311626Y-27444986D01*
X55694562Y-27333831D01*
X56102077Y-27278574D01*
X56386167Y-27269337D01*
X56911614Y-27305074D01*
X56911614Y-27305074D01*
G37*
X56911614Y-27305074D02*
X57395303Y-27413514D01*
X57841813Y-27596498D01*
X58255725Y-27855870D01*
X58613310Y-28165162D01*
X58795946Y-28353206D01*
X58931591Y-28513743D01*
X59039326Y-28672209D01*
X59138232Y-28854037D01*
X59153862Y-28885667D01*
X59329060Y-29317297D01*
X59425032Y-29738583D01*
X59444296Y-30161232D01*
X59441030Y-30220960D01*
X59413923Y-30492307D01*
X59366707Y-30746343D01*
X59293293Y-31002901D01*
X59187589Y-31281816D01*
X59043506Y-31602922D01*
X58969712Y-31755892D01*
X58540322Y-32540591D01*
X58042515Y-33280526D01*
X57474188Y-33978191D01*
X56833239Y-34636082D01*
X56117567Y-35256693D01*
X55835833Y-35475541D01*
X55125927Y-35969058D01*
X54349218Y-36431124D01*
X53519903Y-36854938D01*
X52652179Y-37233699D01*
X51760243Y-37560605D01*
X51007356Y-37788878D01*
X50790535Y-37847893D01*
X50638149Y-37887151D01*
X50533020Y-37909412D01*
X50457964Y-37917435D01*
X50395802Y-37913979D01*
X50329352Y-37901804D01*
X50318501Y-37899512D01*
X50134100Y-37821066D01*
X49996642Y-37684708D01*
X49916692Y-37508979D01*
X49904817Y-37312419D01*
X49927368Y-37213151D01*
X49974298Y-37102473D01*
X50041895Y-37012750D01*
X50142887Y-36936229D01*
X50290000Y-36865155D01*
X50495960Y-36791774D01*
X50740132Y-36717935D01*
X51748173Y-36392289D01*
X52697268Y-36015618D01*
X53585628Y-35589281D01*
X54411464Y-35114639D01*
X55172988Y-34593050D01*
X55868412Y-34025876D01*
X56495947Y-33414476D01*
X57053804Y-32760209D01*
X57540196Y-32064437D01*
X57953333Y-31328518D01*
X58026746Y-31177201D01*
X58202823Y-30746476D01*
X58304733Y-30353198D01*
X58332337Y-29993715D01*
X58285493Y-29664380D01*
X58164059Y-29361542D01*
X57967896Y-29081553D01*
X57944733Y-29055303D01*
X57639562Y-28775551D01*
X57295540Y-28565377D01*
X56923432Y-28426929D01*
X56534002Y-28362353D01*
X56138016Y-28373796D01*
X55746239Y-28463405D01*
X55494601Y-28566701D01*
X55239872Y-28715326D01*
X55016438Y-28901115D01*
X54813198Y-29136479D01*
X54619052Y-29433828D01*
X54467980Y-29714405D01*
X54235085Y-30146156D01*
X53999157Y-30516154D01*
X53744763Y-30846397D01*
X53456471Y-31158888D01*
X53450575Y-31164786D01*
X52949366Y-31612756D01*
X52378670Y-32027625D01*
X51749312Y-32403094D01*
X51072115Y-32732865D01*
X50357904Y-33010639D01*
X50173244Y-33071729D01*
X49910995Y-33149503D01*
X49710314Y-33192246D01*
X49555586Y-33199734D01*
X49431200Y-33171746D01*
X49321541Y-33108058D01*
X49262961Y-33058753D01*
X49171502Y-32967591D01*
X49124347Y-32887713D01*
X49107001Y-32783900D01*
X49104833Y-32674500D01*
X49109844Y-32531041D01*
X49134056Y-32437422D01*
X49191238Y-32358989D01*
X49254389Y-32298103D01*
X49412934Y-32189201D01*
X49644006Y-32089026D01*
X49770328Y-32046813D01*
X50476317Y-31794751D01*
X51124078Y-31497952D01*
X51710209Y-31158980D01*
X52231310Y-30780396D01*
X52683979Y-30364760D01*
X53064817Y-29914636D01*
X53370423Y-29432585D01*
X53450602Y-29274454D01*
X53714491Y-28786554D01*
X54005075Y-28374842D01*
X54327395Y-28033653D01*
X54686492Y-27757325D01*
X54924245Y-27618980D01*
X55311626Y-27444986D01*
X55694562Y-27333831D01*
X56102077Y-27278574D01*
X56386167Y-27269337D01*
X56911614Y-27305074D01*
G36*
X58864310Y-34746068D02*
G01*
X58991701Y-34806792D01*
X59118270Y-34920443D01*
X59257132Y-35097350D01*
X59331661Y-35207243D01*
X59597363Y-35568048D01*
X59907227Y-35904971D01*
X60266930Y-36221712D01*
X60682151Y-36521969D01*
X61158567Y-36809444D01*
X61701856Y-37087836D01*
X62317696Y-37360845D01*
X63011765Y-37632171D01*
X63106128Y-37666817D01*
X63305948Y-37774538D01*
X63440208Y-37921722D01*
X63503515Y-38096929D01*
X63490477Y-38288719D01*
X63449616Y-38395510D01*
X63346181Y-38559748D01*
X63222057Y-38664759D01*
X63066336Y-38712908D01*
X62868110Y-38706558D01*
X62616470Y-38648072D01*
X62482167Y-38605125D01*
X61717376Y-38315965D01*
X61006622Y-37987385D01*
X60355218Y-37622727D01*
X59768483Y-37225330D01*
X59251730Y-36798533D01*
X58810277Y-36345676D01*
X58725758Y-36245286D01*
X58496674Y-35951476D01*
X58330368Y-35704930D01*
X58223601Y-35499906D01*
X58173132Y-35330659D01*
X58168018Y-35256661D01*
X58209986Y-35047573D01*
X58318660Y-34883121D01*
X58483445Y-34773399D01*
X58693748Y-34728497D01*
X58722981Y-34727945D01*
X58864310Y-34746068D01*
X58864310Y-34746068D01*
G37*
X58864310Y-34746068D02*
X58991701Y-34806792D01*
X59118270Y-34920443D01*
X59257132Y-35097350D01*
X59331661Y-35207243D01*
X59597363Y-35568048D01*
X59907227Y-35904971D01*
X60266930Y-36221712D01*
X60682151Y-36521969D01*
X61158567Y-36809444D01*
X61701856Y-37087836D01*
X62317696Y-37360845D01*
X63011765Y-37632171D01*
X63106128Y-37666817D01*
X63305948Y-37774538D01*
X63440208Y-37921722D01*
X63503515Y-38096929D01*
X63490477Y-38288719D01*
X63449616Y-38395510D01*
X63346181Y-38559748D01*
X63222057Y-38664759D01*
X63066336Y-38712908D01*
X62868110Y-38706558D01*
X62616470Y-38648072D01*
X62482167Y-38605125D01*
X61717376Y-38315965D01*
X61006622Y-37987385D01*
X60355218Y-37622727D01*
X59768483Y-37225330D01*
X59251730Y-36798533D01*
X58810277Y-36345676D01*
X58725758Y-36245286D01*
X58496674Y-35951476D01*
X58330368Y-35704930D01*
X58223601Y-35499906D01*
X58173132Y-35330659D01*
X58168018Y-35256661D01*
X58209986Y-35047573D01*
X58318660Y-34883121D01*
X58483445Y-34773399D01*
X58693748Y-34728497D01*
X58722981Y-34727945D01*
X58864310Y-34746068D01*
G36*
X57026001Y-36724022D02*
G01*
X57147707Y-36748494D01*
X57275433Y-36797358D01*
X57422077Y-36877222D01*
X57600535Y-36994695D01*
X57823705Y-37156385D01*
X57972110Y-37268021D01*
X58192299Y-37431591D01*
X58432759Y-37604618D01*
X58664704Y-37766686D01*
X58859347Y-37897384D01*
X58862667Y-37899540D01*
X59124774Y-38059266D01*
X59449535Y-38240502D01*
X59820329Y-38435027D01*
X60220533Y-38634623D01*
X60633525Y-38831070D01*
X61042685Y-39016150D01*
X61431389Y-39181642D01*
X61562590Y-39234633D01*
X61811049Y-39336650D01*
X62033027Y-39434074D01*
X62214649Y-39520371D01*
X62342040Y-39589002D01*
X62395987Y-39627200D01*
X62504729Y-39790517D01*
X62542339Y-39977431D01*
X62509978Y-40167463D01*
X62408806Y-40340138D01*
X62352382Y-40397099D01*
X62262829Y-40465617D01*
X62169780Y-40509622D01*
X62062483Y-40527509D01*
X61930187Y-40517674D01*
X61762142Y-40478514D01*
X61547598Y-40408422D01*
X61275802Y-40305796D01*
X61000500Y-40195357D01*
X60266953Y-39882880D01*
X59597921Y-39567601D01*
X58973600Y-39239061D01*
X58374185Y-38886799D01*
X57779870Y-38500356D01*
X57740833Y-38473729D01*
X57494497Y-38306688D01*
X57304520Y-38182617D01*
X57158389Y-38095247D01*
X57043587Y-38038305D01*
X56947602Y-38005523D01*
X56857916Y-37990628D01*
X56770095Y-37987333D01*
X56669227Y-37995734D01*
X56557361Y-38025305D01*
X56417380Y-38082602D01*
X56232165Y-38174180D01*
X56101243Y-38243451D01*
X55321332Y-38646048D01*
X54568711Y-38999724D01*
X53813087Y-39317627D01*
X53024168Y-39612904D01*
X52643700Y-39744095D01*
X52275424Y-39866806D01*
X51977355Y-39961938D01*
X51739996Y-40030476D01*
X51553850Y-40073401D01*
X51409420Y-40091698D01*
X51297208Y-40086349D01*
X51207719Y-40058337D01*
X51131455Y-40008646D01*
X51058919Y-39938259D01*
X51034234Y-39910715D01*
X50950769Y-39798995D01*
X50912600Y-39688323D01*
X50904000Y-39547960D01*
X50911649Y-39421908D01*
X50940667Y-39317084D01*
X51000160Y-39227064D01*
X51099236Y-39145425D01*
X51247000Y-39065740D01*
X51452558Y-38981585D01*
X51725018Y-38886536D01*
X51941167Y-38816233D01*
X52921669Y-38478850D01*
X53843144Y-38111221D01*
X54728795Y-37703262D01*
X55601826Y-37244888D01*
X55755272Y-37158606D01*
X56046959Y-36997418D01*
X56282646Y-36878528D01*
X56476289Y-36796544D01*
X56641846Y-36746074D01*
X56793272Y-36721724D01*
X56897420Y-36717333D01*
X57026001Y-36724022D01*
X57026001Y-36724022D01*
G37*
X57026001Y-36724022D02*
X57147707Y-36748494D01*
X57275433Y-36797358D01*
X57422077Y-36877222D01*
X57600535Y-36994695D01*
X57823705Y-37156385D01*
X57972110Y-37268021D01*
X58192299Y-37431591D01*
X58432759Y-37604618D01*
X58664704Y-37766686D01*
X58859347Y-37897384D01*
X58862667Y-37899540D01*
X59124774Y-38059266D01*
X59449535Y-38240502D01*
X59820329Y-38435027D01*
X60220533Y-38634623D01*
X60633525Y-38831070D01*
X61042685Y-39016150D01*
X61431389Y-39181642D01*
X61562590Y-39234633D01*
X61811049Y-39336650D01*
X62033027Y-39434074D01*
X62214649Y-39520371D01*
X62342040Y-39589002D01*
X62395987Y-39627200D01*
X62504729Y-39790517D01*
X62542339Y-39977431D01*
X62509978Y-40167463D01*
X62408806Y-40340138D01*
X62352382Y-40397099D01*
X62262829Y-40465617D01*
X62169780Y-40509622D01*
X62062483Y-40527509D01*
X61930187Y-40517674D01*
X61762142Y-40478514D01*
X61547598Y-40408422D01*
X61275802Y-40305796D01*
X61000500Y-40195357D01*
X60266953Y-39882880D01*
X59597921Y-39567601D01*
X58973600Y-39239061D01*
X58374185Y-38886799D01*
X57779870Y-38500356D01*
X57740833Y-38473729D01*
X57494497Y-38306688D01*
X57304520Y-38182617D01*
X57158389Y-38095247D01*
X57043587Y-38038305D01*
X56947602Y-38005523D01*
X56857916Y-37990628D01*
X56770095Y-37987333D01*
X56669227Y-37995734D01*
X56557361Y-38025305D01*
X56417380Y-38082602D01*
X56232165Y-38174180D01*
X56101243Y-38243451D01*
X55321332Y-38646048D01*
X54568711Y-38999724D01*
X53813087Y-39317627D01*
X53024168Y-39612904D01*
X52643700Y-39744095D01*
X52275424Y-39866806D01*
X51977355Y-39961938D01*
X51739996Y-40030476D01*
X51553850Y-40073401D01*
X51409420Y-40091698D01*
X51297208Y-40086349D01*
X51207719Y-40058337D01*
X51131455Y-40008646D01*
X51058919Y-39938259D01*
X51034234Y-39910715D01*
X50950769Y-39798995D01*
X50912600Y-39688323D01*
X50904000Y-39547960D01*
X50911649Y-39421908D01*
X50940667Y-39317084D01*
X51000160Y-39227064D01*
X51099236Y-39145425D01*
X51247000Y-39065740D01*
X51452558Y-38981585D01*
X51725018Y-38886536D01*
X51941167Y-38816233D01*
X52921669Y-38478850D01*
X53843144Y-38111221D01*
X54728795Y-37703262D01*
X55601826Y-37244888D01*
X55755272Y-37158606D01*
X56046959Y-36997418D01*
X56282646Y-36878528D01*
X56476289Y-36796544D01*
X56641846Y-36746074D01*
X56793272Y-36721724D01*
X56897420Y-36717333D01*
X57026001Y-36724022D01*
G36*
X56835445Y-39373417D02*
G01*
X56965095Y-39404079D01*
X57091057Y-39447389D01*
X57275973Y-39525853D01*
X57505243Y-39632688D01*
X57764270Y-39761111D01*
X58016362Y-39892526D01*
X58602441Y-40199332D01*
X59141482Y-40468380D01*
X59655842Y-40710420D01*
X60167876Y-40936203D01*
X60323167Y-41001869D01*
X60563498Y-41104839D01*
X60738226Y-41186919D01*
X60861042Y-41256906D01*
X60945634Y-41323595D01*
X61005692Y-41395782D01*
X61047167Y-41467048D01*
X61099457Y-41653402D01*
X61079638Y-41846098D01*
X60995156Y-42022517D01*
X60853461Y-42160038D01*
X60810660Y-42185326D01*
X60679762Y-42239785D01*
X60552267Y-42253916D01*
X60403514Y-42226317D01*
X60208838Y-42155584D01*
X60196167Y-42150356D01*
X59639237Y-41911074D01*
X59050595Y-41641218D01*
X58416379Y-41334296D01*
X57917211Y-41083391D01*
X57621704Y-40933113D01*
X57390397Y-40817026D01*
X57212119Y-40730742D01*
X57075703Y-40669877D01*
X56969979Y-40630045D01*
X56883778Y-40606860D01*
X56805930Y-40595938D01*
X56725267Y-40592892D01*
X56668377Y-40593040D01*
X56536098Y-40597712D01*
X56423304Y-40614129D01*
X56307152Y-40649400D01*
X56164797Y-40710634D01*
X55973397Y-40804942D01*
X55951002Y-40816302D01*
X55657183Y-40961224D01*
X55335288Y-41112452D01*
X54995837Y-41265707D01*
X54649351Y-41416711D01*
X54306350Y-41561184D01*
X53977354Y-41694849D01*
X53672883Y-41813425D01*
X53403457Y-41912634D01*
X53179596Y-41988198D01*
X53011821Y-42035837D01*
X52914483Y-42051333D01*
X52732527Y-42012093D01*
X52573180Y-41906397D01*
X52453634Y-41752284D01*
X52391082Y-41567790D01*
X52385825Y-41496677D01*
X52410751Y-41326345D01*
X52491704Y-41184609D01*
X52637362Y-41062360D01*
X52856404Y-40950488D01*
X52937347Y-40917734D01*
X53137807Y-40840038D01*
X53378938Y-40746429D01*
X53622525Y-40651749D01*
X53740333Y-40605906D01*
X53905420Y-40537857D01*
X54129627Y-40439969D01*
X54396150Y-40319875D01*
X54688187Y-40185207D01*
X54988934Y-40043597D01*
X55179667Y-39952150D01*
X55463417Y-39817391D01*
X55736953Y-39691819D01*
X55986536Y-39581409D01*
X56198430Y-39492139D01*
X56358896Y-39429983D01*
X56439083Y-39404281D01*
X56595847Y-39368673D01*
X56713933Y-39358391D01*
X56835445Y-39373417D01*
X56835445Y-39373417D01*
G37*
X56835445Y-39373417D02*
X56965095Y-39404079D01*
X57091057Y-39447389D01*
X57275973Y-39525853D01*
X57505243Y-39632688D01*
X57764270Y-39761111D01*
X58016362Y-39892526D01*
X58602441Y-40199332D01*
X59141482Y-40468380D01*
X59655842Y-40710420D01*
X60167876Y-40936203D01*
X60323167Y-41001869D01*
X60563498Y-41104839D01*
X60738226Y-41186919D01*
X60861042Y-41256906D01*
X60945634Y-41323595D01*
X61005692Y-41395782D01*
X61047167Y-41467048D01*
X61099457Y-41653402D01*
X61079638Y-41846098D01*
X60995156Y-42022517D01*
X60853461Y-42160038D01*
X60810660Y-42185326D01*
X60679762Y-42239785D01*
X60552267Y-42253916D01*
X60403514Y-42226317D01*
X60208838Y-42155584D01*
X60196167Y-42150356D01*
X59639237Y-41911074D01*
X59050595Y-41641218D01*
X58416379Y-41334296D01*
X57917211Y-41083391D01*
X57621704Y-40933113D01*
X57390397Y-40817026D01*
X57212119Y-40730742D01*
X57075703Y-40669877D01*
X56969979Y-40630045D01*
X56883778Y-40606860D01*
X56805930Y-40595938D01*
X56725267Y-40592892D01*
X56668377Y-40593040D01*
X56536098Y-40597712D01*
X56423304Y-40614129D01*
X56307152Y-40649400D01*
X56164797Y-40710634D01*
X55973397Y-40804942D01*
X55951002Y-40816302D01*
X55657183Y-40961224D01*
X55335288Y-41112452D01*
X54995837Y-41265707D01*
X54649351Y-41416711D01*
X54306350Y-41561184D01*
X53977354Y-41694849D01*
X53672883Y-41813425D01*
X53403457Y-41912634D01*
X53179596Y-41988198D01*
X53011821Y-42035837D01*
X52914483Y-42051333D01*
X52732527Y-42012093D01*
X52573180Y-41906397D01*
X52453634Y-41752284D01*
X52391082Y-41567790D01*
X52385825Y-41496677D01*
X52410751Y-41326345D01*
X52491704Y-41184609D01*
X52637362Y-41062360D01*
X52856404Y-40950488D01*
X52937347Y-40917734D01*
X53137807Y-40840038D01*
X53378938Y-40746429D01*
X53622525Y-40651749D01*
X53740333Y-40605906D01*
X53905420Y-40537857D01*
X54129627Y-40439969D01*
X54396150Y-40319875D01*
X54688187Y-40185207D01*
X54988934Y-40043597D01*
X55179667Y-39952150D01*
X55463417Y-39817391D01*
X55736953Y-39691819D01*
X55986536Y-39581409D01*
X56198430Y-39492139D01*
X56358896Y-39429983D01*
X56439083Y-39404281D01*
X56595847Y-39368673D01*
X56713933Y-39358391D01*
X56835445Y-39373417D01*
G36*
X56790528Y-41874909D02*
G01*
X56890846Y-41885575D01*
X56999903Y-41909029D01*
X57130303Y-41949375D01*
X57294655Y-42010716D01*
X57505562Y-42097153D01*
X57775633Y-42212791D01*
X57910167Y-42271241D01*
X58216087Y-42408556D01*
X58450789Y-42525164D01*
X58623033Y-42628134D01*
X58741579Y-42724537D01*
X58815190Y-42821441D01*
X58852627Y-42925916D01*
X58862667Y-43039836D01*
X58824502Y-43243812D01*
X58711753Y-43408874D01*
X58564698Y-43512679D01*
X58451772Y-43557589D01*
X58330873Y-43573208D01*
X58188440Y-43556889D01*
X58010916Y-43505981D01*
X57784740Y-43417835D01*
X57550333Y-43314488D01*
X57265948Y-43188828D01*
X57037481Y-43101941D01*
X56845605Y-43053781D01*
X56670993Y-43044305D01*
X56494320Y-43073468D01*
X56296259Y-43141226D01*
X56057483Y-43247534D01*
X55925806Y-43310750D01*
X55648646Y-43439144D01*
X55430052Y-43524233D01*
X55257277Y-43568354D01*
X55117576Y-43573844D01*
X54998202Y-43543041D01*
X54912752Y-43496479D01*
X54754813Y-43355745D01*
X54673110Y-43187018D01*
X54657555Y-43048799D01*
X54665598Y-42926979D01*
X54696277Y-42824645D01*
X54759417Y-42732771D01*
X54864845Y-42642334D01*
X55022386Y-42544309D01*
X55241865Y-42429672D01*
X55432248Y-42337268D01*
X55740553Y-42191316D01*
X55984838Y-42079105D01*
X56176721Y-41996336D01*
X56327820Y-41938705D01*
X56449753Y-41901912D01*
X56554137Y-41881654D01*
X56652591Y-41873631D01*
X56686343Y-41872929D01*
X56790528Y-41874909D01*
X56790528Y-41874909D01*
G37*
X56790528Y-41874909D02*
X56890846Y-41885575D01*
X56999903Y-41909029D01*
X57130303Y-41949375D01*
X57294655Y-42010716D01*
X57505562Y-42097153D01*
X57775633Y-42212791D01*
X57910167Y-42271241D01*
X58216087Y-42408556D01*
X58450789Y-42525164D01*
X58623033Y-42628134D01*
X58741579Y-42724537D01*
X58815190Y-42821441D01*
X58852627Y-42925916D01*
X58862667Y-43039836D01*
X58824502Y-43243812D01*
X58711753Y-43408874D01*
X58564698Y-43512679D01*
X58451772Y-43557589D01*
X58330873Y-43573208D01*
X58188440Y-43556889D01*
X58010916Y-43505981D01*
X57784740Y-43417835D01*
X57550333Y-43314488D01*
X57265948Y-43188828D01*
X57037481Y-43101941D01*
X56845605Y-43053781D01*
X56670993Y-43044305D01*
X56494320Y-43073468D01*
X56296259Y-43141226D01*
X56057483Y-43247534D01*
X55925806Y-43310750D01*
X55648646Y-43439144D01*
X55430052Y-43524233D01*
X55257277Y-43568354D01*
X55117576Y-43573844D01*
X54998202Y-43543041D01*
X54912752Y-43496479D01*
X54754813Y-43355745D01*
X54673110Y-43187018D01*
X54657555Y-43048799D01*
X54665598Y-42926979D01*
X54696277Y-42824645D01*
X54759417Y-42732771D01*
X54864845Y-42642334D01*
X55022386Y-42544309D01*
X55241865Y-42429672D01*
X55432248Y-42337268D01*
X55740553Y-42191316D01*
X55984838Y-42079105D01*
X56176721Y-41996336D01*
X56327820Y-41938705D01*
X56449753Y-41901912D01*
X56554137Y-41881654D01*
X56652591Y-41873631D01*
X56686343Y-41872929D01*
X56790528Y-41874909D01*
D11*
G36*
X24401000Y-57521000D02*
G01*
X22599000Y-57521000D01*
X22599000Y-55719000D01*
X24401000Y-55719000D01*
X24401000Y-57521000D01*
X24401000Y-57521000D01*
G37*
G36*
X62275562Y-54228181D02*
G01*
X62310481Y-54238774D01*
X62342663Y-54255976D01*
X62370873Y-54279127D01*
X62394024Y-54307337D01*
X62411226Y-54339519D01*
X62421819Y-54374438D01*
X62426000Y-54416895D01*
X62426000Y-55558105D01*
X62421819Y-55600562D01*
X62411226Y-55635481D01*
X62394024Y-55667663D01*
X62370873Y-55695873D01*
X62342663Y-55719024D01*
X62310481Y-55736226D01*
X62275562Y-55746819D01*
X62233105Y-55751000D01*
X60766895Y-55751000D01*
X60724438Y-55746819D01*
X60689519Y-55736226D01*
X60657337Y-55719024D01*
X60629127Y-55695873D01*
X60605976Y-55667663D01*
X60588774Y-55635481D01*
X60578181Y-55600562D01*
X60574000Y-55558105D01*
X60574000Y-54416895D01*
X60578181Y-54374438D01*
X60588774Y-54339519D01*
X60605976Y-54307337D01*
X60629127Y-54279127D01*
X60657337Y-54255976D01*
X60689519Y-54238774D01*
X60724438Y-54228181D01*
X60766895Y-54224000D01*
X62233105Y-54224000D01*
X62275562Y-54228181D01*
X62275562Y-54228181D01*
G37*
G36*
X52275562Y-54228181D02*
G01*
X52310481Y-54238774D01*
X52342663Y-54255976D01*
X52370873Y-54279127D01*
X52394024Y-54307337D01*
X52411226Y-54339519D01*
X52421819Y-54374438D01*
X52426000Y-54416895D01*
X52426000Y-55558105D01*
X52421819Y-55600562D01*
X52411226Y-55635481D01*
X52394024Y-55667663D01*
X52370873Y-55695873D01*
X52342663Y-55719024D01*
X52310481Y-55736226D01*
X52275562Y-55746819D01*
X52233105Y-55751000D01*
X50766895Y-55751000D01*
X50724438Y-55746819D01*
X50689519Y-55736226D01*
X50657337Y-55719024D01*
X50629127Y-55695873D01*
X50605976Y-55667663D01*
X50588774Y-55635481D01*
X50578181Y-55600562D01*
X50574000Y-55558105D01*
X50574000Y-54416895D01*
X50578181Y-54374438D01*
X50588774Y-54339519D01*
X50605976Y-54307337D01*
X50629127Y-54279127D01*
X50657337Y-54255976D01*
X50689519Y-54238774D01*
X50724438Y-54228181D01*
X50766895Y-54224000D01*
X52233105Y-54224000D01*
X52275562Y-54228181D01*
X52275562Y-54228181D01*
G37*
G36*
X58826000Y-55681000D02*
G01*
X56174000Y-55681000D01*
X56174000Y-54019000D01*
X58826000Y-54019000D01*
X58826000Y-55681000D01*
X58826000Y-55681000D01*
G37*
G36*
X74262199Y-52799954D02*
G01*
X74274450Y-52800556D01*
X74292869Y-52800556D01*
X74315149Y-52802750D01*
X74399233Y-52819476D01*
X74420660Y-52825976D01*
X74499858Y-52858780D01*
X74505303Y-52861691D01*
X74505309Y-52861693D01*
X74514169Y-52866429D01*
X74514173Y-52866432D01*
X74519614Y-52869340D01*
X74590899Y-52916971D01*
X74608204Y-52931172D01*
X74668828Y-52991796D01*
X74683029Y-53009101D01*
X74730660Y-53080386D01*
X74733568Y-53085827D01*
X74733571Y-53085831D01*
X74738307Y-53094691D01*
X74738309Y-53094697D01*
X74741220Y-53100142D01*
X74774024Y-53179340D01*
X74780524Y-53200767D01*
X74797250Y-53284851D01*
X74799444Y-53307131D01*
X74799444Y-53325550D01*
X74800046Y-53337801D01*
X74801852Y-53356139D01*
X74801852Y-53843860D01*
X74800263Y-53859999D01*
X74797348Y-53869608D01*
X74792610Y-53878472D01*
X74786237Y-53886237D01*
X74773794Y-53896448D01*
X74763425Y-53903378D01*
X74746098Y-53920705D01*
X74732485Y-53941080D01*
X74723109Y-53963720D01*
X74718329Y-53987753D01*
X74718330Y-54012257D01*
X74723112Y-54036290D01*
X74732490Y-54058929D01*
X74746105Y-54079302D01*
X74763432Y-54096629D01*
X74773802Y-54103558D01*
X74786237Y-54113763D01*
X74792610Y-54121528D01*
X74797348Y-54130392D01*
X74800263Y-54140001D01*
X74801852Y-54156140D01*
X74801852Y-54643862D01*
X74800046Y-54662199D01*
X74799444Y-54674450D01*
X74799444Y-54692869D01*
X74797250Y-54715149D01*
X74780524Y-54799233D01*
X74774024Y-54820660D01*
X74741220Y-54899858D01*
X74738309Y-54905303D01*
X74738307Y-54905309D01*
X74733571Y-54914169D01*
X74733568Y-54914173D01*
X74730660Y-54919614D01*
X74683029Y-54990899D01*
X74668828Y-55008204D01*
X74608204Y-55068828D01*
X74590899Y-55083029D01*
X74519614Y-55130660D01*
X74514173Y-55133568D01*
X74514169Y-55133571D01*
X74505309Y-55138307D01*
X74505303Y-55138309D01*
X74499858Y-55141220D01*
X74420660Y-55174024D01*
X74399233Y-55180524D01*
X74315149Y-55197250D01*
X74292869Y-55199444D01*
X74274450Y-55199444D01*
X74262199Y-55200046D01*
X74243862Y-55201852D01*
X73756138Y-55201852D01*
X73737801Y-55200046D01*
X73725550Y-55199444D01*
X73707131Y-55199444D01*
X73684851Y-55197250D01*
X73600767Y-55180524D01*
X73579340Y-55174024D01*
X73500142Y-55141220D01*
X73494697Y-55138309D01*
X73494691Y-55138307D01*
X73485831Y-55133571D01*
X73485827Y-55133568D01*
X73480386Y-55130660D01*
X73409101Y-55083029D01*
X73391796Y-55068828D01*
X73331172Y-55008204D01*
X73316971Y-54990899D01*
X73269340Y-54919614D01*
X73266432Y-54914173D01*
X73266429Y-54914169D01*
X73261693Y-54905309D01*
X73261691Y-54905303D01*
X73258780Y-54899858D01*
X73225976Y-54820660D01*
X73219476Y-54799233D01*
X73202750Y-54715149D01*
X73200556Y-54692869D01*
X73200556Y-54674450D01*
X73199954Y-54662199D01*
X73198148Y-54643862D01*
X73198148Y-54156140D01*
X73199737Y-54140001D01*
X73202652Y-54130392D01*
X73207390Y-54121528D01*
X73213763Y-54113763D01*
X73226206Y-54103552D01*
X73236575Y-54096622D01*
X73253902Y-54079295D01*
X73267515Y-54058920D01*
X73276891Y-54036280D01*
X73281671Y-54012247D01*
X73281670Y-53987743D01*
X73276888Y-53963710D01*
X73267510Y-53941071D01*
X73253895Y-53920698D01*
X73236568Y-53903371D01*
X73226198Y-53896442D01*
X73213763Y-53886237D01*
X73207390Y-53878472D01*
X73202652Y-53869608D01*
X73199737Y-53859999D01*
X73198148Y-53843860D01*
X73198148Y-53356139D01*
X73199954Y-53337801D01*
X73200556Y-53325550D01*
X73200556Y-53307131D01*
X73202750Y-53284851D01*
X73219476Y-53200767D01*
X73225976Y-53179340D01*
X73258780Y-53100142D01*
X73261691Y-53094697D01*
X73261693Y-53094691D01*
X73266429Y-53085831D01*
X73266432Y-53085827D01*
X73269340Y-53080386D01*
X73316971Y-53009101D01*
X73331172Y-52991796D01*
X73391796Y-52931172D01*
X73409101Y-52916971D01*
X73480386Y-52869340D01*
X73485827Y-52866432D01*
X73485831Y-52866429D01*
X73494691Y-52861693D01*
X73494697Y-52861691D01*
X73500142Y-52858780D01*
X73579340Y-52825976D01*
X73600767Y-52819476D01*
X73684851Y-52802750D01*
X73707131Y-52800556D01*
X73725550Y-52800556D01*
X73737801Y-52799954D01*
X73756139Y-52798148D01*
X74243861Y-52798148D01*
X74262199Y-52799954D01*
X74262199Y-52799954D01*
G37*
G36*
X68762199Y-52799954D02*
G01*
X68774450Y-52800556D01*
X68792869Y-52800556D01*
X68815149Y-52802750D01*
X68899233Y-52819476D01*
X68920660Y-52825976D01*
X68999858Y-52858780D01*
X69005303Y-52861691D01*
X69005309Y-52861693D01*
X69014169Y-52866429D01*
X69014173Y-52866432D01*
X69019614Y-52869340D01*
X69090899Y-52916971D01*
X69108204Y-52931172D01*
X69168828Y-52991796D01*
X69183029Y-53009101D01*
X69230660Y-53080386D01*
X69233568Y-53085827D01*
X69233571Y-53085831D01*
X69238307Y-53094691D01*
X69238309Y-53094697D01*
X69241220Y-53100142D01*
X69274024Y-53179340D01*
X69280524Y-53200767D01*
X69297250Y-53284851D01*
X69299444Y-53307131D01*
X69299444Y-53325550D01*
X69300046Y-53337801D01*
X69301852Y-53356139D01*
X69301852Y-53843860D01*
X69300263Y-53859999D01*
X69297348Y-53869608D01*
X69292610Y-53878472D01*
X69286237Y-53886237D01*
X69273794Y-53896448D01*
X69263425Y-53903378D01*
X69246098Y-53920705D01*
X69232485Y-53941080D01*
X69223109Y-53963720D01*
X69218329Y-53987753D01*
X69218330Y-54012257D01*
X69223112Y-54036290D01*
X69232490Y-54058929D01*
X69246105Y-54079302D01*
X69263432Y-54096629D01*
X69273802Y-54103558D01*
X69286237Y-54113763D01*
X69292610Y-54121528D01*
X69297348Y-54130392D01*
X69300263Y-54140001D01*
X69301852Y-54156140D01*
X69301852Y-54643862D01*
X69300046Y-54662199D01*
X69299444Y-54674450D01*
X69299444Y-54692869D01*
X69297250Y-54715149D01*
X69280524Y-54799233D01*
X69274024Y-54820660D01*
X69241220Y-54899858D01*
X69238309Y-54905303D01*
X69238307Y-54905309D01*
X69233571Y-54914169D01*
X69233568Y-54914173D01*
X69230660Y-54919614D01*
X69183029Y-54990899D01*
X69168828Y-55008204D01*
X69108204Y-55068828D01*
X69090899Y-55083029D01*
X69019614Y-55130660D01*
X69014173Y-55133568D01*
X69014169Y-55133571D01*
X69005309Y-55138307D01*
X69005303Y-55138309D01*
X68999858Y-55141220D01*
X68920660Y-55174024D01*
X68899233Y-55180524D01*
X68815149Y-55197250D01*
X68792869Y-55199444D01*
X68774450Y-55199444D01*
X68762199Y-55200046D01*
X68743862Y-55201852D01*
X68256138Y-55201852D01*
X68237801Y-55200046D01*
X68225550Y-55199444D01*
X68207131Y-55199444D01*
X68184851Y-55197250D01*
X68100767Y-55180524D01*
X68079340Y-55174024D01*
X68000142Y-55141220D01*
X67994697Y-55138309D01*
X67994691Y-55138307D01*
X67985831Y-55133571D01*
X67985827Y-55133568D01*
X67980386Y-55130660D01*
X67909101Y-55083029D01*
X67891796Y-55068828D01*
X67831172Y-55008204D01*
X67816971Y-54990899D01*
X67769340Y-54919614D01*
X67766432Y-54914173D01*
X67766429Y-54914169D01*
X67761693Y-54905309D01*
X67761691Y-54905303D01*
X67758780Y-54899858D01*
X67725976Y-54820660D01*
X67719476Y-54799233D01*
X67702750Y-54715149D01*
X67700556Y-54692869D01*
X67700556Y-54674450D01*
X67699954Y-54662199D01*
X67698148Y-54643862D01*
X67698148Y-54156140D01*
X67699737Y-54140001D01*
X67702652Y-54130392D01*
X67707390Y-54121528D01*
X67713763Y-54113763D01*
X67726206Y-54103552D01*
X67736575Y-54096622D01*
X67753902Y-54079295D01*
X67767515Y-54058920D01*
X67776891Y-54036280D01*
X67781671Y-54012247D01*
X67781670Y-53987743D01*
X67776888Y-53963710D01*
X67767510Y-53941071D01*
X67753895Y-53920698D01*
X67736568Y-53903371D01*
X67726198Y-53896442D01*
X67713763Y-53886237D01*
X67707390Y-53878472D01*
X67702652Y-53869608D01*
X67699737Y-53859999D01*
X67698148Y-53843860D01*
X67698148Y-53356139D01*
X67699954Y-53337801D01*
X67700556Y-53325550D01*
X67700556Y-53307131D01*
X67702750Y-53284851D01*
X67719476Y-53200767D01*
X67725976Y-53179340D01*
X67758780Y-53100142D01*
X67761691Y-53094697D01*
X67761693Y-53094691D01*
X67766429Y-53085831D01*
X67766432Y-53085827D01*
X67769340Y-53080386D01*
X67816971Y-53009101D01*
X67831172Y-52991796D01*
X67891796Y-52931172D01*
X67909101Y-52916971D01*
X67980386Y-52869340D01*
X67985827Y-52866432D01*
X67985831Y-52866429D01*
X67994691Y-52861693D01*
X67994697Y-52861691D01*
X68000142Y-52858780D01*
X68079340Y-52825976D01*
X68100767Y-52819476D01*
X68184851Y-52802750D01*
X68207131Y-52800556D01*
X68225550Y-52800556D01*
X68237801Y-52799954D01*
X68256139Y-52798148D01*
X68743861Y-52798148D01*
X68762199Y-52799954D01*
X68762199Y-52799954D01*
G37*
G36*
X23607686Y-53185247D02*
G01*
X23676627Y-53192037D01*
X23846466Y-53243557D01*
X24002991Y-53327222D01*
X24012847Y-53335311D01*
X24140186Y-53439814D01*
X24223448Y-53541271D01*
X24252778Y-53577009D01*
X24336443Y-53733534D01*
X24387963Y-53903373D01*
X24405359Y-54080000D01*
X24387963Y-54256627D01*
X24336443Y-54426466D01*
X24252778Y-54582991D01*
X24223448Y-54618729D01*
X24140186Y-54720186D01*
X24038729Y-54803448D01*
X24002991Y-54832778D01*
X23846466Y-54916443D01*
X23676627Y-54967963D01*
X23610442Y-54974482D01*
X23544260Y-54981000D01*
X23455740Y-54981000D01*
X23389558Y-54974482D01*
X23323373Y-54967963D01*
X23153534Y-54916443D01*
X22997009Y-54832778D01*
X22961271Y-54803448D01*
X22859814Y-54720186D01*
X22776552Y-54618729D01*
X22747222Y-54582991D01*
X22663557Y-54426466D01*
X22612037Y-54256627D01*
X22594641Y-54080000D01*
X22612037Y-53903373D01*
X22663557Y-53733534D01*
X22747222Y-53577009D01*
X22776552Y-53541271D01*
X22859814Y-53439814D01*
X22987153Y-53335311D01*
X22997009Y-53327222D01*
X23153534Y-53243557D01*
X23323373Y-53192037D01*
X23392314Y-53185247D01*
X23455740Y-53179000D01*
X23544260Y-53179000D01*
X23607686Y-53185247D01*
X23607686Y-53185247D01*
G37*
G36*
X58826000Y-52981000D02*
G01*
X56174000Y-52981000D01*
X56174000Y-51319000D01*
X58826000Y-51319000D01*
X58826000Y-52981000D01*
X58826000Y-52981000D01*
G37*
G36*
X52275562Y-51253181D02*
G01*
X52310481Y-51263774D01*
X52342663Y-51280976D01*
X52370873Y-51304127D01*
X52394024Y-51332337D01*
X52411226Y-51364519D01*
X52421819Y-51399438D01*
X52426000Y-51441895D01*
X52426000Y-52583105D01*
X52421819Y-52625562D01*
X52411226Y-52660481D01*
X52394024Y-52692663D01*
X52370873Y-52720873D01*
X52342663Y-52744024D01*
X52310481Y-52761226D01*
X52275562Y-52771819D01*
X52233105Y-52776000D01*
X50766895Y-52776000D01*
X50724438Y-52771819D01*
X50689519Y-52761226D01*
X50657337Y-52744024D01*
X50629127Y-52720873D01*
X50605976Y-52692663D01*
X50588774Y-52660481D01*
X50578181Y-52625562D01*
X50574000Y-52583105D01*
X50574000Y-51441895D01*
X50578181Y-51399438D01*
X50588774Y-51364519D01*
X50605976Y-51332337D01*
X50629127Y-51304127D01*
X50657337Y-51280976D01*
X50689519Y-51263774D01*
X50724438Y-51253181D01*
X50766895Y-51249000D01*
X52233105Y-51249000D01*
X52275562Y-51253181D01*
X52275562Y-51253181D01*
G37*
G36*
X62275562Y-51253181D02*
G01*
X62310481Y-51263774D01*
X62342663Y-51280976D01*
X62370873Y-51304127D01*
X62394024Y-51332337D01*
X62411226Y-51364519D01*
X62421819Y-51399438D01*
X62426000Y-51441895D01*
X62426000Y-52583105D01*
X62421819Y-52625562D01*
X62411226Y-52660481D01*
X62394024Y-52692663D01*
X62370873Y-52720873D01*
X62342663Y-52744024D01*
X62310481Y-52761226D01*
X62275562Y-52771819D01*
X62233105Y-52776000D01*
X60766895Y-52776000D01*
X60724438Y-52771819D01*
X60689519Y-52761226D01*
X60657337Y-52744024D01*
X60629127Y-52720873D01*
X60605976Y-52692663D01*
X60588774Y-52660481D01*
X60578181Y-52625562D01*
X60574000Y-52583105D01*
X60574000Y-51441895D01*
X60578181Y-51399438D01*
X60588774Y-51364519D01*
X60605976Y-51332337D01*
X60629127Y-51304127D01*
X60657337Y-51280976D01*
X60689519Y-51263774D01*
X60724438Y-51253181D01*
X60766895Y-51249000D01*
X62233105Y-51249000D01*
X62275562Y-51253181D01*
X62275562Y-51253181D01*
G37*
G36*
X23610443Y-50645519D02*
G01*
X23676627Y-50652037D01*
X23846466Y-50703557D01*
X24002991Y-50787222D01*
X24038729Y-50816552D01*
X24140186Y-50899814D01*
X24210777Y-50985831D01*
X24252778Y-51037009D01*
X24336443Y-51193534D01*
X24387963Y-51363373D01*
X24405359Y-51540000D01*
X24387963Y-51716627D01*
X24336443Y-51886466D01*
X24336442Y-51886468D01*
X24321323Y-51914753D01*
X24252778Y-52042991D01*
X24223448Y-52078729D01*
X24140186Y-52180186D01*
X24059862Y-52246105D01*
X24002991Y-52292778D01*
X23846466Y-52376443D01*
X23676627Y-52427963D01*
X23610442Y-52434482D01*
X23544260Y-52441000D01*
X23455740Y-52441000D01*
X23389558Y-52434482D01*
X23323373Y-52427963D01*
X23153534Y-52376443D01*
X22997009Y-52292778D01*
X22940138Y-52246105D01*
X22859814Y-52180186D01*
X22776552Y-52078729D01*
X22747222Y-52042991D01*
X22678677Y-51914753D01*
X22663558Y-51886468D01*
X22663557Y-51886466D01*
X22612037Y-51716627D01*
X22594641Y-51540000D01*
X22612037Y-51363373D01*
X22663557Y-51193534D01*
X22747222Y-51037009D01*
X22789223Y-50985831D01*
X22859814Y-50899814D01*
X22961271Y-50816552D01*
X22997009Y-50787222D01*
X23153534Y-50703557D01*
X23323373Y-50652037D01*
X23389558Y-50645518D01*
X23455740Y-50639000D01*
X23544260Y-50639000D01*
X23610443Y-50645519D01*
X23610443Y-50645519D01*
G37*
G36*
X35209999Y-50699737D02*
G01*
X35219608Y-50702652D01*
X35228472Y-50707390D01*
X35236237Y-50713763D01*
X35246448Y-50726206D01*
X35253378Y-50736575D01*
X35270705Y-50753902D01*
X35291080Y-50767515D01*
X35313720Y-50776891D01*
X35337753Y-50781671D01*
X35362257Y-50781670D01*
X35386290Y-50776888D01*
X35408929Y-50767510D01*
X35429302Y-50753895D01*
X35446629Y-50736568D01*
X35453558Y-50726198D01*
X35463763Y-50713763D01*
X35471528Y-50707390D01*
X35480392Y-50702652D01*
X35490001Y-50699737D01*
X35506140Y-50698148D01*
X35993861Y-50698148D01*
X36012199Y-50699954D01*
X36024450Y-50700556D01*
X36042869Y-50700556D01*
X36065149Y-50702750D01*
X36149233Y-50719476D01*
X36170660Y-50725976D01*
X36249858Y-50758780D01*
X36255303Y-50761691D01*
X36255309Y-50761693D01*
X36264169Y-50766429D01*
X36264173Y-50766432D01*
X36269614Y-50769340D01*
X36340899Y-50816971D01*
X36358204Y-50831172D01*
X36418828Y-50891796D01*
X36433029Y-50909101D01*
X36480660Y-50980386D01*
X36483568Y-50985827D01*
X36483571Y-50985831D01*
X36488307Y-50994691D01*
X36488309Y-50994697D01*
X36491220Y-51000142D01*
X36524024Y-51079340D01*
X36530524Y-51100767D01*
X36547250Y-51184851D01*
X36549444Y-51207131D01*
X36549444Y-51225550D01*
X36550046Y-51237801D01*
X36551852Y-51256139D01*
X36551852Y-51743862D01*
X36550046Y-51762199D01*
X36549444Y-51774450D01*
X36549444Y-51792869D01*
X36547250Y-51815149D01*
X36530524Y-51899233D01*
X36524024Y-51920660D01*
X36491220Y-51999858D01*
X36488309Y-52005303D01*
X36488307Y-52005309D01*
X36483571Y-52014169D01*
X36483568Y-52014173D01*
X36480660Y-52019614D01*
X36433029Y-52090899D01*
X36418828Y-52108204D01*
X36358204Y-52168828D01*
X36340899Y-52183029D01*
X36269614Y-52230660D01*
X36264173Y-52233568D01*
X36264169Y-52233571D01*
X36255309Y-52238307D01*
X36255303Y-52238309D01*
X36249858Y-52241220D01*
X36170660Y-52274024D01*
X36149233Y-52280524D01*
X36065149Y-52297250D01*
X36042869Y-52299444D01*
X36024450Y-52299444D01*
X36012199Y-52300046D01*
X35993862Y-52301852D01*
X35506140Y-52301852D01*
X35490001Y-52300263D01*
X35480392Y-52297348D01*
X35471528Y-52292610D01*
X35463763Y-52286237D01*
X35453552Y-52273794D01*
X35446622Y-52263425D01*
X35429295Y-52246098D01*
X35408920Y-52232485D01*
X35386280Y-52223109D01*
X35362247Y-52218329D01*
X35337743Y-52218330D01*
X35313710Y-52223112D01*
X35291071Y-52232490D01*
X35270698Y-52246105D01*
X35253371Y-52263432D01*
X35246442Y-52273802D01*
X35236237Y-52286237D01*
X35228472Y-52292610D01*
X35219608Y-52297348D01*
X35209999Y-52300263D01*
X35193860Y-52301852D01*
X34706138Y-52301852D01*
X34687801Y-52300046D01*
X34675550Y-52299444D01*
X34657131Y-52299444D01*
X34634851Y-52297250D01*
X34550767Y-52280524D01*
X34529340Y-52274024D01*
X34450142Y-52241220D01*
X34444697Y-52238309D01*
X34444691Y-52238307D01*
X34435831Y-52233571D01*
X34435827Y-52233568D01*
X34430386Y-52230660D01*
X34359101Y-52183029D01*
X34341796Y-52168828D01*
X34281172Y-52108204D01*
X34266971Y-52090899D01*
X34219340Y-52019614D01*
X34216432Y-52014173D01*
X34216429Y-52014169D01*
X34211693Y-52005309D01*
X34211691Y-52005303D01*
X34208780Y-51999858D01*
X34175976Y-51920660D01*
X34169476Y-51899233D01*
X34152750Y-51815149D01*
X34150556Y-51792869D01*
X34150556Y-51774450D01*
X34149954Y-51762199D01*
X34148148Y-51743862D01*
X34148148Y-51256139D01*
X34149954Y-51237801D01*
X34150556Y-51225550D01*
X34150556Y-51207131D01*
X34152750Y-51184851D01*
X34169476Y-51100767D01*
X34175976Y-51079340D01*
X34208780Y-51000142D01*
X34211691Y-50994697D01*
X34211693Y-50994691D01*
X34216429Y-50985831D01*
X34216432Y-50985827D01*
X34219340Y-50980386D01*
X34266971Y-50909101D01*
X34281172Y-50891796D01*
X34341796Y-50831172D01*
X34359101Y-50816971D01*
X34430386Y-50769340D01*
X34435827Y-50766432D01*
X34435831Y-50766429D01*
X34444691Y-50761693D01*
X34444697Y-50761691D01*
X34450142Y-50758780D01*
X34529340Y-50725976D01*
X34550767Y-50719476D01*
X34634851Y-50702750D01*
X34657131Y-50700556D01*
X34675550Y-50700556D01*
X34687801Y-50699954D01*
X34706139Y-50698148D01*
X35193860Y-50698148D01*
X35209999Y-50699737D01*
X35209999Y-50699737D01*
G37*
G36*
X23610442Y-48105518D02*
G01*
X23676627Y-48112037D01*
X23846466Y-48163557D01*
X24002991Y-48247222D01*
X24038729Y-48276552D01*
X24140186Y-48359814D01*
X24223448Y-48461271D01*
X24252778Y-48497009D01*
X24336443Y-48653534D01*
X24387963Y-48823373D01*
X24405359Y-49000000D01*
X24387963Y-49176627D01*
X24336443Y-49346466D01*
X24252778Y-49502991D01*
X24223448Y-49538729D01*
X24140186Y-49640186D01*
X24038729Y-49723448D01*
X24002991Y-49752778D01*
X23846466Y-49836443D01*
X23676627Y-49887963D01*
X23610443Y-49894481D01*
X23544260Y-49901000D01*
X23455740Y-49901000D01*
X23389557Y-49894481D01*
X23323373Y-49887963D01*
X23153534Y-49836443D01*
X22997009Y-49752778D01*
X22961271Y-49723448D01*
X22859814Y-49640186D01*
X22776552Y-49538729D01*
X22747222Y-49502991D01*
X22663557Y-49346466D01*
X22612037Y-49176627D01*
X22594641Y-49000000D01*
X22612037Y-48823373D01*
X22663557Y-48653534D01*
X22747222Y-48497009D01*
X22776552Y-48461271D01*
X22859814Y-48359814D01*
X22961271Y-48276552D01*
X22997009Y-48247222D01*
X23153534Y-48163557D01*
X23323373Y-48112037D01*
X23389558Y-48105518D01*
X23455740Y-48099000D01*
X23544260Y-48099000D01*
X23610442Y-48105518D01*
X23610442Y-48105518D01*
G37*
G36*
X41359999Y-45199737D02*
G01*
X41369608Y-45202652D01*
X41378472Y-45207390D01*
X41386237Y-45213763D01*
X41396448Y-45226206D01*
X41403378Y-45236575D01*
X41420705Y-45253902D01*
X41441080Y-45267515D01*
X41463720Y-45276891D01*
X41487753Y-45281671D01*
X41512257Y-45281670D01*
X41536290Y-45276888D01*
X41558929Y-45267510D01*
X41579302Y-45253895D01*
X41596629Y-45236568D01*
X41603558Y-45226198D01*
X41613763Y-45213763D01*
X41621528Y-45207390D01*
X41630392Y-45202652D01*
X41640001Y-45199737D01*
X41656140Y-45198148D01*
X42143861Y-45198148D01*
X42162199Y-45199954D01*
X42174450Y-45200556D01*
X42192869Y-45200556D01*
X42215149Y-45202750D01*
X42299233Y-45219476D01*
X42320660Y-45225976D01*
X42399858Y-45258780D01*
X42405303Y-45261691D01*
X42405309Y-45261693D01*
X42414169Y-45266429D01*
X42414173Y-45266432D01*
X42419614Y-45269340D01*
X42490899Y-45316971D01*
X42508204Y-45331172D01*
X42568828Y-45391796D01*
X42583029Y-45409101D01*
X42630660Y-45480386D01*
X42633568Y-45485827D01*
X42633571Y-45485831D01*
X42638307Y-45494691D01*
X42638309Y-45494697D01*
X42641220Y-45500142D01*
X42674024Y-45579340D01*
X42680524Y-45600767D01*
X42697250Y-45684851D01*
X42699444Y-45707131D01*
X42699444Y-45725550D01*
X42700046Y-45737801D01*
X42701852Y-45756139D01*
X42701852Y-46243862D01*
X42700046Y-46262199D01*
X42699444Y-46274450D01*
X42699444Y-46292869D01*
X42697250Y-46315149D01*
X42680524Y-46399233D01*
X42674024Y-46420660D01*
X42641220Y-46499858D01*
X42638309Y-46505303D01*
X42638307Y-46505309D01*
X42633571Y-46514169D01*
X42633568Y-46514173D01*
X42630660Y-46519614D01*
X42583029Y-46590899D01*
X42568828Y-46608204D01*
X42508204Y-46668828D01*
X42490899Y-46683029D01*
X42419614Y-46730660D01*
X42414173Y-46733568D01*
X42414169Y-46733571D01*
X42405309Y-46738307D01*
X42405303Y-46738309D01*
X42399858Y-46741220D01*
X42320660Y-46774024D01*
X42299233Y-46780524D01*
X42215149Y-46797250D01*
X42192869Y-46799444D01*
X42174450Y-46799444D01*
X42162199Y-46800046D01*
X42143862Y-46801852D01*
X41656140Y-46801852D01*
X41640001Y-46800263D01*
X41630392Y-46797348D01*
X41621528Y-46792610D01*
X41613763Y-46786237D01*
X41603552Y-46773794D01*
X41596622Y-46763425D01*
X41579295Y-46746098D01*
X41558920Y-46732485D01*
X41536280Y-46723109D01*
X41512247Y-46718329D01*
X41487743Y-46718330D01*
X41463710Y-46723112D01*
X41441071Y-46732490D01*
X41420698Y-46746105D01*
X41403371Y-46763432D01*
X41396442Y-46773802D01*
X41386237Y-46786237D01*
X41378472Y-46792610D01*
X41369608Y-46797348D01*
X41359999Y-46800263D01*
X41343860Y-46801852D01*
X40856138Y-46801852D01*
X40837801Y-46800046D01*
X40825550Y-46799444D01*
X40807131Y-46799444D01*
X40784851Y-46797250D01*
X40700767Y-46780524D01*
X40679340Y-46774024D01*
X40600142Y-46741220D01*
X40594697Y-46738309D01*
X40594691Y-46738307D01*
X40585831Y-46733571D01*
X40585827Y-46733568D01*
X40580386Y-46730660D01*
X40509101Y-46683029D01*
X40491796Y-46668828D01*
X40431172Y-46608204D01*
X40416971Y-46590899D01*
X40369340Y-46519614D01*
X40366432Y-46514173D01*
X40366429Y-46514169D01*
X40361693Y-46505309D01*
X40361691Y-46505303D01*
X40358780Y-46499858D01*
X40325976Y-46420660D01*
X40319476Y-46399233D01*
X40302750Y-46315149D01*
X40300556Y-46292869D01*
X40300556Y-46274450D01*
X40299954Y-46262199D01*
X40298148Y-46243862D01*
X40298148Y-45756139D01*
X40299954Y-45737801D01*
X40300556Y-45725550D01*
X40300556Y-45707131D01*
X40302750Y-45684851D01*
X40319476Y-45600767D01*
X40325976Y-45579340D01*
X40358780Y-45500142D01*
X40361691Y-45494697D01*
X40361693Y-45494691D01*
X40366429Y-45485831D01*
X40366432Y-45485827D01*
X40369340Y-45480386D01*
X40416971Y-45409101D01*
X40431172Y-45391796D01*
X40491796Y-45331172D01*
X40509101Y-45316971D01*
X40580386Y-45269340D01*
X40585827Y-45266432D01*
X40585831Y-45266429D01*
X40594691Y-45261693D01*
X40594697Y-45261691D01*
X40600142Y-45258780D01*
X40679340Y-45225976D01*
X40700767Y-45219476D01*
X40784851Y-45202750D01*
X40807131Y-45200556D01*
X40825550Y-45200556D01*
X40837801Y-45199954D01*
X40856139Y-45198148D01*
X41343860Y-45198148D01*
X41359999Y-45199737D01*
X41359999Y-45199737D01*
G37*
G36*
X73359999Y-45199737D02*
G01*
X73369608Y-45202652D01*
X73378472Y-45207390D01*
X73386237Y-45213763D01*
X73396448Y-45226206D01*
X73403378Y-45236575D01*
X73420705Y-45253902D01*
X73441080Y-45267515D01*
X73463720Y-45276891D01*
X73487753Y-45281671D01*
X73512257Y-45281670D01*
X73536290Y-45276888D01*
X73558929Y-45267510D01*
X73579302Y-45253895D01*
X73596629Y-45236568D01*
X73603558Y-45226198D01*
X73613763Y-45213763D01*
X73621528Y-45207390D01*
X73630392Y-45202652D01*
X73640001Y-45199737D01*
X73656140Y-45198148D01*
X74143861Y-45198148D01*
X74162199Y-45199954D01*
X74174450Y-45200556D01*
X74192869Y-45200556D01*
X74215149Y-45202750D01*
X74299233Y-45219476D01*
X74320660Y-45225976D01*
X74399858Y-45258780D01*
X74405303Y-45261691D01*
X74405309Y-45261693D01*
X74414169Y-45266429D01*
X74414173Y-45266432D01*
X74419614Y-45269340D01*
X74490899Y-45316971D01*
X74508204Y-45331172D01*
X74568828Y-45391796D01*
X74583029Y-45409101D01*
X74630660Y-45480386D01*
X74633568Y-45485827D01*
X74633571Y-45485831D01*
X74638307Y-45494691D01*
X74638309Y-45494697D01*
X74641220Y-45500142D01*
X74674024Y-45579340D01*
X74680524Y-45600767D01*
X74697250Y-45684851D01*
X74699444Y-45707131D01*
X74699444Y-45725550D01*
X74700046Y-45737801D01*
X74701852Y-45756139D01*
X74701852Y-46243862D01*
X74700046Y-46262199D01*
X74699444Y-46274450D01*
X74699444Y-46292869D01*
X74697250Y-46315149D01*
X74680524Y-46399233D01*
X74674024Y-46420660D01*
X74641220Y-46499858D01*
X74638309Y-46505303D01*
X74638307Y-46505309D01*
X74633571Y-46514169D01*
X74633568Y-46514173D01*
X74630660Y-46519614D01*
X74583029Y-46590899D01*
X74568828Y-46608204D01*
X74508204Y-46668828D01*
X74490899Y-46683029D01*
X74419614Y-46730660D01*
X74414173Y-46733568D01*
X74414169Y-46733571D01*
X74405309Y-46738307D01*
X74405303Y-46738309D01*
X74399858Y-46741220D01*
X74320660Y-46774024D01*
X74299233Y-46780524D01*
X74215149Y-46797250D01*
X74192869Y-46799444D01*
X74174450Y-46799444D01*
X74162199Y-46800046D01*
X74143862Y-46801852D01*
X73656140Y-46801852D01*
X73640001Y-46800263D01*
X73630392Y-46797348D01*
X73621528Y-46792610D01*
X73613763Y-46786237D01*
X73603552Y-46773794D01*
X73596622Y-46763425D01*
X73579295Y-46746098D01*
X73558920Y-46732485D01*
X73536280Y-46723109D01*
X73512247Y-46718329D01*
X73487743Y-46718330D01*
X73463710Y-46723112D01*
X73441071Y-46732490D01*
X73420698Y-46746105D01*
X73403371Y-46763432D01*
X73396442Y-46773802D01*
X73386237Y-46786237D01*
X73378472Y-46792610D01*
X73369608Y-46797348D01*
X73359999Y-46800263D01*
X73343860Y-46801852D01*
X72856138Y-46801852D01*
X72837801Y-46800046D01*
X72825550Y-46799444D01*
X72807131Y-46799444D01*
X72784851Y-46797250D01*
X72700767Y-46780524D01*
X72679340Y-46774024D01*
X72600142Y-46741220D01*
X72594697Y-46738309D01*
X72594691Y-46738307D01*
X72585831Y-46733571D01*
X72585827Y-46733568D01*
X72580386Y-46730660D01*
X72509101Y-46683029D01*
X72491796Y-46668828D01*
X72431172Y-46608204D01*
X72416971Y-46590899D01*
X72369340Y-46519614D01*
X72366432Y-46514173D01*
X72366429Y-46514169D01*
X72361693Y-46505309D01*
X72361691Y-46505303D01*
X72358780Y-46499858D01*
X72325976Y-46420660D01*
X72319476Y-46399233D01*
X72302750Y-46315149D01*
X72300556Y-46292869D01*
X72300556Y-46274450D01*
X72299954Y-46262199D01*
X72298148Y-46243862D01*
X72298148Y-45756139D01*
X72299954Y-45737801D01*
X72300556Y-45725550D01*
X72300556Y-45707131D01*
X72302750Y-45684851D01*
X72319476Y-45600767D01*
X72325976Y-45579340D01*
X72358780Y-45500142D01*
X72361691Y-45494697D01*
X72361693Y-45494691D01*
X72366429Y-45485831D01*
X72366432Y-45485827D01*
X72369340Y-45480386D01*
X72416971Y-45409101D01*
X72431172Y-45391796D01*
X72491796Y-45331172D01*
X72509101Y-45316971D01*
X72580386Y-45269340D01*
X72585827Y-45266432D01*
X72585831Y-45266429D01*
X72594691Y-45261693D01*
X72594697Y-45261691D01*
X72600142Y-45258780D01*
X72679340Y-45225976D01*
X72700767Y-45219476D01*
X72784851Y-45202750D01*
X72807131Y-45200556D01*
X72825550Y-45200556D01*
X72837801Y-45199954D01*
X72856139Y-45198148D01*
X73343860Y-45198148D01*
X73359999Y-45199737D01*
X73359999Y-45199737D01*
G37*
G36*
X51359999Y-45199737D02*
G01*
X51369608Y-45202652D01*
X51378472Y-45207390D01*
X51386237Y-45213763D01*
X51396448Y-45226206D01*
X51403378Y-45236575D01*
X51420705Y-45253902D01*
X51441080Y-45267515D01*
X51463720Y-45276891D01*
X51487753Y-45281671D01*
X51512257Y-45281670D01*
X51536290Y-45276888D01*
X51558929Y-45267510D01*
X51579302Y-45253895D01*
X51596629Y-45236568D01*
X51603558Y-45226198D01*
X51613763Y-45213763D01*
X51621528Y-45207390D01*
X51630392Y-45202652D01*
X51640001Y-45199737D01*
X51656140Y-45198148D01*
X52143861Y-45198148D01*
X52162199Y-45199954D01*
X52174450Y-45200556D01*
X52192869Y-45200556D01*
X52215149Y-45202750D01*
X52299233Y-45219476D01*
X52320660Y-45225976D01*
X52399858Y-45258780D01*
X52405303Y-45261691D01*
X52405309Y-45261693D01*
X52414169Y-45266429D01*
X52414173Y-45266432D01*
X52419614Y-45269340D01*
X52490899Y-45316971D01*
X52508204Y-45331172D01*
X52568828Y-45391796D01*
X52583029Y-45409101D01*
X52630660Y-45480386D01*
X52633568Y-45485827D01*
X52633571Y-45485831D01*
X52638307Y-45494691D01*
X52638309Y-45494697D01*
X52641220Y-45500142D01*
X52674024Y-45579340D01*
X52680524Y-45600767D01*
X52697250Y-45684851D01*
X52699444Y-45707131D01*
X52699444Y-45725550D01*
X52700046Y-45737801D01*
X52701852Y-45756139D01*
X52701852Y-46243861D01*
X52700046Y-46262199D01*
X52699444Y-46274450D01*
X52699444Y-46292869D01*
X52697250Y-46315149D01*
X52680524Y-46399233D01*
X52674024Y-46420660D01*
X52641220Y-46499858D01*
X52638309Y-46505303D01*
X52638307Y-46505309D01*
X52633571Y-46514169D01*
X52633568Y-46514173D01*
X52630660Y-46519614D01*
X52583029Y-46590899D01*
X52568828Y-46608204D01*
X52508204Y-46668828D01*
X52490899Y-46683029D01*
X52419614Y-46730660D01*
X52414173Y-46733568D01*
X52414169Y-46733571D01*
X52405309Y-46738307D01*
X52405303Y-46738309D01*
X52399858Y-46741220D01*
X52320660Y-46774024D01*
X52299233Y-46780524D01*
X52215149Y-46797250D01*
X52192869Y-46799444D01*
X52174450Y-46799444D01*
X52162199Y-46800046D01*
X52143862Y-46801852D01*
X51656140Y-46801852D01*
X51640001Y-46800263D01*
X51630392Y-46797348D01*
X51621528Y-46792610D01*
X51613763Y-46786237D01*
X51603552Y-46773794D01*
X51596622Y-46763425D01*
X51579295Y-46746098D01*
X51558920Y-46732485D01*
X51536280Y-46723109D01*
X51512247Y-46718329D01*
X51487743Y-46718330D01*
X51463710Y-46723112D01*
X51441071Y-46732490D01*
X51420698Y-46746105D01*
X51403371Y-46763432D01*
X51396442Y-46773802D01*
X51386237Y-46786237D01*
X51378472Y-46792610D01*
X51369608Y-46797348D01*
X51359999Y-46800263D01*
X51343860Y-46801852D01*
X50856138Y-46801852D01*
X50837801Y-46800046D01*
X50825550Y-46799444D01*
X50807131Y-46799444D01*
X50784851Y-46797250D01*
X50700767Y-46780524D01*
X50679340Y-46774024D01*
X50600142Y-46741220D01*
X50594697Y-46738309D01*
X50594691Y-46738307D01*
X50585831Y-46733571D01*
X50585827Y-46733568D01*
X50580386Y-46730660D01*
X50509101Y-46683029D01*
X50491796Y-46668828D01*
X50431172Y-46608204D01*
X50416971Y-46590899D01*
X50369340Y-46519614D01*
X50366432Y-46514173D01*
X50366429Y-46514169D01*
X50361693Y-46505309D01*
X50361691Y-46505303D01*
X50358780Y-46499858D01*
X50325976Y-46420660D01*
X50319476Y-46399233D01*
X50302750Y-46315149D01*
X50300556Y-46292869D01*
X50300556Y-46274450D01*
X50299954Y-46262199D01*
X50298148Y-46243862D01*
X50298148Y-45756138D01*
X50299954Y-45737801D01*
X50300556Y-45725550D01*
X50300556Y-45707131D01*
X50302750Y-45684851D01*
X50319476Y-45600767D01*
X50325976Y-45579340D01*
X50358780Y-45500142D01*
X50361691Y-45494697D01*
X50361693Y-45494691D01*
X50366429Y-45485831D01*
X50366432Y-45485827D01*
X50369340Y-45480386D01*
X50416971Y-45409101D01*
X50431172Y-45391796D01*
X50491796Y-45331172D01*
X50509101Y-45316971D01*
X50580386Y-45269340D01*
X50585827Y-45266432D01*
X50585831Y-45266429D01*
X50594691Y-45261693D01*
X50594697Y-45261691D01*
X50600142Y-45258780D01*
X50679340Y-45225976D01*
X50700767Y-45219476D01*
X50784851Y-45202750D01*
X50807131Y-45200556D01*
X50825550Y-45200556D01*
X50837801Y-45199954D01*
X50856139Y-45198148D01*
X51343860Y-45198148D01*
X51359999Y-45199737D01*
X51359999Y-45199737D01*
G37*
M02*
